M48
;DRILL file {KiCad 4.0.2-4+6225~38~ubuntu14.04.1-stable} date Sat Feb 20 17:04:05 2016
;FORMAT={-:-/ absolute / inch / decimal}
FMAT,2
INCH,TZ
T1C0.016
T2C0.040
T3C0.138
T4C0.312
%
G90
G05
M72
T1
X3.4Y-1.5
X3.825Y-3.25
X3.85Y-1.45
X3.85Y-2.075
X3.85Y-2.65
X4.025Y-1.4
X4.025Y-2.
X4.025Y-2.575
X4.025Y-3.175
X4.15Y-2.9
X4.15Y-3.1
X4.25Y-2.7
X4.35Y-2.5
X4.625Y-2.05
X4.625Y-3.25
X4.65Y-1.45
X4.65Y-2.65
X4.8Y-1.375
X4.8Y-1.975
X4.8Y-2.575
X4.825Y-3.175
X4.95Y-2.8
X4.95Y-3.
X5.05Y-2.6
X5.2Y-2.4
X5.4Y-2.05
X5.425Y-1.45
X5.425Y-2.65
X5.45Y-3.25
X5.6Y-1.375
X5.6Y-1.975
X5.6Y-2.55
X5.6Y-3.175
X5.65Y-1.7
X5.65Y-1.9
X5.7441Y-2.1008
X5.75Y-2.3
X6.2Y-1.45
X6.2Y-2.65
X6.2129Y-2.0559
X6.225Y-3.25
X6.325Y-2.45
X6.375Y-1.4
X6.375Y-1.975
X6.4Y-3.175
X6.45Y-1.8
X6.55Y-2.
X6.6Y-1.6
X6.625Y-2.2
T2
X3.4Y-1.75
X7.Y-1.3
X7.Y-1.4
X7.Y-1.5
X7.Y-1.6
X7.Y-1.7
X7.Y-1.8
X7.Y-1.9
X7.Y-2.
X7.Y-2.1
X7.Y-2.2
X7.Y-2.3
X7.Y-2.4
X7.Y-2.5
X7.Y-2.6
X7.Y-2.7
X7.Y-2.8
X7.Y-2.9
X7.Y-3.
X7.Y-3.1
X7.Y-3.2
X7.6Y-1.5
X7.6Y-1.6
X7.6Y-1.7
X7.6Y-1.8
X7.6Y-1.9
X7.6Y-2.
X7.6Y-2.1
X7.6Y-2.2
X7.6Y-2.3
X7.6Y-2.4
X7.6Y-2.5
X7.6Y-2.6
X7.6Y-2.7
X7.6Y-2.8
X7.6Y-2.9
X7.6Y-3.
X7.6Y-3.1
X7.6Y-3.2
T3
X3.4Y-1.3
X3.4Y-3.3
X7.3Y-1.3
X7.3Y-3.3
T4
X3.4Y-2.3
T0
M30
