G04 #@! TF.FileFunction,Paste,Top*
%FSLAX46Y46*%
G04 Gerber Fmt 4.6, Leading zero omitted, Abs format (unit mm)*
G04 Created by KiCad (PCBNEW 4.0.2-4+6225~38~ubuntu14.04.1-stable) date Sat Feb 20 17:03:59 2016*
%MOMM*%
G01*
G04 APERTURE LIST*
%ADD10C,0.100000*%
%ADD11R,2.400000X1.900000*%
%ADD12R,1.550000X0.600000*%
G04 APERTURE END LIST*
D10*
D11*
X97515000Y-34170000D03*
D12*
X100240000Y-37820000D03*
X100240000Y-36820000D03*
X100240000Y-35820000D03*
D11*
X97515000Y-39470000D03*
X97515000Y-49170000D03*
D12*
X100240000Y-52820000D03*
X100240000Y-51820000D03*
X100240000Y-50820000D03*
D11*
X97515000Y-54470000D03*
X97515000Y-64170000D03*
D12*
X100240000Y-67820000D03*
X100240000Y-66820000D03*
X100240000Y-65820000D03*
D11*
X97515000Y-69470000D03*
X97515000Y-79170000D03*
D12*
X100240000Y-82820000D03*
X100240000Y-81820000D03*
X100240000Y-80820000D03*
D11*
X97515000Y-84470000D03*
X117515000Y-34170000D03*
D12*
X120240000Y-37820000D03*
X120240000Y-36820000D03*
X120240000Y-35820000D03*
D11*
X117515000Y-39470000D03*
X117515000Y-49170000D03*
D12*
X120240000Y-52820000D03*
X120240000Y-51820000D03*
X120240000Y-50820000D03*
D11*
X117515000Y-54470000D03*
X117515000Y-64170000D03*
D12*
X120240000Y-67820000D03*
X120240000Y-66820000D03*
X120240000Y-65820000D03*
D11*
X117515000Y-69470000D03*
X117515000Y-79170000D03*
D12*
X120240000Y-82820000D03*
X120240000Y-81820000D03*
X120240000Y-80820000D03*
D11*
X117515000Y-84470000D03*
X137515000Y-34170000D03*
D12*
X140240000Y-37820000D03*
X140240000Y-36820000D03*
X140240000Y-35820000D03*
D11*
X137515000Y-39470000D03*
X137515000Y-49170000D03*
D12*
X140240000Y-52820000D03*
X140240000Y-51820000D03*
X140240000Y-50820000D03*
D11*
X137515000Y-54470000D03*
X137515000Y-64170000D03*
D12*
X140240000Y-67820000D03*
X140240000Y-66820000D03*
X140240000Y-65820000D03*
D11*
X137515000Y-69470000D03*
X137515000Y-79170000D03*
D12*
X140240000Y-82820000D03*
X140240000Y-81820000D03*
X140240000Y-80820000D03*
D11*
X137515000Y-84470000D03*
X157515000Y-34170000D03*
D12*
X160240000Y-37820000D03*
X160240000Y-36820000D03*
X160240000Y-35820000D03*
D11*
X157515000Y-39470000D03*
X157515000Y-49170000D03*
D12*
X160240000Y-52820000D03*
X160240000Y-51820000D03*
X160240000Y-50820000D03*
D11*
X157515000Y-54470000D03*
X157515000Y-64170000D03*
D12*
X160240000Y-67820000D03*
X160240000Y-66820000D03*
X160240000Y-65820000D03*
D11*
X157515000Y-69470000D03*
X157515000Y-79170000D03*
D12*
X160240000Y-82820000D03*
X160240000Y-81820000D03*
X160240000Y-80820000D03*
D11*
X157515000Y-84470000D03*
M02*
