G04 #@! TF.FileFunction,Copper,L2,Inr,Signal*
%FSLAX46Y46*%
G04 Gerber Fmt 4.6, Leading zero omitted, Abs format (unit mm)*
G04 Created by KiCad (PCBNEW 4.0.2-4+6225~38~ubuntu14.04.1-stable) date Sat Feb 20 17:03:59 2016*
%MOMM*%
G01*
G04 APERTURE LIST*
%ADD10C,0.100000*%
%ADD11C,7.929880*%
%ADD12R,2.032000X1.727200*%
%ADD13O,2.032000X1.727200*%
%ADD14R,2.235200X2.235200*%
%ADD15C,0.600000*%
%ADD16C,0.254000*%
G04 APERTURE END LIST*
D10*
D11*
X86360000Y-58420000D03*
D12*
X177800000Y-81280000D03*
D13*
X177800000Y-78740000D03*
X177800000Y-76200000D03*
X177800000Y-73660000D03*
X177800000Y-71120000D03*
X177800000Y-68580000D03*
X177800000Y-66040000D03*
X177800000Y-63500000D03*
X177800000Y-60960000D03*
X177800000Y-58420000D03*
X177800000Y-55880000D03*
X177800000Y-53340000D03*
X177800000Y-50800000D03*
X177800000Y-48260000D03*
X177800000Y-45720000D03*
X177800000Y-43180000D03*
X177800000Y-40640000D03*
X177800000Y-38100000D03*
X177800000Y-35560000D03*
X177800000Y-33020000D03*
D12*
X193040000Y-81280000D03*
D13*
X193040000Y-78740000D03*
X193040000Y-76200000D03*
X193040000Y-73660000D03*
X193040000Y-71120000D03*
X193040000Y-68580000D03*
X193040000Y-66040000D03*
X193040000Y-63500000D03*
X193040000Y-60960000D03*
X193040000Y-58420000D03*
X193040000Y-55880000D03*
X193040000Y-53340000D03*
X193040000Y-50800000D03*
X193040000Y-48260000D03*
X193040000Y-45720000D03*
X193040000Y-43180000D03*
X193040000Y-40640000D03*
X193040000Y-38100000D03*
D14*
X86360000Y-44450000D03*
D15*
X157806941Y-52219982D03*
X137795000Y-67310000D03*
X137160000Y-52070000D03*
X137795000Y-36830000D03*
X118110000Y-36830000D03*
X117475000Y-52070000D03*
X118110000Y-67310000D03*
X117475000Y-82550000D03*
X97790000Y-36830000D03*
X97790000Y-52705000D03*
X97790000Y-67310000D03*
X97155000Y-82550000D03*
X138430000Y-82550000D03*
X158115000Y-82550000D03*
X157480000Y-67310000D03*
X157480000Y-36830000D03*
X110490000Y-63500000D03*
X142240000Y-64770000D03*
X142240000Y-50165000D03*
X142240000Y-34925000D03*
X121920000Y-34925000D03*
X121920000Y-50165000D03*
X121920000Y-65405000D03*
X122555000Y-80645000D03*
X102235000Y-35560000D03*
X102235000Y-50800000D03*
X102235000Y-65405000D03*
X102235000Y-80645000D03*
X142240000Y-80645000D03*
X162560000Y-80645000D03*
X160655000Y-62230000D03*
X161925000Y-50165000D03*
X161925000Y-35560000D03*
X107950000Y-68580000D03*
X105410000Y-73660000D03*
X105410000Y-78740000D03*
X132080000Y-60960000D03*
X128270000Y-66040000D03*
X125730000Y-71120000D03*
X125730000Y-76200000D03*
X143510000Y-43180000D03*
X143510000Y-48260000D03*
X145900000Y-53360000D03*
X146050000Y-58420000D03*
X167640000Y-40640000D03*
X163830000Y-45720000D03*
X166370000Y-50800000D03*
X168275000Y-55880000D03*
X86360000Y-38100000D03*
D16*
G36*
X200533000Y-86233000D02*
X78867000Y-86233000D01*
X78867000Y-84242022D01*
X84228631Y-84242022D01*
X84552373Y-85025538D01*
X85151309Y-85625521D01*
X85934258Y-85950630D01*
X86782022Y-85951369D01*
X87565538Y-85627627D01*
X88165521Y-85028691D01*
X88490630Y-84245742D01*
X88490633Y-84242022D01*
X183288631Y-84242022D01*
X183612373Y-85025538D01*
X184211309Y-85625521D01*
X184994258Y-85950630D01*
X185842022Y-85951369D01*
X186625538Y-85627627D01*
X187225521Y-85028691D01*
X187550630Y-84245742D01*
X187551369Y-83397978D01*
X187227627Y-82614462D01*
X186628691Y-82014479D01*
X185845742Y-81689370D01*
X184997978Y-81688631D01*
X184214462Y-82012373D01*
X183614479Y-82611309D01*
X183289370Y-83394258D01*
X183288631Y-84242022D01*
X88490633Y-84242022D01*
X88491369Y-83397978D01*
X88167627Y-82614462D01*
X87568691Y-82014479D01*
X86785742Y-81689370D01*
X85937978Y-81688631D01*
X85154462Y-82012373D01*
X84554479Y-82611309D01*
X84229370Y-83394258D01*
X84228631Y-84242022D01*
X78867000Y-84242022D01*
X78867000Y-80779865D01*
X101553882Y-80779865D01*
X101657339Y-81030252D01*
X101848741Y-81221987D01*
X102098946Y-81325882D01*
X102369865Y-81326118D01*
X102620252Y-81222661D01*
X102811987Y-81031259D01*
X102915882Y-80781054D01*
X102915883Y-80779865D01*
X121873882Y-80779865D01*
X121977339Y-81030252D01*
X122168741Y-81221987D01*
X122418946Y-81325882D01*
X122689865Y-81326118D01*
X122940252Y-81222661D01*
X123131987Y-81031259D01*
X123235882Y-80781054D01*
X123235883Y-80779865D01*
X141558882Y-80779865D01*
X141662339Y-81030252D01*
X141853741Y-81221987D01*
X142103946Y-81325882D01*
X142374865Y-81326118D01*
X142625252Y-81222661D01*
X142816987Y-81031259D01*
X142920882Y-80781054D01*
X142920883Y-80779865D01*
X161878882Y-80779865D01*
X161982339Y-81030252D01*
X162173741Y-81221987D01*
X162423946Y-81325882D01*
X162694865Y-81326118D01*
X162945252Y-81222661D01*
X163136987Y-81031259D01*
X163240882Y-80781054D01*
X163241118Y-80510135D01*
X163202388Y-80416400D01*
X176395536Y-80416400D01*
X176395536Y-82143600D01*
X176422103Y-82284790D01*
X176505546Y-82414465D01*
X176632866Y-82501459D01*
X176784000Y-82532064D01*
X178816000Y-82532064D01*
X178957190Y-82505497D01*
X179086865Y-82422054D01*
X179173859Y-82294734D01*
X179204464Y-82143600D01*
X179204464Y-80416400D01*
X191635536Y-80416400D01*
X191635536Y-82143600D01*
X191662103Y-82284790D01*
X191745546Y-82414465D01*
X191872866Y-82501459D01*
X192024000Y-82532064D01*
X194056000Y-82532064D01*
X194197190Y-82505497D01*
X194326865Y-82422054D01*
X194413859Y-82294734D01*
X194444464Y-82143600D01*
X194444464Y-80416400D01*
X194417897Y-80275210D01*
X194334454Y-80145535D01*
X194207134Y-80058541D01*
X194056000Y-80027936D01*
X192024000Y-80027936D01*
X191882810Y-80054503D01*
X191753135Y-80137946D01*
X191666141Y-80265266D01*
X191635536Y-80416400D01*
X179204464Y-80416400D01*
X179177897Y-80275210D01*
X179094454Y-80145535D01*
X178967134Y-80058541D01*
X178816000Y-80027936D01*
X176784000Y-80027936D01*
X176642810Y-80054503D01*
X176513135Y-80137946D01*
X176426141Y-80265266D01*
X176395536Y-80416400D01*
X163202388Y-80416400D01*
X163137661Y-80259748D01*
X162946259Y-80068013D01*
X162696054Y-79964118D01*
X162425135Y-79963882D01*
X162174748Y-80067339D01*
X161983013Y-80258741D01*
X161879118Y-80508946D01*
X161878882Y-80779865D01*
X142920883Y-80779865D01*
X142921118Y-80510135D01*
X142817661Y-80259748D01*
X142626259Y-80068013D01*
X142376054Y-79964118D01*
X142105135Y-79963882D01*
X141854748Y-80067339D01*
X141663013Y-80258741D01*
X141559118Y-80508946D01*
X141558882Y-80779865D01*
X123235883Y-80779865D01*
X123236118Y-80510135D01*
X123132661Y-80259748D01*
X122941259Y-80068013D01*
X122691054Y-79964118D01*
X122420135Y-79963882D01*
X122169748Y-80067339D01*
X121978013Y-80258741D01*
X121874118Y-80508946D01*
X121873882Y-80779865D01*
X102915883Y-80779865D01*
X102916118Y-80510135D01*
X102812661Y-80259748D01*
X102621259Y-80068013D01*
X102371054Y-79964118D01*
X102100135Y-79963882D01*
X101849748Y-80067339D01*
X101658013Y-80258741D01*
X101554118Y-80508946D01*
X101553882Y-80779865D01*
X78867000Y-80779865D01*
X78867000Y-78874865D01*
X104728882Y-78874865D01*
X104832339Y-79125252D01*
X105023741Y-79316987D01*
X105273946Y-79420882D01*
X105544865Y-79421118D01*
X105795252Y-79317661D01*
X105986987Y-79126259D01*
X106090882Y-78876054D01*
X106091000Y-78740000D01*
X176375631Y-78740000D01*
X176470371Y-79216288D01*
X176740166Y-79620065D01*
X177143943Y-79889860D01*
X177620231Y-79984600D01*
X177979769Y-79984600D01*
X178456057Y-79889860D01*
X178859834Y-79620065D01*
X179129629Y-79216288D01*
X179224369Y-78740000D01*
X191615631Y-78740000D01*
X191710371Y-79216288D01*
X191980166Y-79620065D01*
X192383943Y-79889860D01*
X192860231Y-79984600D01*
X193219769Y-79984600D01*
X193696057Y-79889860D01*
X194099834Y-79620065D01*
X194369629Y-79216288D01*
X194464369Y-78740000D01*
X194369629Y-78263712D01*
X194099834Y-77859935D01*
X193696057Y-77590140D01*
X193219769Y-77495400D01*
X192860231Y-77495400D01*
X192383943Y-77590140D01*
X191980166Y-77859935D01*
X191710371Y-78263712D01*
X191615631Y-78740000D01*
X179224369Y-78740000D01*
X179129629Y-78263712D01*
X178859834Y-77859935D01*
X178456057Y-77590140D01*
X177979769Y-77495400D01*
X177620231Y-77495400D01*
X177143943Y-77590140D01*
X176740166Y-77859935D01*
X176470371Y-78263712D01*
X176375631Y-78740000D01*
X106091000Y-78740000D01*
X106091118Y-78605135D01*
X105987661Y-78354748D01*
X105796259Y-78163013D01*
X105546054Y-78059118D01*
X105275135Y-78058882D01*
X105024748Y-78162339D01*
X104833013Y-78353741D01*
X104729118Y-78603946D01*
X104728882Y-78874865D01*
X78867000Y-78874865D01*
X78867000Y-76334865D01*
X125048882Y-76334865D01*
X125152339Y-76585252D01*
X125343741Y-76776987D01*
X125593946Y-76880882D01*
X125864865Y-76881118D01*
X126115252Y-76777661D01*
X126306987Y-76586259D01*
X126410882Y-76336054D01*
X126411000Y-76200000D01*
X176375631Y-76200000D01*
X176470371Y-76676288D01*
X176740166Y-77080065D01*
X177143943Y-77349860D01*
X177620231Y-77444600D01*
X177979769Y-77444600D01*
X178456057Y-77349860D01*
X178859834Y-77080065D01*
X179129629Y-76676288D01*
X179224369Y-76200000D01*
X191615631Y-76200000D01*
X191710371Y-76676288D01*
X191980166Y-77080065D01*
X192383943Y-77349860D01*
X192860231Y-77444600D01*
X193219769Y-77444600D01*
X193696057Y-77349860D01*
X194099834Y-77080065D01*
X194369629Y-76676288D01*
X194464369Y-76200000D01*
X194369629Y-75723712D01*
X194099834Y-75319935D01*
X193696057Y-75050140D01*
X193219769Y-74955400D01*
X192860231Y-74955400D01*
X192383943Y-75050140D01*
X191980166Y-75319935D01*
X191710371Y-75723712D01*
X191615631Y-76200000D01*
X179224369Y-76200000D01*
X179129629Y-75723712D01*
X178859834Y-75319935D01*
X178456057Y-75050140D01*
X177979769Y-74955400D01*
X177620231Y-74955400D01*
X177143943Y-75050140D01*
X176740166Y-75319935D01*
X176470371Y-75723712D01*
X176375631Y-76200000D01*
X126411000Y-76200000D01*
X126411118Y-76065135D01*
X126307661Y-75814748D01*
X126116259Y-75623013D01*
X125866054Y-75519118D01*
X125595135Y-75518882D01*
X125344748Y-75622339D01*
X125153013Y-75813741D01*
X125049118Y-76063946D01*
X125048882Y-76334865D01*
X78867000Y-76334865D01*
X78867000Y-73794865D01*
X104728882Y-73794865D01*
X104832339Y-74045252D01*
X105023741Y-74236987D01*
X105273946Y-74340882D01*
X105544865Y-74341118D01*
X105795252Y-74237661D01*
X105986987Y-74046259D01*
X106090882Y-73796054D01*
X106091000Y-73660000D01*
X176375631Y-73660000D01*
X176470371Y-74136288D01*
X176740166Y-74540065D01*
X177143943Y-74809860D01*
X177620231Y-74904600D01*
X177979769Y-74904600D01*
X178456057Y-74809860D01*
X178859834Y-74540065D01*
X179129629Y-74136288D01*
X179224369Y-73660000D01*
X191615631Y-73660000D01*
X191710371Y-74136288D01*
X191980166Y-74540065D01*
X192383943Y-74809860D01*
X192860231Y-74904600D01*
X193219769Y-74904600D01*
X193696057Y-74809860D01*
X194099834Y-74540065D01*
X194369629Y-74136288D01*
X194464369Y-73660000D01*
X194369629Y-73183712D01*
X194099834Y-72779935D01*
X193696057Y-72510140D01*
X193219769Y-72415400D01*
X192860231Y-72415400D01*
X192383943Y-72510140D01*
X191980166Y-72779935D01*
X191710371Y-73183712D01*
X191615631Y-73660000D01*
X179224369Y-73660000D01*
X179129629Y-73183712D01*
X178859834Y-72779935D01*
X178456057Y-72510140D01*
X177979769Y-72415400D01*
X177620231Y-72415400D01*
X177143943Y-72510140D01*
X176740166Y-72779935D01*
X176470371Y-73183712D01*
X176375631Y-73660000D01*
X106091000Y-73660000D01*
X106091118Y-73525135D01*
X105987661Y-73274748D01*
X105796259Y-73083013D01*
X105546054Y-72979118D01*
X105275135Y-72978882D01*
X105024748Y-73082339D01*
X104833013Y-73273741D01*
X104729118Y-73523946D01*
X104728882Y-73794865D01*
X78867000Y-73794865D01*
X78867000Y-71254865D01*
X125048882Y-71254865D01*
X125152339Y-71505252D01*
X125343741Y-71696987D01*
X125593946Y-71800882D01*
X125864865Y-71801118D01*
X126115252Y-71697661D01*
X126306987Y-71506259D01*
X126410882Y-71256054D01*
X126411000Y-71120000D01*
X176375631Y-71120000D01*
X176470371Y-71596288D01*
X176740166Y-72000065D01*
X177143943Y-72269860D01*
X177620231Y-72364600D01*
X177979769Y-72364600D01*
X178456057Y-72269860D01*
X178859834Y-72000065D01*
X179129629Y-71596288D01*
X179224369Y-71120000D01*
X191615631Y-71120000D01*
X191710371Y-71596288D01*
X191980166Y-72000065D01*
X192383943Y-72269860D01*
X192860231Y-72364600D01*
X193219769Y-72364600D01*
X193696057Y-72269860D01*
X194099834Y-72000065D01*
X194369629Y-71596288D01*
X194464369Y-71120000D01*
X194369629Y-70643712D01*
X194099834Y-70239935D01*
X193696057Y-69970140D01*
X193219769Y-69875400D01*
X192860231Y-69875400D01*
X192383943Y-69970140D01*
X191980166Y-70239935D01*
X191710371Y-70643712D01*
X191615631Y-71120000D01*
X179224369Y-71120000D01*
X179129629Y-70643712D01*
X178859834Y-70239935D01*
X178456057Y-69970140D01*
X177979769Y-69875400D01*
X177620231Y-69875400D01*
X177143943Y-69970140D01*
X176740166Y-70239935D01*
X176470371Y-70643712D01*
X176375631Y-71120000D01*
X126411000Y-71120000D01*
X126411118Y-70985135D01*
X126307661Y-70734748D01*
X126116259Y-70543013D01*
X125866054Y-70439118D01*
X125595135Y-70438882D01*
X125344748Y-70542339D01*
X125153013Y-70733741D01*
X125049118Y-70983946D01*
X125048882Y-71254865D01*
X78867000Y-71254865D01*
X78867000Y-68714865D01*
X107268882Y-68714865D01*
X107372339Y-68965252D01*
X107563741Y-69156987D01*
X107813946Y-69260882D01*
X108084865Y-69261118D01*
X108335252Y-69157661D01*
X108526987Y-68966259D01*
X108630882Y-68716054D01*
X108631000Y-68580000D01*
X176375631Y-68580000D01*
X176470371Y-69056288D01*
X176740166Y-69460065D01*
X177143943Y-69729860D01*
X177620231Y-69824600D01*
X177979769Y-69824600D01*
X178456057Y-69729860D01*
X178859834Y-69460065D01*
X179129629Y-69056288D01*
X179224369Y-68580000D01*
X191615631Y-68580000D01*
X191710371Y-69056288D01*
X191980166Y-69460065D01*
X192383943Y-69729860D01*
X192860231Y-69824600D01*
X193219769Y-69824600D01*
X193696057Y-69729860D01*
X194099834Y-69460065D01*
X194369629Y-69056288D01*
X194464369Y-68580000D01*
X194369629Y-68103712D01*
X194099834Y-67699935D01*
X193696057Y-67430140D01*
X193219769Y-67335400D01*
X192860231Y-67335400D01*
X192383943Y-67430140D01*
X191980166Y-67699935D01*
X191710371Y-68103712D01*
X191615631Y-68580000D01*
X179224369Y-68580000D01*
X179129629Y-68103712D01*
X178859834Y-67699935D01*
X178456057Y-67430140D01*
X177979769Y-67335400D01*
X177620231Y-67335400D01*
X177143943Y-67430140D01*
X176740166Y-67699935D01*
X176470371Y-68103712D01*
X176375631Y-68580000D01*
X108631000Y-68580000D01*
X108631118Y-68445135D01*
X108527661Y-68194748D01*
X108336259Y-68003013D01*
X108086054Y-67899118D01*
X107815135Y-67898882D01*
X107564748Y-68002339D01*
X107373013Y-68193741D01*
X107269118Y-68443946D01*
X107268882Y-68714865D01*
X78867000Y-68714865D01*
X78867000Y-66174865D01*
X127588882Y-66174865D01*
X127692339Y-66425252D01*
X127883741Y-66616987D01*
X128133946Y-66720882D01*
X128404865Y-66721118D01*
X128655252Y-66617661D01*
X128846987Y-66426259D01*
X128950882Y-66176054D01*
X128951000Y-66040000D01*
X176375631Y-66040000D01*
X176470371Y-66516288D01*
X176740166Y-66920065D01*
X177143943Y-67189860D01*
X177620231Y-67284600D01*
X177979769Y-67284600D01*
X178456057Y-67189860D01*
X178859834Y-66920065D01*
X179129629Y-66516288D01*
X179224369Y-66040000D01*
X191615631Y-66040000D01*
X191710371Y-66516288D01*
X191980166Y-66920065D01*
X192383943Y-67189860D01*
X192860231Y-67284600D01*
X193219769Y-67284600D01*
X193696057Y-67189860D01*
X194099834Y-66920065D01*
X194369629Y-66516288D01*
X194464369Y-66040000D01*
X194369629Y-65563712D01*
X194099834Y-65159935D01*
X193696057Y-64890140D01*
X193219769Y-64795400D01*
X192860231Y-64795400D01*
X192383943Y-64890140D01*
X191980166Y-65159935D01*
X191710371Y-65563712D01*
X191615631Y-66040000D01*
X179224369Y-66040000D01*
X179129629Y-65563712D01*
X178859834Y-65159935D01*
X178456057Y-64890140D01*
X177979769Y-64795400D01*
X177620231Y-64795400D01*
X177143943Y-64890140D01*
X176740166Y-65159935D01*
X176470371Y-65563712D01*
X176375631Y-66040000D01*
X128951000Y-66040000D01*
X128951118Y-65905135D01*
X128847661Y-65654748D01*
X128656259Y-65463013D01*
X128406054Y-65359118D01*
X128135135Y-65358882D01*
X127884748Y-65462339D01*
X127693013Y-65653741D01*
X127589118Y-65903946D01*
X127588882Y-66174865D01*
X78867000Y-66174865D01*
X78867000Y-65539865D01*
X101553882Y-65539865D01*
X101657339Y-65790252D01*
X101848741Y-65981987D01*
X102098946Y-66085882D01*
X102369865Y-66086118D01*
X102620252Y-65982661D01*
X102811987Y-65791259D01*
X102915882Y-65541054D01*
X102915883Y-65539865D01*
X121238882Y-65539865D01*
X121342339Y-65790252D01*
X121533741Y-65981987D01*
X121783946Y-66085882D01*
X122054865Y-66086118D01*
X122305252Y-65982661D01*
X122496987Y-65791259D01*
X122600882Y-65541054D01*
X122601118Y-65270135D01*
X122497661Y-65019748D01*
X122382978Y-64904865D01*
X141558882Y-64904865D01*
X141662339Y-65155252D01*
X141853741Y-65346987D01*
X142103946Y-65450882D01*
X142374865Y-65451118D01*
X142625252Y-65347661D01*
X142816987Y-65156259D01*
X142920882Y-64906054D01*
X142921118Y-64635135D01*
X142817661Y-64384748D01*
X142626259Y-64193013D01*
X142376054Y-64089118D01*
X142105135Y-64088882D01*
X141854748Y-64192339D01*
X141663013Y-64383741D01*
X141559118Y-64633946D01*
X141558882Y-64904865D01*
X122382978Y-64904865D01*
X122306259Y-64828013D01*
X122056054Y-64724118D01*
X121785135Y-64723882D01*
X121534748Y-64827339D01*
X121343013Y-65018741D01*
X121239118Y-65268946D01*
X121238882Y-65539865D01*
X102915883Y-65539865D01*
X102916118Y-65270135D01*
X102812661Y-65019748D01*
X102621259Y-64828013D01*
X102371054Y-64724118D01*
X102100135Y-64723882D01*
X101849748Y-64827339D01*
X101658013Y-65018741D01*
X101554118Y-65268946D01*
X101553882Y-65539865D01*
X78867000Y-65539865D01*
X78867000Y-63634865D01*
X109808882Y-63634865D01*
X109912339Y-63885252D01*
X110103741Y-64076987D01*
X110353946Y-64180882D01*
X110624865Y-64181118D01*
X110875252Y-64077661D01*
X111066987Y-63886259D01*
X111170882Y-63636054D01*
X111171000Y-63500000D01*
X176375631Y-63500000D01*
X176470371Y-63976288D01*
X176740166Y-64380065D01*
X177143943Y-64649860D01*
X177620231Y-64744600D01*
X177979769Y-64744600D01*
X178456057Y-64649860D01*
X178859834Y-64380065D01*
X179129629Y-63976288D01*
X179224369Y-63500000D01*
X191615631Y-63500000D01*
X191710371Y-63976288D01*
X191980166Y-64380065D01*
X192383943Y-64649860D01*
X192860231Y-64744600D01*
X193219769Y-64744600D01*
X193696057Y-64649860D01*
X194099834Y-64380065D01*
X194369629Y-63976288D01*
X194464369Y-63500000D01*
X194369629Y-63023712D01*
X194099834Y-62619935D01*
X193696057Y-62350140D01*
X193219769Y-62255400D01*
X192860231Y-62255400D01*
X192383943Y-62350140D01*
X191980166Y-62619935D01*
X191710371Y-63023712D01*
X191615631Y-63500000D01*
X179224369Y-63500000D01*
X179129629Y-63023712D01*
X178859834Y-62619935D01*
X178456057Y-62350140D01*
X177979769Y-62255400D01*
X177620231Y-62255400D01*
X177143943Y-62350140D01*
X176740166Y-62619935D01*
X176470371Y-63023712D01*
X176375631Y-63500000D01*
X111171000Y-63500000D01*
X111171118Y-63365135D01*
X111067661Y-63114748D01*
X110876259Y-62923013D01*
X110626054Y-62819118D01*
X110355135Y-62818882D01*
X110104748Y-62922339D01*
X109913013Y-63113741D01*
X109809118Y-63363946D01*
X109808882Y-63634865D01*
X78867000Y-63634865D01*
X78867000Y-59280668D01*
X82013307Y-59280668D01*
X82673543Y-60878561D01*
X83895009Y-62102160D01*
X85491747Y-62765184D01*
X87220668Y-62766693D01*
X88193165Y-62364865D01*
X159973882Y-62364865D01*
X160077339Y-62615252D01*
X160268741Y-62806987D01*
X160518946Y-62910882D01*
X160789865Y-62911118D01*
X161040252Y-62807661D01*
X161231987Y-62616259D01*
X161335882Y-62366054D01*
X161336118Y-62095135D01*
X161232661Y-61844748D01*
X161041259Y-61653013D01*
X160791054Y-61549118D01*
X160520135Y-61548882D01*
X160269748Y-61652339D01*
X160078013Y-61843741D01*
X159974118Y-62093946D01*
X159973882Y-62364865D01*
X88193165Y-62364865D01*
X88818561Y-62106457D01*
X89831919Y-61094865D01*
X131398882Y-61094865D01*
X131502339Y-61345252D01*
X131693741Y-61536987D01*
X131943946Y-61640882D01*
X132214865Y-61641118D01*
X132465252Y-61537661D01*
X132656987Y-61346259D01*
X132760882Y-61096054D01*
X132761000Y-60960000D01*
X176375631Y-60960000D01*
X176470371Y-61436288D01*
X176740166Y-61840065D01*
X177143943Y-62109860D01*
X177620231Y-62204600D01*
X177979769Y-62204600D01*
X178456057Y-62109860D01*
X178859834Y-61840065D01*
X179129629Y-61436288D01*
X179224369Y-60960000D01*
X191615631Y-60960000D01*
X191710371Y-61436288D01*
X191980166Y-61840065D01*
X192383943Y-62109860D01*
X192860231Y-62204600D01*
X193219769Y-62204600D01*
X193696057Y-62109860D01*
X194099834Y-61840065D01*
X194369629Y-61436288D01*
X194464369Y-60960000D01*
X194369629Y-60483712D01*
X194099834Y-60079935D01*
X193696057Y-59810140D01*
X193219769Y-59715400D01*
X192860231Y-59715400D01*
X192383943Y-59810140D01*
X191980166Y-60079935D01*
X191710371Y-60483712D01*
X191615631Y-60960000D01*
X179224369Y-60960000D01*
X179129629Y-60483712D01*
X178859834Y-60079935D01*
X178456057Y-59810140D01*
X177979769Y-59715400D01*
X177620231Y-59715400D01*
X177143943Y-59810140D01*
X176740166Y-60079935D01*
X176470371Y-60483712D01*
X176375631Y-60960000D01*
X132761000Y-60960000D01*
X132761118Y-60825135D01*
X132657661Y-60574748D01*
X132466259Y-60383013D01*
X132216054Y-60279118D01*
X131945135Y-60278882D01*
X131694748Y-60382339D01*
X131503013Y-60573741D01*
X131399118Y-60823946D01*
X131398882Y-61094865D01*
X89831919Y-61094865D01*
X90042160Y-60884991D01*
X90705184Y-59288253D01*
X90705824Y-58554865D01*
X145368882Y-58554865D01*
X145472339Y-58805252D01*
X145663741Y-58996987D01*
X145913946Y-59100882D01*
X146184865Y-59101118D01*
X146435252Y-58997661D01*
X146626987Y-58806259D01*
X146730882Y-58556054D01*
X146731000Y-58420000D01*
X176375631Y-58420000D01*
X176470371Y-58896288D01*
X176740166Y-59300065D01*
X177143943Y-59569860D01*
X177620231Y-59664600D01*
X177979769Y-59664600D01*
X178456057Y-59569860D01*
X178859834Y-59300065D01*
X179129629Y-58896288D01*
X179224369Y-58420000D01*
X191615631Y-58420000D01*
X191710371Y-58896288D01*
X191980166Y-59300065D01*
X192383943Y-59569860D01*
X192860231Y-59664600D01*
X193219769Y-59664600D01*
X193696057Y-59569860D01*
X194099834Y-59300065D01*
X194369629Y-58896288D01*
X194464369Y-58420000D01*
X194369629Y-57943712D01*
X194099834Y-57539935D01*
X193696057Y-57270140D01*
X193219769Y-57175400D01*
X192860231Y-57175400D01*
X192383943Y-57270140D01*
X191980166Y-57539935D01*
X191710371Y-57943712D01*
X191615631Y-58420000D01*
X179224369Y-58420000D01*
X179129629Y-57943712D01*
X178859834Y-57539935D01*
X178456057Y-57270140D01*
X177979769Y-57175400D01*
X177620231Y-57175400D01*
X177143943Y-57270140D01*
X176740166Y-57539935D01*
X176470371Y-57943712D01*
X176375631Y-58420000D01*
X146731000Y-58420000D01*
X146731118Y-58285135D01*
X146627661Y-58034748D01*
X146436259Y-57843013D01*
X146186054Y-57739118D01*
X145915135Y-57738882D01*
X145664748Y-57842339D01*
X145473013Y-58033741D01*
X145369118Y-58283946D01*
X145368882Y-58554865D01*
X90705824Y-58554865D01*
X90706693Y-57559332D01*
X90068533Y-56014865D01*
X167593882Y-56014865D01*
X167697339Y-56265252D01*
X167888741Y-56456987D01*
X168138946Y-56560882D01*
X168409865Y-56561118D01*
X168660252Y-56457661D01*
X168851987Y-56266259D01*
X168955882Y-56016054D01*
X168956000Y-55880000D01*
X176375631Y-55880000D01*
X176470371Y-56356288D01*
X176740166Y-56760065D01*
X177143943Y-57029860D01*
X177620231Y-57124600D01*
X177979769Y-57124600D01*
X178456057Y-57029860D01*
X178859834Y-56760065D01*
X179129629Y-56356288D01*
X179224369Y-55880000D01*
X191615631Y-55880000D01*
X191710371Y-56356288D01*
X191980166Y-56760065D01*
X192383943Y-57029860D01*
X192860231Y-57124600D01*
X193219769Y-57124600D01*
X193696057Y-57029860D01*
X194099834Y-56760065D01*
X194369629Y-56356288D01*
X194464369Y-55880000D01*
X194369629Y-55403712D01*
X194099834Y-54999935D01*
X193696057Y-54730140D01*
X193219769Y-54635400D01*
X192860231Y-54635400D01*
X192383943Y-54730140D01*
X191980166Y-54999935D01*
X191710371Y-55403712D01*
X191615631Y-55880000D01*
X179224369Y-55880000D01*
X179129629Y-55403712D01*
X178859834Y-54999935D01*
X178456057Y-54730140D01*
X177979769Y-54635400D01*
X177620231Y-54635400D01*
X177143943Y-54730140D01*
X176740166Y-54999935D01*
X176470371Y-55403712D01*
X176375631Y-55880000D01*
X168956000Y-55880000D01*
X168956118Y-55745135D01*
X168852661Y-55494748D01*
X168661259Y-55303013D01*
X168411054Y-55199118D01*
X168140135Y-55198882D01*
X167889748Y-55302339D01*
X167698013Y-55493741D01*
X167594118Y-55743946D01*
X167593882Y-56014865D01*
X90068533Y-56014865D01*
X90046457Y-55961439D01*
X88824991Y-54737840D01*
X87228253Y-54074816D01*
X85499332Y-54073307D01*
X83901439Y-54733543D01*
X82677840Y-55955009D01*
X82014816Y-57551747D01*
X82013307Y-59280668D01*
X78867000Y-59280668D01*
X78867000Y-53494865D01*
X145218882Y-53494865D01*
X145322339Y-53745252D01*
X145513741Y-53936987D01*
X145763946Y-54040882D01*
X146034865Y-54041118D01*
X146285252Y-53937661D01*
X146476987Y-53746259D01*
X146580882Y-53496054D01*
X146581017Y-53340000D01*
X176375631Y-53340000D01*
X176470371Y-53816288D01*
X176740166Y-54220065D01*
X177143943Y-54489860D01*
X177620231Y-54584600D01*
X177979769Y-54584600D01*
X178456057Y-54489860D01*
X178859834Y-54220065D01*
X179129629Y-53816288D01*
X179224369Y-53340000D01*
X191615631Y-53340000D01*
X191710371Y-53816288D01*
X191980166Y-54220065D01*
X192383943Y-54489860D01*
X192860231Y-54584600D01*
X193219769Y-54584600D01*
X193696057Y-54489860D01*
X194099834Y-54220065D01*
X194369629Y-53816288D01*
X194464369Y-53340000D01*
X194369629Y-52863712D01*
X194099834Y-52459935D01*
X193696057Y-52190140D01*
X193219769Y-52095400D01*
X192860231Y-52095400D01*
X192383943Y-52190140D01*
X191980166Y-52459935D01*
X191710371Y-52863712D01*
X191615631Y-53340000D01*
X179224369Y-53340000D01*
X179129629Y-52863712D01*
X178859834Y-52459935D01*
X178456057Y-52190140D01*
X177979769Y-52095400D01*
X177620231Y-52095400D01*
X177143943Y-52190140D01*
X176740166Y-52459935D01*
X176470371Y-52863712D01*
X176375631Y-53340000D01*
X146581017Y-53340000D01*
X146581118Y-53225135D01*
X146477661Y-52974748D01*
X146286259Y-52783013D01*
X146036054Y-52679118D01*
X145765135Y-52678882D01*
X145514748Y-52782339D01*
X145323013Y-52973741D01*
X145219118Y-53223946D01*
X145218882Y-53494865D01*
X78867000Y-53494865D01*
X78867000Y-50934865D01*
X101553882Y-50934865D01*
X101657339Y-51185252D01*
X101848741Y-51376987D01*
X102098946Y-51480882D01*
X102369865Y-51481118D01*
X102620252Y-51377661D01*
X102811987Y-51186259D01*
X102915882Y-50936054D01*
X102915883Y-50934865D01*
X165688882Y-50934865D01*
X165792339Y-51185252D01*
X165983741Y-51376987D01*
X166233946Y-51480882D01*
X166504865Y-51481118D01*
X166755252Y-51377661D01*
X166946987Y-51186259D01*
X167050882Y-50936054D01*
X167051000Y-50800000D01*
X176375631Y-50800000D01*
X176470371Y-51276288D01*
X176740166Y-51680065D01*
X177143943Y-51949860D01*
X177620231Y-52044600D01*
X177979769Y-52044600D01*
X178456057Y-51949860D01*
X178859834Y-51680065D01*
X179129629Y-51276288D01*
X179224369Y-50800000D01*
X191615631Y-50800000D01*
X191710371Y-51276288D01*
X191980166Y-51680065D01*
X192383943Y-51949860D01*
X192860231Y-52044600D01*
X193219769Y-52044600D01*
X193696057Y-51949860D01*
X194099834Y-51680065D01*
X194369629Y-51276288D01*
X194464369Y-50800000D01*
X194369629Y-50323712D01*
X194099834Y-49919935D01*
X193696057Y-49650140D01*
X193219769Y-49555400D01*
X192860231Y-49555400D01*
X192383943Y-49650140D01*
X191980166Y-49919935D01*
X191710371Y-50323712D01*
X191615631Y-50800000D01*
X179224369Y-50800000D01*
X179129629Y-50323712D01*
X178859834Y-49919935D01*
X178456057Y-49650140D01*
X177979769Y-49555400D01*
X177620231Y-49555400D01*
X177143943Y-49650140D01*
X176740166Y-49919935D01*
X176470371Y-50323712D01*
X176375631Y-50800000D01*
X167051000Y-50800000D01*
X167051118Y-50665135D01*
X166947661Y-50414748D01*
X166756259Y-50223013D01*
X166506054Y-50119118D01*
X166235135Y-50118882D01*
X165984748Y-50222339D01*
X165793013Y-50413741D01*
X165689118Y-50663946D01*
X165688882Y-50934865D01*
X102915883Y-50934865D01*
X102916118Y-50665135D01*
X102812661Y-50414748D01*
X102697978Y-50299865D01*
X121238882Y-50299865D01*
X121342339Y-50550252D01*
X121533741Y-50741987D01*
X121783946Y-50845882D01*
X122054865Y-50846118D01*
X122305252Y-50742661D01*
X122496987Y-50551259D01*
X122600882Y-50301054D01*
X122600883Y-50299865D01*
X141558882Y-50299865D01*
X141662339Y-50550252D01*
X141853741Y-50741987D01*
X142103946Y-50845882D01*
X142374865Y-50846118D01*
X142625252Y-50742661D01*
X142816987Y-50551259D01*
X142920882Y-50301054D01*
X142920883Y-50299865D01*
X161243882Y-50299865D01*
X161347339Y-50550252D01*
X161538741Y-50741987D01*
X161788946Y-50845882D01*
X162059865Y-50846118D01*
X162310252Y-50742661D01*
X162501987Y-50551259D01*
X162605882Y-50301054D01*
X162606118Y-50030135D01*
X162502661Y-49779748D01*
X162311259Y-49588013D01*
X162061054Y-49484118D01*
X161790135Y-49483882D01*
X161539748Y-49587339D01*
X161348013Y-49778741D01*
X161244118Y-50028946D01*
X161243882Y-50299865D01*
X142920883Y-50299865D01*
X142921118Y-50030135D01*
X142817661Y-49779748D01*
X142626259Y-49588013D01*
X142376054Y-49484118D01*
X142105135Y-49483882D01*
X141854748Y-49587339D01*
X141663013Y-49778741D01*
X141559118Y-50028946D01*
X141558882Y-50299865D01*
X122600883Y-50299865D01*
X122601118Y-50030135D01*
X122497661Y-49779748D01*
X122306259Y-49588013D01*
X122056054Y-49484118D01*
X121785135Y-49483882D01*
X121534748Y-49587339D01*
X121343013Y-49778741D01*
X121239118Y-50028946D01*
X121238882Y-50299865D01*
X102697978Y-50299865D01*
X102621259Y-50223013D01*
X102371054Y-50119118D01*
X102100135Y-50118882D01*
X101849748Y-50222339D01*
X101658013Y-50413741D01*
X101554118Y-50663946D01*
X101553882Y-50934865D01*
X78867000Y-50934865D01*
X78867000Y-48394865D01*
X142828882Y-48394865D01*
X142932339Y-48645252D01*
X143123741Y-48836987D01*
X143373946Y-48940882D01*
X143644865Y-48941118D01*
X143895252Y-48837661D01*
X144086987Y-48646259D01*
X144190882Y-48396054D01*
X144191000Y-48260000D01*
X176375631Y-48260000D01*
X176470371Y-48736288D01*
X176740166Y-49140065D01*
X177143943Y-49409860D01*
X177620231Y-49504600D01*
X177979769Y-49504600D01*
X178456057Y-49409860D01*
X178859834Y-49140065D01*
X179129629Y-48736288D01*
X179224369Y-48260000D01*
X191615631Y-48260000D01*
X191710371Y-48736288D01*
X191980166Y-49140065D01*
X192383943Y-49409860D01*
X192860231Y-49504600D01*
X193219769Y-49504600D01*
X193696057Y-49409860D01*
X194099834Y-49140065D01*
X194369629Y-48736288D01*
X194464369Y-48260000D01*
X194369629Y-47783712D01*
X194099834Y-47379935D01*
X193696057Y-47110140D01*
X193219769Y-47015400D01*
X192860231Y-47015400D01*
X192383943Y-47110140D01*
X191980166Y-47379935D01*
X191710371Y-47783712D01*
X191615631Y-48260000D01*
X179224369Y-48260000D01*
X179129629Y-47783712D01*
X178859834Y-47379935D01*
X178456057Y-47110140D01*
X177979769Y-47015400D01*
X177620231Y-47015400D01*
X177143943Y-47110140D01*
X176740166Y-47379935D01*
X176470371Y-47783712D01*
X176375631Y-48260000D01*
X144191000Y-48260000D01*
X144191118Y-48125135D01*
X144087661Y-47874748D01*
X143896259Y-47683013D01*
X143646054Y-47579118D01*
X143375135Y-47578882D01*
X143124748Y-47682339D01*
X142933013Y-47873741D01*
X142829118Y-48123946D01*
X142828882Y-48394865D01*
X78867000Y-48394865D01*
X78867000Y-43332400D01*
X84853936Y-43332400D01*
X84853936Y-45567600D01*
X84880503Y-45708790D01*
X84963946Y-45838465D01*
X85091266Y-45925459D01*
X85242400Y-45956064D01*
X87477600Y-45956064D01*
X87618790Y-45929497D01*
X87734772Y-45854865D01*
X163148882Y-45854865D01*
X163252339Y-46105252D01*
X163443741Y-46296987D01*
X163693946Y-46400882D01*
X163964865Y-46401118D01*
X164215252Y-46297661D01*
X164406987Y-46106259D01*
X164510882Y-45856054D01*
X164511000Y-45720000D01*
X176375631Y-45720000D01*
X176470371Y-46196288D01*
X176740166Y-46600065D01*
X177143943Y-46869860D01*
X177620231Y-46964600D01*
X177979769Y-46964600D01*
X178456057Y-46869860D01*
X178859834Y-46600065D01*
X179129629Y-46196288D01*
X179224369Y-45720000D01*
X191615631Y-45720000D01*
X191710371Y-46196288D01*
X191980166Y-46600065D01*
X192383943Y-46869860D01*
X192860231Y-46964600D01*
X193219769Y-46964600D01*
X193696057Y-46869860D01*
X194099834Y-46600065D01*
X194369629Y-46196288D01*
X194464369Y-45720000D01*
X194369629Y-45243712D01*
X194099834Y-44839935D01*
X193696057Y-44570140D01*
X193219769Y-44475400D01*
X192860231Y-44475400D01*
X192383943Y-44570140D01*
X191980166Y-44839935D01*
X191710371Y-45243712D01*
X191615631Y-45720000D01*
X179224369Y-45720000D01*
X179129629Y-45243712D01*
X178859834Y-44839935D01*
X178456057Y-44570140D01*
X177979769Y-44475400D01*
X177620231Y-44475400D01*
X177143943Y-44570140D01*
X176740166Y-44839935D01*
X176470371Y-45243712D01*
X176375631Y-45720000D01*
X164511000Y-45720000D01*
X164511118Y-45585135D01*
X164407661Y-45334748D01*
X164216259Y-45143013D01*
X163966054Y-45039118D01*
X163695135Y-45038882D01*
X163444748Y-45142339D01*
X163253013Y-45333741D01*
X163149118Y-45583946D01*
X163148882Y-45854865D01*
X87734772Y-45854865D01*
X87748465Y-45846054D01*
X87835459Y-45718734D01*
X87866064Y-45567600D01*
X87866064Y-43332400D01*
X87862765Y-43314865D01*
X142828882Y-43314865D01*
X142932339Y-43565252D01*
X143123741Y-43756987D01*
X143373946Y-43860882D01*
X143644865Y-43861118D01*
X143895252Y-43757661D01*
X144086987Y-43566259D01*
X144190882Y-43316054D01*
X144191000Y-43180000D01*
X176375631Y-43180000D01*
X176470371Y-43656288D01*
X176740166Y-44060065D01*
X177143943Y-44329860D01*
X177620231Y-44424600D01*
X177979769Y-44424600D01*
X178456057Y-44329860D01*
X178859834Y-44060065D01*
X179129629Y-43656288D01*
X179224369Y-43180000D01*
X191615631Y-43180000D01*
X191710371Y-43656288D01*
X191980166Y-44060065D01*
X192383943Y-44329860D01*
X192860231Y-44424600D01*
X193219769Y-44424600D01*
X193696057Y-44329860D01*
X194099834Y-44060065D01*
X194369629Y-43656288D01*
X194464369Y-43180000D01*
X194369629Y-42703712D01*
X194099834Y-42299935D01*
X193696057Y-42030140D01*
X193219769Y-41935400D01*
X192860231Y-41935400D01*
X192383943Y-42030140D01*
X191980166Y-42299935D01*
X191710371Y-42703712D01*
X191615631Y-43180000D01*
X179224369Y-43180000D01*
X179129629Y-42703712D01*
X178859834Y-42299935D01*
X178456057Y-42030140D01*
X177979769Y-41935400D01*
X177620231Y-41935400D01*
X177143943Y-42030140D01*
X176740166Y-42299935D01*
X176470371Y-42703712D01*
X176375631Y-43180000D01*
X144191000Y-43180000D01*
X144191118Y-43045135D01*
X144087661Y-42794748D01*
X143896259Y-42603013D01*
X143646054Y-42499118D01*
X143375135Y-42498882D01*
X143124748Y-42602339D01*
X142933013Y-42793741D01*
X142829118Y-43043946D01*
X142828882Y-43314865D01*
X87862765Y-43314865D01*
X87839497Y-43191210D01*
X87756054Y-43061535D01*
X87628734Y-42974541D01*
X87477600Y-42943936D01*
X85242400Y-42943936D01*
X85101210Y-42970503D01*
X84971535Y-43053946D01*
X84884541Y-43181266D01*
X84853936Y-43332400D01*
X78867000Y-43332400D01*
X78867000Y-40774865D01*
X166958882Y-40774865D01*
X167062339Y-41025252D01*
X167253741Y-41216987D01*
X167503946Y-41320882D01*
X167774865Y-41321118D01*
X168025252Y-41217661D01*
X168216987Y-41026259D01*
X168320882Y-40776054D01*
X168321000Y-40640000D01*
X176375631Y-40640000D01*
X176470371Y-41116288D01*
X176740166Y-41520065D01*
X177143943Y-41789860D01*
X177620231Y-41884600D01*
X177979769Y-41884600D01*
X178456057Y-41789860D01*
X178859834Y-41520065D01*
X179129629Y-41116288D01*
X179224369Y-40640000D01*
X191615631Y-40640000D01*
X191710371Y-41116288D01*
X191980166Y-41520065D01*
X192383943Y-41789860D01*
X192860231Y-41884600D01*
X193219769Y-41884600D01*
X193696057Y-41789860D01*
X194099834Y-41520065D01*
X194369629Y-41116288D01*
X194464369Y-40640000D01*
X194369629Y-40163712D01*
X194099834Y-39759935D01*
X193696057Y-39490140D01*
X193219769Y-39395400D01*
X192860231Y-39395400D01*
X192383943Y-39490140D01*
X191980166Y-39759935D01*
X191710371Y-40163712D01*
X191615631Y-40640000D01*
X179224369Y-40640000D01*
X179129629Y-40163712D01*
X178859834Y-39759935D01*
X178456057Y-39490140D01*
X177979769Y-39395400D01*
X177620231Y-39395400D01*
X177143943Y-39490140D01*
X176740166Y-39759935D01*
X176470371Y-40163712D01*
X176375631Y-40640000D01*
X168321000Y-40640000D01*
X168321118Y-40505135D01*
X168217661Y-40254748D01*
X168026259Y-40063013D01*
X167776054Y-39959118D01*
X167505135Y-39958882D01*
X167254748Y-40062339D01*
X167063013Y-40253741D01*
X166959118Y-40503946D01*
X166958882Y-40774865D01*
X78867000Y-40774865D01*
X78867000Y-38234865D01*
X85678882Y-38234865D01*
X85782339Y-38485252D01*
X85973741Y-38676987D01*
X86223946Y-38780882D01*
X86494865Y-38781118D01*
X86745252Y-38677661D01*
X86936987Y-38486259D01*
X87040882Y-38236054D01*
X87041000Y-38100000D01*
X176375631Y-38100000D01*
X176470371Y-38576288D01*
X176740166Y-38980065D01*
X177143943Y-39249860D01*
X177620231Y-39344600D01*
X177979769Y-39344600D01*
X178456057Y-39249860D01*
X178859834Y-38980065D01*
X179129629Y-38576288D01*
X179224369Y-38100000D01*
X191615631Y-38100000D01*
X191710371Y-38576288D01*
X191980166Y-38980065D01*
X192383943Y-39249860D01*
X192860231Y-39344600D01*
X193219769Y-39344600D01*
X193696057Y-39249860D01*
X194099834Y-38980065D01*
X194369629Y-38576288D01*
X194464369Y-38100000D01*
X194369629Y-37623712D01*
X194099834Y-37219935D01*
X193696057Y-36950140D01*
X193219769Y-36855400D01*
X192860231Y-36855400D01*
X192383943Y-36950140D01*
X191980166Y-37219935D01*
X191710371Y-37623712D01*
X191615631Y-38100000D01*
X179224369Y-38100000D01*
X179129629Y-37623712D01*
X178859834Y-37219935D01*
X178456057Y-36950140D01*
X177979769Y-36855400D01*
X177620231Y-36855400D01*
X177143943Y-36950140D01*
X176740166Y-37219935D01*
X176470371Y-37623712D01*
X176375631Y-38100000D01*
X87041000Y-38100000D01*
X87041118Y-37965135D01*
X86937661Y-37714748D01*
X86746259Y-37523013D01*
X86496054Y-37419118D01*
X86225135Y-37418882D01*
X85974748Y-37522339D01*
X85783013Y-37713741D01*
X85679118Y-37963946D01*
X85678882Y-38234865D01*
X78867000Y-38234865D01*
X78867000Y-35694865D01*
X101553882Y-35694865D01*
X101657339Y-35945252D01*
X101848741Y-36136987D01*
X102098946Y-36240882D01*
X102369865Y-36241118D01*
X102620252Y-36137661D01*
X102811987Y-35946259D01*
X102915882Y-35696054D01*
X102915883Y-35694865D01*
X161243882Y-35694865D01*
X161347339Y-35945252D01*
X161538741Y-36136987D01*
X161788946Y-36240882D01*
X162059865Y-36241118D01*
X162310252Y-36137661D01*
X162501987Y-35946259D01*
X162605882Y-35696054D01*
X162606000Y-35560000D01*
X176375631Y-35560000D01*
X176470371Y-36036288D01*
X176740166Y-36440065D01*
X177143943Y-36709860D01*
X177620231Y-36804600D01*
X177979769Y-36804600D01*
X178456057Y-36709860D01*
X178859834Y-36440065D01*
X179129629Y-36036288D01*
X179224369Y-35560000D01*
X179129629Y-35083712D01*
X178859834Y-34679935D01*
X178456057Y-34410140D01*
X177979769Y-34315400D01*
X177620231Y-34315400D01*
X177143943Y-34410140D01*
X176740166Y-34679935D01*
X176470371Y-35083712D01*
X176375631Y-35560000D01*
X162606000Y-35560000D01*
X162606118Y-35425135D01*
X162502661Y-35174748D01*
X162311259Y-34983013D01*
X162061054Y-34879118D01*
X161790135Y-34878882D01*
X161539748Y-34982339D01*
X161348013Y-35173741D01*
X161244118Y-35423946D01*
X161243882Y-35694865D01*
X102915883Y-35694865D01*
X102916118Y-35425135D01*
X102812661Y-35174748D01*
X102697978Y-35059865D01*
X121238882Y-35059865D01*
X121342339Y-35310252D01*
X121533741Y-35501987D01*
X121783946Y-35605882D01*
X122054865Y-35606118D01*
X122305252Y-35502661D01*
X122496987Y-35311259D01*
X122600882Y-35061054D01*
X122600883Y-35059865D01*
X141558882Y-35059865D01*
X141662339Y-35310252D01*
X141853741Y-35501987D01*
X142103946Y-35605882D01*
X142374865Y-35606118D01*
X142625252Y-35502661D01*
X142816987Y-35311259D01*
X142920882Y-35061054D01*
X142921118Y-34790135D01*
X142817661Y-34539748D01*
X142626259Y-34348013D01*
X142376054Y-34244118D01*
X142105135Y-34243882D01*
X141854748Y-34347339D01*
X141663013Y-34538741D01*
X141559118Y-34788946D01*
X141558882Y-35059865D01*
X122600883Y-35059865D01*
X122601118Y-34790135D01*
X122497661Y-34539748D01*
X122306259Y-34348013D01*
X122056054Y-34244118D01*
X121785135Y-34243882D01*
X121534748Y-34347339D01*
X121343013Y-34538741D01*
X121239118Y-34788946D01*
X121238882Y-35059865D01*
X102697978Y-35059865D01*
X102621259Y-34983013D01*
X102371054Y-34879118D01*
X102100135Y-34878882D01*
X101849748Y-34982339D01*
X101658013Y-35173741D01*
X101554118Y-35423946D01*
X101553882Y-35694865D01*
X78867000Y-35694865D01*
X78867000Y-33442022D01*
X84228631Y-33442022D01*
X84552373Y-34225538D01*
X85151309Y-34825521D01*
X85934258Y-35150630D01*
X86782022Y-35151369D01*
X87565538Y-34827627D01*
X88165521Y-34228691D01*
X88490630Y-33445742D01*
X88490722Y-33339118D01*
X176444607Y-33339118D01*
X176654581Y-33772867D01*
X177018280Y-34095570D01*
X177477787Y-34254527D01*
X177673000Y-34170643D01*
X177673000Y-33147000D01*
X177927000Y-33147000D01*
X177927000Y-34170643D01*
X178122213Y-34254527D01*
X178581720Y-34095570D01*
X178945419Y-33772867D01*
X179105578Y-33442022D01*
X183288631Y-33442022D01*
X183612373Y-34225538D01*
X184211309Y-34825521D01*
X184994258Y-35150630D01*
X185842022Y-35151369D01*
X186625538Y-34827627D01*
X187225521Y-34228691D01*
X187550630Y-33445742D01*
X187551369Y-32597978D01*
X187227627Y-31814462D01*
X186628691Y-31214479D01*
X185845742Y-30889370D01*
X184997978Y-30888631D01*
X184214462Y-31212373D01*
X183614479Y-31811309D01*
X183289370Y-32594258D01*
X183288631Y-33442022D01*
X179105578Y-33442022D01*
X179155393Y-33339118D01*
X179094712Y-33147000D01*
X177927000Y-33147000D01*
X177673000Y-33147000D01*
X176505288Y-33147000D01*
X176444607Y-33339118D01*
X88490722Y-33339118D01*
X88491279Y-32700882D01*
X176444607Y-32700882D01*
X176505288Y-32893000D01*
X177673000Y-32893000D01*
X177673000Y-31869357D01*
X177927000Y-31869357D01*
X177927000Y-32893000D01*
X179094712Y-32893000D01*
X179155393Y-32700882D01*
X178945419Y-32267133D01*
X178581720Y-31944430D01*
X178122213Y-31785473D01*
X177927000Y-31869357D01*
X177673000Y-31869357D01*
X177477787Y-31785473D01*
X177018280Y-31944430D01*
X176654581Y-32267133D01*
X176444607Y-32700882D01*
X88491279Y-32700882D01*
X88491369Y-32597978D01*
X88167627Y-31814462D01*
X87568691Y-31214479D01*
X86785742Y-30889370D01*
X85937978Y-30888631D01*
X85154462Y-31212373D01*
X84554479Y-31811309D01*
X84229370Y-32594258D01*
X84228631Y-33442022D01*
X78867000Y-33442022D01*
X78867000Y-30607000D01*
X200533000Y-30607000D01*
X200533000Y-86233000D01*
X200533000Y-86233000D01*
G37*
X200533000Y-86233000D02*
X78867000Y-86233000D01*
X78867000Y-84242022D01*
X84228631Y-84242022D01*
X84552373Y-85025538D01*
X85151309Y-85625521D01*
X85934258Y-85950630D01*
X86782022Y-85951369D01*
X87565538Y-85627627D01*
X88165521Y-85028691D01*
X88490630Y-84245742D01*
X88490633Y-84242022D01*
X183288631Y-84242022D01*
X183612373Y-85025538D01*
X184211309Y-85625521D01*
X184994258Y-85950630D01*
X185842022Y-85951369D01*
X186625538Y-85627627D01*
X187225521Y-85028691D01*
X187550630Y-84245742D01*
X187551369Y-83397978D01*
X187227627Y-82614462D01*
X186628691Y-82014479D01*
X185845742Y-81689370D01*
X184997978Y-81688631D01*
X184214462Y-82012373D01*
X183614479Y-82611309D01*
X183289370Y-83394258D01*
X183288631Y-84242022D01*
X88490633Y-84242022D01*
X88491369Y-83397978D01*
X88167627Y-82614462D01*
X87568691Y-82014479D01*
X86785742Y-81689370D01*
X85937978Y-81688631D01*
X85154462Y-82012373D01*
X84554479Y-82611309D01*
X84229370Y-83394258D01*
X84228631Y-84242022D01*
X78867000Y-84242022D01*
X78867000Y-80779865D01*
X101553882Y-80779865D01*
X101657339Y-81030252D01*
X101848741Y-81221987D01*
X102098946Y-81325882D01*
X102369865Y-81326118D01*
X102620252Y-81222661D01*
X102811987Y-81031259D01*
X102915882Y-80781054D01*
X102915883Y-80779865D01*
X121873882Y-80779865D01*
X121977339Y-81030252D01*
X122168741Y-81221987D01*
X122418946Y-81325882D01*
X122689865Y-81326118D01*
X122940252Y-81222661D01*
X123131987Y-81031259D01*
X123235882Y-80781054D01*
X123235883Y-80779865D01*
X141558882Y-80779865D01*
X141662339Y-81030252D01*
X141853741Y-81221987D01*
X142103946Y-81325882D01*
X142374865Y-81326118D01*
X142625252Y-81222661D01*
X142816987Y-81031259D01*
X142920882Y-80781054D01*
X142920883Y-80779865D01*
X161878882Y-80779865D01*
X161982339Y-81030252D01*
X162173741Y-81221987D01*
X162423946Y-81325882D01*
X162694865Y-81326118D01*
X162945252Y-81222661D01*
X163136987Y-81031259D01*
X163240882Y-80781054D01*
X163241118Y-80510135D01*
X163202388Y-80416400D01*
X176395536Y-80416400D01*
X176395536Y-82143600D01*
X176422103Y-82284790D01*
X176505546Y-82414465D01*
X176632866Y-82501459D01*
X176784000Y-82532064D01*
X178816000Y-82532064D01*
X178957190Y-82505497D01*
X179086865Y-82422054D01*
X179173859Y-82294734D01*
X179204464Y-82143600D01*
X179204464Y-80416400D01*
X191635536Y-80416400D01*
X191635536Y-82143600D01*
X191662103Y-82284790D01*
X191745546Y-82414465D01*
X191872866Y-82501459D01*
X192024000Y-82532064D01*
X194056000Y-82532064D01*
X194197190Y-82505497D01*
X194326865Y-82422054D01*
X194413859Y-82294734D01*
X194444464Y-82143600D01*
X194444464Y-80416400D01*
X194417897Y-80275210D01*
X194334454Y-80145535D01*
X194207134Y-80058541D01*
X194056000Y-80027936D01*
X192024000Y-80027936D01*
X191882810Y-80054503D01*
X191753135Y-80137946D01*
X191666141Y-80265266D01*
X191635536Y-80416400D01*
X179204464Y-80416400D01*
X179177897Y-80275210D01*
X179094454Y-80145535D01*
X178967134Y-80058541D01*
X178816000Y-80027936D01*
X176784000Y-80027936D01*
X176642810Y-80054503D01*
X176513135Y-80137946D01*
X176426141Y-80265266D01*
X176395536Y-80416400D01*
X163202388Y-80416400D01*
X163137661Y-80259748D01*
X162946259Y-80068013D01*
X162696054Y-79964118D01*
X162425135Y-79963882D01*
X162174748Y-80067339D01*
X161983013Y-80258741D01*
X161879118Y-80508946D01*
X161878882Y-80779865D01*
X142920883Y-80779865D01*
X142921118Y-80510135D01*
X142817661Y-80259748D01*
X142626259Y-80068013D01*
X142376054Y-79964118D01*
X142105135Y-79963882D01*
X141854748Y-80067339D01*
X141663013Y-80258741D01*
X141559118Y-80508946D01*
X141558882Y-80779865D01*
X123235883Y-80779865D01*
X123236118Y-80510135D01*
X123132661Y-80259748D01*
X122941259Y-80068013D01*
X122691054Y-79964118D01*
X122420135Y-79963882D01*
X122169748Y-80067339D01*
X121978013Y-80258741D01*
X121874118Y-80508946D01*
X121873882Y-80779865D01*
X102915883Y-80779865D01*
X102916118Y-80510135D01*
X102812661Y-80259748D01*
X102621259Y-80068013D01*
X102371054Y-79964118D01*
X102100135Y-79963882D01*
X101849748Y-80067339D01*
X101658013Y-80258741D01*
X101554118Y-80508946D01*
X101553882Y-80779865D01*
X78867000Y-80779865D01*
X78867000Y-78874865D01*
X104728882Y-78874865D01*
X104832339Y-79125252D01*
X105023741Y-79316987D01*
X105273946Y-79420882D01*
X105544865Y-79421118D01*
X105795252Y-79317661D01*
X105986987Y-79126259D01*
X106090882Y-78876054D01*
X106091000Y-78740000D01*
X176375631Y-78740000D01*
X176470371Y-79216288D01*
X176740166Y-79620065D01*
X177143943Y-79889860D01*
X177620231Y-79984600D01*
X177979769Y-79984600D01*
X178456057Y-79889860D01*
X178859834Y-79620065D01*
X179129629Y-79216288D01*
X179224369Y-78740000D01*
X191615631Y-78740000D01*
X191710371Y-79216288D01*
X191980166Y-79620065D01*
X192383943Y-79889860D01*
X192860231Y-79984600D01*
X193219769Y-79984600D01*
X193696057Y-79889860D01*
X194099834Y-79620065D01*
X194369629Y-79216288D01*
X194464369Y-78740000D01*
X194369629Y-78263712D01*
X194099834Y-77859935D01*
X193696057Y-77590140D01*
X193219769Y-77495400D01*
X192860231Y-77495400D01*
X192383943Y-77590140D01*
X191980166Y-77859935D01*
X191710371Y-78263712D01*
X191615631Y-78740000D01*
X179224369Y-78740000D01*
X179129629Y-78263712D01*
X178859834Y-77859935D01*
X178456057Y-77590140D01*
X177979769Y-77495400D01*
X177620231Y-77495400D01*
X177143943Y-77590140D01*
X176740166Y-77859935D01*
X176470371Y-78263712D01*
X176375631Y-78740000D01*
X106091000Y-78740000D01*
X106091118Y-78605135D01*
X105987661Y-78354748D01*
X105796259Y-78163013D01*
X105546054Y-78059118D01*
X105275135Y-78058882D01*
X105024748Y-78162339D01*
X104833013Y-78353741D01*
X104729118Y-78603946D01*
X104728882Y-78874865D01*
X78867000Y-78874865D01*
X78867000Y-76334865D01*
X125048882Y-76334865D01*
X125152339Y-76585252D01*
X125343741Y-76776987D01*
X125593946Y-76880882D01*
X125864865Y-76881118D01*
X126115252Y-76777661D01*
X126306987Y-76586259D01*
X126410882Y-76336054D01*
X126411000Y-76200000D01*
X176375631Y-76200000D01*
X176470371Y-76676288D01*
X176740166Y-77080065D01*
X177143943Y-77349860D01*
X177620231Y-77444600D01*
X177979769Y-77444600D01*
X178456057Y-77349860D01*
X178859834Y-77080065D01*
X179129629Y-76676288D01*
X179224369Y-76200000D01*
X191615631Y-76200000D01*
X191710371Y-76676288D01*
X191980166Y-77080065D01*
X192383943Y-77349860D01*
X192860231Y-77444600D01*
X193219769Y-77444600D01*
X193696057Y-77349860D01*
X194099834Y-77080065D01*
X194369629Y-76676288D01*
X194464369Y-76200000D01*
X194369629Y-75723712D01*
X194099834Y-75319935D01*
X193696057Y-75050140D01*
X193219769Y-74955400D01*
X192860231Y-74955400D01*
X192383943Y-75050140D01*
X191980166Y-75319935D01*
X191710371Y-75723712D01*
X191615631Y-76200000D01*
X179224369Y-76200000D01*
X179129629Y-75723712D01*
X178859834Y-75319935D01*
X178456057Y-75050140D01*
X177979769Y-74955400D01*
X177620231Y-74955400D01*
X177143943Y-75050140D01*
X176740166Y-75319935D01*
X176470371Y-75723712D01*
X176375631Y-76200000D01*
X126411000Y-76200000D01*
X126411118Y-76065135D01*
X126307661Y-75814748D01*
X126116259Y-75623013D01*
X125866054Y-75519118D01*
X125595135Y-75518882D01*
X125344748Y-75622339D01*
X125153013Y-75813741D01*
X125049118Y-76063946D01*
X125048882Y-76334865D01*
X78867000Y-76334865D01*
X78867000Y-73794865D01*
X104728882Y-73794865D01*
X104832339Y-74045252D01*
X105023741Y-74236987D01*
X105273946Y-74340882D01*
X105544865Y-74341118D01*
X105795252Y-74237661D01*
X105986987Y-74046259D01*
X106090882Y-73796054D01*
X106091000Y-73660000D01*
X176375631Y-73660000D01*
X176470371Y-74136288D01*
X176740166Y-74540065D01*
X177143943Y-74809860D01*
X177620231Y-74904600D01*
X177979769Y-74904600D01*
X178456057Y-74809860D01*
X178859834Y-74540065D01*
X179129629Y-74136288D01*
X179224369Y-73660000D01*
X191615631Y-73660000D01*
X191710371Y-74136288D01*
X191980166Y-74540065D01*
X192383943Y-74809860D01*
X192860231Y-74904600D01*
X193219769Y-74904600D01*
X193696057Y-74809860D01*
X194099834Y-74540065D01*
X194369629Y-74136288D01*
X194464369Y-73660000D01*
X194369629Y-73183712D01*
X194099834Y-72779935D01*
X193696057Y-72510140D01*
X193219769Y-72415400D01*
X192860231Y-72415400D01*
X192383943Y-72510140D01*
X191980166Y-72779935D01*
X191710371Y-73183712D01*
X191615631Y-73660000D01*
X179224369Y-73660000D01*
X179129629Y-73183712D01*
X178859834Y-72779935D01*
X178456057Y-72510140D01*
X177979769Y-72415400D01*
X177620231Y-72415400D01*
X177143943Y-72510140D01*
X176740166Y-72779935D01*
X176470371Y-73183712D01*
X176375631Y-73660000D01*
X106091000Y-73660000D01*
X106091118Y-73525135D01*
X105987661Y-73274748D01*
X105796259Y-73083013D01*
X105546054Y-72979118D01*
X105275135Y-72978882D01*
X105024748Y-73082339D01*
X104833013Y-73273741D01*
X104729118Y-73523946D01*
X104728882Y-73794865D01*
X78867000Y-73794865D01*
X78867000Y-71254865D01*
X125048882Y-71254865D01*
X125152339Y-71505252D01*
X125343741Y-71696987D01*
X125593946Y-71800882D01*
X125864865Y-71801118D01*
X126115252Y-71697661D01*
X126306987Y-71506259D01*
X126410882Y-71256054D01*
X126411000Y-71120000D01*
X176375631Y-71120000D01*
X176470371Y-71596288D01*
X176740166Y-72000065D01*
X177143943Y-72269860D01*
X177620231Y-72364600D01*
X177979769Y-72364600D01*
X178456057Y-72269860D01*
X178859834Y-72000065D01*
X179129629Y-71596288D01*
X179224369Y-71120000D01*
X191615631Y-71120000D01*
X191710371Y-71596288D01*
X191980166Y-72000065D01*
X192383943Y-72269860D01*
X192860231Y-72364600D01*
X193219769Y-72364600D01*
X193696057Y-72269860D01*
X194099834Y-72000065D01*
X194369629Y-71596288D01*
X194464369Y-71120000D01*
X194369629Y-70643712D01*
X194099834Y-70239935D01*
X193696057Y-69970140D01*
X193219769Y-69875400D01*
X192860231Y-69875400D01*
X192383943Y-69970140D01*
X191980166Y-70239935D01*
X191710371Y-70643712D01*
X191615631Y-71120000D01*
X179224369Y-71120000D01*
X179129629Y-70643712D01*
X178859834Y-70239935D01*
X178456057Y-69970140D01*
X177979769Y-69875400D01*
X177620231Y-69875400D01*
X177143943Y-69970140D01*
X176740166Y-70239935D01*
X176470371Y-70643712D01*
X176375631Y-71120000D01*
X126411000Y-71120000D01*
X126411118Y-70985135D01*
X126307661Y-70734748D01*
X126116259Y-70543013D01*
X125866054Y-70439118D01*
X125595135Y-70438882D01*
X125344748Y-70542339D01*
X125153013Y-70733741D01*
X125049118Y-70983946D01*
X125048882Y-71254865D01*
X78867000Y-71254865D01*
X78867000Y-68714865D01*
X107268882Y-68714865D01*
X107372339Y-68965252D01*
X107563741Y-69156987D01*
X107813946Y-69260882D01*
X108084865Y-69261118D01*
X108335252Y-69157661D01*
X108526987Y-68966259D01*
X108630882Y-68716054D01*
X108631000Y-68580000D01*
X176375631Y-68580000D01*
X176470371Y-69056288D01*
X176740166Y-69460065D01*
X177143943Y-69729860D01*
X177620231Y-69824600D01*
X177979769Y-69824600D01*
X178456057Y-69729860D01*
X178859834Y-69460065D01*
X179129629Y-69056288D01*
X179224369Y-68580000D01*
X191615631Y-68580000D01*
X191710371Y-69056288D01*
X191980166Y-69460065D01*
X192383943Y-69729860D01*
X192860231Y-69824600D01*
X193219769Y-69824600D01*
X193696057Y-69729860D01*
X194099834Y-69460065D01*
X194369629Y-69056288D01*
X194464369Y-68580000D01*
X194369629Y-68103712D01*
X194099834Y-67699935D01*
X193696057Y-67430140D01*
X193219769Y-67335400D01*
X192860231Y-67335400D01*
X192383943Y-67430140D01*
X191980166Y-67699935D01*
X191710371Y-68103712D01*
X191615631Y-68580000D01*
X179224369Y-68580000D01*
X179129629Y-68103712D01*
X178859834Y-67699935D01*
X178456057Y-67430140D01*
X177979769Y-67335400D01*
X177620231Y-67335400D01*
X177143943Y-67430140D01*
X176740166Y-67699935D01*
X176470371Y-68103712D01*
X176375631Y-68580000D01*
X108631000Y-68580000D01*
X108631118Y-68445135D01*
X108527661Y-68194748D01*
X108336259Y-68003013D01*
X108086054Y-67899118D01*
X107815135Y-67898882D01*
X107564748Y-68002339D01*
X107373013Y-68193741D01*
X107269118Y-68443946D01*
X107268882Y-68714865D01*
X78867000Y-68714865D01*
X78867000Y-66174865D01*
X127588882Y-66174865D01*
X127692339Y-66425252D01*
X127883741Y-66616987D01*
X128133946Y-66720882D01*
X128404865Y-66721118D01*
X128655252Y-66617661D01*
X128846987Y-66426259D01*
X128950882Y-66176054D01*
X128951000Y-66040000D01*
X176375631Y-66040000D01*
X176470371Y-66516288D01*
X176740166Y-66920065D01*
X177143943Y-67189860D01*
X177620231Y-67284600D01*
X177979769Y-67284600D01*
X178456057Y-67189860D01*
X178859834Y-66920065D01*
X179129629Y-66516288D01*
X179224369Y-66040000D01*
X191615631Y-66040000D01*
X191710371Y-66516288D01*
X191980166Y-66920065D01*
X192383943Y-67189860D01*
X192860231Y-67284600D01*
X193219769Y-67284600D01*
X193696057Y-67189860D01*
X194099834Y-66920065D01*
X194369629Y-66516288D01*
X194464369Y-66040000D01*
X194369629Y-65563712D01*
X194099834Y-65159935D01*
X193696057Y-64890140D01*
X193219769Y-64795400D01*
X192860231Y-64795400D01*
X192383943Y-64890140D01*
X191980166Y-65159935D01*
X191710371Y-65563712D01*
X191615631Y-66040000D01*
X179224369Y-66040000D01*
X179129629Y-65563712D01*
X178859834Y-65159935D01*
X178456057Y-64890140D01*
X177979769Y-64795400D01*
X177620231Y-64795400D01*
X177143943Y-64890140D01*
X176740166Y-65159935D01*
X176470371Y-65563712D01*
X176375631Y-66040000D01*
X128951000Y-66040000D01*
X128951118Y-65905135D01*
X128847661Y-65654748D01*
X128656259Y-65463013D01*
X128406054Y-65359118D01*
X128135135Y-65358882D01*
X127884748Y-65462339D01*
X127693013Y-65653741D01*
X127589118Y-65903946D01*
X127588882Y-66174865D01*
X78867000Y-66174865D01*
X78867000Y-65539865D01*
X101553882Y-65539865D01*
X101657339Y-65790252D01*
X101848741Y-65981987D01*
X102098946Y-66085882D01*
X102369865Y-66086118D01*
X102620252Y-65982661D01*
X102811987Y-65791259D01*
X102915882Y-65541054D01*
X102915883Y-65539865D01*
X121238882Y-65539865D01*
X121342339Y-65790252D01*
X121533741Y-65981987D01*
X121783946Y-66085882D01*
X122054865Y-66086118D01*
X122305252Y-65982661D01*
X122496987Y-65791259D01*
X122600882Y-65541054D01*
X122601118Y-65270135D01*
X122497661Y-65019748D01*
X122382978Y-64904865D01*
X141558882Y-64904865D01*
X141662339Y-65155252D01*
X141853741Y-65346987D01*
X142103946Y-65450882D01*
X142374865Y-65451118D01*
X142625252Y-65347661D01*
X142816987Y-65156259D01*
X142920882Y-64906054D01*
X142921118Y-64635135D01*
X142817661Y-64384748D01*
X142626259Y-64193013D01*
X142376054Y-64089118D01*
X142105135Y-64088882D01*
X141854748Y-64192339D01*
X141663013Y-64383741D01*
X141559118Y-64633946D01*
X141558882Y-64904865D01*
X122382978Y-64904865D01*
X122306259Y-64828013D01*
X122056054Y-64724118D01*
X121785135Y-64723882D01*
X121534748Y-64827339D01*
X121343013Y-65018741D01*
X121239118Y-65268946D01*
X121238882Y-65539865D01*
X102915883Y-65539865D01*
X102916118Y-65270135D01*
X102812661Y-65019748D01*
X102621259Y-64828013D01*
X102371054Y-64724118D01*
X102100135Y-64723882D01*
X101849748Y-64827339D01*
X101658013Y-65018741D01*
X101554118Y-65268946D01*
X101553882Y-65539865D01*
X78867000Y-65539865D01*
X78867000Y-63634865D01*
X109808882Y-63634865D01*
X109912339Y-63885252D01*
X110103741Y-64076987D01*
X110353946Y-64180882D01*
X110624865Y-64181118D01*
X110875252Y-64077661D01*
X111066987Y-63886259D01*
X111170882Y-63636054D01*
X111171000Y-63500000D01*
X176375631Y-63500000D01*
X176470371Y-63976288D01*
X176740166Y-64380065D01*
X177143943Y-64649860D01*
X177620231Y-64744600D01*
X177979769Y-64744600D01*
X178456057Y-64649860D01*
X178859834Y-64380065D01*
X179129629Y-63976288D01*
X179224369Y-63500000D01*
X191615631Y-63500000D01*
X191710371Y-63976288D01*
X191980166Y-64380065D01*
X192383943Y-64649860D01*
X192860231Y-64744600D01*
X193219769Y-64744600D01*
X193696057Y-64649860D01*
X194099834Y-64380065D01*
X194369629Y-63976288D01*
X194464369Y-63500000D01*
X194369629Y-63023712D01*
X194099834Y-62619935D01*
X193696057Y-62350140D01*
X193219769Y-62255400D01*
X192860231Y-62255400D01*
X192383943Y-62350140D01*
X191980166Y-62619935D01*
X191710371Y-63023712D01*
X191615631Y-63500000D01*
X179224369Y-63500000D01*
X179129629Y-63023712D01*
X178859834Y-62619935D01*
X178456057Y-62350140D01*
X177979769Y-62255400D01*
X177620231Y-62255400D01*
X177143943Y-62350140D01*
X176740166Y-62619935D01*
X176470371Y-63023712D01*
X176375631Y-63500000D01*
X111171000Y-63500000D01*
X111171118Y-63365135D01*
X111067661Y-63114748D01*
X110876259Y-62923013D01*
X110626054Y-62819118D01*
X110355135Y-62818882D01*
X110104748Y-62922339D01*
X109913013Y-63113741D01*
X109809118Y-63363946D01*
X109808882Y-63634865D01*
X78867000Y-63634865D01*
X78867000Y-59280668D01*
X82013307Y-59280668D01*
X82673543Y-60878561D01*
X83895009Y-62102160D01*
X85491747Y-62765184D01*
X87220668Y-62766693D01*
X88193165Y-62364865D01*
X159973882Y-62364865D01*
X160077339Y-62615252D01*
X160268741Y-62806987D01*
X160518946Y-62910882D01*
X160789865Y-62911118D01*
X161040252Y-62807661D01*
X161231987Y-62616259D01*
X161335882Y-62366054D01*
X161336118Y-62095135D01*
X161232661Y-61844748D01*
X161041259Y-61653013D01*
X160791054Y-61549118D01*
X160520135Y-61548882D01*
X160269748Y-61652339D01*
X160078013Y-61843741D01*
X159974118Y-62093946D01*
X159973882Y-62364865D01*
X88193165Y-62364865D01*
X88818561Y-62106457D01*
X89831919Y-61094865D01*
X131398882Y-61094865D01*
X131502339Y-61345252D01*
X131693741Y-61536987D01*
X131943946Y-61640882D01*
X132214865Y-61641118D01*
X132465252Y-61537661D01*
X132656987Y-61346259D01*
X132760882Y-61096054D01*
X132761000Y-60960000D01*
X176375631Y-60960000D01*
X176470371Y-61436288D01*
X176740166Y-61840065D01*
X177143943Y-62109860D01*
X177620231Y-62204600D01*
X177979769Y-62204600D01*
X178456057Y-62109860D01*
X178859834Y-61840065D01*
X179129629Y-61436288D01*
X179224369Y-60960000D01*
X191615631Y-60960000D01*
X191710371Y-61436288D01*
X191980166Y-61840065D01*
X192383943Y-62109860D01*
X192860231Y-62204600D01*
X193219769Y-62204600D01*
X193696057Y-62109860D01*
X194099834Y-61840065D01*
X194369629Y-61436288D01*
X194464369Y-60960000D01*
X194369629Y-60483712D01*
X194099834Y-60079935D01*
X193696057Y-59810140D01*
X193219769Y-59715400D01*
X192860231Y-59715400D01*
X192383943Y-59810140D01*
X191980166Y-60079935D01*
X191710371Y-60483712D01*
X191615631Y-60960000D01*
X179224369Y-60960000D01*
X179129629Y-60483712D01*
X178859834Y-60079935D01*
X178456057Y-59810140D01*
X177979769Y-59715400D01*
X177620231Y-59715400D01*
X177143943Y-59810140D01*
X176740166Y-60079935D01*
X176470371Y-60483712D01*
X176375631Y-60960000D01*
X132761000Y-60960000D01*
X132761118Y-60825135D01*
X132657661Y-60574748D01*
X132466259Y-60383013D01*
X132216054Y-60279118D01*
X131945135Y-60278882D01*
X131694748Y-60382339D01*
X131503013Y-60573741D01*
X131399118Y-60823946D01*
X131398882Y-61094865D01*
X89831919Y-61094865D01*
X90042160Y-60884991D01*
X90705184Y-59288253D01*
X90705824Y-58554865D01*
X145368882Y-58554865D01*
X145472339Y-58805252D01*
X145663741Y-58996987D01*
X145913946Y-59100882D01*
X146184865Y-59101118D01*
X146435252Y-58997661D01*
X146626987Y-58806259D01*
X146730882Y-58556054D01*
X146731000Y-58420000D01*
X176375631Y-58420000D01*
X176470371Y-58896288D01*
X176740166Y-59300065D01*
X177143943Y-59569860D01*
X177620231Y-59664600D01*
X177979769Y-59664600D01*
X178456057Y-59569860D01*
X178859834Y-59300065D01*
X179129629Y-58896288D01*
X179224369Y-58420000D01*
X191615631Y-58420000D01*
X191710371Y-58896288D01*
X191980166Y-59300065D01*
X192383943Y-59569860D01*
X192860231Y-59664600D01*
X193219769Y-59664600D01*
X193696057Y-59569860D01*
X194099834Y-59300065D01*
X194369629Y-58896288D01*
X194464369Y-58420000D01*
X194369629Y-57943712D01*
X194099834Y-57539935D01*
X193696057Y-57270140D01*
X193219769Y-57175400D01*
X192860231Y-57175400D01*
X192383943Y-57270140D01*
X191980166Y-57539935D01*
X191710371Y-57943712D01*
X191615631Y-58420000D01*
X179224369Y-58420000D01*
X179129629Y-57943712D01*
X178859834Y-57539935D01*
X178456057Y-57270140D01*
X177979769Y-57175400D01*
X177620231Y-57175400D01*
X177143943Y-57270140D01*
X176740166Y-57539935D01*
X176470371Y-57943712D01*
X176375631Y-58420000D01*
X146731000Y-58420000D01*
X146731118Y-58285135D01*
X146627661Y-58034748D01*
X146436259Y-57843013D01*
X146186054Y-57739118D01*
X145915135Y-57738882D01*
X145664748Y-57842339D01*
X145473013Y-58033741D01*
X145369118Y-58283946D01*
X145368882Y-58554865D01*
X90705824Y-58554865D01*
X90706693Y-57559332D01*
X90068533Y-56014865D01*
X167593882Y-56014865D01*
X167697339Y-56265252D01*
X167888741Y-56456987D01*
X168138946Y-56560882D01*
X168409865Y-56561118D01*
X168660252Y-56457661D01*
X168851987Y-56266259D01*
X168955882Y-56016054D01*
X168956000Y-55880000D01*
X176375631Y-55880000D01*
X176470371Y-56356288D01*
X176740166Y-56760065D01*
X177143943Y-57029860D01*
X177620231Y-57124600D01*
X177979769Y-57124600D01*
X178456057Y-57029860D01*
X178859834Y-56760065D01*
X179129629Y-56356288D01*
X179224369Y-55880000D01*
X191615631Y-55880000D01*
X191710371Y-56356288D01*
X191980166Y-56760065D01*
X192383943Y-57029860D01*
X192860231Y-57124600D01*
X193219769Y-57124600D01*
X193696057Y-57029860D01*
X194099834Y-56760065D01*
X194369629Y-56356288D01*
X194464369Y-55880000D01*
X194369629Y-55403712D01*
X194099834Y-54999935D01*
X193696057Y-54730140D01*
X193219769Y-54635400D01*
X192860231Y-54635400D01*
X192383943Y-54730140D01*
X191980166Y-54999935D01*
X191710371Y-55403712D01*
X191615631Y-55880000D01*
X179224369Y-55880000D01*
X179129629Y-55403712D01*
X178859834Y-54999935D01*
X178456057Y-54730140D01*
X177979769Y-54635400D01*
X177620231Y-54635400D01*
X177143943Y-54730140D01*
X176740166Y-54999935D01*
X176470371Y-55403712D01*
X176375631Y-55880000D01*
X168956000Y-55880000D01*
X168956118Y-55745135D01*
X168852661Y-55494748D01*
X168661259Y-55303013D01*
X168411054Y-55199118D01*
X168140135Y-55198882D01*
X167889748Y-55302339D01*
X167698013Y-55493741D01*
X167594118Y-55743946D01*
X167593882Y-56014865D01*
X90068533Y-56014865D01*
X90046457Y-55961439D01*
X88824991Y-54737840D01*
X87228253Y-54074816D01*
X85499332Y-54073307D01*
X83901439Y-54733543D01*
X82677840Y-55955009D01*
X82014816Y-57551747D01*
X82013307Y-59280668D01*
X78867000Y-59280668D01*
X78867000Y-53494865D01*
X145218882Y-53494865D01*
X145322339Y-53745252D01*
X145513741Y-53936987D01*
X145763946Y-54040882D01*
X146034865Y-54041118D01*
X146285252Y-53937661D01*
X146476987Y-53746259D01*
X146580882Y-53496054D01*
X146581017Y-53340000D01*
X176375631Y-53340000D01*
X176470371Y-53816288D01*
X176740166Y-54220065D01*
X177143943Y-54489860D01*
X177620231Y-54584600D01*
X177979769Y-54584600D01*
X178456057Y-54489860D01*
X178859834Y-54220065D01*
X179129629Y-53816288D01*
X179224369Y-53340000D01*
X191615631Y-53340000D01*
X191710371Y-53816288D01*
X191980166Y-54220065D01*
X192383943Y-54489860D01*
X192860231Y-54584600D01*
X193219769Y-54584600D01*
X193696057Y-54489860D01*
X194099834Y-54220065D01*
X194369629Y-53816288D01*
X194464369Y-53340000D01*
X194369629Y-52863712D01*
X194099834Y-52459935D01*
X193696057Y-52190140D01*
X193219769Y-52095400D01*
X192860231Y-52095400D01*
X192383943Y-52190140D01*
X191980166Y-52459935D01*
X191710371Y-52863712D01*
X191615631Y-53340000D01*
X179224369Y-53340000D01*
X179129629Y-52863712D01*
X178859834Y-52459935D01*
X178456057Y-52190140D01*
X177979769Y-52095400D01*
X177620231Y-52095400D01*
X177143943Y-52190140D01*
X176740166Y-52459935D01*
X176470371Y-52863712D01*
X176375631Y-53340000D01*
X146581017Y-53340000D01*
X146581118Y-53225135D01*
X146477661Y-52974748D01*
X146286259Y-52783013D01*
X146036054Y-52679118D01*
X145765135Y-52678882D01*
X145514748Y-52782339D01*
X145323013Y-52973741D01*
X145219118Y-53223946D01*
X145218882Y-53494865D01*
X78867000Y-53494865D01*
X78867000Y-50934865D01*
X101553882Y-50934865D01*
X101657339Y-51185252D01*
X101848741Y-51376987D01*
X102098946Y-51480882D01*
X102369865Y-51481118D01*
X102620252Y-51377661D01*
X102811987Y-51186259D01*
X102915882Y-50936054D01*
X102915883Y-50934865D01*
X165688882Y-50934865D01*
X165792339Y-51185252D01*
X165983741Y-51376987D01*
X166233946Y-51480882D01*
X166504865Y-51481118D01*
X166755252Y-51377661D01*
X166946987Y-51186259D01*
X167050882Y-50936054D01*
X167051000Y-50800000D01*
X176375631Y-50800000D01*
X176470371Y-51276288D01*
X176740166Y-51680065D01*
X177143943Y-51949860D01*
X177620231Y-52044600D01*
X177979769Y-52044600D01*
X178456057Y-51949860D01*
X178859834Y-51680065D01*
X179129629Y-51276288D01*
X179224369Y-50800000D01*
X191615631Y-50800000D01*
X191710371Y-51276288D01*
X191980166Y-51680065D01*
X192383943Y-51949860D01*
X192860231Y-52044600D01*
X193219769Y-52044600D01*
X193696057Y-51949860D01*
X194099834Y-51680065D01*
X194369629Y-51276288D01*
X194464369Y-50800000D01*
X194369629Y-50323712D01*
X194099834Y-49919935D01*
X193696057Y-49650140D01*
X193219769Y-49555400D01*
X192860231Y-49555400D01*
X192383943Y-49650140D01*
X191980166Y-49919935D01*
X191710371Y-50323712D01*
X191615631Y-50800000D01*
X179224369Y-50800000D01*
X179129629Y-50323712D01*
X178859834Y-49919935D01*
X178456057Y-49650140D01*
X177979769Y-49555400D01*
X177620231Y-49555400D01*
X177143943Y-49650140D01*
X176740166Y-49919935D01*
X176470371Y-50323712D01*
X176375631Y-50800000D01*
X167051000Y-50800000D01*
X167051118Y-50665135D01*
X166947661Y-50414748D01*
X166756259Y-50223013D01*
X166506054Y-50119118D01*
X166235135Y-50118882D01*
X165984748Y-50222339D01*
X165793013Y-50413741D01*
X165689118Y-50663946D01*
X165688882Y-50934865D01*
X102915883Y-50934865D01*
X102916118Y-50665135D01*
X102812661Y-50414748D01*
X102697978Y-50299865D01*
X121238882Y-50299865D01*
X121342339Y-50550252D01*
X121533741Y-50741987D01*
X121783946Y-50845882D01*
X122054865Y-50846118D01*
X122305252Y-50742661D01*
X122496987Y-50551259D01*
X122600882Y-50301054D01*
X122600883Y-50299865D01*
X141558882Y-50299865D01*
X141662339Y-50550252D01*
X141853741Y-50741987D01*
X142103946Y-50845882D01*
X142374865Y-50846118D01*
X142625252Y-50742661D01*
X142816987Y-50551259D01*
X142920882Y-50301054D01*
X142920883Y-50299865D01*
X161243882Y-50299865D01*
X161347339Y-50550252D01*
X161538741Y-50741987D01*
X161788946Y-50845882D01*
X162059865Y-50846118D01*
X162310252Y-50742661D01*
X162501987Y-50551259D01*
X162605882Y-50301054D01*
X162606118Y-50030135D01*
X162502661Y-49779748D01*
X162311259Y-49588013D01*
X162061054Y-49484118D01*
X161790135Y-49483882D01*
X161539748Y-49587339D01*
X161348013Y-49778741D01*
X161244118Y-50028946D01*
X161243882Y-50299865D01*
X142920883Y-50299865D01*
X142921118Y-50030135D01*
X142817661Y-49779748D01*
X142626259Y-49588013D01*
X142376054Y-49484118D01*
X142105135Y-49483882D01*
X141854748Y-49587339D01*
X141663013Y-49778741D01*
X141559118Y-50028946D01*
X141558882Y-50299865D01*
X122600883Y-50299865D01*
X122601118Y-50030135D01*
X122497661Y-49779748D01*
X122306259Y-49588013D01*
X122056054Y-49484118D01*
X121785135Y-49483882D01*
X121534748Y-49587339D01*
X121343013Y-49778741D01*
X121239118Y-50028946D01*
X121238882Y-50299865D01*
X102697978Y-50299865D01*
X102621259Y-50223013D01*
X102371054Y-50119118D01*
X102100135Y-50118882D01*
X101849748Y-50222339D01*
X101658013Y-50413741D01*
X101554118Y-50663946D01*
X101553882Y-50934865D01*
X78867000Y-50934865D01*
X78867000Y-48394865D01*
X142828882Y-48394865D01*
X142932339Y-48645252D01*
X143123741Y-48836987D01*
X143373946Y-48940882D01*
X143644865Y-48941118D01*
X143895252Y-48837661D01*
X144086987Y-48646259D01*
X144190882Y-48396054D01*
X144191000Y-48260000D01*
X176375631Y-48260000D01*
X176470371Y-48736288D01*
X176740166Y-49140065D01*
X177143943Y-49409860D01*
X177620231Y-49504600D01*
X177979769Y-49504600D01*
X178456057Y-49409860D01*
X178859834Y-49140065D01*
X179129629Y-48736288D01*
X179224369Y-48260000D01*
X191615631Y-48260000D01*
X191710371Y-48736288D01*
X191980166Y-49140065D01*
X192383943Y-49409860D01*
X192860231Y-49504600D01*
X193219769Y-49504600D01*
X193696057Y-49409860D01*
X194099834Y-49140065D01*
X194369629Y-48736288D01*
X194464369Y-48260000D01*
X194369629Y-47783712D01*
X194099834Y-47379935D01*
X193696057Y-47110140D01*
X193219769Y-47015400D01*
X192860231Y-47015400D01*
X192383943Y-47110140D01*
X191980166Y-47379935D01*
X191710371Y-47783712D01*
X191615631Y-48260000D01*
X179224369Y-48260000D01*
X179129629Y-47783712D01*
X178859834Y-47379935D01*
X178456057Y-47110140D01*
X177979769Y-47015400D01*
X177620231Y-47015400D01*
X177143943Y-47110140D01*
X176740166Y-47379935D01*
X176470371Y-47783712D01*
X176375631Y-48260000D01*
X144191000Y-48260000D01*
X144191118Y-48125135D01*
X144087661Y-47874748D01*
X143896259Y-47683013D01*
X143646054Y-47579118D01*
X143375135Y-47578882D01*
X143124748Y-47682339D01*
X142933013Y-47873741D01*
X142829118Y-48123946D01*
X142828882Y-48394865D01*
X78867000Y-48394865D01*
X78867000Y-43332400D01*
X84853936Y-43332400D01*
X84853936Y-45567600D01*
X84880503Y-45708790D01*
X84963946Y-45838465D01*
X85091266Y-45925459D01*
X85242400Y-45956064D01*
X87477600Y-45956064D01*
X87618790Y-45929497D01*
X87734772Y-45854865D01*
X163148882Y-45854865D01*
X163252339Y-46105252D01*
X163443741Y-46296987D01*
X163693946Y-46400882D01*
X163964865Y-46401118D01*
X164215252Y-46297661D01*
X164406987Y-46106259D01*
X164510882Y-45856054D01*
X164511000Y-45720000D01*
X176375631Y-45720000D01*
X176470371Y-46196288D01*
X176740166Y-46600065D01*
X177143943Y-46869860D01*
X177620231Y-46964600D01*
X177979769Y-46964600D01*
X178456057Y-46869860D01*
X178859834Y-46600065D01*
X179129629Y-46196288D01*
X179224369Y-45720000D01*
X191615631Y-45720000D01*
X191710371Y-46196288D01*
X191980166Y-46600065D01*
X192383943Y-46869860D01*
X192860231Y-46964600D01*
X193219769Y-46964600D01*
X193696057Y-46869860D01*
X194099834Y-46600065D01*
X194369629Y-46196288D01*
X194464369Y-45720000D01*
X194369629Y-45243712D01*
X194099834Y-44839935D01*
X193696057Y-44570140D01*
X193219769Y-44475400D01*
X192860231Y-44475400D01*
X192383943Y-44570140D01*
X191980166Y-44839935D01*
X191710371Y-45243712D01*
X191615631Y-45720000D01*
X179224369Y-45720000D01*
X179129629Y-45243712D01*
X178859834Y-44839935D01*
X178456057Y-44570140D01*
X177979769Y-44475400D01*
X177620231Y-44475400D01*
X177143943Y-44570140D01*
X176740166Y-44839935D01*
X176470371Y-45243712D01*
X176375631Y-45720000D01*
X164511000Y-45720000D01*
X164511118Y-45585135D01*
X164407661Y-45334748D01*
X164216259Y-45143013D01*
X163966054Y-45039118D01*
X163695135Y-45038882D01*
X163444748Y-45142339D01*
X163253013Y-45333741D01*
X163149118Y-45583946D01*
X163148882Y-45854865D01*
X87734772Y-45854865D01*
X87748465Y-45846054D01*
X87835459Y-45718734D01*
X87866064Y-45567600D01*
X87866064Y-43332400D01*
X87862765Y-43314865D01*
X142828882Y-43314865D01*
X142932339Y-43565252D01*
X143123741Y-43756987D01*
X143373946Y-43860882D01*
X143644865Y-43861118D01*
X143895252Y-43757661D01*
X144086987Y-43566259D01*
X144190882Y-43316054D01*
X144191000Y-43180000D01*
X176375631Y-43180000D01*
X176470371Y-43656288D01*
X176740166Y-44060065D01*
X177143943Y-44329860D01*
X177620231Y-44424600D01*
X177979769Y-44424600D01*
X178456057Y-44329860D01*
X178859834Y-44060065D01*
X179129629Y-43656288D01*
X179224369Y-43180000D01*
X191615631Y-43180000D01*
X191710371Y-43656288D01*
X191980166Y-44060065D01*
X192383943Y-44329860D01*
X192860231Y-44424600D01*
X193219769Y-44424600D01*
X193696057Y-44329860D01*
X194099834Y-44060065D01*
X194369629Y-43656288D01*
X194464369Y-43180000D01*
X194369629Y-42703712D01*
X194099834Y-42299935D01*
X193696057Y-42030140D01*
X193219769Y-41935400D01*
X192860231Y-41935400D01*
X192383943Y-42030140D01*
X191980166Y-42299935D01*
X191710371Y-42703712D01*
X191615631Y-43180000D01*
X179224369Y-43180000D01*
X179129629Y-42703712D01*
X178859834Y-42299935D01*
X178456057Y-42030140D01*
X177979769Y-41935400D01*
X177620231Y-41935400D01*
X177143943Y-42030140D01*
X176740166Y-42299935D01*
X176470371Y-42703712D01*
X176375631Y-43180000D01*
X144191000Y-43180000D01*
X144191118Y-43045135D01*
X144087661Y-42794748D01*
X143896259Y-42603013D01*
X143646054Y-42499118D01*
X143375135Y-42498882D01*
X143124748Y-42602339D01*
X142933013Y-42793741D01*
X142829118Y-43043946D01*
X142828882Y-43314865D01*
X87862765Y-43314865D01*
X87839497Y-43191210D01*
X87756054Y-43061535D01*
X87628734Y-42974541D01*
X87477600Y-42943936D01*
X85242400Y-42943936D01*
X85101210Y-42970503D01*
X84971535Y-43053946D01*
X84884541Y-43181266D01*
X84853936Y-43332400D01*
X78867000Y-43332400D01*
X78867000Y-40774865D01*
X166958882Y-40774865D01*
X167062339Y-41025252D01*
X167253741Y-41216987D01*
X167503946Y-41320882D01*
X167774865Y-41321118D01*
X168025252Y-41217661D01*
X168216987Y-41026259D01*
X168320882Y-40776054D01*
X168321000Y-40640000D01*
X176375631Y-40640000D01*
X176470371Y-41116288D01*
X176740166Y-41520065D01*
X177143943Y-41789860D01*
X177620231Y-41884600D01*
X177979769Y-41884600D01*
X178456057Y-41789860D01*
X178859834Y-41520065D01*
X179129629Y-41116288D01*
X179224369Y-40640000D01*
X191615631Y-40640000D01*
X191710371Y-41116288D01*
X191980166Y-41520065D01*
X192383943Y-41789860D01*
X192860231Y-41884600D01*
X193219769Y-41884600D01*
X193696057Y-41789860D01*
X194099834Y-41520065D01*
X194369629Y-41116288D01*
X194464369Y-40640000D01*
X194369629Y-40163712D01*
X194099834Y-39759935D01*
X193696057Y-39490140D01*
X193219769Y-39395400D01*
X192860231Y-39395400D01*
X192383943Y-39490140D01*
X191980166Y-39759935D01*
X191710371Y-40163712D01*
X191615631Y-40640000D01*
X179224369Y-40640000D01*
X179129629Y-40163712D01*
X178859834Y-39759935D01*
X178456057Y-39490140D01*
X177979769Y-39395400D01*
X177620231Y-39395400D01*
X177143943Y-39490140D01*
X176740166Y-39759935D01*
X176470371Y-40163712D01*
X176375631Y-40640000D01*
X168321000Y-40640000D01*
X168321118Y-40505135D01*
X168217661Y-40254748D01*
X168026259Y-40063013D01*
X167776054Y-39959118D01*
X167505135Y-39958882D01*
X167254748Y-40062339D01*
X167063013Y-40253741D01*
X166959118Y-40503946D01*
X166958882Y-40774865D01*
X78867000Y-40774865D01*
X78867000Y-38234865D01*
X85678882Y-38234865D01*
X85782339Y-38485252D01*
X85973741Y-38676987D01*
X86223946Y-38780882D01*
X86494865Y-38781118D01*
X86745252Y-38677661D01*
X86936987Y-38486259D01*
X87040882Y-38236054D01*
X87041000Y-38100000D01*
X176375631Y-38100000D01*
X176470371Y-38576288D01*
X176740166Y-38980065D01*
X177143943Y-39249860D01*
X177620231Y-39344600D01*
X177979769Y-39344600D01*
X178456057Y-39249860D01*
X178859834Y-38980065D01*
X179129629Y-38576288D01*
X179224369Y-38100000D01*
X191615631Y-38100000D01*
X191710371Y-38576288D01*
X191980166Y-38980065D01*
X192383943Y-39249860D01*
X192860231Y-39344600D01*
X193219769Y-39344600D01*
X193696057Y-39249860D01*
X194099834Y-38980065D01*
X194369629Y-38576288D01*
X194464369Y-38100000D01*
X194369629Y-37623712D01*
X194099834Y-37219935D01*
X193696057Y-36950140D01*
X193219769Y-36855400D01*
X192860231Y-36855400D01*
X192383943Y-36950140D01*
X191980166Y-37219935D01*
X191710371Y-37623712D01*
X191615631Y-38100000D01*
X179224369Y-38100000D01*
X179129629Y-37623712D01*
X178859834Y-37219935D01*
X178456057Y-36950140D01*
X177979769Y-36855400D01*
X177620231Y-36855400D01*
X177143943Y-36950140D01*
X176740166Y-37219935D01*
X176470371Y-37623712D01*
X176375631Y-38100000D01*
X87041000Y-38100000D01*
X87041118Y-37965135D01*
X86937661Y-37714748D01*
X86746259Y-37523013D01*
X86496054Y-37419118D01*
X86225135Y-37418882D01*
X85974748Y-37522339D01*
X85783013Y-37713741D01*
X85679118Y-37963946D01*
X85678882Y-38234865D01*
X78867000Y-38234865D01*
X78867000Y-35694865D01*
X101553882Y-35694865D01*
X101657339Y-35945252D01*
X101848741Y-36136987D01*
X102098946Y-36240882D01*
X102369865Y-36241118D01*
X102620252Y-36137661D01*
X102811987Y-35946259D01*
X102915882Y-35696054D01*
X102915883Y-35694865D01*
X161243882Y-35694865D01*
X161347339Y-35945252D01*
X161538741Y-36136987D01*
X161788946Y-36240882D01*
X162059865Y-36241118D01*
X162310252Y-36137661D01*
X162501987Y-35946259D01*
X162605882Y-35696054D01*
X162606000Y-35560000D01*
X176375631Y-35560000D01*
X176470371Y-36036288D01*
X176740166Y-36440065D01*
X177143943Y-36709860D01*
X177620231Y-36804600D01*
X177979769Y-36804600D01*
X178456057Y-36709860D01*
X178859834Y-36440065D01*
X179129629Y-36036288D01*
X179224369Y-35560000D01*
X179129629Y-35083712D01*
X178859834Y-34679935D01*
X178456057Y-34410140D01*
X177979769Y-34315400D01*
X177620231Y-34315400D01*
X177143943Y-34410140D01*
X176740166Y-34679935D01*
X176470371Y-35083712D01*
X176375631Y-35560000D01*
X162606000Y-35560000D01*
X162606118Y-35425135D01*
X162502661Y-35174748D01*
X162311259Y-34983013D01*
X162061054Y-34879118D01*
X161790135Y-34878882D01*
X161539748Y-34982339D01*
X161348013Y-35173741D01*
X161244118Y-35423946D01*
X161243882Y-35694865D01*
X102915883Y-35694865D01*
X102916118Y-35425135D01*
X102812661Y-35174748D01*
X102697978Y-35059865D01*
X121238882Y-35059865D01*
X121342339Y-35310252D01*
X121533741Y-35501987D01*
X121783946Y-35605882D01*
X122054865Y-35606118D01*
X122305252Y-35502661D01*
X122496987Y-35311259D01*
X122600882Y-35061054D01*
X122600883Y-35059865D01*
X141558882Y-35059865D01*
X141662339Y-35310252D01*
X141853741Y-35501987D01*
X142103946Y-35605882D01*
X142374865Y-35606118D01*
X142625252Y-35502661D01*
X142816987Y-35311259D01*
X142920882Y-35061054D01*
X142921118Y-34790135D01*
X142817661Y-34539748D01*
X142626259Y-34348013D01*
X142376054Y-34244118D01*
X142105135Y-34243882D01*
X141854748Y-34347339D01*
X141663013Y-34538741D01*
X141559118Y-34788946D01*
X141558882Y-35059865D01*
X122600883Y-35059865D01*
X122601118Y-34790135D01*
X122497661Y-34539748D01*
X122306259Y-34348013D01*
X122056054Y-34244118D01*
X121785135Y-34243882D01*
X121534748Y-34347339D01*
X121343013Y-34538741D01*
X121239118Y-34788946D01*
X121238882Y-35059865D01*
X102697978Y-35059865D01*
X102621259Y-34983013D01*
X102371054Y-34879118D01*
X102100135Y-34878882D01*
X101849748Y-34982339D01*
X101658013Y-35173741D01*
X101554118Y-35423946D01*
X101553882Y-35694865D01*
X78867000Y-35694865D01*
X78867000Y-33442022D01*
X84228631Y-33442022D01*
X84552373Y-34225538D01*
X85151309Y-34825521D01*
X85934258Y-35150630D01*
X86782022Y-35151369D01*
X87565538Y-34827627D01*
X88165521Y-34228691D01*
X88490630Y-33445742D01*
X88490722Y-33339118D01*
X176444607Y-33339118D01*
X176654581Y-33772867D01*
X177018280Y-34095570D01*
X177477787Y-34254527D01*
X177673000Y-34170643D01*
X177673000Y-33147000D01*
X177927000Y-33147000D01*
X177927000Y-34170643D01*
X178122213Y-34254527D01*
X178581720Y-34095570D01*
X178945419Y-33772867D01*
X179105578Y-33442022D01*
X183288631Y-33442022D01*
X183612373Y-34225538D01*
X184211309Y-34825521D01*
X184994258Y-35150630D01*
X185842022Y-35151369D01*
X186625538Y-34827627D01*
X187225521Y-34228691D01*
X187550630Y-33445742D01*
X187551369Y-32597978D01*
X187227627Y-31814462D01*
X186628691Y-31214479D01*
X185845742Y-30889370D01*
X184997978Y-30888631D01*
X184214462Y-31212373D01*
X183614479Y-31811309D01*
X183289370Y-32594258D01*
X183288631Y-33442022D01*
X179105578Y-33442022D01*
X179155393Y-33339118D01*
X179094712Y-33147000D01*
X177927000Y-33147000D01*
X177673000Y-33147000D01*
X176505288Y-33147000D01*
X176444607Y-33339118D01*
X88490722Y-33339118D01*
X88491279Y-32700882D01*
X176444607Y-32700882D01*
X176505288Y-32893000D01*
X177673000Y-32893000D01*
X177673000Y-31869357D01*
X177927000Y-31869357D01*
X177927000Y-32893000D01*
X179094712Y-32893000D01*
X179155393Y-32700882D01*
X178945419Y-32267133D01*
X178581720Y-31944430D01*
X178122213Y-31785473D01*
X177927000Y-31869357D01*
X177673000Y-31869357D01*
X177477787Y-31785473D01*
X177018280Y-31944430D01*
X176654581Y-32267133D01*
X176444607Y-32700882D01*
X88491279Y-32700882D01*
X88491369Y-32597978D01*
X88167627Y-31814462D01*
X87568691Y-31214479D01*
X86785742Y-30889370D01*
X85937978Y-30888631D01*
X85154462Y-31212373D01*
X84554479Y-31811309D01*
X84229370Y-32594258D01*
X84228631Y-33442022D01*
X78867000Y-33442022D01*
X78867000Y-30607000D01*
X200533000Y-30607000D01*
X200533000Y-86233000D01*
M02*
