G04 #@! TF.FileFunction,Legend,Top*
%FSLAX46Y46*%
G04 Gerber Fmt 4.6, Leading zero omitted, Abs format (unit mm)*
G04 Created by KiCad (PCBNEW 4.0.2-4+6225~38~ubuntu14.04.1-stable) date Sat Feb 20 17:03:59 2016*
%MOMM*%
G01*
G04 APERTURE LIST*
%ADD10C,0.100000*%
%ADD11C,0.300000*%
%ADD12C,0.200000*%
%ADD13C,0.002540*%
%ADD14C,0.381000*%
%ADD15C,0.150000*%
G04 APERTURE END LIST*
D10*
D11*
X101235715Y-57540000D02*
X101950001Y-57540000D01*
X101092858Y-57968571D02*
X101592858Y-56468571D01*
X102092858Y-57968571D01*
X103235715Y-57897143D02*
X103092858Y-57968571D01*
X102807144Y-57968571D01*
X102664286Y-57897143D01*
X102592858Y-57825714D01*
X102521429Y-57682857D01*
X102521429Y-57254286D01*
X102592858Y-57111429D01*
X102664286Y-57040000D01*
X102807144Y-56968571D01*
X103092858Y-56968571D01*
X103235715Y-57040000D01*
X104450000Y-57897143D02*
X104307143Y-57968571D01*
X104021429Y-57968571D01*
X103878572Y-57897143D01*
X103807143Y-57754286D01*
X103807143Y-57182857D01*
X103878572Y-57040000D01*
X104021429Y-56968571D01*
X104307143Y-56968571D01*
X104450000Y-57040000D01*
X104521429Y-57182857D01*
X104521429Y-57325714D01*
X103807143Y-57468571D01*
X106307143Y-57968571D02*
X106307143Y-56468571D01*
X106807143Y-57540000D01*
X107307143Y-56468571D01*
X107307143Y-57968571D01*
X108592857Y-57897143D02*
X108450000Y-57968571D01*
X108164286Y-57968571D01*
X108021429Y-57897143D01*
X107950000Y-57754286D01*
X107950000Y-57182857D01*
X108021429Y-57040000D01*
X108164286Y-56968571D01*
X108450000Y-56968571D01*
X108592857Y-57040000D01*
X108664286Y-57182857D01*
X108664286Y-57325714D01*
X107950000Y-57468571D01*
X109950000Y-57968571D02*
X109950000Y-56468571D01*
X109950000Y-57897143D02*
X109807143Y-57968571D01*
X109521429Y-57968571D01*
X109378571Y-57897143D01*
X109307143Y-57825714D01*
X109235714Y-57682857D01*
X109235714Y-57254286D01*
X109307143Y-57111429D01*
X109378571Y-57040000D01*
X109521429Y-56968571D01*
X109807143Y-56968571D01*
X109950000Y-57040000D01*
X110878572Y-57968571D02*
X110735714Y-57897143D01*
X110664286Y-57754286D01*
X110664286Y-56468571D01*
X111664286Y-57968571D02*
X111521428Y-57897143D01*
X111450000Y-57825714D01*
X111378571Y-57682857D01*
X111378571Y-57254286D01*
X111450000Y-57111429D01*
X111521428Y-57040000D01*
X111664286Y-56968571D01*
X111878571Y-56968571D01*
X112021428Y-57040000D01*
X112092857Y-57111429D01*
X112164286Y-57254286D01*
X112164286Y-57682857D01*
X112092857Y-57825714D01*
X112021428Y-57897143D01*
X111878571Y-57968571D01*
X111664286Y-57968571D01*
X113450000Y-57897143D02*
X113307143Y-57968571D01*
X113021429Y-57968571D01*
X112878571Y-57897143D01*
X112807143Y-57825714D01*
X112735714Y-57682857D01*
X112735714Y-57254286D01*
X112807143Y-57111429D01*
X112878571Y-57040000D01*
X113021429Y-56968571D01*
X113307143Y-56968571D01*
X113450000Y-57040000D01*
X114092857Y-57968571D02*
X114092857Y-56468571D01*
X114235714Y-57397143D02*
X114664285Y-57968571D01*
X114664285Y-56968571D02*
X114092857Y-57540000D01*
X101342858Y-59582857D02*
X101842858Y-59582857D01*
X102057144Y-60368571D02*
X101342858Y-60368571D01*
X101342858Y-58868571D01*
X102057144Y-58868571D01*
X102700001Y-60368571D02*
X102700001Y-59368571D01*
X102700001Y-59654286D02*
X102771429Y-59511429D01*
X102842858Y-59440000D01*
X102985715Y-59368571D01*
X103128572Y-59368571D01*
X103628572Y-60368571D02*
X103628572Y-59368571D01*
X103628572Y-58868571D02*
X103557143Y-58940000D01*
X103628572Y-59011429D01*
X103700000Y-58940000D01*
X103628572Y-58868571D01*
X103628572Y-59011429D01*
X104985715Y-60297143D02*
X104842858Y-60368571D01*
X104557144Y-60368571D01*
X104414286Y-60297143D01*
X104342858Y-60225714D01*
X104271429Y-60082857D01*
X104271429Y-59654286D01*
X104342858Y-59511429D01*
X104414286Y-59440000D01*
X104557144Y-59368571D01*
X104842858Y-59368571D01*
X104985715Y-59440000D01*
X106771429Y-60368571D02*
X106771429Y-58868571D01*
X106771429Y-59582857D02*
X107628572Y-59582857D01*
X107628572Y-60368571D02*
X107628572Y-58868571D01*
X108914286Y-60297143D02*
X108771429Y-60368571D01*
X108485715Y-60368571D01*
X108342858Y-60297143D01*
X108271429Y-60154286D01*
X108271429Y-59582857D01*
X108342858Y-59440000D01*
X108485715Y-59368571D01*
X108771429Y-59368571D01*
X108914286Y-59440000D01*
X108985715Y-59582857D01*
X108985715Y-59725714D01*
X108271429Y-59868571D01*
X109628572Y-60368571D02*
X109628572Y-59368571D01*
X109628572Y-59654286D02*
X109700000Y-59511429D01*
X109771429Y-59440000D01*
X109914286Y-59368571D01*
X110057143Y-59368571D01*
X110557143Y-60368571D02*
X110557143Y-59368571D01*
X110557143Y-59511429D02*
X110628571Y-59440000D01*
X110771429Y-59368571D01*
X110985714Y-59368571D01*
X111128571Y-59440000D01*
X111200000Y-59582857D01*
X111200000Y-60368571D01*
X111200000Y-59582857D02*
X111271429Y-59440000D01*
X111414286Y-59368571D01*
X111628571Y-59368571D01*
X111771429Y-59440000D01*
X111842857Y-59582857D01*
X111842857Y-60368571D01*
X113200000Y-60368571D02*
X113200000Y-59582857D01*
X113128571Y-59440000D01*
X112985714Y-59368571D01*
X112700000Y-59368571D01*
X112557143Y-59440000D01*
X113200000Y-60297143D02*
X113057143Y-60368571D01*
X112700000Y-60368571D01*
X112557143Y-60297143D01*
X112485714Y-60154286D01*
X112485714Y-60011429D01*
X112557143Y-59868571D01*
X112700000Y-59797143D01*
X113057143Y-59797143D01*
X113200000Y-59725714D01*
X113914286Y-59368571D02*
X113914286Y-60368571D01*
X113914286Y-59511429D02*
X113985714Y-59440000D01*
X114128572Y-59368571D01*
X114342857Y-59368571D01*
X114485714Y-59440000D01*
X114557143Y-59582857D01*
X114557143Y-60368571D01*
X100057143Y-62768571D02*
X100057143Y-61268571D01*
X100914286Y-62768571D02*
X100271429Y-61911429D01*
X100914286Y-61268571D02*
X100057143Y-62125714D01*
X102128571Y-62697143D02*
X101985714Y-62768571D01*
X101700000Y-62768571D01*
X101557143Y-62697143D01*
X101485714Y-62554286D01*
X101485714Y-61982857D01*
X101557143Y-61840000D01*
X101700000Y-61768571D01*
X101985714Y-61768571D01*
X102128571Y-61840000D01*
X102200000Y-61982857D01*
X102200000Y-62125714D01*
X101485714Y-62268571D01*
X102842857Y-61768571D02*
X102842857Y-62768571D01*
X102842857Y-61911429D02*
X102914285Y-61840000D01*
X103057143Y-61768571D01*
X103271428Y-61768571D01*
X103414285Y-61840000D01*
X103485714Y-61982857D01*
X103485714Y-62768571D01*
X104842857Y-62768571D02*
X104842857Y-61268571D01*
X104842857Y-62697143D02*
X104700000Y-62768571D01*
X104414286Y-62768571D01*
X104271428Y-62697143D01*
X104200000Y-62625714D01*
X104128571Y-62482857D01*
X104128571Y-62054286D01*
X104200000Y-61911429D01*
X104271428Y-61840000D01*
X104414286Y-61768571D01*
X104700000Y-61768571D01*
X104842857Y-61840000D01*
X105557143Y-62768571D02*
X105557143Y-61768571D01*
X105557143Y-62054286D02*
X105628571Y-61911429D01*
X105700000Y-61840000D01*
X105842857Y-61768571D01*
X105985714Y-61768571D01*
X106485714Y-62768571D02*
X106485714Y-61768571D01*
X106485714Y-61268571D02*
X106414285Y-61340000D01*
X106485714Y-61411429D01*
X106557142Y-61340000D01*
X106485714Y-61268571D01*
X106485714Y-61411429D01*
X107842857Y-62697143D02*
X107700000Y-62768571D01*
X107414286Y-62768571D01*
X107271428Y-62697143D01*
X107200000Y-62625714D01*
X107128571Y-62482857D01*
X107128571Y-62054286D01*
X107200000Y-61911429D01*
X107271428Y-61840000D01*
X107414286Y-61768571D01*
X107700000Y-61768571D01*
X107842857Y-61840000D01*
X108485714Y-62768571D02*
X108485714Y-61268571D01*
X108628571Y-62197143D02*
X109057142Y-62768571D01*
X109057142Y-61768571D02*
X108485714Y-62340000D01*
X110771428Y-62697143D02*
X110985714Y-62768571D01*
X111342857Y-62768571D01*
X111485714Y-62697143D01*
X111557143Y-62625714D01*
X111628571Y-62482857D01*
X111628571Y-62340000D01*
X111557143Y-62197143D01*
X111485714Y-62125714D01*
X111342857Y-62054286D01*
X111057143Y-61982857D01*
X110914285Y-61911429D01*
X110842857Y-61840000D01*
X110771428Y-61697143D01*
X110771428Y-61554286D01*
X110842857Y-61411429D01*
X110914285Y-61340000D01*
X111057143Y-61268571D01*
X111414285Y-61268571D01*
X111628571Y-61340000D01*
X112271428Y-62768571D02*
X112271428Y-61268571D01*
X112914285Y-62768571D02*
X112914285Y-61982857D01*
X112842856Y-61840000D01*
X112699999Y-61768571D01*
X112485714Y-61768571D01*
X112342856Y-61840000D01*
X112271428Y-61911429D01*
X114271428Y-62768571D02*
X114271428Y-61982857D01*
X114199999Y-61840000D01*
X114057142Y-61768571D01*
X113771428Y-61768571D01*
X113628571Y-61840000D01*
X114271428Y-62697143D02*
X114128571Y-62768571D01*
X113771428Y-62768571D01*
X113628571Y-62697143D01*
X113557142Y-62554286D01*
X113557142Y-62411429D01*
X113628571Y-62268571D01*
X113771428Y-62197143D01*
X114128571Y-62197143D01*
X114271428Y-62125714D01*
X114842857Y-61768571D02*
X115128571Y-62768571D01*
X115414285Y-62054286D01*
X115700000Y-62768571D01*
X115985714Y-61768571D01*
D12*
X96758095Y-46172381D02*
X96758095Y-45172381D01*
X97186667Y-46172381D02*
X97186667Y-45648571D01*
X97139048Y-45553333D01*
X97043810Y-45505714D01*
X96900952Y-45505714D01*
X96805714Y-45553333D01*
X96758095Y-45600952D01*
X97520000Y-45505714D02*
X97900952Y-45505714D01*
X97662857Y-45172381D02*
X97662857Y-46029524D01*
X97710476Y-46124762D01*
X97805714Y-46172381D01*
X97900952Y-46172381D01*
X98091429Y-45505714D02*
X98472381Y-45505714D01*
X98234286Y-45172381D02*
X98234286Y-46029524D01*
X98281905Y-46124762D01*
X98377143Y-46172381D01*
X98472381Y-46172381D01*
X98805715Y-45505714D02*
X98805715Y-46505714D01*
X98805715Y-45553333D02*
X98900953Y-45505714D01*
X99091430Y-45505714D01*
X99186668Y-45553333D01*
X99234287Y-45600952D01*
X99281906Y-45696190D01*
X99281906Y-45981905D01*
X99234287Y-46077143D01*
X99186668Y-46124762D01*
X99091430Y-46172381D01*
X98900953Y-46172381D01*
X98805715Y-46124762D01*
X99662858Y-46124762D02*
X99758096Y-46172381D01*
X99948572Y-46172381D01*
X100043811Y-46124762D01*
X100091430Y-46029524D01*
X100091430Y-45981905D01*
X100043811Y-45886667D01*
X99948572Y-45839048D01*
X99805715Y-45839048D01*
X99710477Y-45791429D01*
X99662858Y-45696190D01*
X99662858Y-45648571D01*
X99710477Y-45553333D01*
X99805715Y-45505714D01*
X99948572Y-45505714D01*
X100043811Y-45553333D01*
X100520001Y-46077143D02*
X100567620Y-46124762D01*
X100520001Y-46172381D01*
X100472382Y-46124762D01*
X100520001Y-46077143D01*
X100520001Y-46172381D01*
X100520001Y-45553333D02*
X100567620Y-45600952D01*
X100520001Y-45648571D01*
X100472382Y-45600952D01*
X100520001Y-45553333D01*
X100520001Y-45648571D01*
X101710477Y-45124762D02*
X100853334Y-46410476D01*
X102758096Y-45124762D02*
X101900953Y-46410476D01*
X103520001Y-45505714D02*
X103520001Y-46315238D01*
X103472382Y-46410476D01*
X103424763Y-46458095D01*
X103329524Y-46505714D01*
X103186667Y-46505714D01*
X103091429Y-46458095D01*
X103520001Y-46124762D02*
X103424763Y-46172381D01*
X103234286Y-46172381D01*
X103139048Y-46124762D01*
X103091429Y-46077143D01*
X103043810Y-45981905D01*
X103043810Y-45696190D01*
X103091429Y-45600952D01*
X103139048Y-45553333D01*
X103234286Y-45505714D01*
X103424763Y-45505714D01*
X103520001Y-45553333D01*
X103996191Y-46172381D02*
X103996191Y-45505714D01*
X103996191Y-45172381D02*
X103948572Y-45220000D01*
X103996191Y-45267619D01*
X104043810Y-45220000D01*
X103996191Y-45172381D01*
X103996191Y-45267619D01*
X104329524Y-45505714D02*
X104710476Y-45505714D01*
X104472381Y-45172381D02*
X104472381Y-46029524D01*
X104520000Y-46124762D01*
X104615238Y-46172381D01*
X104710476Y-46172381D01*
X105043810Y-46172381D02*
X105043810Y-45172381D01*
X105472382Y-46172381D02*
X105472382Y-45648571D01*
X105424763Y-45553333D01*
X105329525Y-45505714D01*
X105186667Y-45505714D01*
X105091429Y-45553333D01*
X105043810Y-45600952D01*
X106377144Y-45505714D02*
X106377144Y-46172381D01*
X105948572Y-45505714D02*
X105948572Y-46029524D01*
X105996191Y-46124762D01*
X106091429Y-46172381D01*
X106234287Y-46172381D01*
X106329525Y-46124762D01*
X106377144Y-46077143D01*
X106853334Y-46172381D02*
X106853334Y-45172381D01*
X106853334Y-45553333D02*
X106948572Y-45505714D01*
X107139049Y-45505714D01*
X107234287Y-45553333D01*
X107281906Y-45600952D01*
X107329525Y-45696190D01*
X107329525Y-45981905D01*
X107281906Y-46077143D01*
X107234287Y-46124762D01*
X107139049Y-46172381D01*
X106948572Y-46172381D01*
X106853334Y-46124762D01*
X107758096Y-46077143D02*
X107805715Y-46124762D01*
X107758096Y-46172381D01*
X107710477Y-46124762D01*
X107758096Y-46077143D01*
X107758096Y-46172381D01*
X108662858Y-46124762D02*
X108567620Y-46172381D01*
X108377143Y-46172381D01*
X108281905Y-46124762D01*
X108234286Y-46077143D01*
X108186667Y-45981905D01*
X108186667Y-45696190D01*
X108234286Y-45600952D01*
X108281905Y-45553333D01*
X108377143Y-45505714D01*
X108567620Y-45505714D01*
X108662858Y-45553333D01*
X109234286Y-46172381D02*
X109139048Y-46124762D01*
X109091429Y-46077143D01*
X109043810Y-45981905D01*
X109043810Y-45696190D01*
X109091429Y-45600952D01*
X109139048Y-45553333D01*
X109234286Y-45505714D01*
X109377144Y-45505714D01*
X109472382Y-45553333D01*
X109520001Y-45600952D01*
X109567620Y-45696190D01*
X109567620Y-45981905D01*
X109520001Y-46077143D01*
X109472382Y-46124762D01*
X109377144Y-46172381D01*
X109234286Y-46172381D01*
X109996191Y-46172381D02*
X109996191Y-45505714D01*
X109996191Y-45600952D02*
X110043810Y-45553333D01*
X110139048Y-45505714D01*
X110281906Y-45505714D01*
X110377144Y-45553333D01*
X110424763Y-45648571D01*
X110424763Y-46172381D01*
X110424763Y-45648571D02*
X110472382Y-45553333D01*
X110567620Y-45505714D01*
X110710477Y-45505714D01*
X110805715Y-45553333D01*
X110853334Y-45648571D01*
X110853334Y-46172381D01*
X112043810Y-45124762D02*
X111186667Y-46410476D01*
X112567619Y-45172381D02*
X112758096Y-45172381D01*
X112853334Y-45220000D01*
X112948572Y-45315238D01*
X112996191Y-45505714D01*
X112996191Y-45839048D01*
X112948572Y-46029524D01*
X112853334Y-46124762D01*
X112758096Y-46172381D01*
X112567619Y-46172381D01*
X112472381Y-46124762D01*
X112377143Y-46029524D01*
X112329524Y-45839048D01*
X112329524Y-45505714D01*
X112377143Y-45315238D01*
X112472381Y-45220000D01*
X112567619Y-45172381D01*
X113424762Y-45505714D02*
X113424762Y-46505714D01*
X113424762Y-45553333D02*
X113520000Y-45505714D01*
X113710477Y-45505714D01*
X113805715Y-45553333D01*
X113853334Y-45600952D01*
X113900953Y-45696190D01*
X113900953Y-45981905D01*
X113853334Y-46077143D01*
X113805715Y-46124762D01*
X113710477Y-46172381D01*
X113520000Y-46172381D01*
X113424762Y-46124762D01*
X114710477Y-46124762D02*
X114615239Y-46172381D01*
X114424762Y-46172381D01*
X114329524Y-46124762D01*
X114281905Y-46029524D01*
X114281905Y-45648571D01*
X114329524Y-45553333D01*
X114424762Y-45505714D01*
X114615239Y-45505714D01*
X114710477Y-45553333D01*
X114758096Y-45648571D01*
X114758096Y-45743810D01*
X114281905Y-45839048D01*
X115186667Y-45505714D02*
X115186667Y-46172381D01*
X115186667Y-45600952D02*
X115234286Y-45553333D01*
X115329524Y-45505714D01*
X115472382Y-45505714D01*
X115567620Y-45553333D01*
X115615239Y-45648571D01*
X115615239Y-46172381D01*
X116091429Y-45648571D02*
X116424763Y-45648571D01*
X116567620Y-46172381D02*
X116091429Y-46172381D01*
X116091429Y-45172381D01*
X116567620Y-45172381D01*
X117139048Y-46172381D02*
X117043810Y-46124762D01*
X116996191Y-46029524D01*
X116996191Y-45172381D01*
X117900954Y-46124762D02*
X117805716Y-46172381D01*
X117615239Y-46172381D01*
X117520001Y-46124762D01*
X117472382Y-46029524D01*
X117472382Y-45648571D01*
X117520001Y-45553333D01*
X117615239Y-45505714D01*
X117805716Y-45505714D01*
X117900954Y-45553333D01*
X117948573Y-45648571D01*
X117948573Y-45743810D01*
X117472382Y-45839048D01*
X118805716Y-46124762D02*
X118710478Y-46172381D01*
X118520001Y-46172381D01*
X118424763Y-46124762D01*
X118377144Y-46077143D01*
X118329525Y-45981905D01*
X118329525Y-45696190D01*
X118377144Y-45600952D01*
X118424763Y-45553333D01*
X118520001Y-45505714D01*
X118710478Y-45505714D01*
X118805716Y-45553333D01*
X119091430Y-45505714D02*
X119472382Y-45505714D01*
X119234287Y-45172381D02*
X119234287Y-46029524D01*
X119281906Y-46124762D01*
X119377144Y-46172381D01*
X119472382Y-46172381D01*
X119805716Y-46172381D02*
X119805716Y-45505714D01*
X119805716Y-45696190D02*
X119853335Y-45600952D01*
X119900954Y-45553333D01*
X119996192Y-45505714D01*
X120091431Y-45505714D01*
X120567621Y-46172381D02*
X120472383Y-46124762D01*
X120424764Y-46077143D01*
X120377145Y-45981905D01*
X120377145Y-45696190D01*
X120424764Y-45600952D01*
X120472383Y-45553333D01*
X120567621Y-45505714D01*
X120710479Y-45505714D01*
X120805717Y-45553333D01*
X120853336Y-45600952D01*
X120900955Y-45696190D01*
X120900955Y-45981905D01*
X120853336Y-46077143D01*
X120805717Y-46124762D01*
X120710479Y-46172381D01*
X120567621Y-46172381D01*
X121329526Y-45505714D02*
X121329526Y-46172381D01*
X121329526Y-45600952D02*
X121377145Y-45553333D01*
X121472383Y-45505714D01*
X121615241Y-45505714D01*
X121710479Y-45553333D01*
X121758098Y-45648571D01*
X121758098Y-46172381D01*
X122234288Y-46172381D02*
X122234288Y-45505714D01*
X122234288Y-45172381D02*
X122186669Y-45220000D01*
X122234288Y-45267619D01*
X122281907Y-45220000D01*
X122234288Y-45172381D01*
X122234288Y-45267619D01*
X123139050Y-46124762D02*
X123043812Y-46172381D01*
X122853335Y-46172381D01*
X122758097Y-46124762D01*
X122710478Y-46077143D01*
X122662859Y-45981905D01*
X122662859Y-45696190D01*
X122710478Y-45600952D01*
X122758097Y-45553333D01*
X122853335Y-45505714D01*
X123043812Y-45505714D01*
X123139050Y-45553333D01*
X123520002Y-46124762D02*
X123615240Y-46172381D01*
X123805716Y-46172381D01*
X123900955Y-46124762D01*
X123948574Y-46029524D01*
X123948574Y-45981905D01*
X123900955Y-45886667D01*
X123805716Y-45839048D01*
X123662859Y-45839048D01*
X123567621Y-45791429D01*
X123520002Y-45696190D01*
X123520002Y-45648571D01*
X123567621Y-45553333D01*
X123662859Y-45505714D01*
X123805716Y-45505714D01*
X123900955Y-45553333D01*
X124853336Y-46172381D02*
X124377145Y-46172381D01*
X124377145Y-45172381D01*
X125615241Y-46172381D02*
X125615241Y-45648571D01*
X125567622Y-45553333D01*
X125472384Y-45505714D01*
X125281907Y-45505714D01*
X125186669Y-45553333D01*
X125615241Y-46124762D02*
X125520003Y-46172381D01*
X125281907Y-46172381D01*
X125186669Y-46124762D01*
X125139050Y-46029524D01*
X125139050Y-45934286D01*
X125186669Y-45839048D01*
X125281907Y-45791429D01*
X125520003Y-45791429D01*
X125615241Y-45743810D01*
X126091431Y-46172381D02*
X126091431Y-45172381D01*
X126091431Y-45553333D02*
X126186669Y-45505714D01*
X126377146Y-45505714D01*
X126472384Y-45553333D01*
X126520003Y-45600952D01*
X126567622Y-45696190D01*
X126567622Y-45981905D01*
X126520003Y-46077143D01*
X126472384Y-46124762D01*
X126377146Y-46172381D01*
X126186669Y-46172381D01*
X126091431Y-46124762D01*
X127710479Y-45124762D02*
X126853336Y-46410476D01*
X128234288Y-45172381D02*
X128424765Y-45172381D01*
X128520003Y-45220000D01*
X128615241Y-45315238D01*
X128662860Y-45505714D01*
X128662860Y-45839048D01*
X128615241Y-46029524D01*
X128520003Y-46124762D01*
X128424765Y-46172381D01*
X128234288Y-46172381D01*
X128139050Y-46124762D01*
X128043812Y-46029524D01*
X127996193Y-45839048D01*
X127996193Y-45505714D01*
X128043812Y-45315238D01*
X128139050Y-45220000D01*
X128234288Y-45172381D01*
X129091431Y-45505714D02*
X129091431Y-46505714D01*
X129091431Y-45553333D02*
X129186669Y-45505714D01*
X129377146Y-45505714D01*
X129472384Y-45553333D01*
X129520003Y-45600952D01*
X129567622Y-45696190D01*
X129567622Y-45981905D01*
X129520003Y-46077143D01*
X129472384Y-46124762D01*
X129377146Y-46172381D01*
X129186669Y-46172381D01*
X129091431Y-46124762D01*
X130377146Y-46124762D02*
X130281908Y-46172381D01*
X130091431Y-46172381D01*
X129996193Y-46124762D01*
X129948574Y-46029524D01*
X129948574Y-45648571D01*
X129996193Y-45553333D01*
X130091431Y-45505714D01*
X130281908Y-45505714D01*
X130377146Y-45553333D01*
X130424765Y-45648571D01*
X130424765Y-45743810D01*
X129948574Y-45839048D01*
X130853336Y-45505714D02*
X130853336Y-46172381D01*
X130853336Y-45600952D02*
X130900955Y-45553333D01*
X130996193Y-45505714D01*
X131139051Y-45505714D01*
X131234289Y-45553333D01*
X131281908Y-45648571D01*
X131281908Y-46172381D01*
X131758098Y-46172381D02*
X131758098Y-45172381D01*
X131758098Y-45648571D02*
X132329527Y-45648571D01*
X132329527Y-46172381D02*
X132329527Y-45172381D01*
X133234289Y-46172381D02*
X133234289Y-45648571D01*
X133186670Y-45553333D01*
X133091432Y-45505714D01*
X132900955Y-45505714D01*
X132805717Y-45553333D01*
X133234289Y-46124762D02*
X133139051Y-46172381D01*
X132900955Y-46172381D01*
X132805717Y-46124762D01*
X132758098Y-46029524D01*
X132758098Y-45934286D01*
X132805717Y-45839048D01*
X132900955Y-45791429D01*
X133139051Y-45791429D01*
X133234289Y-45743810D01*
X133710479Y-46172381D02*
X133710479Y-45505714D01*
X133710479Y-45696190D02*
X133758098Y-45600952D01*
X133805717Y-45553333D01*
X133900955Y-45505714D01*
X133996194Y-45505714D01*
X134758099Y-46172381D02*
X134758099Y-45172381D01*
X134758099Y-46124762D02*
X134662861Y-46172381D01*
X134472384Y-46172381D01*
X134377146Y-46124762D01*
X134329527Y-46077143D01*
X134281908Y-45981905D01*
X134281908Y-45696190D01*
X134329527Y-45600952D01*
X134377146Y-45553333D01*
X134472384Y-45505714D01*
X134662861Y-45505714D01*
X134758099Y-45553333D01*
X135139051Y-45505714D02*
X135329527Y-46172381D01*
X135520004Y-45696190D01*
X135710480Y-46172381D01*
X135900956Y-45505714D01*
X136710480Y-46172381D02*
X136710480Y-45648571D01*
X136662861Y-45553333D01*
X136567623Y-45505714D01*
X136377146Y-45505714D01*
X136281908Y-45553333D01*
X136710480Y-46124762D02*
X136615242Y-46172381D01*
X136377146Y-46172381D01*
X136281908Y-46124762D01*
X136234289Y-46029524D01*
X136234289Y-45934286D01*
X136281908Y-45839048D01*
X136377146Y-45791429D01*
X136615242Y-45791429D01*
X136710480Y-45743810D01*
X137186670Y-46172381D02*
X137186670Y-45505714D01*
X137186670Y-45696190D02*
X137234289Y-45600952D01*
X137281908Y-45553333D01*
X137377146Y-45505714D01*
X137472385Y-45505714D01*
X138186671Y-46124762D02*
X138091433Y-46172381D01*
X137900956Y-46172381D01*
X137805718Y-46124762D01*
X137758099Y-46029524D01*
X137758099Y-45648571D01*
X137805718Y-45553333D01*
X137900956Y-45505714D01*
X138091433Y-45505714D01*
X138186671Y-45553333D01*
X138234290Y-45648571D01*
X138234290Y-45743810D01*
X137758099Y-45839048D01*
X138662861Y-45648571D02*
X138996195Y-45648571D01*
X139139052Y-46172381D02*
X138662861Y-46172381D01*
X138662861Y-45172381D01*
X139139052Y-45172381D01*
X139472385Y-46172381D02*
X139996195Y-45505714D01*
X139472385Y-45505714D02*
X139996195Y-46172381D01*
X140900957Y-45220000D02*
X140805719Y-45172381D01*
X140662862Y-45172381D01*
X140520004Y-45220000D01*
X140424766Y-45315238D01*
X140377147Y-45410476D01*
X140329528Y-45600952D01*
X140329528Y-45743810D01*
X140377147Y-45934286D01*
X140424766Y-46029524D01*
X140520004Y-46124762D01*
X140662862Y-46172381D01*
X140758100Y-46172381D01*
X140900957Y-46124762D01*
X140948576Y-46077143D01*
X140948576Y-45743810D01*
X140758100Y-45743810D01*
X141139052Y-46267619D02*
X141900957Y-46267619D01*
X142091433Y-45886667D02*
X142567624Y-45886667D01*
X141996195Y-46172381D02*
X142329528Y-45172381D01*
X142662862Y-46172381D01*
X143424767Y-46124762D02*
X143329529Y-46172381D01*
X143139052Y-46172381D01*
X143043814Y-46124762D01*
X142996195Y-46077143D01*
X142948576Y-45981905D01*
X142948576Y-45696190D01*
X142996195Y-45600952D01*
X143043814Y-45553333D01*
X143139052Y-45505714D01*
X143329529Y-45505714D01*
X143424767Y-45553333D01*
X143710481Y-45505714D02*
X144091433Y-45505714D01*
X143853338Y-45172381D02*
X143853338Y-46029524D01*
X143900957Y-46124762D01*
X143996195Y-46172381D01*
X144091433Y-46172381D01*
X144424767Y-46172381D02*
X144424767Y-45505714D01*
X144424767Y-45172381D02*
X144377148Y-45220000D01*
X144424767Y-45267619D01*
X144472386Y-45220000D01*
X144424767Y-45172381D01*
X144424767Y-45267619D01*
X144805719Y-45505714D02*
X145043814Y-46172381D01*
X145281910Y-45505714D01*
X146043815Y-46124762D02*
X145948577Y-46172381D01*
X145758100Y-46172381D01*
X145662862Y-46124762D01*
X145615243Y-46029524D01*
X145615243Y-45648571D01*
X145662862Y-45553333D01*
X145758100Y-45505714D01*
X145948577Y-45505714D01*
X146043815Y-45553333D01*
X146091434Y-45648571D01*
X146091434Y-45743810D01*
X145615243Y-45839048D01*
X146520005Y-45648571D02*
X146853339Y-45648571D01*
X146996196Y-46172381D02*
X146520005Y-46172381D01*
X146520005Y-45172381D01*
X146996196Y-45172381D01*
X147567624Y-46172381D02*
X147472386Y-46124762D01*
X147424767Y-46029524D01*
X147424767Y-45172381D01*
X148329530Y-46124762D02*
X148234292Y-46172381D01*
X148043815Y-46172381D01*
X147948577Y-46124762D01*
X147900958Y-46029524D01*
X147900958Y-45648571D01*
X147948577Y-45553333D01*
X148043815Y-45505714D01*
X148234292Y-45505714D01*
X148329530Y-45553333D01*
X148377149Y-45648571D01*
X148377149Y-45743810D01*
X147900958Y-45839048D01*
X149234292Y-46124762D02*
X149139054Y-46172381D01*
X148948577Y-46172381D01*
X148853339Y-46124762D01*
X148805720Y-46077143D01*
X148758101Y-45981905D01*
X148758101Y-45696190D01*
X148805720Y-45600952D01*
X148853339Y-45553333D01*
X148948577Y-45505714D01*
X149139054Y-45505714D01*
X149234292Y-45553333D01*
X149520006Y-45505714D02*
X149900958Y-45505714D01*
X149662863Y-45172381D02*
X149662863Y-46029524D01*
X149710482Y-46124762D01*
X149805720Y-46172381D01*
X149900958Y-46172381D01*
X150234292Y-46172381D02*
X150234292Y-45505714D01*
X150234292Y-45696190D02*
X150281911Y-45600952D01*
X150329530Y-45553333D01*
X150424768Y-45505714D01*
X150520007Y-45505714D01*
X150996197Y-46172381D02*
X150900959Y-46124762D01*
X150853340Y-46077143D01*
X150805721Y-45981905D01*
X150805721Y-45696190D01*
X150853340Y-45600952D01*
X150900959Y-45553333D01*
X150996197Y-45505714D01*
X151139055Y-45505714D01*
X151234293Y-45553333D01*
X151281912Y-45600952D01*
X151329531Y-45696190D01*
X151329531Y-45981905D01*
X151281912Y-46077143D01*
X151234293Y-46124762D01*
X151139055Y-46172381D01*
X150996197Y-46172381D01*
X152186674Y-46172381D02*
X152186674Y-45172381D01*
X152186674Y-46124762D02*
X152091436Y-46172381D01*
X151900959Y-46172381D01*
X151805721Y-46124762D01*
X151758102Y-46077143D01*
X151710483Y-45981905D01*
X151710483Y-45696190D01*
X151758102Y-45600952D01*
X151805721Y-45553333D01*
X151900959Y-45505714D01*
X152091436Y-45505714D01*
X152186674Y-45553333D01*
X153043817Y-46124762D02*
X152948579Y-46172381D01*
X152758102Y-46172381D01*
X152662864Y-46124762D01*
X152615245Y-46029524D01*
X152615245Y-45648571D01*
X152662864Y-45553333D01*
X152758102Y-45505714D01*
X152948579Y-45505714D01*
X153043817Y-45553333D01*
X153091436Y-45648571D01*
X153091436Y-45743810D01*
X152615245Y-45839048D01*
X153472388Y-45886667D02*
X153948579Y-45886667D01*
X153377150Y-46172381D02*
X153710483Y-45172381D01*
X154043817Y-46172381D01*
X154805722Y-46172381D02*
X154805722Y-45172381D01*
X154805722Y-46124762D02*
X154710484Y-46172381D01*
X154520007Y-46172381D01*
X154424769Y-46124762D01*
X154377150Y-46077143D01*
X154329531Y-45981905D01*
X154329531Y-45696190D01*
X154377150Y-45600952D01*
X154424769Y-45553333D01*
X154520007Y-45505714D01*
X154710484Y-45505714D01*
X154805722Y-45553333D01*
X155710484Y-46172381D02*
X155710484Y-45648571D01*
X155662865Y-45553333D01*
X155567627Y-45505714D01*
X155377150Y-45505714D01*
X155281912Y-45553333D01*
X155710484Y-46124762D02*
X155615246Y-46172381D01*
X155377150Y-46172381D01*
X155281912Y-46124762D01*
X155234293Y-46029524D01*
X155234293Y-45934286D01*
X155281912Y-45839048D01*
X155377150Y-45791429D01*
X155615246Y-45791429D01*
X155710484Y-45743810D01*
X156186674Y-45505714D02*
X156186674Y-46505714D01*
X156186674Y-45553333D02*
X156281912Y-45505714D01*
X156472389Y-45505714D01*
X156567627Y-45553333D01*
X156615246Y-45600952D01*
X156662865Y-45696190D01*
X156662865Y-45981905D01*
X156615246Y-46077143D01*
X156567627Y-46124762D01*
X156472389Y-46172381D01*
X156281912Y-46172381D01*
X156186674Y-46124762D01*
X156948579Y-45505714D02*
X157329531Y-45505714D01*
X157091436Y-45172381D02*
X157091436Y-46029524D01*
X157139055Y-46124762D01*
X157234293Y-46172381D01*
X157329531Y-46172381D01*
X158043818Y-46124762D02*
X157948580Y-46172381D01*
X157758103Y-46172381D01*
X157662865Y-46124762D01*
X157615246Y-46029524D01*
X157615246Y-45648571D01*
X157662865Y-45553333D01*
X157758103Y-45505714D01*
X157948580Y-45505714D01*
X158043818Y-45553333D01*
X158091437Y-45648571D01*
X158091437Y-45743810D01*
X157615246Y-45839048D01*
X158520008Y-46172381D02*
X158520008Y-45505714D01*
X158520008Y-45696190D02*
X158567627Y-45600952D01*
X158615246Y-45553333D01*
X158710484Y-45505714D01*
X158805723Y-45505714D01*
D11*
X96701429Y-42358571D02*
X96987143Y-42358571D01*
X97130001Y-42430000D01*
X97272858Y-42572857D01*
X97344286Y-42858571D01*
X97344286Y-43358571D01*
X97272858Y-43644286D01*
X97130001Y-43787143D01*
X96987143Y-43858571D01*
X96701429Y-43858571D01*
X96558572Y-43787143D01*
X96415715Y-43644286D01*
X96344286Y-43358571D01*
X96344286Y-42858571D01*
X96415715Y-42572857D01*
X96558572Y-42430000D01*
X96701429Y-42358571D01*
X97987144Y-42858571D02*
X97987144Y-44358571D01*
X97987144Y-42930000D02*
X98130001Y-42858571D01*
X98415715Y-42858571D01*
X98558572Y-42930000D01*
X98630001Y-43001429D01*
X98701430Y-43144286D01*
X98701430Y-43572857D01*
X98630001Y-43715714D01*
X98558572Y-43787143D01*
X98415715Y-43858571D01*
X98130001Y-43858571D01*
X97987144Y-43787143D01*
X99915715Y-43787143D02*
X99772858Y-43858571D01*
X99487144Y-43858571D01*
X99344287Y-43787143D01*
X99272858Y-43644286D01*
X99272858Y-43072857D01*
X99344287Y-42930000D01*
X99487144Y-42858571D01*
X99772858Y-42858571D01*
X99915715Y-42930000D01*
X99987144Y-43072857D01*
X99987144Y-43215714D01*
X99272858Y-43358571D01*
X100630001Y-42858571D02*
X100630001Y-43858571D01*
X100630001Y-43001429D02*
X100701429Y-42930000D01*
X100844287Y-42858571D01*
X101058572Y-42858571D01*
X101201429Y-42930000D01*
X101272858Y-43072857D01*
X101272858Y-43858571D01*
X101987144Y-43858571D02*
X101987144Y-42358571D01*
X101987144Y-43072857D02*
X102844287Y-43072857D01*
X102844287Y-43858571D02*
X102844287Y-42358571D01*
X104201430Y-43858571D02*
X104201430Y-43072857D01*
X104130001Y-42930000D01*
X103987144Y-42858571D01*
X103701430Y-42858571D01*
X103558573Y-42930000D01*
X104201430Y-43787143D02*
X104058573Y-43858571D01*
X103701430Y-43858571D01*
X103558573Y-43787143D01*
X103487144Y-43644286D01*
X103487144Y-43501429D01*
X103558573Y-43358571D01*
X103701430Y-43287143D01*
X104058573Y-43287143D01*
X104201430Y-43215714D01*
X104915716Y-43858571D02*
X104915716Y-42858571D01*
X104915716Y-43144286D02*
X104987144Y-43001429D01*
X105058573Y-42930000D01*
X105201430Y-42858571D01*
X105344287Y-42858571D01*
X106487144Y-43858571D02*
X106487144Y-42358571D01*
X106487144Y-43787143D02*
X106344287Y-43858571D01*
X106058573Y-43858571D01*
X105915715Y-43787143D01*
X105844287Y-43715714D01*
X105772858Y-43572857D01*
X105772858Y-43144286D01*
X105844287Y-43001429D01*
X105915715Y-42930000D01*
X106058573Y-42858571D01*
X106344287Y-42858571D01*
X106487144Y-42930000D01*
X107058573Y-42858571D02*
X107344287Y-43858571D01*
X107630001Y-43144286D01*
X107915716Y-43858571D01*
X108201430Y-42858571D01*
X109415716Y-43858571D02*
X109415716Y-43072857D01*
X109344287Y-42930000D01*
X109201430Y-42858571D01*
X108915716Y-42858571D01*
X108772859Y-42930000D01*
X109415716Y-43787143D02*
X109272859Y-43858571D01*
X108915716Y-43858571D01*
X108772859Y-43787143D01*
X108701430Y-43644286D01*
X108701430Y-43501429D01*
X108772859Y-43358571D01*
X108915716Y-43287143D01*
X109272859Y-43287143D01*
X109415716Y-43215714D01*
X110130002Y-43858571D02*
X110130002Y-42858571D01*
X110130002Y-43144286D02*
X110201430Y-43001429D01*
X110272859Y-42930000D01*
X110415716Y-42858571D01*
X110558573Y-42858571D01*
X111630001Y-43787143D02*
X111487144Y-43858571D01*
X111201430Y-43858571D01*
X111058573Y-43787143D01*
X110987144Y-43644286D01*
X110987144Y-43072857D01*
X111058573Y-42930000D01*
X111201430Y-42858571D01*
X111487144Y-42858571D01*
X111630001Y-42930000D01*
X111701430Y-43072857D01*
X111701430Y-43215714D01*
X110987144Y-43358571D01*
X112344287Y-43072857D02*
X112844287Y-43072857D01*
X113058573Y-43858571D02*
X112344287Y-43858571D01*
X112344287Y-42358571D01*
X113058573Y-42358571D01*
X113558573Y-43858571D02*
X114344287Y-42858571D01*
X113558573Y-42858571D02*
X114344287Y-43858571D01*
X115701430Y-42430000D02*
X115558573Y-42358571D01*
X115344287Y-42358571D01*
X115130002Y-42430000D01*
X114987144Y-42572857D01*
X114915716Y-42715714D01*
X114844287Y-43001429D01*
X114844287Y-43215714D01*
X114915716Y-43501429D01*
X114987144Y-43644286D01*
X115130002Y-43787143D01*
X115344287Y-43858571D01*
X115487144Y-43858571D01*
X115701430Y-43787143D01*
X115772859Y-43715714D01*
X115772859Y-43215714D01*
X115487144Y-43215714D01*
X116058573Y-44001429D02*
X117201430Y-44001429D01*
X117487144Y-43430000D02*
X118201430Y-43430000D01*
X117344287Y-43858571D02*
X117844287Y-42358571D01*
X118344287Y-43858571D01*
X119487144Y-43787143D02*
X119344287Y-43858571D01*
X119058573Y-43858571D01*
X118915715Y-43787143D01*
X118844287Y-43715714D01*
X118772858Y-43572857D01*
X118772858Y-43144286D01*
X118844287Y-43001429D01*
X118915715Y-42930000D01*
X119058573Y-42858571D01*
X119344287Y-42858571D01*
X119487144Y-42930000D01*
X119915715Y-42858571D02*
X120487144Y-42858571D01*
X120130001Y-42358571D02*
X120130001Y-43644286D01*
X120201429Y-43787143D01*
X120344287Y-43858571D01*
X120487144Y-43858571D01*
X120987144Y-43858571D02*
X120987144Y-42858571D01*
X120987144Y-42358571D02*
X120915715Y-42430000D01*
X120987144Y-42501429D01*
X121058572Y-42430000D01*
X120987144Y-42358571D01*
X120987144Y-42501429D01*
X121558573Y-42858571D02*
X121915716Y-43858571D01*
X122272858Y-42858571D01*
X123415715Y-43787143D02*
X123272858Y-43858571D01*
X122987144Y-43858571D01*
X122844287Y-43787143D01*
X122772858Y-43644286D01*
X122772858Y-43072857D01*
X122844287Y-42930000D01*
X122987144Y-42858571D01*
X123272858Y-42858571D01*
X123415715Y-42930000D01*
X123487144Y-43072857D01*
X123487144Y-43215714D01*
X122772858Y-43358571D01*
X124130001Y-43072857D02*
X124630001Y-43072857D01*
X124844287Y-43858571D02*
X124130001Y-43858571D01*
X124130001Y-42358571D01*
X124844287Y-42358571D01*
X125701430Y-43858571D02*
X125558572Y-43787143D01*
X125487144Y-43644286D01*
X125487144Y-42358571D01*
X126844286Y-43787143D02*
X126701429Y-43858571D01*
X126415715Y-43858571D01*
X126272858Y-43787143D01*
X126201429Y-43644286D01*
X126201429Y-43072857D01*
X126272858Y-42930000D01*
X126415715Y-42858571D01*
X126701429Y-42858571D01*
X126844286Y-42930000D01*
X126915715Y-43072857D01*
X126915715Y-43215714D01*
X126201429Y-43358571D01*
X128201429Y-43787143D02*
X128058572Y-43858571D01*
X127772858Y-43858571D01*
X127630000Y-43787143D01*
X127558572Y-43715714D01*
X127487143Y-43572857D01*
X127487143Y-43144286D01*
X127558572Y-43001429D01*
X127630000Y-42930000D01*
X127772858Y-42858571D01*
X128058572Y-42858571D01*
X128201429Y-42930000D01*
X128630000Y-42858571D02*
X129201429Y-42858571D01*
X128844286Y-42358571D02*
X128844286Y-43644286D01*
X128915714Y-43787143D01*
X129058572Y-43858571D01*
X129201429Y-43858571D01*
X129701429Y-43858571D02*
X129701429Y-42858571D01*
X129701429Y-43144286D02*
X129772857Y-43001429D01*
X129844286Y-42930000D01*
X129987143Y-42858571D01*
X130130000Y-42858571D01*
X130844286Y-43858571D02*
X130701428Y-43787143D01*
X130630000Y-43715714D01*
X130558571Y-43572857D01*
X130558571Y-43144286D01*
X130630000Y-43001429D01*
X130701428Y-42930000D01*
X130844286Y-42858571D01*
X131058571Y-42858571D01*
X131201428Y-42930000D01*
X131272857Y-43001429D01*
X131344286Y-43144286D01*
X131344286Y-43572857D01*
X131272857Y-43715714D01*
X131201428Y-43787143D01*
X131058571Y-43858571D01*
X130844286Y-43858571D01*
X132630000Y-43858571D02*
X132630000Y-42358571D01*
X132630000Y-43787143D02*
X132487143Y-43858571D01*
X132201429Y-43858571D01*
X132058571Y-43787143D01*
X131987143Y-43715714D01*
X131915714Y-43572857D01*
X131915714Y-43144286D01*
X131987143Y-43001429D01*
X132058571Y-42930000D01*
X132201429Y-42858571D01*
X132487143Y-42858571D01*
X132630000Y-42930000D01*
X133915714Y-43787143D02*
X133772857Y-43858571D01*
X133487143Y-43858571D01*
X133344286Y-43787143D01*
X133272857Y-43644286D01*
X133272857Y-43072857D01*
X133344286Y-42930000D01*
X133487143Y-42858571D01*
X133772857Y-42858571D01*
X133915714Y-42930000D01*
X133987143Y-43072857D01*
X133987143Y-43215714D01*
X133272857Y-43358571D01*
X134558571Y-43430000D02*
X135272857Y-43430000D01*
X134415714Y-43858571D02*
X134915714Y-42358571D01*
X135415714Y-43858571D01*
X136558571Y-43858571D02*
X136558571Y-42358571D01*
X136558571Y-43787143D02*
X136415714Y-43858571D01*
X136130000Y-43858571D01*
X135987142Y-43787143D01*
X135915714Y-43715714D01*
X135844285Y-43572857D01*
X135844285Y-43144286D01*
X135915714Y-43001429D01*
X135987142Y-42930000D01*
X136130000Y-42858571D01*
X136415714Y-42858571D01*
X136558571Y-42930000D01*
X137915714Y-43858571D02*
X137915714Y-43072857D01*
X137844285Y-42930000D01*
X137701428Y-42858571D01*
X137415714Y-42858571D01*
X137272857Y-42930000D01*
X137915714Y-43787143D02*
X137772857Y-43858571D01*
X137415714Y-43858571D01*
X137272857Y-43787143D01*
X137201428Y-43644286D01*
X137201428Y-43501429D01*
X137272857Y-43358571D01*
X137415714Y-43287143D01*
X137772857Y-43287143D01*
X137915714Y-43215714D01*
X138630000Y-42858571D02*
X138630000Y-44358571D01*
X138630000Y-42930000D02*
X138772857Y-42858571D01*
X139058571Y-42858571D01*
X139201428Y-42930000D01*
X139272857Y-43001429D01*
X139344286Y-43144286D01*
X139344286Y-43572857D01*
X139272857Y-43715714D01*
X139201428Y-43787143D01*
X139058571Y-43858571D01*
X138772857Y-43858571D01*
X138630000Y-43787143D01*
X139772857Y-42858571D02*
X140344286Y-42858571D01*
X139987143Y-42358571D02*
X139987143Y-43644286D01*
X140058571Y-43787143D01*
X140201429Y-43858571D01*
X140344286Y-43858571D01*
X141415714Y-43787143D02*
X141272857Y-43858571D01*
X140987143Y-43858571D01*
X140844286Y-43787143D01*
X140772857Y-43644286D01*
X140772857Y-43072857D01*
X140844286Y-42930000D01*
X140987143Y-42858571D01*
X141272857Y-42858571D01*
X141415714Y-42930000D01*
X141487143Y-43072857D01*
X141487143Y-43215714D01*
X140772857Y-43358571D01*
X142130000Y-43858571D02*
X142130000Y-42858571D01*
X142130000Y-43144286D02*
X142201428Y-43001429D01*
X142272857Y-42930000D01*
X142415714Y-42858571D01*
X142558571Y-42858571D01*
X92654286Y-74265714D02*
X92582857Y-74337143D01*
X92368571Y-74408571D01*
X92225714Y-74408571D01*
X92011429Y-74337143D01*
X91868571Y-74194286D01*
X91797143Y-74051429D01*
X91725714Y-73765714D01*
X91725714Y-73551429D01*
X91797143Y-73265714D01*
X91868571Y-73122857D01*
X92011429Y-72980000D01*
X92225714Y-72908571D01*
X92368571Y-72908571D01*
X92582857Y-72980000D01*
X92654286Y-73051429D01*
X93297143Y-73622857D02*
X93797143Y-73622857D01*
X94011429Y-74408571D02*
X93297143Y-74408571D01*
X93297143Y-72908571D01*
X94011429Y-72908571D01*
X95511429Y-74408571D02*
X95011429Y-73694286D01*
X94654286Y-74408571D02*
X94654286Y-72908571D01*
X95225714Y-72908571D01*
X95368572Y-72980000D01*
X95440000Y-73051429D01*
X95511429Y-73194286D01*
X95511429Y-73408571D01*
X95440000Y-73551429D01*
X95368572Y-73622857D01*
X95225714Y-73694286D01*
X94654286Y-73694286D01*
X96154286Y-74408571D02*
X96154286Y-72908571D01*
X96154286Y-73622857D02*
X97011429Y-73622857D01*
X97011429Y-74408571D02*
X97011429Y-72908571D01*
X99154286Y-72908571D02*
X99440000Y-72908571D01*
X99582858Y-72980000D01*
X99725715Y-73122857D01*
X99797143Y-73408571D01*
X99797143Y-73908571D01*
X99725715Y-74194286D01*
X99582858Y-74337143D01*
X99440000Y-74408571D01*
X99154286Y-74408571D01*
X99011429Y-74337143D01*
X98868572Y-74194286D01*
X98797143Y-73908571D01*
X98797143Y-73408571D01*
X98868572Y-73122857D01*
X99011429Y-72980000D01*
X99154286Y-72908571D01*
X100440001Y-74408571D02*
X100440001Y-72908571D01*
X100440001Y-73622857D02*
X101297144Y-73622857D01*
X101297144Y-74408571D02*
X101297144Y-72908571D01*
X102725716Y-74408571D02*
X102011430Y-74408571D01*
X102011430Y-72908571D01*
X91654286Y-75808571D02*
X92011429Y-76808571D01*
X92368571Y-75808571D01*
X93511428Y-76737143D02*
X93368571Y-76808571D01*
X93082857Y-76808571D01*
X92940000Y-76737143D01*
X92868571Y-76594286D01*
X92868571Y-76022857D01*
X92940000Y-75880000D01*
X93082857Y-75808571D01*
X93368571Y-75808571D01*
X93511428Y-75880000D01*
X93582857Y-76022857D01*
X93582857Y-76165714D01*
X92868571Y-76308571D01*
X94225714Y-76808571D02*
X94225714Y-75808571D01*
X94225714Y-76094286D02*
X94297142Y-75951429D01*
X94368571Y-75880000D01*
X94511428Y-75808571D01*
X94654285Y-75808571D01*
X95082856Y-76737143D02*
X95225713Y-76808571D01*
X95511428Y-76808571D01*
X95654285Y-76737143D01*
X95725713Y-76594286D01*
X95725713Y-76522857D01*
X95654285Y-76380000D01*
X95511428Y-76308571D01*
X95297142Y-76308571D01*
X95154285Y-76237143D01*
X95082856Y-76094286D01*
X95082856Y-76022857D01*
X95154285Y-75880000D01*
X95297142Y-75808571D01*
X95511428Y-75808571D01*
X95654285Y-75880000D01*
X96368571Y-76808571D02*
X96368571Y-75808571D01*
X96368571Y-75308571D02*
X96297142Y-75380000D01*
X96368571Y-75451429D01*
X96439999Y-75380000D01*
X96368571Y-75308571D01*
X96368571Y-75451429D01*
X97297143Y-76808571D02*
X97154285Y-76737143D01*
X97082857Y-76665714D01*
X97011428Y-76522857D01*
X97011428Y-76094286D01*
X97082857Y-75951429D01*
X97154285Y-75880000D01*
X97297143Y-75808571D01*
X97511428Y-75808571D01*
X97654285Y-75880000D01*
X97725714Y-75951429D01*
X97797143Y-76094286D01*
X97797143Y-76522857D01*
X97725714Y-76665714D01*
X97654285Y-76737143D01*
X97511428Y-76808571D01*
X97297143Y-76808571D01*
X98440000Y-75808571D02*
X98440000Y-76808571D01*
X98440000Y-75951429D02*
X98511428Y-75880000D01*
X98654286Y-75808571D01*
X98868571Y-75808571D01*
X99011428Y-75880000D01*
X99082857Y-76022857D01*
X99082857Y-76808571D01*
X101725714Y-76808571D02*
X100868571Y-76808571D01*
X101297143Y-76808571D02*
X101297143Y-75308571D01*
X101154286Y-75522857D01*
X101011428Y-75665714D01*
X100868571Y-75737143D01*
X102368571Y-76665714D02*
X102439999Y-76737143D01*
X102368571Y-76808571D01*
X102297142Y-76737143D01*
X102368571Y-76665714D01*
X102368571Y-76808571D01*
X103011428Y-75451429D02*
X103082857Y-75380000D01*
X103225714Y-75308571D01*
X103582857Y-75308571D01*
X103725714Y-75380000D01*
X103797143Y-75451429D01*
X103868571Y-75594286D01*
X103868571Y-75737143D01*
X103797143Y-75951429D01*
X102940000Y-76808571D01*
X103868571Y-76808571D01*
X105868571Y-76808571D02*
X105725713Y-76737143D01*
X105654285Y-76665714D01*
X105582856Y-76522857D01*
X105582856Y-76094286D01*
X105654285Y-75951429D01*
X105725713Y-75880000D01*
X105868571Y-75808571D01*
X106082856Y-75808571D01*
X106225713Y-75880000D01*
X106297142Y-75951429D01*
X106368571Y-76094286D01*
X106368571Y-76522857D01*
X106297142Y-76665714D01*
X106225713Y-76737143D01*
X106082856Y-76808571D01*
X105868571Y-76808571D01*
X107011428Y-76808571D02*
X107011428Y-75808571D01*
X107011428Y-76094286D02*
X107082856Y-75951429D01*
X107154285Y-75880000D01*
X107297142Y-75808571D01*
X107439999Y-75808571D01*
X109297142Y-76808571D02*
X109154284Y-76737143D01*
X109082856Y-76594286D01*
X109082856Y-75308571D01*
X110511427Y-76808571D02*
X110511427Y-76022857D01*
X110439998Y-75880000D01*
X110297141Y-75808571D01*
X110011427Y-75808571D01*
X109868570Y-75880000D01*
X110511427Y-76737143D02*
X110368570Y-76808571D01*
X110011427Y-76808571D01*
X109868570Y-76737143D01*
X109797141Y-76594286D01*
X109797141Y-76451429D01*
X109868570Y-76308571D01*
X110011427Y-76237143D01*
X110368570Y-76237143D01*
X110511427Y-76165714D01*
X111011427Y-75808571D02*
X111582856Y-75808571D01*
X111225713Y-75308571D02*
X111225713Y-76594286D01*
X111297141Y-76737143D01*
X111439999Y-76808571D01*
X111582856Y-76808571D01*
X112654284Y-76737143D02*
X112511427Y-76808571D01*
X112225713Y-76808571D01*
X112082856Y-76737143D01*
X112011427Y-76594286D01*
X112011427Y-76022857D01*
X112082856Y-75880000D01*
X112225713Y-75808571D01*
X112511427Y-75808571D01*
X112654284Y-75880000D01*
X112725713Y-76022857D01*
X112725713Y-76165714D01*
X112011427Y-76308571D01*
X113368570Y-76808571D02*
X113368570Y-75808571D01*
X113368570Y-76094286D02*
X113439998Y-75951429D01*
X113511427Y-75880000D01*
X113654284Y-75808571D01*
X113797141Y-75808571D01*
X187500000Y-38778571D02*
X187000000Y-38064286D01*
X186642857Y-38778571D02*
X186642857Y-37278571D01*
X187214285Y-37278571D01*
X187357143Y-37350000D01*
X187428571Y-37421429D01*
X187500000Y-37564286D01*
X187500000Y-37778571D01*
X187428571Y-37921429D01*
X187357143Y-37992857D01*
X187214285Y-38064286D01*
X186642857Y-38064286D01*
X188857143Y-38778571D02*
X188142857Y-38778571D01*
X188142857Y-37278571D01*
X189357143Y-38778571D02*
X189357143Y-37278571D01*
X189714286Y-37278571D01*
X189928571Y-37350000D01*
X190071429Y-37492857D01*
X190142857Y-37635714D01*
X190214286Y-37921429D01*
X190214286Y-38135714D01*
X190142857Y-38421429D01*
X190071429Y-38564286D01*
X189928571Y-38707143D01*
X189714286Y-38778571D01*
X189357143Y-38778571D01*
X187785715Y-40461429D02*
X187642857Y-40390000D01*
X187571429Y-40318571D01*
X187500000Y-40175714D01*
X187500000Y-40104286D01*
X187571429Y-39961429D01*
X187642857Y-39890000D01*
X187785715Y-39818571D01*
X188071429Y-39818571D01*
X188214286Y-39890000D01*
X188285715Y-39961429D01*
X188357143Y-40104286D01*
X188357143Y-40175714D01*
X188285715Y-40318571D01*
X188214286Y-40390000D01*
X188071429Y-40461429D01*
X187785715Y-40461429D01*
X187642857Y-40532857D01*
X187571429Y-40604286D01*
X187500000Y-40747143D01*
X187500000Y-41032857D01*
X187571429Y-41175714D01*
X187642857Y-41247143D01*
X187785715Y-41318571D01*
X188071429Y-41318571D01*
X188214286Y-41247143D01*
X188285715Y-41175714D01*
X188357143Y-41032857D01*
X188357143Y-40747143D01*
X188285715Y-40604286D01*
X188214286Y-40532857D01*
X188071429Y-40461429D01*
X189000000Y-40747143D02*
X190142857Y-40747143D01*
X187785715Y-43001429D02*
X187642857Y-42930000D01*
X187571429Y-42858571D01*
X187500000Y-42715714D01*
X187500000Y-42644286D01*
X187571429Y-42501429D01*
X187642857Y-42430000D01*
X187785715Y-42358571D01*
X188071429Y-42358571D01*
X188214286Y-42430000D01*
X188285715Y-42501429D01*
X188357143Y-42644286D01*
X188357143Y-42715714D01*
X188285715Y-42858571D01*
X188214286Y-42930000D01*
X188071429Y-43001429D01*
X187785715Y-43001429D01*
X187642857Y-43072857D01*
X187571429Y-43144286D01*
X187500000Y-43287143D01*
X187500000Y-43572857D01*
X187571429Y-43715714D01*
X187642857Y-43787143D01*
X187785715Y-43858571D01*
X188071429Y-43858571D01*
X188214286Y-43787143D01*
X188285715Y-43715714D01*
X188357143Y-43572857D01*
X188357143Y-43287143D01*
X188285715Y-43144286D01*
X188214286Y-43072857D01*
X188071429Y-43001429D01*
X189000000Y-43287143D02*
X190142857Y-43287143D01*
X189571428Y-43858571D02*
X189571428Y-42715714D01*
X187428572Y-44898571D02*
X188428572Y-44898571D01*
X187785715Y-46398571D01*
X189000000Y-45827143D02*
X190142857Y-45827143D01*
X187428572Y-47438571D02*
X188428572Y-47438571D01*
X187785715Y-48938571D01*
X189000000Y-48367143D02*
X190142857Y-48367143D01*
X189571428Y-48938571D02*
X189571428Y-47795714D01*
X188214286Y-49978571D02*
X187928572Y-49978571D01*
X187785715Y-50050000D01*
X187714286Y-50121429D01*
X187571429Y-50335714D01*
X187500000Y-50621429D01*
X187500000Y-51192857D01*
X187571429Y-51335714D01*
X187642857Y-51407143D01*
X187785715Y-51478571D01*
X188071429Y-51478571D01*
X188214286Y-51407143D01*
X188285715Y-51335714D01*
X188357143Y-51192857D01*
X188357143Y-50835714D01*
X188285715Y-50692857D01*
X188214286Y-50621429D01*
X188071429Y-50550000D01*
X187785715Y-50550000D01*
X187642857Y-50621429D01*
X187571429Y-50692857D01*
X187500000Y-50835714D01*
X189000000Y-50907143D02*
X190142857Y-50907143D01*
X188214286Y-52518571D02*
X187928572Y-52518571D01*
X187785715Y-52590000D01*
X187714286Y-52661429D01*
X187571429Y-52875714D01*
X187500000Y-53161429D01*
X187500000Y-53732857D01*
X187571429Y-53875714D01*
X187642857Y-53947143D01*
X187785715Y-54018571D01*
X188071429Y-54018571D01*
X188214286Y-53947143D01*
X188285715Y-53875714D01*
X188357143Y-53732857D01*
X188357143Y-53375714D01*
X188285715Y-53232857D01*
X188214286Y-53161429D01*
X188071429Y-53090000D01*
X187785715Y-53090000D01*
X187642857Y-53161429D01*
X187571429Y-53232857D01*
X187500000Y-53375714D01*
X189000000Y-53447143D02*
X190142857Y-53447143D01*
X189571428Y-54018571D02*
X189571428Y-52875714D01*
X188285715Y-55058571D02*
X187571429Y-55058571D01*
X187500000Y-55772857D01*
X187571429Y-55701429D01*
X187714286Y-55630000D01*
X188071429Y-55630000D01*
X188214286Y-55701429D01*
X188285715Y-55772857D01*
X188357143Y-55915714D01*
X188357143Y-56272857D01*
X188285715Y-56415714D01*
X188214286Y-56487143D01*
X188071429Y-56558571D01*
X187714286Y-56558571D01*
X187571429Y-56487143D01*
X187500000Y-56415714D01*
X189000000Y-55987143D02*
X190142857Y-55987143D01*
X188285715Y-57598571D02*
X187571429Y-57598571D01*
X187500000Y-58312857D01*
X187571429Y-58241429D01*
X187714286Y-58170000D01*
X188071429Y-58170000D01*
X188214286Y-58241429D01*
X188285715Y-58312857D01*
X188357143Y-58455714D01*
X188357143Y-58812857D01*
X188285715Y-58955714D01*
X188214286Y-59027143D01*
X188071429Y-59098571D01*
X187714286Y-59098571D01*
X187571429Y-59027143D01*
X187500000Y-58955714D01*
X189000000Y-58527143D02*
X190142857Y-58527143D01*
X189571428Y-59098571D02*
X189571428Y-57955714D01*
X188214286Y-60638571D02*
X188214286Y-61638571D01*
X187857143Y-60067143D02*
X187500000Y-61138571D01*
X188428572Y-61138571D01*
X189000000Y-61067143D02*
X190142857Y-61067143D01*
X188214286Y-63178571D02*
X188214286Y-64178571D01*
X187857143Y-62607143D02*
X187500000Y-63678571D01*
X188428572Y-63678571D01*
X189000000Y-63607143D02*
X190142857Y-63607143D01*
X189571428Y-64178571D02*
X189571428Y-63035714D01*
X187428572Y-65218571D02*
X188357143Y-65218571D01*
X187857143Y-65790000D01*
X188071429Y-65790000D01*
X188214286Y-65861429D01*
X188285715Y-65932857D01*
X188357143Y-66075714D01*
X188357143Y-66432857D01*
X188285715Y-66575714D01*
X188214286Y-66647143D01*
X188071429Y-66718571D01*
X187642857Y-66718571D01*
X187500000Y-66647143D01*
X187428572Y-66575714D01*
X189000000Y-66147143D02*
X190142857Y-66147143D01*
X187428572Y-67758571D02*
X188357143Y-67758571D01*
X187857143Y-68330000D01*
X188071429Y-68330000D01*
X188214286Y-68401429D01*
X188285715Y-68472857D01*
X188357143Y-68615714D01*
X188357143Y-68972857D01*
X188285715Y-69115714D01*
X188214286Y-69187143D01*
X188071429Y-69258571D01*
X187642857Y-69258571D01*
X187500000Y-69187143D01*
X187428572Y-69115714D01*
X189000000Y-68687143D02*
X190142857Y-68687143D01*
X189571428Y-69258571D02*
X189571428Y-68115714D01*
X187500000Y-70441429D02*
X187571429Y-70370000D01*
X187714286Y-70298571D01*
X188071429Y-70298571D01*
X188214286Y-70370000D01*
X188285715Y-70441429D01*
X188357143Y-70584286D01*
X188357143Y-70727143D01*
X188285715Y-70941429D01*
X187428572Y-71798571D01*
X188357143Y-71798571D01*
X189000000Y-71227143D02*
X190142857Y-71227143D01*
X187500000Y-72981429D02*
X187571429Y-72910000D01*
X187714286Y-72838571D01*
X188071429Y-72838571D01*
X188214286Y-72910000D01*
X188285715Y-72981429D01*
X188357143Y-73124286D01*
X188357143Y-73267143D01*
X188285715Y-73481429D01*
X187428572Y-74338571D01*
X188357143Y-74338571D01*
X189000000Y-73767143D02*
X190142857Y-73767143D01*
X189571428Y-74338571D02*
X189571428Y-73195714D01*
X188357143Y-76878571D02*
X187500000Y-76878571D01*
X187928572Y-76878571D02*
X187928572Y-75378571D01*
X187785715Y-75592857D01*
X187642857Y-75735714D01*
X187500000Y-75807143D01*
X189000000Y-76307143D02*
X190142857Y-76307143D01*
X188357143Y-79418571D02*
X187500000Y-79418571D01*
X187928572Y-79418571D02*
X187928572Y-77918571D01*
X187785715Y-78132857D01*
X187642857Y-78275714D01*
X187500000Y-78347143D01*
X189000000Y-78847143D02*
X190142857Y-78847143D01*
X189571428Y-79418571D02*
X189571428Y-78275714D01*
X187071428Y-80530000D02*
X186928571Y-80458571D01*
X186714285Y-80458571D01*
X186500000Y-80530000D01*
X186357142Y-80672857D01*
X186285714Y-80815714D01*
X186214285Y-81101429D01*
X186214285Y-81315714D01*
X186285714Y-81601429D01*
X186357142Y-81744286D01*
X186500000Y-81887143D01*
X186714285Y-81958571D01*
X186857142Y-81958571D01*
X187071428Y-81887143D01*
X187142857Y-81815714D01*
X187142857Y-81315714D01*
X186857142Y-81315714D01*
X187785714Y-81958571D02*
X187785714Y-80458571D01*
X188642857Y-81958571D01*
X188642857Y-80458571D01*
X189357143Y-81958571D02*
X189357143Y-80458571D01*
X189714286Y-80458571D01*
X189928571Y-80530000D01*
X190071429Y-80672857D01*
X190142857Y-80815714D01*
X190214286Y-81101429D01*
X190214286Y-81315714D01*
X190142857Y-81601429D01*
X190071429Y-81744286D01*
X189928571Y-81887143D01*
X189714286Y-81958571D01*
X189357143Y-81958571D01*
X171831428Y-80530000D02*
X171688571Y-80458571D01*
X171474285Y-80458571D01*
X171260000Y-80530000D01*
X171117142Y-80672857D01*
X171045714Y-80815714D01*
X170974285Y-81101429D01*
X170974285Y-81315714D01*
X171045714Y-81601429D01*
X171117142Y-81744286D01*
X171260000Y-81887143D01*
X171474285Y-81958571D01*
X171617142Y-81958571D01*
X171831428Y-81887143D01*
X171902857Y-81815714D01*
X171902857Y-81315714D01*
X171617142Y-81315714D01*
X172545714Y-81958571D02*
X172545714Y-80458571D01*
X173402857Y-81958571D01*
X173402857Y-80458571D01*
X174117143Y-81958571D02*
X174117143Y-80458571D01*
X174474286Y-80458571D01*
X174688571Y-80530000D01*
X174831429Y-80672857D01*
X174902857Y-80815714D01*
X174974286Y-81101429D01*
X174974286Y-81315714D01*
X174902857Y-81601429D01*
X174831429Y-81744286D01*
X174688571Y-81887143D01*
X174474286Y-81958571D01*
X174117143Y-81958571D01*
X173117143Y-79418571D02*
X172260000Y-79418571D01*
X172688572Y-79418571D02*
X172688572Y-77918571D01*
X172545715Y-78132857D01*
X172402857Y-78275714D01*
X172260000Y-78347143D01*
X173760000Y-78847143D02*
X174902857Y-78847143D01*
X174331428Y-79418571D02*
X174331428Y-78275714D01*
X173117143Y-76878571D02*
X172260000Y-76878571D01*
X172688572Y-76878571D02*
X172688572Y-75378571D01*
X172545715Y-75592857D01*
X172402857Y-75735714D01*
X172260000Y-75807143D01*
X173760000Y-76307143D02*
X174902857Y-76307143D01*
X172260000Y-72981429D02*
X172331429Y-72910000D01*
X172474286Y-72838571D01*
X172831429Y-72838571D01*
X172974286Y-72910000D01*
X173045715Y-72981429D01*
X173117143Y-73124286D01*
X173117143Y-73267143D01*
X173045715Y-73481429D01*
X172188572Y-74338571D01*
X173117143Y-74338571D01*
X173760000Y-73767143D02*
X174902857Y-73767143D01*
X174331428Y-74338571D02*
X174331428Y-73195714D01*
X172260000Y-70441429D02*
X172331429Y-70370000D01*
X172474286Y-70298571D01*
X172831429Y-70298571D01*
X172974286Y-70370000D01*
X173045715Y-70441429D01*
X173117143Y-70584286D01*
X173117143Y-70727143D01*
X173045715Y-70941429D01*
X172188572Y-71798571D01*
X173117143Y-71798571D01*
X173760000Y-71227143D02*
X174902857Y-71227143D01*
X172188572Y-67758571D02*
X173117143Y-67758571D01*
X172617143Y-68330000D01*
X172831429Y-68330000D01*
X172974286Y-68401429D01*
X173045715Y-68472857D01*
X173117143Y-68615714D01*
X173117143Y-68972857D01*
X173045715Y-69115714D01*
X172974286Y-69187143D01*
X172831429Y-69258571D01*
X172402857Y-69258571D01*
X172260000Y-69187143D01*
X172188572Y-69115714D01*
X173760000Y-68687143D02*
X174902857Y-68687143D01*
X174331428Y-69258571D02*
X174331428Y-68115714D01*
X172188572Y-65218571D02*
X173117143Y-65218571D01*
X172617143Y-65790000D01*
X172831429Y-65790000D01*
X172974286Y-65861429D01*
X173045715Y-65932857D01*
X173117143Y-66075714D01*
X173117143Y-66432857D01*
X173045715Y-66575714D01*
X172974286Y-66647143D01*
X172831429Y-66718571D01*
X172402857Y-66718571D01*
X172260000Y-66647143D01*
X172188572Y-66575714D01*
X173760000Y-66147143D02*
X174902857Y-66147143D01*
X172974286Y-63178571D02*
X172974286Y-64178571D01*
X172617143Y-62607143D02*
X172260000Y-63678571D01*
X173188572Y-63678571D01*
X173760000Y-63607143D02*
X174902857Y-63607143D01*
X174331428Y-64178571D02*
X174331428Y-63035714D01*
X172974286Y-60638571D02*
X172974286Y-61638571D01*
X172617143Y-60067143D02*
X172260000Y-61138571D01*
X173188572Y-61138571D01*
X173760000Y-61067143D02*
X174902857Y-61067143D01*
X173045715Y-57598571D02*
X172331429Y-57598571D01*
X172260000Y-58312857D01*
X172331429Y-58241429D01*
X172474286Y-58170000D01*
X172831429Y-58170000D01*
X172974286Y-58241429D01*
X173045715Y-58312857D01*
X173117143Y-58455714D01*
X173117143Y-58812857D01*
X173045715Y-58955714D01*
X172974286Y-59027143D01*
X172831429Y-59098571D01*
X172474286Y-59098571D01*
X172331429Y-59027143D01*
X172260000Y-58955714D01*
X173760000Y-58527143D02*
X174902857Y-58527143D01*
X174331428Y-59098571D02*
X174331428Y-57955714D01*
X173045715Y-55058571D02*
X172331429Y-55058571D01*
X172260000Y-55772857D01*
X172331429Y-55701429D01*
X172474286Y-55630000D01*
X172831429Y-55630000D01*
X172974286Y-55701429D01*
X173045715Y-55772857D01*
X173117143Y-55915714D01*
X173117143Y-56272857D01*
X173045715Y-56415714D01*
X172974286Y-56487143D01*
X172831429Y-56558571D01*
X172474286Y-56558571D01*
X172331429Y-56487143D01*
X172260000Y-56415714D01*
X173760000Y-55987143D02*
X174902857Y-55987143D01*
X172974286Y-52518571D02*
X172688572Y-52518571D01*
X172545715Y-52590000D01*
X172474286Y-52661429D01*
X172331429Y-52875714D01*
X172260000Y-53161429D01*
X172260000Y-53732857D01*
X172331429Y-53875714D01*
X172402857Y-53947143D01*
X172545715Y-54018571D01*
X172831429Y-54018571D01*
X172974286Y-53947143D01*
X173045715Y-53875714D01*
X173117143Y-53732857D01*
X173117143Y-53375714D01*
X173045715Y-53232857D01*
X172974286Y-53161429D01*
X172831429Y-53090000D01*
X172545715Y-53090000D01*
X172402857Y-53161429D01*
X172331429Y-53232857D01*
X172260000Y-53375714D01*
X173760000Y-53447143D02*
X174902857Y-53447143D01*
X174331428Y-54018571D02*
X174331428Y-52875714D01*
X172974286Y-49978571D02*
X172688572Y-49978571D01*
X172545715Y-50050000D01*
X172474286Y-50121429D01*
X172331429Y-50335714D01*
X172260000Y-50621429D01*
X172260000Y-51192857D01*
X172331429Y-51335714D01*
X172402857Y-51407143D01*
X172545715Y-51478571D01*
X172831429Y-51478571D01*
X172974286Y-51407143D01*
X173045715Y-51335714D01*
X173117143Y-51192857D01*
X173117143Y-50835714D01*
X173045715Y-50692857D01*
X172974286Y-50621429D01*
X172831429Y-50550000D01*
X172545715Y-50550000D01*
X172402857Y-50621429D01*
X172331429Y-50692857D01*
X172260000Y-50835714D01*
X173760000Y-50907143D02*
X174902857Y-50907143D01*
X172188572Y-47438571D02*
X173188572Y-47438571D01*
X172545715Y-48938571D01*
X173760000Y-48367143D02*
X174902857Y-48367143D01*
X174331428Y-48938571D02*
X174331428Y-47795714D01*
X172188572Y-44898571D02*
X173188572Y-44898571D01*
X172545715Y-46398571D01*
X173760000Y-45827143D02*
X174902857Y-45827143D01*
X172545715Y-43001429D02*
X172402857Y-42930000D01*
X172331429Y-42858571D01*
X172260000Y-42715714D01*
X172260000Y-42644286D01*
X172331429Y-42501429D01*
X172402857Y-42430000D01*
X172545715Y-42358571D01*
X172831429Y-42358571D01*
X172974286Y-42430000D01*
X173045715Y-42501429D01*
X173117143Y-42644286D01*
X173117143Y-42715714D01*
X173045715Y-42858571D01*
X172974286Y-42930000D01*
X172831429Y-43001429D01*
X172545715Y-43001429D01*
X172402857Y-43072857D01*
X172331429Y-43144286D01*
X172260000Y-43287143D01*
X172260000Y-43572857D01*
X172331429Y-43715714D01*
X172402857Y-43787143D01*
X172545715Y-43858571D01*
X172831429Y-43858571D01*
X172974286Y-43787143D01*
X173045715Y-43715714D01*
X173117143Y-43572857D01*
X173117143Y-43287143D01*
X173045715Y-43144286D01*
X172974286Y-43072857D01*
X172831429Y-43001429D01*
X173760000Y-43287143D02*
X174902857Y-43287143D01*
X174331428Y-43858571D02*
X174331428Y-42715714D01*
X172545715Y-40461429D02*
X172402857Y-40390000D01*
X172331429Y-40318571D01*
X172260000Y-40175714D01*
X172260000Y-40104286D01*
X172331429Y-39961429D01*
X172402857Y-39890000D01*
X172545715Y-39818571D01*
X172831429Y-39818571D01*
X172974286Y-39890000D01*
X173045715Y-39961429D01*
X173117143Y-40104286D01*
X173117143Y-40175714D01*
X173045715Y-40318571D01*
X172974286Y-40390000D01*
X172831429Y-40461429D01*
X172545715Y-40461429D01*
X172402857Y-40532857D01*
X172331429Y-40604286D01*
X172260000Y-40747143D01*
X172260000Y-41032857D01*
X172331429Y-41175714D01*
X172402857Y-41247143D01*
X172545715Y-41318571D01*
X172831429Y-41318571D01*
X172974286Y-41247143D01*
X173045715Y-41175714D01*
X173117143Y-41032857D01*
X173117143Y-40747143D01*
X173045715Y-40604286D01*
X172974286Y-40532857D01*
X172831429Y-40461429D01*
X173760000Y-40747143D02*
X174902857Y-40747143D01*
X172260000Y-38778571D02*
X171760000Y-38064286D01*
X171402857Y-38778571D02*
X171402857Y-37278571D01*
X171974285Y-37278571D01*
X172117143Y-37350000D01*
X172188571Y-37421429D01*
X172260000Y-37564286D01*
X172260000Y-37778571D01*
X172188571Y-37921429D01*
X172117143Y-37992857D01*
X171974285Y-38064286D01*
X171402857Y-38064286D01*
X173617143Y-38778571D02*
X172902857Y-38778571D01*
X172902857Y-37278571D01*
X174117143Y-38778571D02*
X174117143Y-37278571D01*
X174474286Y-37278571D01*
X174688571Y-37350000D01*
X174831429Y-37492857D01*
X174902857Y-37635714D01*
X174974286Y-37921429D01*
X174974286Y-38135714D01*
X174902857Y-38421429D01*
X174831429Y-38564286D01*
X174688571Y-38707143D01*
X174474286Y-38778571D01*
X174117143Y-38778571D01*
X171831428Y-34810000D02*
X171688571Y-34738571D01*
X171474285Y-34738571D01*
X171260000Y-34810000D01*
X171117142Y-34952857D01*
X171045714Y-35095714D01*
X170974285Y-35381429D01*
X170974285Y-35595714D01*
X171045714Y-35881429D01*
X171117142Y-36024286D01*
X171260000Y-36167143D01*
X171474285Y-36238571D01*
X171617142Y-36238571D01*
X171831428Y-36167143D01*
X171902857Y-36095714D01*
X171902857Y-35595714D01*
X171617142Y-35595714D01*
X172545714Y-36238571D02*
X172545714Y-34738571D01*
X173402857Y-36238571D01*
X173402857Y-34738571D01*
X174117143Y-36238571D02*
X174117143Y-34738571D01*
X174474286Y-34738571D01*
X174688571Y-34810000D01*
X174831429Y-34952857D01*
X174902857Y-35095714D01*
X174974286Y-35381429D01*
X174974286Y-35595714D01*
X174902857Y-35881429D01*
X174831429Y-36024286D01*
X174688571Y-36167143D01*
X174474286Y-36238571D01*
X174117143Y-36238571D01*
X171117143Y-32198571D02*
X171617143Y-33698571D01*
X172117143Y-32198571D01*
X173474286Y-33555714D02*
X173402857Y-33627143D01*
X173188571Y-33698571D01*
X173045714Y-33698571D01*
X172831429Y-33627143D01*
X172688571Y-33484286D01*
X172617143Y-33341429D01*
X172545714Y-33055714D01*
X172545714Y-32841429D01*
X172617143Y-32555714D01*
X172688571Y-32412857D01*
X172831429Y-32270000D01*
X173045714Y-32198571D01*
X173188571Y-32198571D01*
X173402857Y-32270000D01*
X173474286Y-32341429D01*
X174974286Y-33555714D02*
X174902857Y-33627143D01*
X174688571Y-33698571D01*
X174545714Y-33698571D01*
X174331429Y-33627143D01*
X174188571Y-33484286D01*
X174117143Y-33341429D01*
X174045714Y-33055714D01*
X174045714Y-32841429D01*
X174117143Y-32555714D01*
X174188571Y-32412857D01*
X174331429Y-32270000D01*
X174545714Y-32198571D01*
X174688571Y-32198571D01*
X174902857Y-32270000D01*
X174974286Y-32341429D01*
X84752858Y-65692857D02*
X84967144Y-65764286D01*
X85038572Y-65835714D01*
X85110001Y-65978571D01*
X85110001Y-66192857D01*
X85038572Y-66335714D01*
X84967144Y-66407143D01*
X84824286Y-66478571D01*
X84252858Y-66478571D01*
X84252858Y-64978571D01*
X84752858Y-64978571D01*
X84895715Y-65050000D01*
X84967144Y-65121429D01*
X85038572Y-65264286D01*
X85038572Y-65407143D01*
X84967144Y-65550000D01*
X84895715Y-65621429D01*
X84752858Y-65692857D01*
X84252858Y-65692857D01*
X85752858Y-66478571D02*
X85752858Y-64978571D01*
X86395715Y-66050000D02*
X87110001Y-66050000D01*
X86252858Y-66478571D02*
X86752858Y-64978571D01*
X87252858Y-66478571D01*
X87681429Y-66407143D02*
X87895715Y-66478571D01*
X88252858Y-66478571D01*
X88395715Y-66407143D01*
X88467144Y-66335714D01*
X88538572Y-66192857D01*
X88538572Y-66050000D01*
X88467144Y-65907143D01*
X88395715Y-65835714D01*
X88252858Y-65764286D01*
X87967144Y-65692857D01*
X87824286Y-65621429D01*
X87752858Y-65550000D01*
X87681429Y-65407143D01*
X87681429Y-65264286D01*
X87752858Y-65121429D01*
X87824286Y-65050000D01*
X87967144Y-64978571D01*
X88324286Y-64978571D01*
X88538572Y-65050000D01*
X84860000Y-67378571D02*
X85145714Y-67378571D01*
X85288572Y-67450000D01*
X85431429Y-67592857D01*
X85502857Y-67878571D01*
X85502857Y-68378571D01*
X85431429Y-68664286D01*
X85288572Y-68807143D01*
X85145714Y-68878571D01*
X84860000Y-68878571D01*
X84717143Y-68807143D01*
X84574286Y-68664286D01*
X84502857Y-68378571D01*
X84502857Y-67878571D01*
X84574286Y-67592857D01*
X84717143Y-67450000D01*
X84860000Y-67378571D01*
X86145715Y-67378571D02*
X86145715Y-68592857D01*
X86217143Y-68735714D01*
X86288572Y-68807143D01*
X86431429Y-68878571D01*
X86717143Y-68878571D01*
X86860001Y-68807143D01*
X86931429Y-68735714D01*
X87002858Y-68592857D01*
X87002858Y-67378571D01*
X87502858Y-67378571D02*
X88360001Y-67378571D01*
X87931430Y-68878571D02*
X87931430Y-67378571D01*
X144678571Y-70000000D02*
X143178571Y-70000000D01*
X144678571Y-69285714D02*
X143178571Y-69285714D01*
X144678571Y-68428571D01*
X143178571Y-68428571D01*
X143178571Y-65928571D02*
X143178571Y-66214285D01*
X143250000Y-66357142D01*
X143321429Y-66428571D01*
X143535714Y-66571428D01*
X143821429Y-66642857D01*
X144392857Y-66642857D01*
X144535714Y-66571428D01*
X144607143Y-66500000D01*
X144678571Y-66357142D01*
X144678571Y-66071428D01*
X144607143Y-65928571D01*
X144535714Y-65857142D01*
X144392857Y-65785714D01*
X144035714Y-65785714D01*
X143892857Y-65857142D01*
X143821429Y-65928571D01*
X143750000Y-66071428D01*
X143750000Y-66357142D01*
X143821429Y-66500000D01*
X143892857Y-66571428D01*
X144035714Y-66642857D01*
X144107143Y-65142857D02*
X144107143Y-64000000D01*
X144678571Y-64571429D02*
X143535714Y-64571429D01*
X144678571Y-85000000D02*
X143178571Y-85000000D01*
X144678571Y-84285714D02*
X143178571Y-84285714D01*
X144678571Y-83428571D01*
X143178571Y-83428571D01*
X143178571Y-80857142D02*
X143178571Y-81571428D01*
X143892857Y-81642857D01*
X143821429Y-81571428D01*
X143750000Y-81428571D01*
X143750000Y-81071428D01*
X143821429Y-80928571D01*
X143892857Y-80857142D01*
X144035714Y-80785714D01*
X144392857Y-80785714D01*
X144535714Y-80857142D01*
X144607143Y-80928571D01*
X144678571Y-81071428D01*
X144678571Y-81428571D01*
X144607143Y-81571428D01*
X144535714Y-81642857D01*
X144107143Y-80142857D02*
X144107143Y-79000000D01*
X144678571Y-79571429D02*
X143535714Y-79571429D01*
X144678571Y-55000000D02*
X143178571Y-55000000D01*
X144678571Y-54285714D02*
X143178571Y-54285714D01*
X144678571Y-53428571D01*
X143178571Y-53428571D01*
X143178571Y-51714285D02*
X143178571Y-50714285D01*
X144678571Y-51357142D01*
X144107143Y-50142857D02*
X144107143Y-49000000D01*
X144678571Y-49571429D02*
X143535714Y-49571429D01*
X144678571Y-40000000D02*
X143178571Y-40000000D01*
X144678571Y-39285714D02*
X143178571Y-39285714D01*
X144678571Y-38428571D01*
X143178571Y-38428571D01*
X143821429Y-36357142D02*
X143750000Y-36500000D01*
X143678571Y-36571428D01*
X143535714Y-36642857D01*
X143464286Y-36642857D01*
X143321429Y-36571428D01*
X143250000Y-36500000D01*
X143178571Y-36357142D01*
X143178571Y-36071428D01*
X143250000Y-35928571D01*
X143321429Y-35857142D01*
X143464286Y-35785714D01*
X143535714Y-35785714D01*
X143678571Y-35857142D01*
X143750000Y-35928571D01*
X143821429Y-36071428D01*
X143821429Y-36357142D01*
X143892857Y-36500000D01*
X143964286Y-36571428D01*
X144107143Y-36642857D01*
X144392857Y-36642857D01*
X144535714Y-36571428D01*
X144607143Y-36500000D01*
X144678571Y-36357142D01*
X144678571Y-36071428D01*
X144607143Y-35928571D01*
X144535714Y-35857142D01*
X144392857Y-35785714D01*
X144107143Y-35785714D01*
X143964286Y-35857142D01*
X143892857Y-35928571D01*
X143821429Y-36071428D01*
X144107143Y-35142857D02*
X144107143Y-34000000D01*
X144678571Y-34571429D02*
X143535714Y-34571429D01*
X164678571Y-40000000D02*
X163178571Y-40000000D01*
X164678571Y-39285714D02*
X163178571Y-39285714D01*
X164678571Y-38428571D01*
X163178571Y-38428571D01*
X163821429Y-36357142D02*
X163750000Y-36500000D01*
X163678571Y-36571428D01*
X163535714Y-36642857D01*
X163464286Y-36642857D01*
X163321429Y-36571428D01*
X163250000Y-36500000D01*
X163178571Y-36357142D01*
X163178571Y-36071428D01*
X163250000Y-35928571D01*
X163321429Y-35857142D01*
X163464286Y-35785714D01*
X163535714Y-35785714D01*
X163678571Y-35857142D01*
X163750000Y-35928571D01*
X163821429Y-36071428D01*
X163821429Y-36357142D01*
X163892857Y-36500000D01*
X163964286Y-36571428D01*
X164107143Y-36642857D01*
X164392857Y-36642857D01*
X164535714Y-36571428D01*
X164607143Y-36500000D01*
X164678571Y-36357142D01*
X164678571Y-36071428D01*
X164607143Y-35928571D01*
X164535714Y-35857142D01*
X164392857Y-35785714D01*
X164107143Y-35785714D01*
X163964286Y-35857142D01*
X163892857Y-35928571D01*
X163821429Y-36071428D01*
X164107143Y-35142857D02*
X164107143Y-34000000D01*
X164678571Y-55000000D02*
X163178571Y-55000000D01*
X164678571Y-54285714D02*
X163178571Y-54285714D01*
X164678571Y-53428571D01*
X163178571Y-53428571D01*
X163178571Y-51714285D02*
X163178571Y-50714285D01*
X164678571Y-51357142D01*
X164107143Y-50142857D02*
X164107143Y-49000000D01*
X164678571Y-85000000D02*
X163178571Y-85000000D01*
X164678571Y-84285714D02*
X163178571Y-84285714D01*
X164678571Y-83428571D01*
X163178571Y-83428571D01*
X163178571Y-80857142D02*
X163178571Y-81571428D01*
X163892857Y-81642857D01*
X163821429Y-81571428D01*
X163750000Y-81428571D01*
X163750000Y-81071428D01*
X163821429Y-80928571D01*
X163892857Y-80857142D01*
X164035714Y-80785714D01*
X164392857Y-80785714D01*
X164535714Y-80857142D01*
X164607143Y-80928571D01*
X164678571Y-81071428D01*
X164678571Y-81428571D01*
X164607143Y-81571428D01*
X164535714Y-81642857D01*
X164107143Y-80142857D02*
X164107143Y-79000000D01*
X164678571Y-70000000D02*
X163178571Y-70000000D01*
X164678571Y-69285714D02*
X163178571Y-69285714D01*
X164678571Y-68428571D01*
X163178571Y-68428571D01*
X163178571Y-65928571D02*
X163178571Y-66214285D01*
X163250000Y-66357142D01*
X163321429Y-66428571D01*
X163535714Y-66571428D01*
X163821429Y-66642857D01*
X164392857Y-66642857D01*
X164535714Y-66571428D01*
X164607143Y-66500000D01*
X164678571Y-66357142D01*
X164678571Y-66071428D01*
X164607143Y-65928571D01*
X164535714Y-65857142D01*
X164392857Y-65785714D01*
X164035714Y-65785714D01*
X163892857Y-65857142D01*
X163821429Y-65928571D01*
X163750000Y-66071428D01*
X163750000Y-66357142D01*
X163821429Y-66500000D01*
X163892857Y-66571428D01*
X164035714Y-66642857D01*
X164107143Y-65142857D02*
X164107143Y-64000000D01*
X124678571Y-70000000D02*
X123178571Y-70000000D01*
X124678571Y-69285714D02*
X123178571Y-69285714D01*
X124678571Y-68428571D01*
X123178571Y-68428571D01*
X123321429Y-66642857D02*
X123250000Y-66571428D01*
X123178571Y-66428571D01*
X123178571Y-66071428D01*
X123250000Y-65928571D01*
X123321429Y-65857142D01*
X123464286Y-65785714D01*
X123607143Y-65785714D01*
X123821429Y-65857142D01*
X124678571Y-66714285D01*
X124678571Y-65785714D01*
X124107143Y-65142857D02*
X124107143Y-64000000D01*
X124678571Y-85000000D02*
X123178571Y-85000000D01*
X124678571Y-84285714D02*
X123178571Y-84285714D01*
X124678571Y-83428571D01*
X123178571Y-83428571D01*
X124678571Y-80785714D02*
X124678571Y-81642857D01*
X124678571Y-81214285D02*
X123178571Y-81214285D01*
X123392857Y-81357142D01*
X123535714Y-81500000D01*
X123607143Y-81642857D01*
X124107143Y-80142857D02*
X124107143Y-79000000D01*
X124678571Y-55000000D02*
X123178571Y-55000000D01*
X124678571Y-54285714D02*
X123178571Y-54285714D01*
X124678571Y-53428571D01*
X123178571Y-53428571D01*
X123178571Y-51714285D02*
X123178571Y-50785714D01*
X123750000Y-51285714D01*
X123750000Y-51071428D01*
X123821429Y-50928571D01*
X123892857Y-50857142D01*
X124035714Y-50785714D01*
X124392857Y-50785714D01*
X124535714Y-50857142D01*
X124607143Y-50928571D01*
X124678571Y-51071428D01*
X124678571Y-51500000D01*
X124607143Y-51642857D01*
X124535714Y-51714285D01*
X124107143Y-50142857D02*
X124107143Y-49000000D01*
X124678571Y-40000000D02*
X123178571Y-40000000D01*
X124678571Y-39285714D02*
X123178571Y-39285714D01*
X124678571Y-38428571D01*
X123178571Y-38428571D01*
X123678571Y-35928571D02*
X124678571Y-35928571D01*
X123107143Y-36285714D02*
X124178571Y-36642857D01*
X124178571Y-35714285D01*
X124107143Y-35142857D02*
X124107143Y-34000000D01*
X104678571Y-40000000D02*
X103178571Y-40000000D01*
X104678571Y-39285714D02*
X103178571Y-39285714D01*
X104678571Y-38428571D01*
X103178571Y-38428571D01*
X103678571Y-35928571D02*
X104678571Y-35928571D01*
X103107143Y-36285714D02*
X104178571Y-36642857D01*
X104178571Y-35714285D01*
X104107143Y-35142857D02*
X104107143Y-34000000D01*
X104678571Y-34571429D02*
X103535714Y-34571429D01*
X104678571Y-55000000D02*
X103178571Y-55000000D01*
X104678571Y-54285714D02*
X103178571Y-54285714D01*
X104678571Y-53428571D01*
X103178571Y-53428571D01*
X103178571Y-51714285D02*
X103178571Y-50785714D01*
X103750000Y-51285714D01*
X103750000Y-51071428D01*
X103821429Y-50928571D01*
X103892857Y-50857142D01*
X104035714Y-50785714D01*
X104392857Y-50785714D01*
X104535714Y-50857142D01*
X104607143Y-50928571D01*
X104678571Y-51071428D01*
X104678571Y-51500000D01*
X104607143Y-51642857D01*
X104535714Y-51714285D01*
X104107143Y-50142857D02*
X104107143Y-49000000D01*
X104678571Y-49571429D02*
X103535714Y-49571429D01*
X104678571Y-85000000D02*
X103178571Y-85000000D01*
X104678571Y-84285714D02*
X103178571Y-84285714D01*
X104678571Y-83428571D01*
X103178571Y-83428571D01*
X104678571Y-80785714D02*
X104678571Y-81642857D01*
X104678571Y-81214285D02*
X103178571Y-81214285D01*
X103392857Y-81357142D01*
X103535714Y-81500000D01*
X103607143Y-81642857D01*
X104107143Y-80142857D02*
X104107143Y-79000000D01*
X104678571Y-79571429D02*
X103535714Y-79571429D01*
X104678571Y-70000000D02*
X103178571Y-70000000D01*
X104678571Y-69285714D02*
X103178571Y-69285714D01*
X104678571Y-68428571D01*
X103178571Y-68428571D01*
X103321429Y-66642857D02*
X103250000Y-66571428D01*
X103178571Y-66428571D01*
X103178571Y-66071428D01*
X103250000Y-65928571D01*
X103321429Y-65857142D01*
X103464286Y-65785714D01*
X103607143Y-65785714D01*
X103821429Y-65857142D01*
X104678571Y-66714285D01*
X104678571Y-65785714D01*
X104107143Y-65142857D02*
X104107143Y-64000000D01*
X104678571Y-64571429D02*
X103535714Y-64571429D01*
D13*
G36*
X83936840Y-78521560D02*
X83977480Y-78501240D01*
X84071460Y-78442820D01*
X84206080Y-78353920D01*
X84363560Y-78249780D01*
X84521040Y-78140560D01*
X84650580Y-78054200D01*
X84742020Y-77995780D01*
X84780120Y-77975460D01*
X84800440Y-77980540D01*
X84876640Y-78018640D01*
X84985860Y-78074520D01*
X85049360Y-78107540D01*
X85148420Y-78150720D01*
X85199220Y-78160880D01*
X85206840Y-78145640D01*
X85244940Y-78069440D01*
X85300820Y-77937360D01*
X85377020Y-77764640D01*
X85463380Y-77561440D01*
X85557360Y-77343000D01*
X85648800Y-77119480D01*
X85737700Y-76906120D01*
X85816440Y-76715620D01*
X85879940Y-76560680D01*
X85920580Y-76451460D01*
X85935820Y-76405740D01*
X85930740Y-76395580D01*
X85879940Y-76347320D01*
X85793580Y-76281280D01*
X85603080Y-76126340D01*
X85417660Y-75892660D01*
X85303360Y-75628500D01*
X85265260Y-75333860D01*
X85298280Y-75062080D01*
X85404960Y-74800460D01*
X85587840Y-74564240D01*
X85808820Y-74388980D01*
X86067900Y-74277220D01*
X86360000Y-74241660D01*
X86639400Y-74272140D01*
X86906100Y-74378820D01*
X87142320Y-74559160D01*
X87241380Y-74673460D01*
X87378540Y-74912220D01*
X87457280Y-75168760D01*
X87464900Y-75232260D01*
X87454740Y-75514200D01*
X87370920Y-75783440D01*
X87223600Y-76024740D01*
X87017860Y-76220320D01*
X86989920Y-76240640D01*
X86895940Y-76311760D01*
X86832440Y-76360020D01*
X86781640Y-76400660D01*
X87139780Y-77261720D01*
X87195660Y-77398880D01*
X87294720Y-77635100D01*
X87381080Y-77838300D01*
X87449660Y-77998320D01*
X87497920Y-78107540D01*
X87518240Y-78150720D01*
X87520780Y-78153260D01*
X87551260Y-78158340D01*
X87617300Y-78132940D01*
X87736680Y-78074520D01*
X87817960Y-78033880D01*
X87909400Y-77990700D01*
X87950040Y-77975460D01*
X87985600Y-77993240D01*
X88071960Y-78051660D01*
X88201500Y-78135480D01*
X88353900Y-78239620D01*
X88501220Y-78341220D01*
X88635840Y-78430120D01*
X88734900Y-78491080D01*
X88783160Y-78519020D01*
X88790780Y-78519020D01*
X88831420Y-78493620D01*
X88910160Y-78430120D01*
X89027000Y-78318360D01*
X89192100Y-78155800D01*
X89217500Y-78130400D01*
X89354660Y-77990700D01*
X89466420Y-77873860D01*
X89540080Y-77792580D01*
X89565480Y-77754480D01*
X89565480Y-77754480D01*
X89542620Y-77706220D01*
X89479120Y-77609700D01*
X89390220Y-77472540D01*
X89281000Y-77312520D01*
X88996520Y-76898500D01*
X89154000Y-76507340D01*
X89202260Y-76387960D01*
X89263220Y-76243180D01*
X89306400Y-76139040D01*
X89331800Y-76093320D01*
X89372440Y-76078080D01*
X89481660Y-76052680D01*
X89636600Y-76019660D01*
X89819480Y-75986640D01*
X89997280Y-75953620D01*
X90157300Y-75923140D01*
X90271600Y-75900280D01*
X90322400Y-75890120D01*
X90335100Y-75882500D01*
X90345260Y-75857100D01*
X90352880Y-75803760D01*
X90355420Y-75707240D01*
X90357960Y-75554840D01*
X90357960Y-75333860D01*
X90357960Y-75311000D01*
X90355420Y-75100180D01*
X90352880Y-74932540D01*
X90347800Y-74823320D01*
X90340180Y-74780140D01*
X90340180Y-74780140D01*
X90289380Y-74767440D01*
X90177620Y-74744580D01*
X90017600Y-74711560D01*
X89827100Y-74676000D01*
X89816940Y-74673460D01*
X89626440Y-74637900D01*
X89468960Y-74604880D01*
X89357200Y-74579480D01*
X89311480Y-74564240D01*
X89301320Y-74551540D01*
X89263220Y-74477880D01*
X89207340Y-74361040D01*
X89146380Y-74216260D01*
X89082880Y-74068940D01*
X89029540Y-73934320D01*
X88993980Y-73835260D01*
X88983820Y-73789540D01*
X88983820Y-73789540D01*
X89011760Y-73743820D01*
X89077800Y-73644760D01*
X89169240Y-73510140D01*
X89281000Y-73347580D01*
X89288620Y-73334880D01*
X89397840Y-73174860D01*
X89486740Y-73040240D01*
X89545160Y-72943720D01*
X89565480Y-72900540D01*
X89565480Y-72898000D01*
X89529920Y-72849740D01*
X89448640Y-72760840D01*
X89331800Y-72638920D01*
X89192100Y-72496680D01*
X89146380Y-72453500D01*
X88991440Y-72301100D01*
X88884760Y-72202040D01*
X88816180Y-72148700D01*
X88783160Y-72136000D01*
X88783160Y-72138540D01*
X88734900Y-72166480D01*
X88633300Y-72232520D01*
X88496140Y-72326500D01*
X88333580Y-72435720D01*
X88323420Y-72443340D01*
X88163400Y-72552560D01*
X88031320Y-72641460D01*
X87934800Y-72704960D01*
X87894160Y-72730360D01*
X87886540Y-72730360D01*
X87823040Y-72710040D01*
X87708740Y-72671940D01*
X87569040Y-72616060D01*
X87421720Y-72557640D01*
X87287100Y-72501760D01*
X87185500Y-72453500D01*
X87137240Y-72428100D01*
X87137240Y-72425560D01*
X87119460Y-72367140D01*
X87091520Y-72247760D01*
X87058500Y-72082660D01*
X87020400Y-71887080D01*
X87015320Y-71856600D01*
X86979760Y-71666100D01*
X86949280Y-71508620D01*
X86926420Y-71399400D01*
X86913720Y-71353680D01*
X86888320Y-71348600D01*
X86794340Y-71340980D01*
X86652100Y-71338440D01*
X86479380Y-71335900D01*
X86299040Y-71338440D01*
X86123780Y-71340980D01*
X85971380Y-71346060D01*
X85864700Y-71353680D01*
X85818980Y-71363840D01*
X85816440Y-71366380D01*
X85801200Y-71424800D01*
X85775800Y-71544180D01*
X85740240Y-71709280D01*
X85702140Y-71907400D01*
X85697060Y-71940420D01*
X85661500Y-72130920D01*
X85628480Y-72285860D01*
X85605620Y-72395080D01*
X85592920Y-72435720D01*
X85577680Y-72445880D01*
X85498940Y-72478900D01*
X85371940Y-72532240D01*
X85211920Y-72595740D01*
X84846160Y-72745600D01*
X84399120Y-72435720D01*
X84355940Y-72407780D01*
X84195920Y-72298560D01*
X84061300Y-72209660D01*
X83969860Y-72151240D01*
X83931760Y-72128380D01*
X83929220Y-72130920D01*
X83883500Y-72169020D01*
X83794600Y-72252840D01*
X83672680Y-72372220D01*
X83532980Y-72511920D01*
X83428840Y-72616060D01*
X83304380Y-72743060D01*
X83225640Y-72826880D01*
X83182460Y-72882760D01*
X83167220Y-72915780D01*
X83172300Y-72936100D01*
X83200240Y-72981820D01*
X83266280Y-73080880D01*
X83357720Y-73218040D01*
X83466940Y-73375520D01*
X83558380Y-73510140D01*
X83654900Y-73660000D01*
X83718400Y-73766680D01*
X83741260Y-73820020D01*
X83736180Y-73842880D01*
X83703160Y-73929240D01*
X83649820Y-74063860D01*
X83583780Y-74221340D01*
X83426300Y-74576940D01*
X83192620Y-74620120D01*
X83052920Y-74648060D01*
X82854800Y-74686160D01*
X82666840Y-74721720D01*
X82372200Y-74780140D01*
X82362040Y-75862180D01*
X82407760Y-75882500D01*
X82450940Y-75895200D01*
X82560160Y-75918060D01*
X82715100Y-75948540D01*
X82900520Y-75984100D01*
X83055460Y-76014580D01*
X83215480Y-76042520D01*
X83327240Y-76065380D01*
X83378040Y-76075540D01*
X83390740Y-76093320D01*
X83431380Y-76169520D01*
X83487260Y-76291440D01*
X83548220Y-76438760D01*
X83611720Y-76588620D01*
X83667600Y-76728320D01*
X83708240Y-76835000D01*
X83720940Y-76890880D01*
X83700620Y-76934060D01*
X83639660Y-77025500D01*
X83553300Y-77157580D01*
X83446620Y-77315060D01*
X83337400Y-77472540D01*
X83248500Y-77607160D01*
X83185000Y-77703680D01*
X83159600Y-77746860D01*
X83172300Y-77777340D01*
X83233260Y-77853540D01*
X83352640Y-77975460D01*
X83527900Y-78150720D01*
X83558380Y-78178660D01*
X83698080Y-78313280D01*
X83817460Y-78422500D01*
X83898740Y-78496160D01*
X83936840Y-78521560D01*
X83936840Y-78521560D01*
G37*
X83936840Y-78521560D02*
X83977480Y-78501240D01*
X84071460Y-78442820D01*
X84206080Y-78353920D01*
X84363560Y-78249780D01*
X84521040Y-78140560D01*
X84650580Y-78054200D01*
X84742020Y-77995780D01*
X84780120Y-77975460D01*
X84800440Y-77980540D01*
X84876640Y-78018640D01*
X84985860Y-78074520D01*
X85049360Y-78107540D01*
X85148420Y-78150720D01*
X85199220Y-78160880D01*
X85206840Y-78145640D01*
X85244940Y-78069440D01*
X85300820Y-77937360D01*
X85377020Y-77764640D01*
X85463380Y-77561440D01*
X85557360Y-77343000D01*
X85648800Y-77119480D01*
X85737700Y-76906120D01*
X85816440Y-76715620D01*
X85879940Y-76560680D01*
X85920580Y-76451460D01*
X85935820Y-76405740D01*
X85930740Y-76395580D01*
X85879940Y-76347320D01*
X85793580Y-76281280D01*
X85603080Y-76126340D01*
X85417660Y-75892660D01*
X85303360Y-75628500D01*
X85265260Y-75333860D01*
X85298280Y-75062080D01*
X85404960Y-74800460D01*
X85587840Y-74564240D01*
X85808820Y-74388980D01*
X86067900Y-74277220D01*
X86360000Y-74241660D01*
X86639400Y-74272140D01*
X86906100Y-74378820D01*
X87142320Y-74559160D01*
X87241380Y-74673460D01*
X87378540Y-74912220D01*
X87457280Y-75168760D01*
X87464900Y-75232260D01*
X87454740Y-75514200D01*
X87370920Y-75783440D01*
X87223600Y-76024740D01*
X87017860Y-76220320D01*
X86989920Y-76240640D01*
X86895940Y-76311760D01*
X86832440Y-76360020D01*
X86781640Y-76400660D01*
X87139780Y-77261720D01*
X87195660Y-77398880D01*
X87294720Y-77635100D01*
X87381080Y-77838300D01*
X87449660Y-77998320D01*
X87497920Y-78107540D01*
X87518240Y-78150720D01*
X87520780Y-78153260D01*
X87551260Y-78158340D01*
X87617300Y-78132940D01*
X87736680Y-78074520D01*
X87817960Y-78033880D01*
X87909400Y-77990700D01*
X87950040Y-77975460D01*
X87985600Y-77993240D01*
X88071960Y-78051660D01*
X88201500Y-78135480D01*
X88353900Y-78239620D01*
X88501220Y-78341220D01*
X88635840Y-78430120D01*
X88734900Y-78491080D01*
X88783160Y-78519020D01*
X88790780Y-78519020D01*
X88831420Y-78493620D01*
X88910160Y-78430120D01*
X89027000Y-78318360D01*
X89192100Y-78155800D01*
X89217500Y-78130400D01*
X89354660Y-77990700D01*
X89466420Y-77873860D01*
X89540080Y-77792580D01*
X89565480Y-77754480D01*
X89565480Y-77754480D01*
X89542620Y-77706220D01*
X89479120Y-77609700D01*
X89390220Y-77472540D01*
X89281000Y-77312520D01*
X88996520Y-76898500D01*
X89154000Y-76507340D01*
X89202260Y-76387960D01*
X89263220Y-76243180D01*
X89306400Y-76139040D01*
X89331800Y-76093320D01*
X89372440Y-76078080D01*
X89481660Y-76052680D01*
X89636600Y-76019660D01*
X89819480Y-75986640D01*
X89997280Y-75953620D01*
X90157300Y-75923140D01*
X90271600Y-75900280D01*
X90322400Y-75890120D01*
X90335100Y-75882500D01*
X90345260Y-75857100D01*
X90352880Y-75803760D01*
X90355420Y-75707240D01*
X90357960Y-75554840D01*
X90357960Y-75333860D01*
X90357960Y-75311000D01*
X90355420Y-75100180D01*
X90352880Y-74932540D01*
X90347800Y-74823320D01*
X90340180Y-74780140D01*
X90340180Y-74780140D01*
X90289380Y-74767440D01*
X90177620Y-74744580D01*
X90017600Y-74711560D01*
X89827100Y-74676000D01*
X89816940Y-74673460D01*
X89626440Y-74637900D01*
X89468960Y-74604880D01*
X89357200Y-74579480D01*
X89311480Y-74564240D01*
X89301320Y-74551540D01*
X89263220Y-74477880D01*
X89207340Y-74361040D01*
X89146380Y-74216260D01*
X89082880Y-74068940D01*
X89029540Y-73934320D01*
X88993980Y-73835260D01*
X88983820Y-73789540D01*
X88983820Y-73789540D01*
X89011760Y-73743820D01*
X89077800Y-73644760D01*
X89169240Y-73510140D01*
X89281000Y-73347580D01*
X89288620Y-73334880D01*
X89397840Y-73174860D01*
X89486740Y-73040240D01*
X89545160Y-72943720D01*
X89565480Y-72900540D01*
X89565480Y-72898000D01*
X89529920Y-72849740D01*
X89448640Y-72760840D01*
X89331800Y-72638920D01*
X89192100Y-72496680D01*
X89146380Y-72453500D01*
X88991440Y-72301100D01*
X88884760Y-72202040D01*
X88816180Y-72148700D01*
X88783160Y-72136000D01*
X88783160Y-72138540D01*
X88734900Y-72166480D01*
X88633300Y-72232520D01*
X88496140Y-72326500D01*
X88333580Y-72435720D01*
X88323420Y-72443340D01*
X88163400Y-72552560D01*
X88031320Y-72641460D01*
X87934800Y-72704960D01*
X87894160Y-72730360D01*
X87886540Y-72730360D01*
X87823040Y-72710040D01*
X87708740Y-72671940D01*
X87569040Y-72616060D01*
X87421720Y-72557640D01*
X87287100Y-72501760D01*
X87185500Y-72453500D01*
X87137240Y-72428100D01*
X87137240Y-72425560D01*
X87119460Y-72367140D01*
X87091520Y-72247760D01*
X87058500Y-72082660D01*
X87020400Y-71887080D01*
X87015320Y-71856600D01*
X86979760Y-71666100D01*
X86949280Y-71508620D01*
X86926420Y-71399400D01*
X86913720Y-71353680D01*
X86888320Y-71348600D01*
X86794340Y-71340980D01*
X86652100Y-71338440D01*
X86479380Y-71335900D01*
X86299040Y-71338440D01*
X86123780Y-71340980D01*
X85971380Y-71346060D01*
X85864700Y-71353680D01*
X85818980Y-71363840D01*
X85816440Y-71366380D01*
X85801200Y-71424800D01*
X85775800Y-71544180D01*
X85740240Y-71709280D01*
X85702140Y-71907400D01*
X85697060Y-71940420D01*
X85661500Y-72130920D01*
X85628480Y-72285860D01*
X85605620Y-72395080D01*
X85592920Y-72435720D01*
X85577680Y-72445880D01*
X85498940Y-72478900D01*
X85371940Y-72532240D01*
X85211920Y-72595740D01*
X84846160Y-72745600D01*
X84399120Y-72435720D01*
X84355940Y-72407780D01*
X84195920Y-72298560D01*
X84061300Y-72209660D01*
X83969860Y-72151240D01*
X83931760Y-72128380D01*
X83929220Y-72130920D01*
X83883500Y-72169020D01*
X83794600Y-72252840D01*
X83672680Y-72372220D01*
X83532980Y-72511920D01*
X83428840Y-72616060D01*
X83304380Y-72743060D01*
X83225640Y-72826880D01*
X83182460Y-72882760D01*
X83167220Y-72915780D01*
X83172300Y-72936100D01*
X83200240Y-72981820D01*
X83266280Y-73080880D01*
X83357720Y-73218040D01*
X83466940Y-73375520D01*
X83558380Y-73510140D01*
X83654900Y-73660000D01*
X83718400Y-73766680D01*
X83741260Y-73820020D01*
X83736180Y-73842880D01*
X83703160Y-73929240D01*
X83649820Y-74063860D01*
X83583780Y-74221340D01*
X83426300Y-74576940D01*
X83192620Y-74620120D01*
X83052920Y-74648060D01*
X82854800Y-74686160D01*
X82666840Y-74721720D01*
X82372200Y-74780140D01*
X82362040Y-75862180D01*
X82407760Y-75882500D01*
X82450940Y-75895200D01*
X82560160Y-75918060D01*
X82715100Y-75948540D01*
X82900520Y-75984100D01*
X83055460Y-76014580D01*
X83215480Y-76042520D01*
X83327240Y-76065380D01*
X83378040Y-76075540D01*
X83390740Y-76093320D01*
X83431380Y-76169520D01*
X83487260Y-76291440D01*
X83548220Y-76438760D01*
X83611720Y-76588620D01*
X83667600Y-76728320D01*
X83708240Y-76835000D01*
X83720940Y-76890880D01*
X83700620Y-76934060D01*
X83639660Y-77025500D01*
X83553300Y-77157580D01*
X83446620Y-77315060D01*
X83337400Y-77472540D01*
X83248500Y-77607160D01*
X83185000Y-77703680D01*
X83159600Y-77746860D01*
X83172300Y-77777340D01*
X83233260Y-77853540D01*
X83352640Y-77975460D01*
X83527900Y-78150720D01*
X83558380Y-78178660D01*
X83698080Y-78313280D01*
X83817460Y-78422500D01*
X83898740Y-78496160D01*
X83936840Y-78521560D01*
D14*
X91160600Y-58420000D02*
G75*
G03X91160600Y-58420000I-4800600J0D01*
G01*
D15*
X100240000Y-33820000D02*
X100240000Y-39820000D01*
X100240000Y-39820000D02*
X94570000Y-39820000D01*
X94570000Y-39820000D02*
X94570000Y-33820000D01*
X94570000Y-33820000D02*
X100240000Y-33820000D01*
X100240000Y-48820000D02*
X100240000Y-54820000D01*
X100240000Y-54820000D02*
X94570000Y-54820000D01*
X94570000Y-54820000D02*
X94570000Y-48820000D01*
X94570000Y-48820000D02*
X100240000Y-48820000D01*
X100240000Y-63820000D02*
X100240000Y-69820000D01*
X100240000Y-69820000D02*
X94570000Y-69820000D01*
X94570000Y-69820000D02*
X94570000Y-63820000D01*
X94570000Y-63820000D02*
X100240000Y-63820000D01*
X100240000Y-78820000D02*
X100240000Y-84820000D01*
X100240000Y-84820000D02*
X94570000Y-84820000D01*
X94570000Y-84820000D02*
X94570000Y-78820000D01*
X94570000Y-78820000D02*
X100240000Y-78820000D01*
X120240000Y-33820000D02*
X120240000Y-39820000D01*
X120240000Y-39820000D02*
X114570000Y-39820000D01*
X114570000Y-39820000D02*
X114570000Y-33820000D01*
X114570000Y-33820000D02*
X120240000Y-33820000D01*
X120240000Y-48820000D02*
X120240000Y-54820000D01*
X120240000Y-54820000D02*
X114570000Y-54820000D01*
X114570000Y-54820000D02*
X114570000Y-48820000D01*
X114570000Y-48820000D02*
X120240000Y-48820000D01*
X120240000Y-63820000D02*
X120240000Y-69820000D01*
X120240000Y-69820000D02*
X114570000Y-69820000D01*
X114570000Y-69820000D02*
X114570000Y-63820000D01*
X114570000Y-63820000D02*
X120240000Y-63820000D01*
X120240000Y-78820000D02*
X120240000Y-84820000D01*
X120240000Y-84820000D02*
X114570000Y-84820000D01*
X114570000Y-84820000D02*
X114570000Y-78820000D01*
X114570000Y-78820000D02*
X120240000Y-78820000D01*
X140240000Y-33820000D02*
X140240000Y-39820000D01*
X140240000Y-39820000D02*
X134570000Y-39820000D01*
X134570000Y-39820000D02*
X134570000Y-33820000D01*
X134570000Y-33820000D02*
X140240000Y-33820000D01*
X140240000Y-48820000D02*
X140240000Y-54820000D01*
X140240000Y-54820000D02*
X134570000Y-54820000D01*
X134570000Y-54820000D02*
X134570000Y-48820000D01*
X134570000Y-48820000D02*
X140240000Y-48820000D01*
X140240000Y-63820000D02*
X140240000Y-69820000D01*
X140240000Y-69820000D02*
X134570000Y-69820000D01*
X134570000Y-69820000D02*
X134570000Y-63820000D01*
X134570000Y-63820000D02*
X140240000Y-63820000D01*
X140240000Y-78820000D02*
X140240000Y-84820000D01*
X140240000Y-84820000D02*
X134570000Y-84820000D01*
X134570000Y-84820000D02*
X134570000Y-78820000D01*
X134570000Y-78820000D02*
X140240000Y-78820000D01*
X160240000Y-33820000D02*
X160240000Y-39820000D01*
X160240000Y-39820000D02*
X154570000Y-39820000D01*
X154570000Y-39820000D02*
X154570000Y-33820000D01*
X154570000Y-33820000D02*
X160240000Y-33820000D01*
X160240000Y-48820000D02*
X160240000Y-54820000D01*
X160240000Y-54820000D02*
X154570000Y-54820000D01*
X154570000Y-54820000D02*
X154570000Y-48820000D01*
X154570000Y-48820000D02*
X160240000Y-48820000D01*
X160240000Y-63820000D02*
X160240000Y-69820000D01*
X160240000Y-69820000D02*
X154570000Y-69820000D01*
X154570000Y-69820000D02*
X154570000Y-63820000D01*
X154570000Y-63820000D02*
X160240000Y-63820000D01*
X160240000Y-78820000D02*
X160240000Y-84820000D01*
X160240000Y-84820000D02*
X154570000Y-84820000D01*
X154570000Y-84820000D02*
X154570000Y-78820000D01*
X154570000Y-78820000D02*
X160240000Y-78820000D01*
X176530000Y-80010000D02*
X176530000Y-31750000D01*
X176530000Y-31750000D02*
X179070000Y-31750000D01*
X179070000Y-31750000D02*
X179070000Y-80010000D01*
X176250000Y-82830000D02*
X176250000Y-81280000D01*
X176530000Y-80010000D02*
X179070000Y-80010000D01*
X179350000Y-81280000D02*
X179350000Y-82830000D01*
X179350000Y-82830000D02*
X176250000Y-82830000D01*
X191770000Y-80010000D02*
X191770000Y-36830000D01*
X191770000Y-36830000D02*
X194310000Y-36830000D01*
X194310000Y-36830000D02*
X194310000Y-80010000D01*
X191490000Y-82830000D02*
X191490000Y-81280000D01*
X191770000Y-80010000D02*
X194310000Y-80010000D01*
X194590000Y-81280000D02*
X194590000Y-82830000D01*
X194590000Y-82830000D02*
X191490000Y-82830000D01*
X84810000Y-46000000D02*
X84810000Y-44450000D01*
X87910000Y-44450000D02*
X87910000Y-46000000D01*
X87910000Y-46000000D02*
X84810000Y-46000000D01*
X87630000Y-43180000D02*
X85090000Y-43180000D01*
X102192381Y-36058095D02*
X101192381Y-36058095D01*
X101192381Y-35677142D01*
X101240000Y-35581904D01*
X101287619Y-35534285D01*
X101382857Y-35486666D01*
X101525714Y-35486666D01*
X101620952Y-35534285D01*
X101668571Y-35581904D01*
X101716190Y-35677142D01*
X101716190Y-36058095D01*
X102192381Y-34534285D02*
X102192381Y-35105714D01*
X102192381Y-34820000D02*
X101192381Y-34820000D01*
X101335238Y-34915238D01*
X101430476Y-35010476D01*
X101478095Y-35105714D01*
X102192381Y-51058095D02*
X101192381Y-51058095D01*
X101192381Y-50677142D01*
X101240000Y-50581904D01*
X101287619Y-50534285D01*
X101382857Y-50486666D01*
X101525714Y-50486666D01*
X101620952Y-50534285D01*
X101668571Y-50581904D01*
X101716190Y-50677142D01*
X101716190Y-51058095D01*
X101287619Y-50105714D02*
X101240000Y-50058095D01*
X101192381Y-49962857D01*
X101192381Y-49724761D01*
X101240000Y-49629523D01*
X101287619Y-49581904D01*
X101382857Y-49534285D01*
X101478095Y-49534285D01*
X101620952Y-49581904D01*
X102192381Y-50153333D01*
X102192381Y-49534285D01*
X102192381Y-66058095D02*
X101192381Y-66058095D01*
X101192381Y-65677142D01*
X101240000Y-65581904D01*
X101287619Y-65534285D01*
X101382857Y-65486666D01*
X101525714Y-65486666D01*
X101620952Y-65534285D01*
X101668571Y-65581904D01*
X101716190Y-65677142D01*
X101716190Y-66058095D01*
X101192381Y-65153333D02*
X101192381Y-64534285D01*
X101573333Y-64867619D01*
X101573333Y-64724761D01*
X101620952Y-64629523D01*
X101668571Y-64581904D01*
X101763810Y-64534285D01*
X102001905Y-64534285D01*
X102097143Y-64581904D01*
X102144762Y-64629523D01*
X102192381Y-64724761D01*
X102192381Y-65010476D01*
X102144762Y-65105714D01*
X102097143Y-65153333D01*
X102192381Y-81058095D02*
X101192381Y-81058095D01*
X101192381Y-80677142D01*
X101240000Y-80581904D01*
X101287619Y-80534285D01*
X101382857Y-80486666D01*
X101525714Y-80486666D01*
X101620952Y-80534285D01*
X101668571Y-80581904D01*
X101716190Y-80677142D01*
X101716190Y-81058095D01*
X101525714Y-79629523D02*
X102192381Y-79629523D01*
X101144762Y-79867619D02*
X101859048Y-80105714D01*
X101859048Y-79486666D01*
X122192381Y-36058095D02*
X121192381Y-36058095D01*
X121192381Y-35677142D01*
X121240000Y-35581904D01*
X121287619Y-35534285D01*
X121382857Y-35486666D01*
X121525714Y-35486666D01*
X121620952Y-35534285D01*
X121668571Y-35581904D01*
X121716190Y-35677142D01*
X121716190Y-36058095D01*
X121192381Y-34581904D02*
X121192381Y-35058095D01*
X121668571Y-35105714D01*
X121620952Y-35058095D01*
X121573333Y-34962857D01*
X121573333Y-34724761D01*
X121620952Y-34629523D01*
X121668571Y-34581904D01*
X121763810Y-34534285D01*
X122001905Y-34534285D01*
X122097143Y-34581904D01*
X122144762Y-34629523D01*
X122192381Y-34724761D01*
X122192381Y-34962857D01*
X122144762Y-35058095D01*
X122097143Y-35105714D01*
X122192381Y-51058095D02*
X121192381Y-51058095D01*
X121192381Y-50677142D01*
X121240000Y-50581904D01*
X121287619Y-50534285D01*
X121382857Y-50486666D01*
X121525714Y-50486666D01*
X121620952Y-50534285D01*
X121668571Y-50581904D01*
X121716190Y-50677142D01*
X121716190Y-51058095D01*
X121192381Y-49629523D02*
X121192381Y-49820000D01*
X121240000Y-49915238D01*
X121287619Y-49962857D01*
X121430476Y-50058095D01*
X121620952Y-50105714D01*
X122001905Y-50105714D01*
X122097143Y-50058095D01*
X122144762Y-50010476D01*
X122192381Y-49915238D01*
X122192381Y-49724761D01*
X122144762Y-49629523D01*
X122097143Y-49581904D01*
X122001905Y-49534285D01*
X121763810Y-49534285D01*
X121668571Y-49581904D01*
X121620952Y-49629523D01*
X121573333Y-49724761D01*
X121573333Y-49915238D01*
X121620952Y-50010476D01*
X121668571Y-50058095D01*
X121763810Y-50105714D01*
X122192381Y-66058095D02*
X121192381Y-66058095D01*
X121192381Y-65677142D01*
X121240000Y-65581904D01*
X121287619Y-65534285D01*
X121382857Y-65486666D01*
X121525714Y-65486666D01*
X121620952Y-65534285D01*
X121668571Y-65581904D01*
X121716190Y-65677142D01*
X121716190Y-66058095D01*
X121192381Y-65153333D02*
X121192381Y-64486666D01*
X122192381Y-64915238D01*
X122192381Y-81058095D02*
X121192381Y-81058095D01*
X121192381Y-80677142D01*
X121240000Y-80581904D01*
X121287619Y-80534285D01*
X121382857Y-80486666D01*
X121525714Y-80486666D01*
X121620952Y-80534285D01*
X121668571Y-80581904D01*
X121716190Y-80677142D01*
X121716190Y-81058095D01*
X121620952Y-79915238D02*
X121573333Y-80010476D01*
X121525714Y-80058095D01*
X121430476Y-80105714D01*
X121382857Y-80105714D01*
X121287619Y-80058095D01*
X121240000Y-80010476D01*
X121192381Y-79915238D01*
X121192381Y-79724761D01*
X121240000Y-79629523D01*
X121287619Y-79581904D01*
X121382857Y-79534285D01*
X121430476Y-79534285D01*
X121525714Y-79581904D01*
X121573333Y-79629523D01*
X121620952Y-79724761D01*
X121620952Y-79915238D01*
X121668571Y-80010476D01*
X121716190Y-80058095D01*
X121811429Y-80105714D01*
X122001905Y-80105714D01*
X122097143Y-80058095D01*
X122144762Y-80010476D01*
X122192381Y-79915238D01*
X122192381Y-79724761D01*
X122144762Y-79629523D01*
X122097143Y-79581904D01*
X122001905Y-79534285D01*
X121811429Y-79534285D01*
X121716190Y-79581904D01*
X121668571Y-79629523D01*
X121620952Y-79724761D01*
X142192381Y-36058095D02*
X141192381Y-36058095D01*
X141192381Y-35677142D01*
X141240000Y-35581904D01*
X141287619Y-35534285D01*
X141382857Y-35486666D01*
X141525714Y-35486666D01*
X141620952Y-35534285D01*
X141668571Y-35581904D01*
X141716190Y-35677142D01*
X141716190Y-36058095D01*
X142192381Y-35010476D02*
X142192381Y-34820000D01*
X142144762Y-34724761D01*
X142097143Y-34677142D01*
X141954286Y-34581904D01*
X141763810Y-34534285D01*
X141382857Y-34534285D01*
X141287619Y-34581904D01*
X141240000Y-34629523D01*
X141192381Y-34724761D01*
X141192381Y-34915238D01*
X141240000Y-35010476D01*
X141287619Y-35058095D01*
X141382857Y-35105714D01*
X141620952Y-35105714D01*
X141716190Y-35058095D01*
X141763810Y-35010476D01*
X141811429Y-34915238D01*
X141811429Y-34724761D01*
X141763810Y-34629523D01*
X141716190Y-34581904D01*
X141620952Y-34534285D01*
X142192381Y-51534286D02*
X141192381Y-51534286D01*
X141192381Y-51153333D01*
X141240000Y-51058095D01*
X141287619Y-51010476D01*
X141382857Y-50962857D01*
X141525714Y-50962857D01*
X141620952Y-51010476D01*
X141668571Y-51058095D01*
X141716190Y-51153333D01*
X141716190Y-51534286D01*
X142192381Y-50010476D02*
X142192381Y-50581905D01*
X142192381Y-50296191D02*
X141192381Y-50296191D01*
X141335238Y-50391429D01*
X141430476Y-50486667D01*
X141478095Y-50581905D01*
X141192381Y-49391429D02*
X141192381Y-49296190D01*
X141240000Y-49200952D01*
X141287619Y-49153333D01*
X141382857Y-49105714D01*
X141573333Y-49058095D01*
X141811429Y-49058095D01*
X142001905Y-49105714D01*
X142097143Y-49153333D01*
X142144762Y-49200952D01*
X142192381Y-49296190D01*
X142192381Y-49391429D01*
X142144762Y-49486667D01*
X142097143Y-49534286D01*
X142001905Y-49581905D01*
X141811429Y-49629524D01*
X141573333Y-49629524D01*
X141382857Y-49581905D01*
X141287619Y-49534286D01*
X141240000Y-49486667D01*
X141192381Y-49391429D01*
X142192381Y-66534286D02*
X141192381Y-66534286D01*
X141192381Y-66153333D01*
X141240000Y-66058095D01*
X141287619Y-66010476D01*
X141382857Y-65962857D01*
X141525714Y-65962857D01*
X141620952Y-66010476D01*
X141668571Y-66058095D01*
X141716190Y-66153333D01*
X141716190Y-66534286D01*
X142192381Y-65010476D02*
X142192381Y-65581905D01*
X142192381Y-65296191D02*
X141192381Y-65296191D01*
X141335238Y-65391429D01*
X141430476Y-65486667D01*
X141478095Y-65581905D01*
X142192381Y-64058095D02*
X142192381Y-64629524D01*
X142192381Y-64343810D02*
X141192381Y-64343810D01*
X141335238Y-64439048D01*
X141430476Y-64534286D01*
X141478095Y-64629524D01*
X142192381Y-81534286D02*
X141192381Y-81534286D01*
X141192381Y-81153333D01*
X141240000Y-81058095D01*
X141287619Y-81010476D01*
X141382857Y-80962857D01*
X141525714Y-80962857D01*
X141620952Y-81010476D01*
X141668571Y-81058095D01*
X141716190Y-81153333D01*
X141716190Y-81534286D01*
X142192381Y-80010476D02*
X142192381Y-80581905D01*
X142192381Y-80296191D02*
X141192381Y-80296191D01*
X141335238Y-80391429D01*
X141430476Y-80486667D01*
X141478095Y-80581905D01*
X141287619Y-79629524D02*
X141240000Y-79581905D01*
X141192381Y-79486667D01*
X141192381Y-79248571D01*
X141240000Y-79153333D01*
X141287619Y-79105714D01*
X141382857Y-79058095D01*
X141478095Y-79058095D01*
X141620952Y-79105714D01*
X142192381Y-79677143D01*
X142192381Y-79058095D01*
X162192381Y-36534286D02*
X161192381Y-36534286D01*
X161192381Y-36153333D01*
X161240000Y-36058095D01*
X161287619Y-36010476D01*
X161382857Y-35962857D01*
X161525714Y-35962857D01*
X161620952Y-36010476D01*
X161668571Y-36058095D01*
X161716190Y-36153333D01*
X161716190Y-36534286D01*
X162192381Y-35010476D02*
X162192381Y-35581905D01*
X162192381Y-35296191D02*
X161192381Y-35296191D01*
X161335238Y-35391429D01*
X161430476Y-35486667D01*
X161478095Y-35581905D01*
X161192381Y-34677143D02*
X161192381Y-34058095D01*
X161573333Y-34391429D01*
X161573333Y-34248571D01*
X161620952Y-34153333D01*
X161668571Y-34105714D01*
X161763810Y-34058095D01*
X162001905Y-34058095D01*
X162097143Y-34105714D01*
X162144762Y-34153333D01*
X162192381Y-34248571D01*
X162192381Y-34534286D01*
X162144762Y-34629524D01*
X162097143Y-34677143D01*
X162192381Y-51534286D02*
X161192381Y-51534286D01*
X161192381Y-51153333D01*
X161240000Y-51058095D01*
X161287619Y-51010476D01*
X161382857Y-50962857D01*
X161525714Y-50962857D01*
X161620952Y-51010476D01*
X161668571Y-51058095D01*
X161716190Y-51153333D01*
X161716190Y-51534286D01*
X162192381Y-50010476D02*
X162192381Y-50581905D01*
X162192381Y-50296191D02*
X161192381Y-50296191D01*
X161335238Y-50391429D01*
X161430476Y-50486667D01*
X161478095Y-50581905D01*
X161525714Y-49153333D02*
X162192381Y-49153333D01*
X161144762Y-49391429D02*
X161859048Y-49629524D01*
X161859048Y-49010476D01*
X162192381Y-66534286D02*
X161192381Y-66534286D01*
X161192381Y-66153333D01*
X161240000Y-66058095D01*
X161287619Y-66010476D01*
X161382857Y-65962857D01*
X161525714Y-65962857D01*
X161620952Y-66010476D01*
X161668571Y-66058095D01*
X161716190Y-66153333D01*
X161716190Y-66534286D01*
X162192381Y-65010476D02*
X162192381Y-65581905D01*
X162192381Y-65296191D02*
X161192381Y-65296191D01*
X161335238Y-65391429D01*
X161430476Y-65486667D01*
X161478095Y-65581905D01*
X161192381Y-64105714D02*
X161192381Y-64581905D01*
X161668571Y-64629524D01*
X161620952Y-64581905D01*
X161573333Y-64486667D01*
X161573333Y-64248571D01*
X161620952Y-64153333D01*
X161668571Y-64105714D01*
X161763810Y-64058095D01*
X162001905Y-64058095D01*
X162097143Y-64105714D01*
X162144762Y-64153333D01*
X162192381Y-64248571D01*
X162192381Y-64486667D01*
X162144762Y-64581905D01*
X162097143Y-64629524D01*
X162192381Y-81534286D02*
X161192381Y-81534286D01*
X161192381Y-81153333D01*
X161240000Y-81058095D01*
X161287619Y-81010476D01*
X161382857Y-80962857D01*
X161525714Y-80962857D01*
X161620952Y-81010476D01*
X161668571Y-81058095D01*
X161716190Y-81153333D01*
X161716190Y-81534286D01*
X162192381Y-80010476D02*
X162192381Y-80581905D01*
X162192381Y-80296191D02*
X161192381Y-80296191D01*
X161335238Y-80391429D01*
X161430476Y-80486667D01*
X161478095Y-80581905D01*
X161192381Y-79153333D02*
X161192381Y-79343810D01*
X161240000Y-79439048D01*
X161287619Y-79486667D01*
X161430476Y-79581905D01*
X161620952Y-79629524D01*
X162001905Y-79629524D01*
X162097143Y-79581905D01*
X162144762Y-79534286D01*
X162192381Y-79439048D01*
X162192381Y-79248571D01*
X162144762Y-79153333D01*
X162097143Y-79105714D01*
X162001905Y-79058095D01*
X161763810Y-79058095D01*
X161668571Y-79105714D01*
X161620952Y-79153333D01*
X161573333Y-79248571D01*
X161573333Y-79439048D01*
X161620952Y-79534286D01*
X161668571Y-79581905D01*
X161763810Y-79629524D01*
X176585714Y-86832381D02*
X176585714Y-85832381D01*
X176966667Y-85832381D01*
X177061905Y-85880000D01*
X177109524Y-85927619D01*
X177157143Y-86022857D01*
X177157143Y-86165714D01*
X177109524Y-86260952D01*
X177061905Y-86308571D01*
X176966667Y-86356190D01*
X176585714Y-86356190D01*
X178109524Y-86832381D02*
X177538095Y-86832381D01*
X177823809Y-86832381D02*
X177823809Y-85832381D01*
X177728571Y-85975238D01*
X177633333Y-86070476D01*
X177538095Y-86118095D01*
X178442857Y-85832381D02*
X179109524Y-85832381D01*
X178680952Y-86832381D01*
X191825714Y-86832381D02*
X191825714Y-85832381D01*
X192206667Y-85832381D01*
X192301905Y-85880000D01*
X192349524Y-85927619D01*
X192397143Y-86022857D01*
X192397143Y-86165714D01*
X192349524Y-86260952D01*
X192301905Y-86308571D01*
X192206667Y-86356190D01*
X191825714Y-86356190D01*
X193349524Y-86832381D02*
X192778095Y-86832381D01*
X193063809Y-86832381D02*
X193063809Y-85832381D01*
X192968571Y-85975238D01*
X192873333Y-86070476D01*
X192778095Y-86118095D01*
X193920952Y-86260952D02*
X193825714Y-86213333D01*
X193778095Y-86165714D01*
X193730476Y-86070476D01*
X193730476Y-86022857D01*
X193778095Y-85927619D01*
X193825714Y-85880000D01*
X193920952Y-85832381D01*
X194111429Y-85832381D01*
X194206667Y-85880000D01*
X194254286Y-85927619D01*
X194301905Y-86022857D01*
X194301905Y-86070476D01*
X194254286Y-86165714D01*
X194206667Y-86213333D01*
X194111429Y-86260952D01*
X193920952Y-86260952D01*
X193825714Y-86308571D01*
X193778095Y-86356190D01*
X193730476Y-86451429D01*
X193730476Y-86641905D01*
X193778095Y-86737143D01*
X193825714Y-86784762D01*
X193920952Y-86832381D01*
X194111429Y-86832381D01*
X194206667Y-86784762D01*
X194254286Y-86737143D01*
X194301905Y-86641905D01*
X194301905Y-86451429D01*
X194254286Y-86356190D01*
X194206667Y-86308571D01*
X194111429Y-86260952D01*
X85145714Y-50002381D02*
X85145714Y-49002381D01*
X85526667Y-49002381D01*
X85621905Y-49050000D01*
X85669524Y-49097619D01*
X85717143Y-49192857D01*
X85717143Y-49335714D01*
X85669524Y-49430952D01*
X85621905Y-49478571D01*
X85526667Y-49526190D01*
X85145714Y-49526190D01*
X86669524Y-50002381D02*
X86098095Y-50002381D01*
X86383809Y-50002381D02*
X86383809Y-49002381D01*
X86288571Y-49145238D01*
X86193333Y-49240476D01*
X86098095Y-49288095D01*
X87145714Y-50002381D02*
X87336190Y-50002381D01*
X87431429Y-49954762D01*
X87479048Y-49907143D01*
X87574286Y-49764286D01*
X87621905Y-49573810D01*
X87621905Y-49192857D01*
X87574286Y-49097619D01*
X87526667Y-49050000D01*
X87431429Y-49002381D01*
X87240952Y-49002381D01*
X87145714Y-49050000D01*
X87098095Y-49097619D01*
X87050476Y-49192857D01*
X87050476Y-49430952D01*
X87098095Y-49526190D01*
X87145714Y-49573810D01*
X87240952Y-49621429D01*
X87431429Y-49621429D01*
X87526667Y-49573810D01*
X87574286Y-49526190D01*
X87621905Y-49430952D01*
M02*
