G04 #@! TF.FileFunction,Soldermask,Top*
%FSLAX46Y46*%
G04 Gerber Fmt 4.6, Leading zero omitted, Abs format (unit mm)*
G04 Created by KiCad (PCBNEW 4.0.2-4+6225~38~ubuntu14.04.1-stable) date Sat Feb 20 17:03:59 2016*
%MOMM*%
G01*
G04 APERTURE LIST*
%ADD10C,0.100000*%
%ADD11R,2.800000X2.300000*%
%ADD12R,1.950000X1.000000*%
%ADD13R,2.432000X2.127200*%
%ADD14O,2.432000X2.127200*%
%ADD15R,2.635200X2.635200*%
G04 APERTURE END LIST*
D10*
D11*
X97515000Y-34170000D03*
D12*
X100240000Y-37820000D03*
X100240000Y-36820000D03*
X100240000Y-35820000D03*
D11*
X97515000Y-39470000D03*
X97515000Y-49170000D03*
D12*
X100240000Y-52820000D03*
X100240000Y-51820000D03*
X100240000Y-50820000D03*
D11*
X97515000Y-54470000D03*
X97515000Y-64170000D03*
D12*
X100240000Y-67820000D03*
X100240000Y-66820000D03*
X100240000Y-65820000D03*
D11*
X97515000Y-69470000D03*
X97515000Y-79170000D03*
D12*
X100240000Y-82820000D03*
X100240000Y-81820000D03*
X100240000Y-80820000D03*
D11*
X97515000Y-84470000D03*
X117515000Y-34170000D03*
D12*
X120240000Y-37820000D03*
X120240000Y-36820000D03*
X120240000Y-35820000D03*
D11*
X117515000Y-39470000D03*
X117515000Y-49170000D03*
D12*
X120240000Y-52820000D03*
X120240000Y-51820000D03*
X120240000Y-50820000D03*
D11*
X117515000Y-54470000D03*
X117515000Y-64170000D03*
D12*
X120240000Y-67820000D03*
X120240000Y-66820000D03*
X120240000Y-65820000D03*
D11*
X117515000Y-69470000D03*
X117515000Y-79170000D03*
D12*
X120240000Y-82820000D03*
X120240000Y-81820000D03*
X120240000Y-80820000D03*
D11*
X117515000Y-84470000D03*
X137515000Y-34170000D03*
D12*
X140240000Y-37820000D03*
X140240000Y-36820000D03*
X140240000Y-35820000D03*
D11*
X137515000Y-39470000D03*
X137515000Y-49170000D03*
D12*
X140240000Y-52820000D03*
X140240000Y-51820000D03*
X140240000Y-50820000D03*
D11*
X137515000Y-54470000D03*
X137515000Y-64170000D03*
D12*
X140240000Y-67820000D03*
X140240000Y-66820000D03*
X140240000Y-65820000D03*
D11*
X137515000Y-69470000D03*
X137515000Y-79170000D03*
D12*
X140240000Y-82820000D03*
X140240000Y-81820000D03*
X140240000Y-80820000D03*
D11*
X137515000Y-84470000D03*
X157515000Y-34170000D03*
D12*
X160240000Y-37820000D03*
X160240000Y-36820000D03*
X160240000Y-35820000D03*
D11*
X157515000Y-39470000D03*
X157515000Y-49170000D03*
D12*
X160240000Y-52820000D03*
X160240000Y-51820000D03*
X160240000Y-50820000D03*
D11*
X157515000Y-54470000D03*
X157515000Y-64170000D03*
D12*
X160240000Y-67820000D03*
X160240000Y-66820000D03*
X160240000Y-65820000D03*
D11*
X157515000Y-69470000D03*
X157515000Y-79170000D03*
D12*
X160240000Y-82820000D03*
X160240000Y-81820000D03*
X160240000Y-80820000D03*
D11*
X157515000Y-84470000D03*
D13*
X177800000Y-81280000D03*
D14*
X177800000Y-78740000D03*
X177800000Y-76200000D03*
X177800000Y-73660000D03*
X177800000Y-71120000D03*
X177800000Y-68580000D03*
X177800000Y-66040000D03*
X177800000Y-63500000D03*
X177800000Y-60960000D03*
X177800000Y-58420000D03*
X177800000Y-55880000D03*
X177800000Y-53340000D03*
X177800000Y-50800000D03*
X177800000Y-48260000D03*
X177800000Y-45720000D03*
X177800000Y-43180000D03*
X177800000Y-40640000D03*
X177800000Y-38100000D03*
X177800000Y-35560000D03*
X177800000Y-33020000D03*
D13*
X193040000Y-81280000D03*
D14*
X193040000Y-78740000D03*
X193040000Y-76200000D03*
X193040000Y-73660000D03*
X193040000Y-71120000D03*
X193040000Y-68580000D03*
X193040000Y-66040000D03*
X193040000Y-63500000D03*
X193040000Y-60960000D03*
X193040000Y-58420000D03*
X193040000Y-55880000D03*
X193040000Y-53340000D03*
X193040000Y-50800000D03*
X193040000Y-48260000D03*
X193040000Y-45720000D03*
X193040000Y-43180000D03*
X193040000Y-40640000D03*
X193040000Y-38100000D03*
D15*
X86360000Y-44450000D03*
M02*
