G04 #@! TF.FileFunction,Copper,L1,Top,Signal*
%FSLAX46Y46*%
G04 Gerber Fmt 4.6, Leading zero omitted, Abs format (unit mm)*
G04 Created by KiCad (PCBNEW 4.0.2-4+6225~38~ubuntu14.04.1-stable) date Sat Feb 20 17:03:59 2016*
%MOMM*%
G01*
G04 APERTURE LIST*
%ADD10C,0.100000*%
%ADD11C,7.929880*%
%ADD12R,2.400000X1.900000*%
%ADD13R,1.550000X0.600000*%
%ADD14R,2.032000X1.727200*%
%ADD15O,2.032000X1.727200*%
%ADD16R,2.235200X2.235200*%
%ADD17C,0.600000*%
%ADD18C,0.250000*%
%ADD19C,0.254000*%
G04 APERTURE END LIST*
D10*
D11*
X86360000Y-58420000D03*
D12*
X97515000Y-34170000D03*
D13*
X100240000Y-37820000D03*
X100240000Y-36820000D03*
X100240000Y-35820000D03*
D12*
X97515000Y-39470000D03*
X97515000Y-49170000D03*
D13*
X100240000Y-52820000D03*
X100240000Y-51820000D03*
X100240000Y-50820000D03*
D12*
X97515000Y-54470000D03*
X97515000Y-64170000D03*
D13*
X100240000Y-67820000D03*
X100240000Y-66820000D03*
X100240000Y-65820000D03*
D12*
X97515000Y-69470000D03*
X97515000Y-79170000D03*
D13*
X100240000Y-82820000D03*
X100240000Y-81820000D03*
X100240000Y-80820000D03*
D12*
X97515000Y-84470000D03*
X117515000Y-34170000D03*
D13*
X120240000Y-37820000D03*
X120240000Y-36820000D03*
X120240000Y-35820000D03*
D12*
X117515000Y-39470000D03*
X117515000Y-49170000D03*
D13*
X120240000Y-52820000D03*
X120240000Y-51820000D03*
X120240000Y-50820000D03*
D12*
X117515000Y-54470000D03*
X117515000Y-64170000D03*
D13*
X120240000Y-67820000D03*
X120240000Y-66820000D03*
X120240000Y-65820000D03*
D12*
X117515000Y-69470000D03*
X117515000Y-79170000D03*
D13*
X120240000Y-82820000D03*
X120240000Y-81820000D03*
X120240000Y-80820000D03*
D12*
X117515000Y-84470000D03*
X137515000Y-34170000D03*
D13*
X140240000Y-37820000D03*
X140240000Y-36820000D03*
X140240000Y-35820000D03*
D12*
X137515000Y-39470000D03*
X137515000Y-49170000D03*
D13*
X140240000Y-52820000D03*
X140240000Y-51820000D03*
X140240000Y-50820000D03*
D12*
X137515000Y-54470000D03*
X137515000Y-64170000D03*
D13*
X140240000Y-67820000D03*
X140240000Y-66820000D03*
X140240000Y-65820000D03*
D12*
X137515000Y-69470000D03*
X137515000Y-79170000D03*
D13*
X140240000Y-82820000D03*
X140240000Y-81820000D03*
X140240000Y-80820000D03*
D12*
X137515000Y-84470000D03*
X157515000Y-34170000D03*
D13*
X160240000Y-37820000D03*
X160240000Y-36820000D03*
X160240000Y-35820000D03*
D12*
X157515000Y-39470000D03*
X157515000Y-49170000D03*
D13*
X160240000Y-52820000D03*
X160240000Y-51820000D03*
X160240000Y-50820000D03*
D12*
X157515000Y-54470000D03*
X157515000Y-64170000D03*
D13*
X160240000Y-67820000D03*
X160240000Y-66820000D03*
X160240000Y-65820000D03*
D12*
X157515000Y-69470000D03*
X157515000Y-79170000D03*
D13*
X160240000Y-82820000D03*
X160240000Y-81820000D03*
X160240000Y-80820000D03*
D12*
X157515000Y-84470000D03*
D14*
X177800000Y-81280000D03*
D15*
X177800000Y-78740000D03*
X177800000Y-76200000D03*
X177800000Y-73660000D03*
X177800000Y-71120000D03*
X177800000Y-68580000D03*
X177800000Y-66040000D03*
X177800000Y-63500000D03*
X177800000Y-60960000D03*
X177800000Y-58420000D03*
X177800000Y-55880000D03*
X177800000Y-53340000D03*
X177800000Y-50800000D03*
X177800000Y-48260000D03*
X177800000Y-45720000D03*
X177800000Y-43180000D03*
X177800000Y-40640000D03*
X177800000Y-38100000D03*
X177800000Y-35560000D03*
X177800000Y-33020000D03*
D14*
X193040000Y-81280000D03*
D15*
X193040000Y-78740000D03*
X193040000Y-76200000D03*
X193040000Y-73660000D03*
X193040000Y-71120000D03*
X193040000Y-68580000D03*
X193040000Y-66040000D03*
X193040000Y-63500000D03*
X193040000Y-60960000D03*
X193040000Y-58420000D03*
X193040000Y-55880000D03*
X193040000Y-53340000D03*
X193040000Y-50800000D03*
X193040000Y-48260000D03*
X193040000Y-45720000D03*
X193040000Y-43180000D03*
X193040000Y-40640000D03*
X193040000Y-38100000D03*
D16*
X86360000Y-44450000D03*
D17*
X157806941Y-52219982D03*
X137795000Y-67310000D03*
X137160000Y-52070000D03*
X137795000Y-36830000D03*
X118110000Y-36830000D03*
X117475000Y-52070000D03*
X118110000Y-67310000D03*
X117475000Y-82550000D03*
X97790000Y-36830000D03*
X97790000Y-52705000D03*
X97790000Y-67310000D03*
X97155000Y-82550000D03*
X138430000Y-82550000D03*
X158115000Y-82550000D03*
X157480000Y-67310000D03*
X157480000Y-36830000D03*
X110490000Y-63500000D03*
X142240000Y-64770000D03*
X142240000Y-50165000D03*
X142240000Y-34925000D03*
X121920000Y-34925000D03*
X121920000Y-50165000D03*
X121920000Y-65405000D03*
X122555000Y-80645000D03*
X102235000Y-35560000D03*
X102235000Y-50800000D03*
X102235000Y-65405000D03*
X102235000Y-80645000D03*
X142240000Y-80645000D03*
X162560000Y-80645000D03*
X160655000Y-62230000D03*
X161925000Y-50165000D03*
X161925000Y-35560000D03*
X107950000Y-68580000D03*
X105410000Y-73660000D03*
X105410000Y-78740000D03*
X132080000Y-60960000D03*
X128270000Y-66040000D03*
X125730000Y-71120000D03*
X125730000Y-76200000D03*
X143510000Y-43180000D03*
X143510000Y-48260000D03*
X145900000Y-53360000D03*
X146050000Y-58420000D03*
X167640000Y-40640000D03*
X163830000Y-45720000D03*
X166370000Y-50800000D03*
X168275000Y-55880000D03*
X86360000Y-38100000D03*
D18*
X158614982Y-52219982D02*
X158231205Y-52219982D01*
X159215000Y-52820000D02*
X158614982Y-52219982D01*
X160240000Y-52820000D02*
X159215000Y-52820000D01*
X158231205Y-52219982D02*
X157806941Y-52219982D01*
X140240000Y-67820000D02*
X138305000Y-67820000D01*
X138305000Y-67820000D02*
X137795000Y-67310000D01*
X140240000Y-52820000D02*
X137910000Y-52820000D01*
X137910000Y-52820000D02*
X137160000Y-52070000D01*
X140240000Y-37820000D02*
X138785000Y-37820000D01*
X138785000Y-37820000D02*
X137795000Y-36830000D01*
X120240000Y-37820000D02*
X119100000Y-37820000D01*
X119100000Y-37820000D02*
X118110000Y-36830000D01*
X120240000Y-52820000D02*
X118225000Y-52820000D01*
X118225000Y-52820000D02*
X117475000Y-52070000D01*
X120240000Y-67820000D02*
X118620000Y-67820000D01*
X118620000Y-67820000D02*
X118110000Y-67310000D01*
X120240000Y-82820000D02*
X117745000Y-82820000D01*
X117745000Y-82820000D02*
X117475000Y-82550000D01*
X100240000Y-37820000D02*
X98780000Y-37820000D01*
X98780000Y-37820000D02*
X97790000Y-36830000D01*
X100240000Y-52820000D02*
X97905000Y-52820000D01*
X97905000Y-52820000D02*
X97790000Y-52705000D01*
X100240000Y-67820000D02*
X98300000Y-67820000D01*
X98300000Y-67820000D02*
X97790000Y-67310000D01*
X100240000Y-82820000D02*
X97425000Y-82820000D01*
X97425000Y-82820000D02*
X97155000Y-82550000D01*
X140240000Y-82820000D02*
X138700000Y-82820000D01*
X138700000Y-82820000D02*
X138430000Y-82550000D01*
X160240000Y-82820000D02*
X158385000Y-82820000D01*
X158385000Y-82820000D02*
X158115000Y-82550000D01*
X160240000Y-67820000D02*
X157990000Y-67820000D01*
X157990000Y-67820000D02*
X157480000Y-67310000D01*
X160240000Y-37820000D02*
X158470000Y-37820000D01*
X158470000Y-37820000D02*
X157480000Y-36830000D01*
X108575000Y-36820000D02*
X100240000Y-36820000D01*
X110490000Y-38735000D02*
X108575000Y-36820000D01*
X110490000Y-63500000D02*
X110490000Y-38735000D01*
X140240000Y-65820000D02*
X141190000Y-65820000D01*
X141190000Y-65820000D02*
X142240000Y-64770000D01*
X140240000Y-50820000D02*
X141585000Y-50820000D01*
X141585000Y-50820000D02*
X142240000Y-50165000D01*
X140240000Y-35820000D02*
X141345000Y-35820000D01*
X141345000Y-35820000D02*
X142240000Y-34925000D01*
X120240000Y-35820000D02*
X121025000Y-35820000D01*
X121025000Y-35820000D02*
X121920000Y-34925000D01*
X120240000Y-50820000D02*
X121265000Y-50820000D01*
X121265000Y-50820000D02*
X121920000Y-50165000D01*
X120240000Y-65820000D02*
X121505000Y-65820000D01*
X121505000Y-65820000D02*
X121920000Y-65405000D01*
X120240000Y-80820000D02*
X122380000Y-80820000D01*
X122380000Y-80820000D02*
X122555000Y-80645000D01*
X100240000Y-35820000D02*
X101975000Y-35820000D01*
X101975000Y-35820000D02*
X102235000Y-35560000D01*
X100240000Y-50820000D02*
X102215000Y-50820000D01*
X102215000Y-50820000D02*
X102235000Y-50800000D01*
X100240000Y-65820000D02*
X101820000Y-65820000D01*
X101820000Y-65820000D02*
X102235000Y-65405000D01*
X100240000Y-80820000D02*
X102060000Y-80820000D01*
X102060000Y-80820000D02*
X102235000Y-80645000D01*
X140240000Y-80820000D02*
X142065000Y-80820000D01*
X142065000Y-80820000D02*
X142240000Y-80645000D01*
X160240000Y-80820000D02*
X162385000Y-80820000D01*
X162385000Y-80820000D02*
X162560000Y-80645000D01*
X160240000Y-65820000D02*
X160655000Y-65405000D01*
X160655000Y-65405000D02*
X160655000Y-62230000D01*
X160240000Y-50820000D02*
X161270000Y-50820000D01*
X161270000Y-50820000D02*
X161925000Y-50165000D01*
X160240000Y-35820000D02*
X161665000Y-35820000D01*
X161665000Y-35820000D02*
X161925000Y-35560000D01*
X106430000Y-51820000D02*
X100240000Y-51820000D01*
X107950000Y-53340000D02*
X106430000Y-51820000D01*
X107950000Y-68580000D02*
X107950000Y-53340000D01*
X104920000Y-66820000D02*
X100240000Y-66820000D01*
X105410000Y-67310000D02*
X104920000Y-66820000D01*
X105410000Y-73660000D02*
X105410000Y-67310000D01*
X104870000Y-81820000D02*
X100240000Y-81820000D01*
X105410000Y-81280000D02*
X104870000Y-81820000D01*
X105410000Y-78740000D02*
X105410000Y-81280000D01*
X131435000Y-36820000D02*
X120240000Y-36820000D01*
X132080000Y-37465000D02*
X131435000Y-36820000D01*
X132080000Y-60960000D02*
X132080000Y-37465000D01*
X126750000Y-51820000D02*
X120240000Y-51820000D01*
X128270000Y-53340000D02*
X126750000Y-51820000D01*
X128270000Y-66040000D02*
X128270000Y-53340000D01*
X124605000Y-66820000D02*
X120240000Y-66820000D01*
X125730000Y-67945000D02*
X124605000Y-66820000D01*
X125730000Y-71120000D02*
X125730000Y-67945000D01*
X125190000Y-81820000D02*
X120240000Y-81820000D01*
X125730000Y-81280000D02*
X125190000Y-81820000D01*
X125730000Y-76200000D02*
X125730000Y-81280000D01*
X140240000Y-36820000D02*
X140250000Y-36830000D01*
X140250000Y-36830000D02*
X142240000Y-36830000D01*
X142240000Y-36830000D02*
X143510000Y-38100000D01*
X143510000Y-38100000D02*
X143510000Y-43180000D01*
X143125000Y-51820000D02*
X140240000Y-51820000D01*
X143510000Y-51435000D02*
X143125000Y-51820000D01*
X143510000Y-48260000D02*
X143510000Y-51435000D01*
X140240000Y-66820000D02*
X142970000Y-66820000D01*
X144420000Y-54840000D02*
X145900000Y-53360000D01*
X144420000Y-65370000D02*
X144420000Y-54840000D01*
X142970000Y-66820000D02*
X144420000Y-65370000D01*
X144240000Y-81820000D02*
X140240000Y-81820000D01*
X146050000Y-80010000D02*
X144240000Y-81820000D01*
X146050000Y-58420000D02*
X146050000Y-80010000D01*
X166360000Y-36820000D02*
X160240000Y-36820000D01*
X167640000Y-38100000D02*
X166360000Y-36820000D01*
X167640000Y-40640000D02*
X167640000Y-38100000D01*
X162810000Y-51820000D02*
X160240000Y-51820000D01*
X163830000Y-50800000D02*
X162810000Y-51820000D01*
X163830000Y-45720000D02*
X163830000Y-50800000D01*
X164320000Y-66820000D02*
X160240000Y-66820000D01*
X166370000Y-64770000D02*
X164320000Y-66820000D01*
X166370000Y-50800000D02*
X166370000Y-64770000D01*
X167100000Y-81820000D02*
X160240000Y-81820000D01*
X168275000Y-80645000D02*
X167100000Y-81820000D01*
X168275000Y-55880000D02*
X168275000Y-80645000D01*
X86360000Y-44450000D02*
X86360000Y-38100000D01*
D19*
G36*
X200533000Y-86233000D02*
X78867000Y-86233000D01*
X78867000Y-84242022D01*
X84228631Y-84242022D01*
X84552373Y-85025538D01*
X85151309Y-85625521D01*
X85934258Y-85950630D01*
X86782022Y-85951369D01*
X87565538Y-85627627D01*
X88165521Y-85028691D01*
X88490630Y-84245742D01*
X88491262Y-83520000D01*
X95926536Y-83520000D01*
X95926536Y-85420000D01*
X95953103Y-85561190D01*
X96036546Y-85690865D01*
X96163866Y-85777859D01*
X96315000Y-85808464D01*
X98715000Y-85808464D01*
X98856190Y-85781897D01*
X98985865Y-85698454D01*
X99072859Y-85571134D01*
X99103464Y-85420000D01*
X99103464Y-83520000D01*
X115926536Y-83520000D01*
X115926536Y-85420000D01*
X115953103Y-85561190D01*
X116036546Y-85690865D01*
X116163866Y-85777859D01*
X116315000Y-85808464D01*
X118715000Y-85808464D01*
X118856190Y-85781897D01*
X118985865Y-85698454D01*
X119072859Y-85571134D01*
X119103464Y-85420000D01*
X119103464Y-83520000D01*
X135926536Y-83520000D01*
X135926536Y-85420000D01*
X135953103Y-85561190D01*
X136036546Y-85690865D01*
X136163866Y-85777859D01*
X136315000Y-85808464D01*
X138715000Y-85808464D01*
X138856190Y-85781897D01*
X138985865Y-85698454D01*
X139072859Y-85571134D01*
X139103464Y-85420000D01*
X139103464Y-83520000D01*
X155926536Y-83520000D01*
X155926536Y-85420000D01*
X155953103Y-85561190D01*
X156036546Y-85690865D01*
X156163866Y-85777859D01*
X156315000Y-85808464D01*
X158715000Y-85808464D01*
X158856190Y-85781897D01*
X158985865Y-85698454D01*
X159072859Y-85571134D01*
X159103464Y-85420000D01*
X159103464Y-84242022D01*
X183288631Y-84242022D01*
X183612373Y-85025538D01*
X184211309Y-85625521D01*
X184994258Y-85950630D01*
X185842022Y-85951369D01*
X186625538Y-85627627D01*
X187225521Y-85028691D01*
X187550630Y-84245742D01*
X187551369Y-83397978D01*
X187227627Y-82614462D01*
X186628691Y-82014479D01*
X185845742Y-81689370D01*
X184997978Y-81688631D01*
X184214462Y-82012373D01*
X183614479Y-82611309D01*
X183289370Y-83394258D01*
X183288631Y-84242022D01*
X159103464Y-84242022D01*
X159103464Y-83520000D01*
X159076897Y-83378810D01*
X159042915Y-83326000D01*
X159144807Y-83326000D01*
X159186546Y-83390865D01*
X159313866Y-83477859D01*
X159465000Y-83508464D01*
X161015000Y-83508464D01*
X161156190Y-83481897D01*
X161285865Y-83398454D01*
X161372859Y-83271134D01*
X161403464Y-83120000D01*
X161403464Y-82520000D01*
X161376897Y-82378810D01*
X161342915Y-82326000D01*
X167100000Y-82326000D01*
X167293638Y-82287483D01*
X167457796Y-82177796D01*
X168133342Y-81502250D01*
X176403000Y-81502250D01*
X176403000Y-82219385D01*
X176461004Y-82359419D01*
X176568180Y-82466596D01*
X176708214Y-82524600D01*
X177577750Y-82524600D01*
X177673000Y-82429350D01*
X177673000Y-81407000D01*
X177927000Y-81407000D01*
X177927000Y-82429350D01*
X178022250Y-82524600D01*
X178891786Y-82524600D01*
X179031820Y-82466596D01*
X179138996Y-82359419D01*
X179197000Y-82219385D01*
X179197000Y-81502250D01*
X191643000Y-81502250D01*
X191643000Y-82219385D01*
X191701004Y-82359419D01*
X191808180Y-82466596D01*
X191948214Y-82524600D01*
X192817750Y-82524600D01*
X192913000Y-82429350D01*
X192913000Y-81407000D01*
X193167000Y-81407000D01*
X193167000Y-82429350D01*
X193262250Y-82524600D01*
X194131786Y-82524600D01*
X194271820Y-82466596D01*
X194378996Y-82359419D01*
X194437000Y-82219385D01*
X194437000Y-81502250D01*
X194341750Y-81407000D01*
X193167000Y-81407000D01*
X192913000Y-81407000D01*
X191738250Y-81407000D01*
X191643000Y-81502250D01*
X179197000Y-81502250D01*
X179101750Y-81407000D01*
X177927000Y-81407000D01*
X177673000Y-81407000D01*
X176498250Y-81407000D01*
X176403000Y-81502250D01*
X168133342Y-81502250D01*
X168632796Y-81002796D01*
X168742483Y-80838638D01*
X168781000Y-80645000D01*
X168781000Y-80340615D01*
X176403000Y-80340615D01*
X176403000Y-81057750D01*
X176498250Y-81153000D01*
X177673000Y-81153000D01*
X177673000Y-80130650D01*
X177927000Y-80130650D01*
X177927000Y-81153000D01*
X179101750Y-81153000D01*
X179197000Y-81057750D01*
X179197000Y-80340615D01*
X191643000Y-80340615D01*
X191643000Y-81057750D01*
X191738250Y-81153000D01*
X192913000Y-81153000D01*
X192913000Y-80130650D01*
X193167000Y-80130650D01*
X193167000Y-81153000D01*
X194341750Y-81153000D01*
X194437000Y-81057750D01*
X194437000Y-80340615D01*
X194378996Y-80200581D01*
X194271820Y-80093404D01*
X194131786Y-80035400D01*
X193262250Y-80035400D01*
X193167000Y-80130650D01*
X192913000Y-80130650D01*
X192817750Y-80035400D01*
X191948214Y-80035400D01*
X191808180Y-80093404D01*
X191701004Y-80200581D01*
X191643000Y-80340615D01*
X179197000Y-80340615D01*
X179138996Y-80200581D01*
X179031820Y-80093404D01*
X178891786Y-80035400D01*
X178022250Y-80035400D01*
X177927000Y-80130650D01*
X177673000Y-80130650D01*
X177577750Y-80035400D01*
X176708214Y-80035400D01*
X176568180Y-80093404D01*
X176461004Y-80200581D01*
X176403000Y-80340615D01*
X168781000Y-80340615D01*
X168781000Y-78740000D01*
X176375631Y-78740000D01*
X176470371Y-79216288D01*
X176740166Y-79620065D01*
X177143943Y-79889860D01*
X177620231Y-79984600D01*
X177979769Y-79984600D01*
X178456057Y-79889860D01*
X178859834Y-79620065D01*
X179129629Y-79216288D01*
X179224369Y-78740000D01*
X191615631Y-78740000D01*
X191710371Y-79216288D01*
X191980166Y-79620065D01*
X192383943Y-79889860D01*
X192860231Y-79984600D01*
X193219769Y-79984600D01*
X193696057Y-79889860D01*
X194099834Y-79620065D01*
X194369629Y-79216288D01*
X194464369Y-78740000D01*
X194369629Y-78263712D01*
X194099834Y-77859935D01*
X193696057Y-77590140D01*
X193219769Y-77495400D01*
X192860231Y-77495400D01*
X192383943Y-77590140D01*
X191980166Y-77859935D01*
X191710371Y-78263712D01*
X191615631Y-78740000D01*
X179224369Y-78740000D01*
X179129629Y-78263712D01*
X178859834Y-77859935D01*
X178456057Y-77590140D01*
X177979769Y-77495400D01*
X177620231Y-77495400D01*
X177143943Y-77590140D01*
X176740166Y-77859935D01*
X176470371Y-78263712D01*
X176375631Y-78740000D01*
X168781000Y-78740000D01*
X168781000Y-76200000D01*
X176375631Y-76200000D01*
X176470371Y-76676288D01*
X176740166Y-77080065D01*
X177143943Y-77349860D01*
X177620231Y-77444600D01*
X177979769Y-77444600D01*
X178456057Y-77349860D01*
X178859834Y-77080065D01*
X179129629Y-76676288D01*
X179224369Y-76200000D01*
X191615631Y-76200000D01*
X191710371Y-76676288D01*
X191980166Y-77080065D01*
X192383943Y-77349860D01*
X192860231Y-77444600D01*
X193219769Y-77444600D01*
X193696057Y-77349860D01*
X194099834Y-77080065D01*
X194369629Y-76676288D01*
X194464369Y-76200000D01*
X194369629Y-75723712D01*
X194099834Y-75319935D01*
X193696057Y-75050140D01*
X193219769Y-74955400D01*
X192860231Y-74955400D01*
X192383943Y-75050140D01*
X191980166Y-75319935D01*
X191710371Y-75723712D01*
X191615631Y-76200000D01*
X179224369Y-76200000D01*
X179129629Y-75723712D01*
X178859834Y-75319935D01*
X178456057Y-75050140D01*
X177979769Y-74955400D01*
X177620231Y-74955400D01*
X177143943Y-75050140D01*
X176740166Y-75319935D01*
X176470371Y-75723712D01*
X176375631Y-76200000D01*
X168781000Y-76200000D01*
X168781000Y-73660000D01*
X176375631Y-73660000D01*
X176470371Y-74136288D01*
X176740166Y-74540065D01*
X177143943Y-74809860D01*
X177620231Y-74904600D01*
X177979769Y-74904600D01*
X178456057Y-74809860D01*
X178859834Y-74540065D01*
X179129629Y-74136288D01*
X179224369Y-73660000D01*
X191615631Y-73660000D01*
X191710371Y-74136288D01*
X191980166Y-74540065D01*
X192383943Y-74809860D01*
X192860231Y-74904600D01*
X193219769Y-74904600D01*
X193696057Y-74809860D01*
X194099834Y-74540065D01*
X194369629Y-74136288D01*
X194464369Y-73660000D01*
X194369629Y-73183712D01*
X194099834Y-72779935D01*
X193696057Y-72510140D01*
X193219769Y-72415400D01*
X192860231Y-72415400D01*
X192383943Y-72510140D01*
X191980166Y-72779935D01*
X191710371Y-73183712D01*
X191615631Y-73660000D01*
X179224369Y-73660000D01*
X179129629Y-73183712D01*
X178859834Y-72779935D01*
X178456057Y-72510140D01*
X177979769Y-72415400D01*
X177620231Y-72415400D01*
X177143943Y-72510140D01*
X176740166Y-72779935D01*
X176470371Y-73183712D01*
X176375631Y-73660000D01*
X168781000Y-73660000D01*
X168781000Y-71120000D01*
X176375631Y-71120000D01*
X176470371Y-71596288D01*
X176740166Y-72000065D01*
X177143943Y-72269860D01*
X177620231Y-72364600D01*
X177979769Y-72364600D01*
X178456057Y-72269860D01*
X178859834Y-72000065D01*
X179129629Y-71596288D01*
X179224369Y-71120000D01*
X191615631Y-71120000D01*
X191710371Y-71596288D01*
X191980166Y-72000065D01*
X192383943Y-72269860D01*
X192860231Y-72364600D01*
X193219769Y-72364600D01*
X193696057Y-72269860D01*
X194099834Y-72000065D01*
X194369629Y-71596288D01*
X194464369Y-71120000D01*
X194369629Y-70643712D01*
X194099834Y-70239935D01*
X193696057Y-69970140D01*
X193219769Y-69875400D01*
X192860231Y-69875400D01*
X192383943Y-69970140D01*
X191980166Y-70239935D01*
X191710371Y-70643712D01*
X191615631Y-71120000D01*
X179224369Y-71120000D01*
X179129629Y-70643712D01*
X178859834Y-70239935D01*
X178456057Y-69970140D01*
X177979769Y-69875400D01*
X177620231Y-69875400D01*
X177143943Y-69970140D01*
X176740166Y-70239935D01*
X176470371Y-70643712D01*
X176375631Y-71120000D01*
X168781000Y-71120000D01*
X168781000Y-68580000D01*
X176375631Y-68580000D01*
X176470371Y-69056288D01*
X176740166Y-69460065D01*
X177143943Y-69729860D01*
X177620231Y-69824600D01*
X177979769Y-69824600D01*
X178456057Y-69729860D01*
X178859834Y-69460065D01*
X179129629Y-69056288D01*
X179224369Y-68580000D01*
X191615631Y-68580000D01*
X191710371Y-69056288D01*
X191980166Y-69460065D01*
X192383943Y-69729860D01*
X192860231Y-69824600D01*
X193219769Y-69824600D01*
X193696057Y-69729860D01*
X194099834Y-69460065D01*
X194369629Y-69056288D01*
X194464369Y-68580000D01*
X194369629Y-68103712D01*
X194099834Y-67699935D01*
X193696057Y-67430140D01*
X193219769Y-67335400D01*
X192860231Y-67335400D01*
X192383943Y-67430140D01*
X191980166Y-67699935D01*
X191710371Y-68103712D01*
X191615631Y-68580000D01*
X179224369Y-68580000D01*
X179129629Y-68103712D01*
X178859834Y-67699935D01*
X178456057Y-67430140D01*
X177979769Y-67335400D01*
X177620231Y-67335400D01*
X177143943Y-67430140D01*
X176740166Y-67699935D01*
X176470371Y-68103712D01*
X176375631Y-68580000D01*
X168781000Y-68580000D01*
X168781000Y-66040000D01*
X176375631Y-66040000D01*
X176470371Y-66516288D01*
X176740166Y-66920065D01*
X177143943Y-67189860D01*
X177620231Y-67284600D01*
X177979769Y-67284600D01*
X178456057Y-67189860D01*
X178859834Y-66920065D01*
X179129629Y-66516288D01*
X179224369Y-66040000D01*
X191615631Y-66040000D01*
X191710371Y-66516288D01*
X191980166Y-66920065D01*
X192383943Y-67189860D01*
X192860231Y-67284600D01*
X193219769Y-67284600D01*
X193696057Y-67189860D01*
X194099834Y-66920065D01*
X194369629Y-66516288D01*
X194464369Y-66040000D01*
X194369629Y-65563712D01*
X194099834Y-65159935D01*
X193696057Y-64890140D01*
X193219769Y-64795400D01*
X192860231Y-64795400D01*
X192383943Y-64890140D01*
X191980166Y-65159935D01*
X191710371Y-65563712D01*
X191615631Y-66040000D01*
X179224369Y-66040000D01*
X179129629Y-65563712D01*
X178859834Y-65159935D01*
X178456057Y-64890140D01*
X177979769Y-64795400D01*
X177620231Y-64795400D01*
X177143943Y-64890140D01*
X176740166Y-65159935D01*
X176470371Y-65563712D01*
X176375631Y-66040000D01*
X168781000Y-66040000D01*
X168781000Y-63500000D01*
X176375631Y-63500000D01*
X176470371Y-63976288D01*
X176740166Y-64380065D01*
X177143943Y-64649860D01*
X177620231Y-64744600D01*
X177979769Y-64744600D01*
X178456057Y-64649860D01*
X178859834Y-64380065D01*
X179129629Y-63976288D01*
X179224369Y-63500000D01*
X191615631Y-63500000D01*
X191710371Y-63976288D01*
X191980166Y-64380065D01*
X192383943Y-64649860D01*
X192860231Y-64744600D01*
X193219769Y-64744600D01*
X193696057Y-64649860D01*
X194099834Y-64380065D01*
X194369629Y-63976288D01*
X194464369Y-63500000D01*
X194369629Y-63023712D01*
X194099834Y-62619935D01*
X193696057Y-62350140D01*
X193219769Y-62255400D01*
X192860231Y-62255400D01*
X192383943Y-62350140D01*
X191980166Y-62619935D01*
X191710371Y-63023712D01*
X191615631Y-63500000D01*
X179224369Y-63500000D01*
X179129629Y-63023712D01*
X178859834Y-62619935D01*
X178456057Y-62350140D01*
X177979769Y-62255400D01*
X177620231Y-62255400D01*
X177143943Y-62350140D01*
X176740166Y-62619935D01*
X176470371Y-63023712D01*
X176375631Y-63500000D01*
X168781000Y-63500000D01*
X168781000Y-60960000D01*
X176375631Y-60960000D01*
X176470371Y-61436288D01*
X176740166Y-61840065D01*
X177143943Y-62109860D01*
X177620231Y-62204600D01*
X177979769Y-62204600D01*
X178456057Y-62109860D01*
X178859834Y-61840065D01*
X179129629Y-61436288D01*
X179224369Y-60960000D01*
X191615631Y-60960000D01*
X191710371Y-61436288D01*
X191980166Y-61840065D01*
X192383943Y-62109860D01*
X192860231Y-62204600D01*
X193219769Y-62204600D01*
X193696057Y-62109860D01*
X194099834Y-61840065D01*
X194369629Y-61436288D01*
X194464369Y-60960000D01*
X194369629Y-60483712D01*
X194099834Y-60079935D01*
X193696057Y-59810140D01*
X193219769Y-59715400D01*
X192860231Y-59715400D01*
X192383943Y-59810140D01*
X191980166Y-60079935D01*
X191710371Y-60483712D01*
X191615631Y-60960000D01*
X179224369Y-60960000D01*
X179129629Y-60483712D01*
X178859834Y-60079935D01*
X178456057Y-59810140D01*
X177979769Y-59715400D01*
X177620231Y-59715400D01*
X177143943Y-59810140D01*
X176740166Y-60079935D01*
X176470371Y-60483712D01*
X176375631Y-60960000D01*
X168781000Y-60960000D01*
X168781000Y-58420000D01*
X176375631Y-58420000D01*
X176470371Y-58896288D01*
X176740166Y-59300065D01*
X177143943Y-59569860D01*
X177620231Y-59664600D01*
X177979769Y-59664600D01*
X178456057Y-59569860D01*
X178859834Y-59300065D01*
X179129629Y-58896288D01*
X179224369Y-58420000D01*
X191615631Y-58420000D01*
X191710371Y-58896288D01*
X191980166Y-59300065D01*
X192383943Y-59569860D01*
X192860231Y-59664600D01*
X193219769Y-59664600D01*
X193696057Y-59569860D01*
X194099834Y-59300065D01*
X194369629Y-58896288D01*
X194464369Y-58420000D01*
X194369629Y-57943712D01*
X194099834Y-57539935D01*
X193696057Y-57270140D01*
X193219769Y-57175400D01*
X192860231Y-57175400D01*
X192383943Y-57270140D01*
X191980166Y-57539935D01*
X191710371Y-57943712D01*
X191615631Y-58420000D01*
X179224369Y-58420000D01*
X179129629Y-57943712D01*
X178859834Y-57539935D01*
X178456057Y-57270140D01*
X177979769Y-57175400D01*
X177620231Y-57175400D01*
X177143943Y-57270140D01*
X176740166Y-57539935D01*
X176470371Y-57943712D01*
X176375631Y-58420000D01*
X168781000Y-58420000D01*
X168781000Y-56337123D01*
X168851987Y-56266259D01*
X168955882Y-56016054D01*
X168956000Y-55880000D01*
X176375631Y-55880000D01*
X176470371Y-56356288D01*
X176740166Y-56760065D01*
X177143943Y-57029860D01*
X177620231Y-57124600D01*
X177979769Y-57124600D01*
X178456057Y-57029860D01*
X178859834Y-56760065D01*
X179129629Y-56356288D01*
X179224369Y-55880000D01*
X191615631Y-55880000D01*
X191710371Y-56356288D01*
X191980166Y-56760065D01*
X192383943Y-57029860D01*
X192860231Y-57124600D01*
X193219769Y-57124600D01*
X193696057Y-57029860D01*
X194099834Y-56760065D01*
X194369629Y-56356288D01*
X194464369Y-55880000D01*
X194369629Y-55403712D01*
X194099834Y-54999935D01*
X193696057Y-54730140D01*
X193219769Y-54635400D01*
X192860231Y-54635400D01*
X192383943Y-54730140D01*
X191980166Y-54999935D01*
X191710371Y-55403712D01*
X191615631Y-55880000D01*
X179224369Y-55880000D01*
X179129629Y-55403712D01*
X178859834Y-54999935D01*
X178456057Y-54730140D01*
X177979769Y-54635400D01*
X177620231Y-54635400D01*
X177143943Y-54730140D01*
X176740166Y-54999935D01*
X176470371Y-55403712D01*
X176375631Y-55880000D01*
X168956000Y-55880000D01*
X168956118Y-55745135D01*
X168852661Y-55494748D01*
X168661259Y-55303013D01*
X168411054Y-55199118D01*
X168140135Y-55198882D01*
X167889748Y-55302339D01*
X167698013Y-55493741D01*
X167594118Y-55743946D01*
X167593882Y-56014865D01*
X167697339Y-56265252D01*
X167769000Y-56337038D01*
X167769000Y-80435408D01*
X166890408Y-81314000D01*
X161347034Y-81314000D01*
X161396000Y-81195786D01*
X161396000Y-81042250D01*
X161300750Y-80947000D01*
X160367000Y-80947000D01*
X160367000Y-80967000D01*
X160113000Y-80967000D01*
X160113000Y-80947000D01*
X159179250Y-80947000D01*
X159084000Y-81042250D01*
X159084000Y-81195786D01*
X159137368Y-81324627D01*
X159107141Y-81368866D01*
X159076536Y-81520000D01*
X159076536Y-82120000D01*
X159103103Y-82261190D01*
X159137085Y-82314000D01*
X158754330Y-82314000D01*
X158692661Y-82164748D01*
X158501259Y-81973013D01*
X158251054Y-81869118D01*
X157980135Y-81868882D01*
X157729748Y-81972339D01*
X157538013Y-82163741D01*
X157434118Y-82413946D01*
X157433882Y-82684865D01*
X157537339Y-82935252D01*
X157728741Y-83126987D01*
X157739696Y-83131536D01*
X156315000Y-83131536D01*
X156173810Y-83158103D01*
X156044135Y-83241546D01*
X155957141Y-83368866D01*
X155926536Y-83520000D01*
X139103464Y-83520000D01*
X139076897Y-83378810D01*
X139042915Y-83326000D01*
X139144807Y-83326000D01*
X139186546Y-83390865D01*
X139313866Y-83477859D01*
X139465000Y-83508464D01*
X141015000Y-83508464D01*
X141156190Y-83481897D01*
X141285865Y-83398454D01*
X141372859Y-83271134D01*
X141403464Y-83120000D01*
X141403464Y-82520000D01*
X141376897Y-82378810D01*
X141342915Y-82326000D01*
X144240000Y-82326000D01*
X144433638Y-82287483D01*
X144597796Y-82177796D01*
X146407796Y-80367796D01*
X146461646Y-80287204D01*
X146517483Y-80203638D01*
X146556000Y-80010000D01*
X146556000Y-78220000D01*
X155926536Y-78220000D01*
X155926536Y-80120000D01*
X155953103Y-80261190D01*
X156036546Y-80390865D01*
X156163866Y-80477859D01*
X156315000Y-80508464D01*
X158715000Y-80508464D01*
X158856190Y-80481897D01*
X158914751Y-80444214D01*
X159084000Y-80444214D01*
X159084000Y-80597750D01*
X159179250Y-80693000D01*
X160113000Y-80693000D01*
X160113000Y-80234250D01*
X160367000Y-80234250D01*
X160367000Y-80693000D01*
X161300750Y-80693000D01*
X161396000Y-80597750D01*
X161396000Y-80444214D01*
X161337996Y-80304180D01*
X161230819Y-80197004D01*
X161090785Y-80139000D01*
X160462250Y-80139000D01*
X160367000Y-80234250D01*
X160113000Y-80234250D01*
X160017750Y-80139000D01*
X159389215Y-80139000D01*
X159249181Y-80197004D01*
X159142004Y-80304180D01*
X159084000Y-80444214D01*
X158914751Y-80444214D01*
X158985865Y-80398454D01*
X159072859Y-80271134D01*
X159103464Y-80120000D01*
X159103464Y-78220000D01*
X159076897Y-78078810D01*
X158993454Y-77949135D01*
X158866134Y-77862141D01*
X158715000Y-77831536D01*
X156315000Y-77831536D01*
X156173810Y-77858103D01*
X156044135Y-77941546D01*
X155957141Y-78068866D01*
X155926536Y-78220000D01*
X146556000Y-78220000D01*
X146556000Y-68520000D01*
X155926536Y-68520000D01*
X155926536Y-70420000D01*
X155953103Y-70561190D01*
X156036546Y-70690865D01*
X156163866Y-70777859D01*
X156315000Y-70808464D01*
X158715000Y-70808464D01*
X158856190Y-70781897D01*
X158985865Y-70698454D01*
X159072859Y-70571134D01*
X159103464Y-70420000D01*
X159103464Y-68520000D01*
X159076897Y-68378810D01*
X159042915Y-68326000D01*
X159144807Y-68326000D01*
X159186546Y-68390865D01*
X159313866Y-68477859D01*
X159465000Y-68508464D01*
X161015000Y-68508464D01*
X161156190Y-68481897D01*
X161285865Y-68398454D01*
X161372859Y-68271134D01*
X161403464Y-68120000D01*
X161403464Y-67520000D01*
X161376897Y-67378810D01*
X161342915Y-67326000D01*
X164320000Y-67326000D01*
X164513638Y-67287483D01*
X164677796Y-67177796D01*
X166727796Y-65127796D01*
X166837483Y-64963638D01*
X166876000Y-64770000D01*
X166876000Y-53340000D01*
X176375631Y-53340000D01*
X176470371Y-53816288D01*
X176740166Y-54220065D01*
X177143943Y-54489860D01*
X177620231Y-54584600D01*
X177979769Y-54584600D01*
X178456057Y-54489860D01*
X178859834Y-54220065D01*
X179129629Y-53816288D01*
X179224369Y-53340000D01*
X191615631Y-53340000D01*
X191710371Y-53816288D01*
X191980166Y-54220065D01*
X192383943Y-54489860D01*
X192860231Y-54584600D01*
X193219769Y-54584600D01*
X193696057Y-54489860D01*
X194099834Y-54220065D01*
X194369629Y-53816288D01*
X194464369Y-53340000D01*
X194369629Y-52863712D01*
X194099834Y-52459935D01*
X193696057Y-52190140D01*
X193219769Y-52095400D01*
X192860231Y-52095400D01*
X192383943Y-52190140D01*
X191980166Y-52459935D01*
X191710371Y-52863712D01*
X191615631Y-53340000D01*
X179224369Y-53340000D01*
X179129629Y-52863712D01*
X178859834Y-52459935D01*
X178456057Y-52190140D01*
X177979769Y-52095400D01*
X177620231Y-52095400D01*
X177143943Y-52190140D01*
X176740166Y-52459935D01*
X176470371Y-52863712D01*
X176375631Y-53340000D01*
X166876000Y-53340000D01*
X166876000Y-51257123D01*
X166946987Y-51186259D01*
X167050882Y-50936054D01*
X167051000Y-50800000D01*
X176375631Y-50800000D01*
X176470371Y-51276288D01*
X176740166Y-51680065D01*
X177143943Y-51949860D01*
X177620231Y-52044600D01*
X177979769Y-52044600D01*
X178456057Y-51949860D01*
X178859834Y-51680065D01*
X179129629Y-51276288D01*
X179224369Y-50800000D01*
X191615631Y-50800000D01*
X191710371Y-51276288D01*
X191980166Y-51680065D01*
X192383943Y-51949860D01*
X192860231Y-52044600D01*
X193219769Y-52044600D01*
X193696057Y-51949860D01*
X194099834Y-51680065D01*
X194369629Y-51276288D01*
X194464369Y-50800000D01*
X194369629Y-50323712D01*
X194099834Y-49919935D01*
X193696057Y-49650140D01*
X193219769Y-49555400D01*
X192860231Y-49555400D01*
X192383943Y-49650140D01*
X191980166Y-49919935D01*
X191710371Y-50323712D01*
X191615631Y-50800000D01*
X179224369Y-50800000D01*
X179129629Y-50323712D01*
X178859834Y-49919935D01*
X178456057Y-49650140D01*
X177979769Y-49555400D01*
X177620231Y-49555400D01*
X177143943Y-49650140D01*
X176740166Y-49919935D01*
X176470371Y-50323712D01*
X176375631Y-50800000D01*
X167051000Y-50800000D01*
X167051118Y-50665135D01*
X166947661Y-50414748D01*
X166756259Y-50223013D01*
X166506054Y-50119118D01*
X166235135Y-50118882D01*
X165984748Y-50222339D01*
X165793013Y-50413741D01*
X165689118Y-50663946D01*
X165688882Y-50934865D01*
X165792339Y-51185252D01*
X165864000Y-51257038D01*
X165864000Y-64560408D01*
X164110408Y-66314000D01*
X161347034Y-66314000D01*
X161396000Y-66195786D01*
X161396000Y-66042250D01*
X161300750Y-65947000D01*
X160367000Y-65947000D01*
X160367000Y-65967000D01*
X160113000Y-65967000D01*
X160113000Y-65947000D01*
X159179250Y-65947000D01*
X159084000Y-66042250D01*
X159084000Y-66195786D01*
X159137368Y-66324627D01*
X159107141Y-66368866D01*
X159076536Y-66520000D01*
X159076536Y-67120000D01*
X159103103Y-67261190D01*
X159137085Y-67314000D01*
X158199592Y-67314000D01*
X158161031Y-67275439D01*
X158161118Y-67175135D01*
X158057661Y-66924748D01*
X157866259Y-66733013D01*
X157616054Y-66629118D01*
X157345135Y-66628882D01*
X157094748Y-66732339D01*
X156903013Y-66923741D01*
X156799118Y-67173946D01*
X156798882Y-67444865D01*
X156902339Y-67695252D01*
X157093741Y-67886987D01*
X157343946Y-67990882D01*
X157445378Y-67990970D01*
X157585944Y-68131536D01*
X156315000Y-68131536D01*
X156173810Y-68158103D01*
X156044135Y-68241546D01*
X155957141Y-68368866D01*
X155926536Y-68520000D01*
X146556000Y-68520000D01*
X146556000Y-63220000D01*
X155926536Y-63220000D01*
X155926536Y-65120000D01*
X155953103Y-65261190D01*
X156036546Y-65390865D01*
X156163866Y-65477859D01*
X156315000Y-65508464D01*
X158715000Y-65508464D01*
X158856190Y-65481897D01*
X158914751Y-65444214D01*
X159084000Y-65444214D01*
X159084000Y-65597750D01*
X159179250Y-65693000D01*
X160113000Y-65693000D01*
X160113000Y-65234250D01*
X160367000Y-65234250D01*
X160367000Y-65693000D01*
X161300750Y-65693000D01*
X161396000Y-65597750D01*
X161396000Y-65444214D01*
X161337996Y-65304180D01*
X161230819Y-65197004D01*
X161090785Y-65139000D01*
X160462250Y-65139000D01*
X160367000Y-65234250D01*
X160113000Y-65234250D01*
X160017750Y-65139000D01*
X159389215Y-65139000D01*
X159249181Y-65197004D01*
X159142004Y-65304180D01*
X159084000Y-65444214D01*
X158914751Y-65444214D01*
X158985865Y-65398454D01*
X159072859Y-65271134D01*
X159103464Y-65120000D01*
X159103464Y-63220000D01*
X159076897Y-63078810D01*
X158993454Y-62949135D01*
X158866134Y-62862141D01*
X158715000Y-62831536D01*
X156315000Y-62831536D01*
X156173810Y-62858103D01*
X156044135Y-62941546D01*
X155957141Y-63068866D01*
X155926536Y-63220000D01*
X146556000Y-63220000D01*
X146556000Y-58877123D01*
X146626987Y-58806259D01*
X146730882Y-58556054D01*
X146731118Y-58285135D01*
X146627661Y-58034748D01*
X146436259Y-57843013D01*
X146186054Y-57739118D01*
X145915135Y-57738882D01*
X145664748Y-57842339D01*
X145473013Y-58033741D01*
X145369118Y-58283946D01*
X145368882Y-58554865D01*
X145472339Y-58805252D01*
X145544000Y-58877038D01*
X145544000Y-79800408D01*
X144030408Y-81314000D01*
X141347034Y-81314000D01*
X141396000Y-81195786D01*
X141396000Y-81042250D01*
X141300750Y-80947000D01*
X140367000Y-80947000D01*
X140367000Y-80967000D01*
X140113000Y-80967000D01*
X140113000Y-80947000D01*
X139179250Y-80947000D01*
X139084000Y-81042250D01*
X139084000Y-81195786D01*
X139137368Y-81324627D01*
X139107141Y-81368866D01*
X139076536Y-81520000D01*
X139076536Y-82120000D01*
X139103103Y-82261190D01*
X139137085Y-82314000D01*
X139069330Y-82314000D01*
X139007661Y-82164748D01*
X138816259Y-81973013D01*
X138566054Y-81869118D01*
X138295135Y-81868882D01*
X138044748Y-81972339D01*
X137853013Y-82163741D01*
X137749118Y-82413946D01*
X137748882Y-82684865D01*
X137852339Y-82935252D01*
X138043741Y-83126987D01*
X138054696Y-83131536D01*
X136315000Y-83131536D01*
X136173810Y-83158103D01*
X136044135Y-83241546D01*
X135957141Y-83368866D01*
X135926536Y-83520000D01*
X119103464Y-83520000D01*
X119076897Y-83378810D01*
X119042915Y-83326000D01*
X119144807Y-83326000D01*
X119186546Y-83390865D01*
X119313866Y-83477859D01*
X119465000Y-83508464D01*
X121015000Y-83508464D01*
X121156190Y-83481897D01*
X121285865Y-83398454D01*
X121372859Y-83271134D01*
X121403464Y-83120000D01*
X121403464Y-82520000D01*
X121376897Y-82378810D01*
X121342915Y-82326000D01*
X125190000Y-82326000D01*
X125383638Y-82287483D01*
X125547796Y-82177796D01*
X126087796Y-81637796D01*
X126197483Y-81473638D01*
X126236000Y-81280000D01*
X126236000Y-78220000D01*
X135926536Y-78220000D01*
X135926536Y-80120000D01*
X135953103Y-80261190D01*
X136036546Y-80390865D01*
X136163866Y-80477859D01*
X136315000Y-80508464D01*
X138715000Y-80508464D01*
X138856190Y-80481897D01*
X138914751Y-80444214D01*
X139084000Y-80444214D01*
X139084000Y-80597750D01*
X139179250Y-80693000D01*
X140113000Y-80693000D01*
X140113000Y-80234250D01*
X140367000Y-80234250D01*
X140367000Y-80693000D01*
X141300750Y-80693000D01*
X141396000Y-80597750D01*
X141396000Y-80444214D01*
X141337996Y-80304180D01*
X141230819Y-80197004D01*
X141090785Y-80139000D01*
X140462250Y-80139000D01*
X140367000Y-80234250D01*
X140113000Y-80234250D01*
X140017750Y-80139000D01*
X139389215Y-80139000D01*
X139249181Y-80197004D01*
X139142004Y-80304180D01*
X139084000Y-80444214D01*
X138914751Y-80444214D01*
X138985865Y-80398454D01*
X139072859Y-80271134D01*
X139103464Y-80120000D01*
X139103464Y-78220000D01*
X139076897Y-78078810D01*
X138993454Y-77949135D01*
X138866134Y-77862141D01*
X138715000Y-77831536D01*
X136315000Y-77831536D01*
X136173810Y-77858103D01*
X136044135Y-77941546D01*
X135957141Y-78068866D01*
X135926536Y-78220000D01*
X126236000Y-78220000D01*
X126236000Y-76657123D01*
X126306987Y-76586259D01*
X126410882Y-76336054D01*
X126411118Y-76065135D01*
X126307661Y-75814748D01*
X126116259Y-75623013D01*
X125866054Y-75519118D01*
X125595135Y-75518882D01*
X125344748Y-75622339D01*
X125153013Y-75813741D01*
X125049118Y-76063946D01*
X125048882Y-76334865D01*
X125152339Y-76585252D01*
X125224000Y-76657038D01*
X125224000Y-81070408D01*
X124980408Y-81314000D01*
X121347034Y-81314000D01*
X121396000Y-81195786D01*
X121396000Y-81042250D01*
X121300750Y-80947000D01*
X120367000Y-80947000D01*
X120367000Y-80967000D01*
X120113000Y-80967000D01*
X120113000Y-80947000D01*
X119179250Y-80947000D01*
X119084000Y-81042250D01*
X119084000Y-81195786D01*
X119137368Y-81324627D01*
X119107141Y-81368866D01*
X119076536Y-81520000D01*
X119076536Y-82120000D01*
X119103103Y-82261190D01*
X119137085Y-82314000D01*
X118114330Y-82314000D01*
X118052661Y-82164748D01*
X117861259Y-81973013D01*
X117611054Y-81869118D01*
X117340135Y-81868882D01*
X117089748Y-81972339D01*
X116898013Y-82163741D01*
X116794118Y-82413946D01*
X116793882Y-82684865D01*
X116897339Y-82935252D01*
X117088741Y-83126987D01*
X117099696Y-83131536D01*
X116315000Y-83131536D01*
X116173810Y-83158103D01*
X116044135Y-83241546D01*
X115957141Y-83368866D01*
X115926536Y-83520000D01*
X99103464Y-83520000D01*
X99076897Y-83378810D01*
X99042915Y-83326000D01*
X99144807Y-83326000D01*
X99186546Y-83390865D01*
X99313866Y-83477859D01*
X99465000Y-83508464D01*
X101015000Y-83508464D01*
X101156190Y-83481897D01*
X101285865Y-83398454D01*
X101372859Y-83271134D01*
X101403464Y-83120000D01*
X101403464Y-82520000D01*
X101376897Y-82378810D01*
X101342915Y-82326000D01*
X104870000Y-82326000D01*
X105063638Y-82287483D01*
X105227796Y-82177796D01*
X105767796Y-81637796D01*
X105877483Y-81473638D01*
X105916000Y-81280000D01*
X105916000Y-79197123D01*
X105986987Y-79126259D01*
X106090882Y-78876054D01*
X106091118Y-78605135D01*
X105987661Y-78354748D01*
X105853148Y-78220000D01*
X115926536Y-78220000D01*
X115926536Y-80120000D01*
X115953103Y-80261190D01*
X116036546Y-80390865D01*
X116163866Y-80477859D01*
X116315000Y-80508464D01*
X118715000Y-80508464D01*
X118856190Y-80481897D01*
X118914751Y-80444214D01*
X119084000Y-80444214D01*
X119084000Y-80597750D01*
X119179250Y-80693000D01*
X120113000Y-80693000D01*
X120113000Y-80234250D01*
X120367000Y-80234250D01*
X120367000Y-80693000D01*
X121300750Y-80693000D01*
X121396000Y-80597750D01*
X121396000Y-80444214D01*
X121337996Y-80304180D01*
X121230819Y-80197004D01*
X121090785Y-80139000D01*
X120462250Y-80139000D01*
X120367000Y-80234250D01*
X120113000Y-80234250D01*
X120017750Y-80139000D01*
X119389215Y-80139000D01*
X119249181Y-80197004D01*
X119142004Y-80304180D01*
X119084000Y-80444214D01*
X118914751Y-80444214D01*
X118985865Y-80398454D01*
X119072859Y-80271134D01*
X119103464Y-80120000D01*
X119103464Y-78220000D01*
X119076897Y-78078810D01*
X118993454Y-77949135D01*
X118866134Y-77862141D01*
X118715000Y-77831536D01*
X116315000Y-77831536D01*
X116173810Y-77858103D01*
X116044135Y-77941546D01*
X115957141Y-78068866D01*
X115926536Y-78220000D01*
X105853148Y-78220000D01*
X105796259Y-78163013D01*
X105546054Y-78059118D01*
X105275135Y-78058882D01*
X105024748Y-78162339D01*
X104833013Y-78353741D01*
X104729118Y-78603946D01*
X104728882Y-78874865D01*
X104832339Y-79125252D01*
X104904000Y-79197038D01*
X104904000Y-81070408D01*
X104660408Y-81314000D01*
X101347034Y-81314000D01*
X101396000Y-81195786D01*
X101396000Y-81042250D01*
X101300750Y-80947000D01*
X100367000Y-80947000D01*
X100367000Y-80967000D01*
X100113000Y-80967000D01*
X100113000Y-80947000D01*
X99179250Y-80947000D01*
X99084000Y-81042250D01*
X99084000Y-81195786D01*
X99137368Y-81324627D01*
X99107141Y-81368866D01*
X99076536Y-81520000D01*
X99076536Y-82120000D01*
X99103103Y-82261190D01*
X99137085Y-82314000D01*
X97794330Y-82314000D01*
X97732661Y-82164748D01*
X97541259Y-81973013D01*
X97291054Y-81869118D01*
X97020135Y-81868882D01*
X96769748Y-81972339D01*
X96578013Y-82163741D01*
X96474118Y-82413946D01*
X96473882Y-82684865D01*
X96577339Y-82935252D01*
X96768741Y-83126987D01*
X96779696Y-83131536D01*
X96315000Y-83131536D01*
X96173810Y-83158103D01*
X96044135Y-83241546D01*
X95957141Y-83368866D01*
X95926536Y-83520000D01*
X88491262Y-83520000D01*
X88491369Y-83397978D01*
X88167627Y-82614462D01*
X87568691Y-82014479D01*
X86785742Y-81689370D01*
X85937978Y-81688631D01*
X85154462Y-82012373D01*
X84554479Y-82611309D01*
X84229370Y-83394258D01*
X84228631Y-84242022D01*
X78867000Y-84242022D01*
X78867000Y-78220000D01*
X95926536Y-78220000D01*
X95926536Y-80120000D01*
X95953103Y-80261190D01*
X96036546Y-80390865D01*
X96163866Y-80477859D01*
X96315000Y-80508464D01*
X98715000Y-80508464D01*
X98856190Y-80481897D01*
X98914751Y-80444214D01*
X99084000Y-80444214D01*
X99084000Y-80597750D01*
X99179250Y-80693000D01*
X100113000Y-80693000D01*
X100113000Y-80234250D01*
X100367000Y-80234250D01*
X100367000Y-80693000D01*
X101300750Y-80693000D01*
X101396000Y-80597750D01*
X101396000Y-80444214D01*
X101337996Y-80304180D01*
X101230819Y-80197004D01*
X101090785Y-80139000D01*
X100462250Y-80139000D01*
X100367000Y-80234250D01*
X100113000Y-80234250D01*
X100017750Y-80139000D01*
X99389215Y-80139000D01*
X99249181Y-80197004D01*
X99142004Y-80304180D01*
X99084000Y-80444214D01*
X98914751Y-80444214D01*
X98985865Y-80398454D01*
X99072859Y-80271134D01*
X99103464Y-80120000D01*
X99103464Y-78220000D01*
X99076897Y-78078810D01*
X98993454Y-77949135D01*
X98866134Y-77862141D01*
X98715000Y-77831536D01*
X96315000Y-77831536D01*
X96173810Y-77858103D01*
X96044135Y-77941546D01*
X95957141Y-78068866D01*
X95926536Y-78220000D01*
X78867000Y-78220000D01*
X78867000Y-68520000D01*
X95926536Y-68520000D01*
X95926536Y-70420000D01*
X95953103Y-70561190D01*
X96036546Y-70690865D01*
X96163866Y-70777859D01*
X96315000Y-70808464D01*
X98715000Y-70808464D01*
X98856190Y-70781897D01*
X98985865Y-70698454D01*
X99072859Y-70571134D01*
X99103464Y-70420000D01*
X99103464Y-68520000D01*
X99076897Y-68378810D01*
X99042915Y-68326000D01*
X99144807Y-68326000D01*
X99186546Y-68390865D01*
X99313866Y-68477859D01*
X99465000Y-68508464D01*
X101015000Y-68508464D01*
X101156190Y-68481897D01*
X101285865Y-68398454D01*
X101372859Y-68271134D01*
X101403464Y-68120000D01*
X101403464Y-67520000D01*
X101376897Y-67378810D01*
X101342915Y-67326000D01*
X104710408Y-67326000D01*
X104904000Y-67519592D01*
X104904000Y-73202877D01*
X104833013Y-73273741D01*
X104729118Y-73523946D01*
X104728882Y-73794865D01*
X104832339Y-74045252D01*
X105023741Y-74236987D01*
X105273946Y-74340882D01*
X105544865Y-74341118D01*
X105795252Y-74237661D01*
X105986987Y-74046259D01*
X106090882Y-73796054D01*
X106091118Y-73525135D01*
X105987661Y-73274748D01*
X105916000Y-73202962D01*
X105916000Y-67310000D01*
X105877483Y-67116362D01*
X105767796Y-66952204D01*
X105277796Y-66462204D01*
X105113638Y-66352517D01*
X104920000Y-66314000D01*
X101347034Y-66314000D01*
X101396000Y-66195786D01*
X101396000Y-66042250D01*
X101300750Y-65947000D01*
X100367000Y-65947000D01*
X100367000Y-65967000D01*
X100113000Y-65967000D01*
X100113000Y-65947000D01*
X99179250Y-65947000D01*
X99084000Y-66042250D01*
X99084000Y-66195786D01*
X99137368Y-66324627D01*
X99107141Y-66368866D01*
X99076536Y-66520000D01*
X99076536Y-67120000D01*
X99103103Y-67261190D01*
X99137085Y-67314000D01*
X98509592Y-67314000D01*
X98471031Y-67275439D01*
X98471118Y-67175135D01*
X98367661Y-66924748D01*
X98176259Y-66733013D01*
X97926054Y-66629118D01*
X97655135Y-66628882D01*
X97404748Y-66732339D01*
X97213013Y-66923741D01*
X97109118Y-67173946D01*
X97108882Y-67444865D01*
X97212339Y-67695252D01*
X97403741Y-67886987D01*
X97653946Y-67990882D01*
X97755378Y-67990970D01*
X97895944Y-68131536D01*
X96315000Y-68131536D01*
X96173810Y-68158103D01*
X96044135Y-68241546D01*
X95957141Y-68368866D01*
X95926536Y-68520000D01*
X78867000Y-68520000D01*
X78867000Y-63220000D01*
X95926536Y-63220000D01*
X95926536Y-65120000D01*
X95953103Y-65261190D01*
X96036546Y-65390865D01*
X96163866Y-65477859D01*
X96315000Y-65508464D01*
X98715000Y-65508464D01*
X98856190Y-65481897D01*
X98914751Y-65444214D01*
X99084000Y-65444214D01*
X99084000Y-65597750D01*
X99179250Y-65693000D01*
X100113000Y-65693000D01*
X100113000Y-65234250D01*
X100367000Y-65234250D01*
X100367000Y-65693000D01*
X101300750Y-65693000D01*
X101396000Y-65597750D01*
X101396000Y-65444214D01*
X101337996Y-65304180D01*
X101230819Y-65197004D01*
X101090785Y-65139000D01*
X100462250Y-65139000D01*
X100367000Y-65234250D01*
X100113000Y-65234250D01*
X100017750Y-65139000D01*
X99389215Y-65139000D01*
X99249181Y-65197004D01*
X99142004Y-65304180D01*
X99084000Y-65444214D01*
X98914751Y-65444214D01*
X98985865Y-65398454D01*
X99072859Y-65271134D01*
X99103464Y-65120000D01*
X99103464Y-63220000D01*
X99076897Y-63078810D01*
X98993454Y-62949135D01*
X98866134Y-62862141D01*
X98715000Y-62831536D01*
X96315000Y-62831536D01*
X96173810Y-62858103D01*
X96044135Y-62941546D01*
X95957141Y-63068866D01*
X95926536Y-63220000D01*
X78867000Y-63220000D01*
X78867000Y-59280668D01*
X82013307Y-59280668D01*
X82673543Y-60878561D01*
X83895009Y-62102160D01*
X85491747Y-62765184D01*
X87220668Y-62766693D01*
X88818561Y-62106457D01*
X90042160Y-60884991D01*
X90705184Y-59288253D01*
X90706693Y-57559332D01*
X90046457Y-55961439D01*
X88824991Y-54737840D01*
X87228253Y-54074816D01*
X85499332Y-54073307D01*
X83901439Y-54733543D01*
X82677840Y-55955009D01*
X82014816Y-57551747D01*
X82013307Y-59280668D01*
X78867000Y-59280668D01*
X78867000Y-53520000D01*
X95926536Y-53520000D01*
X95926536Y-55420000D01*
X95953103Y-55561190D01*
X96036546Y-55690865D01*
X96163866Y-55777859D01*
X96315000Y-55808464D01*
X98715000Y-55808464D01*
X98856190Y-55781897D01*
X98985865Y-55698454D01*
X99072859Y-55571134D01*
X99103464Y-55420000D01*
X99103464Y-53520000D01*
X99076897Y-53378810D01*
X99042915Y-53326000D01*
X99144807Y-53326000D01*
X99186546Y-53390865D01*
X99313866Y-53477859D01*
X99465000Y-53508464D01*
X101015000Y-53508464D01*
X101156190Y-53481897D01*
X101285865Y-53398454D01*
X101372859Y-53271134D01*
X101403464Y-53120000D01*
X101403464Y-52520000D01*
X101376897Y-52378810D01*
X101342915Y-52326000D01*
X106220408Y-52326000D01*
X107444000Y-53549592D01*
X107444000Y-68122877D01*
X107373013Y-68193741D01*
X107269118Y-68443946D01*
X107268882Y-68714865D01*
X107372339Y-68965252D01*
X107563741Y-69156987D01*
X107813946Y-69260882D01*
X108084865Y-69261118D01*
X108335252Y-69157661D01*
X108526987Y-68966259D01*
X108630882Y-68716054D01*
X108631052Y-68520000D01*
X115926536Y-68520000D01*
X115926536Y-70420000D01*
X115953103Y-70561190D01*
X116036546Y-70690865D01*
X116163866Y-70777859D01*
X116315000Y-70808464D01*
X118715000Y-70808464D01*
X118856190Y-70781897D01*
X118985865Y-70698454D01*
X119072859Y-70571134D01*
X119103464Y-70420000D01*
X119103464Y-68520000D01*
X119076897Y-68378810D01*
X119042915Y-68326000D01*
X119144807Y-68326000D01*
X119186546Y-68390865D01*
X119313866Y-68477859D01*
X119465000Y-68508464D01*
X121015000Y-68508464D01*
X121156190Y-68481897D01*
X121285865Y-68398454D01*
X121372859Y-68271134D01*
X121403464Y-68120000D01*
X121403464Y-67520000D01*
X121376897Y-67378810D01*
X121342915Y-67326000D01*
X124395408Y-67326000D01*
X125224000Y-68154592D01*
X125224000Y-70662877D01*
X125153013Y-70733741D01*
X125049118Y-70983946D01*
X125048882Y-71254865D01*
X125152339Y-71505252D01*
X125343741Y-71696987D01*
X125593946Y-71800882D01*
X125864865Y-71801118D01*
X126115252Y-71697661D01*
X126306987Y-71506259D01*
X126410882Y-71256054D01*
X126411118Y-70985135D01*
X126307661Y-70734748D01*
X126236000Y-70662962D01*
X126236000Y-68520000D01*
X135926536Y-68520000D01*
X135926536Y-70420000D01*
X135953103Y-70561190D01*
X136036546Y-70690865D01*
X136163866Y-70777859D01*
X136315000Y-70808464D01*
X138715000Y-70808464D01*
X138856190Y-70781897D01*
X138985865Y-70698454D01*
X139072859Y-70571134D01*
X139103464Y-70420000D01*
X139103464Y-68520000D01*
X139076897Y-68378810D01*
X139042915Y-68326000D01*
X139144807Y-68326000D01*
X139186546Y-68390865D01*
X139313866Y-68477859D01*
X139465000Y-68508464D01*
X141015000Y-68508464D01*
X141156190Y-68481897D01*
X141285865Y-68398454D01*
X141372859Y-68271134D01*
X141403464Y-68120000D01*
X141403464Y-67520000D01*
X141376897Y-67378810D01*
X141342915Y-67326000D01*
X142970000Y-67326000D01*
X143163638Y-67287483D01*
X143327796Y-67177796D01*
X144777796Y-65727796D01*
X144864690Y-65597750D01*
X144887483Y-65563638D01*
X144926000Y-65370000D01*
X144926000Y-55049592D01*
X145934561Y-54041031D01*
X146034865Y-54041118D01*
X146285252Y-53937661D01*
X146476987Y-53746259D01*
X146570938Y-53520000D01*
X155926536Y-53520000D01*
X155926536Y-55420000D01*
X155953103Y-55561190D01*
X156036546Y-55690865D01*
X156163866Y-55777859D01*
X156315000Y-55808464D01*
X158715000Y-55808464D01*
X158856190Y-55781897D01*
X158985865Y-55698454D01*
X159072859Y-55571134D01*
X159103464Y-55420000D01*
X159103464Y-53520000D01*
X159076897Y-53378810D01*
X159015692Y-53283695D01*
X159021362Y-53287483D01*
X159134504Y-53309988D01*
X159186546Y-53390865D01*
X159313866Y-53477859D01*
X159465000Y-53508464D01*
X161015000Y-53508464D01*
X161156190Y-53481897D01*
X161285865Y-53398454D01*
X161372859Y-53271134D01*
X161403464Y-53120000D01*
X161403464Y-52520000D01*
X161376897Y-52378810D01*
X161342915Y-52326000D01*
X162810000Y-52326000D01*
X163003638Y-52287483D01*
X163167796Y-52177796D01*
X164187796Y-51157796D01*
X164297483Y-50993638D01*
X164336000Y-50800000D01*
X164336000Y-48260000D01*
X176375631Y-48260000D01*
X176470371Y-48736288D01*
X176740166Y-49140065D01*
X177143943Y-49409860D01*
X177620231Y-49504600D01*
X177979769Y-49504600D01*
X178456057Y-49409860D01*
X178859834Y-49140065D01*
X179129629Y-48736288D01*
X179224369Y-48260000D01*
X191615631Y-48260000D01*
X191710371Y-48736288D01*
X191980166Y-49140065D01*
X192383943Y-49409860D01*
X192860231Y-49504600D01*
X193219769Y-49504600D01*
X193696057Y-49409860D01*
X194099834Y-49140065D01*
X194369629Y-48736288D01*
X194464369Y-48260000D01*
X194369629Y-47783712D01*
X194099834Y-47379935D01*
X193696057Y-47110140D01*
X193219769Y-47015400D01*
X192860231Y-47015400D01*
X192383943Y-47110140D01*
X191980166Y-47379935D01*
X191710371Y-47783712D01*
X191615631Y-48260000D01*
X179224369Y-48260000D01*
X179129629Y-47783712D01*
X178859834Y-47379935D01*
X178456057Y-47110140D01*
X177979769Y-47015400D01*
X177620231Y-47015400D01*
X177143943Y-47110140D01*
X176740166Y-47379935D01*
X176470371Y-47783712D01*
X176375631Y-48260000D01*
X164336000Y-48260000D01*
X164336000Y-46177123D01*
X164406987Y-46106259D01*
X164510882Y-45856054D01*
X164511000Y-45720000D01*
X176375631Y-45720000D01*
X176470371Y-46196288D01*
X176740166Y-46600065D01*
X177143943Y-46869860D01*
X177620231Y-46964600D01*
X177979769Y-46964600D01*
X178456057Y-46869860D01*
X178859834Y-46600065D01*
X179129629Y-46196288D01*
X179224369Y-45720000D01*
X191615631Y-45720000D01*
X191710371Y-46196288D01*
X191980166Y-46600065D01*
X192383943Y-46869860D01*
X192860231Y-46964600D01*
X193219769Y-46964600D01*
X193696057Y-46869860D01*
X194099834Y-46600065D01*
X194369629Y-46196288D01*
X194464369Y-45720000D01*
X194369629Y-45243712D01*
X194099834Y-44839935D01*
X193696057Y-44570140D01*
X193219769Y-44475400D01*
X192860231Y-44475400D01*
X192383943Y-44570140D01*
X191980166Y-44839935D01*
X191710371Y-45243712D01*
X191615631Y-45720000D01*
X179224369Y-45720000D01*
X179129629Y-45243712D01*
X178859834Y-44839935D01*
X178456057Y-44570140D01*
X177979769Y-44475400D01*
X177620231Y-44475400D01*
X177143943Y-44570140D01*
X176740166Y-44839935D01*
X176470371Y-45243712D01*
X176375631Y-45720000D01*
X164511000Y-45720000D01*
X164511118Y-45585135D01*
X164407661Y-45334748D01*
X164216259Y-45143013D01*
X163966054Y-45039118D01*
X163695135Y-45038882D01*
X163444748Y-45142339D01*
X163253013Y-45333741D01*
X163149118Y-45583946D01*
X163148882Y-45854865D01*
X163252339Y-46105252D01*
X163324000Y-46177038D01*
X163324000Y-50590408D01*
X162600408Y-51314000D01*
X161347034Y-51314000D01*
X161396000Y-51195786D01*
X161396000Y-51042250D01*
X161300750Y-50947000D01*
X160367000Y-50947000D01*
X160367000Y-50967000D01*
X160113000Y-50967000D01*
X160113000Y-50947000D01*
X159179250Y-50947000D01*
X159084000Y-51042250D01*
X159084000Y-51195786D01*
X159137368Y-51324627D01*
X159107141Y-51368866D01*
X159076536Y-51520000D01*
X159076536Y-51965944D01*
X158972778Y-51862186D01*
X158808620Y-51752499D01*
X158614982Y-51713982D01*
X158264064Y-51713982D01*
X158193200Y-51642995D01*
X157942995Y-51539100D01*
X157672076Y-51538864D01*
X157421689Y-51642321D01*
X157229954Y-51833723D01*
X157126059Y-52083928D01*
X157125823Y-52354847D01*
X157229280Y-52605234D01*
X157420682Y-52796969D01*
X157670887Y-52900864D01*
X157941806Y-52901100D01*
X158192193Y-52797643D01*
X158263979Y-52725982D01*
X158405390Y-52725982D01*
X158835306Y-53155898D01*
X158715000Y-53131536D01*
X156315000Y-53131536D01*
X156173810Y-53158103D01*
X156044135Y-53241546D01*
X155957141Y-53368866D01*
X155926536Y-53520000D01*
X146570938Y-53520000D01*
X146580882Y-53496054D01*
X146581118Y-53225135D01*
X146477661Y-52974748D01*
X146286259Y-52783013D01*
X146036054Y-52679118D01*
X145765135Y-52678882D01*
X145514748Y-52782339D01*
X145323013Y-52973741D01*
X145219118Y-53223946D01*
X145219030Y-53325378D01*
X144062204Y-54482204D01*
X143952517Y-54646362D01*
X143914000Y-54840000D01*
X143914000Y-65160408D01*
X142760408Y-66314000D01*
X141347034Y-66314000D01*
X141396000Y-66195786D01*
X141396000Y-66042250D01*
X141300750Y-65947000D01*
X140367000Y-65947000D01*
X140367000Y-65967000D01*
X140113000Y-65967000D01*
X140113000Y-65947000D01*
X139179250Y-65947000D01*
X139084000Y-66042250D01*
X139084000Y-66195786D01*
X139137368Y-66324627D01*
X139107141Y-66368866D01*
X139076536Y-66520000D01*
X139076536Y-67120000D01*
X139103103Y-67261190D01*
X139137085Y-67314000D01*
X138514592Y-67314000D01*
X138476031Y-67275439D01*
X138476118Y-67175135D01*
X138372661Y-66924748D01*
X138181259Y-66733013D01*
X137931054Y-66629118D01*
X137660135Y-66628882D01*
X137409748Y-66732339D01*
X137218013Y-66923741D01*
X137114118Y-67173946D01*
X137113882Y-67444865D01*
X137217339Y-67695252D01*
X137408741Y-67886987D01*
X137658946Y-67990882D01*
X137760378Y-67990970D01*
X137900944Y-68131536D01*
X136315000Y-68131536D01*
X136173810Y-68158103D01*
X136044135Y-68241546D01*
X135957141Y-68368866D01*
X135926536Y-68520000D01*
X126236000Y-68520000D01*
X126236000Y-67945000D01*
X126197483Y-67751362D01*
X126087796Y-67587204D01*
X124962796Y-66462204D01*
X124798638Y-66352517D01*
X124605000Y-66314000D01*
X121347034Y-66314000D01*
X121396000Y-66195786D01*
X121396000Y-66042250D01*
X121300750Y-65947000D01*
X120367000Y-65947000D01*
X120367000Y-65967000D01*
X120113000Y-65967000D01*
X120113000Y-65947000D01*
X119179250Y-65947000D01*
X119084000Y-66042250D01*
X119084000Y-66195786D01*
X119137368Y-66324627D01*
X119107141Y-66368866D01*
X119076536Y-66520000D01*
X119076536Y-67120000D01*
X119103103Y-67261190D01*
X119137085Y-67314000D01*
X118829592Y-67314000D01*
X118791031Y-67275439D01*
X118791118Y-67175135D01*
X118687661Y-66924748D01*
X118496259Y-66733013D01*
X118246054Y-66629118D01*
X117975135Y-66628882D01*
X117724748Y-66732339D01*
X117533013Y-66923741D01*
X117429118Y-67173946D01*
X117428882Y-67444865D01*
X117532339Y-67695252D01*
X117723741Y-67886987D01*
X117973946Y-67990882D01*
X118075378Y-67990970D01*
X118215944Y-68131536D01*
X116315000Y-68131536D01*
X116173810Y-68158103D01*
X116044135Y-68241546D01*
X115957141Y-68368866D01*
X115926536Y-68520000D01*
X108631052Y-68520000D01*
X108631118Y-68445135D01*
X108527661Y-68194748D01*
X108456000Y-68122962D01*
X108456000Y-53340000D01*
X108417483Y-53146362D01*
X108307796Y-52982204D01*
X106787796Y-51462204D01*
X106623638Y-51352517D01*
X106430000Y-51314000D01*
X101347034Y-51314000D01*
X101396000Y-51195786D01*
X101396000Y-51042250D01*
X101300750Y-50947000D01*
X100367000Y-50947000D01*
X100367000Y-50967000D01*
X100113000Y-50967000D01*
X100113000Y-50947000D01*
X99179250Y-50947000D01*
X99084000Y-51042250D01*
X99084000Y-51195786D01*
X99137368Y-51324627D01*
X99107141Y-51368866D01*
X99076536Y-51520000D01*
X99076536Y-52120000D01*
X99103103Y-52261190D01*
X99137085Y-52314000D01*
X98361923Y-52314000D01*
X98176259Y-52128013D01*
X97926054Y-52024118D01*
X97655135Y-52023882D01*
X97404748Y-52127339D01*
X97213013Y-52318741D01*
X97109118Y-52568946D01*
X97108882Y-52839865D01*
X97212339Y-53090252D01*
X97253551Y-53131536D01*
X96315000Y-53131536D01*
X96173810Y-53158103D01*
X96044135Y-53241546D01*
X95957141Y-53368866D01*
X95926536Y-53520000D01*
X78867000Y-53520000D01*
X78867000Y-48220000D01*
X95926536Y-48220000D01*
X95926536Y-50120000D01*
X95953103Y-50261190D01*
X96036546Y-50390865D01*
X96163866Y-50477859D01*
X96315000Y-50508464D01*
X98715000Y-50508464D01*
X98856190Y-50481897D01*
X98914751Y-50444214D01*
X99084000Y-50444214D01*
X99084000Y-50597750D01*
X99179250Y-50693000D01*
X100113000Y-50693000D01*
X100113000Y-50234250D01*
X100367000Y-50234250D01*
X100367000Y-50693000D01*
X101300750Y-50693000D01*
X101396000Y-50597750D01*
X101396000Y-50444214D01*
X101337996Y-50304180D01*
X101230819Y-50197004D01*
X101090785Y-50139000D01*
X100462250Y-50139000D01*
X100367000Y-50234250D01*
X100113000Y-50234250D01*
X100017750Y-50139000D01*
X99389215Y-50139000D01*
X99249181Y-50197004D01*
X99142004Y-50304180D01*
X99084000Y-50444214D01*
X98914751Y-50444214D01*
X98985865Y-50398454D01*
X99072859Y-50271134D01*
X99103464Y-50120000D01*
X99103464Y-48220000D01*
X99076897Y-48078810D01*
X98993454Y-47949135D01*
X98866134Y-47862141D01*
X98715000Y-47831536D01*
X96315000Y-47831536D01*
X96173810Y-47858103D01*
X96044135Y-47941546D01*
X95957141Y-48068866D01*
X95926536Y-48220000D01*
X78867000Y-48220000D01*
X78867000Y-43332400D01*
X84853936Y-43332400D01*
X84853936Y-45567600D01*
X84880503Y-45708790D01*
X84963946Y-45838465D01*
X85091266Y-45925459D01*
X85242400Y-45956064D01*
X87477600Y-45956064D01*
X87618790Y-45929497D01*
X87748465Y-45846054D01*
X87835459Y-45718734D01*
X87866064Y-45567600D01*
X87866064Y-43332400D01*
X87839497Y-43191210D01*
X87756054Y-43061535D01*
X87628734Y-42974541D01*
X87477600Y-42943936D01*
X86866000Y-42943936D01*
X86866000Y-38557123D01*
X86903187Y-38520000D01*
X95926536Y-38520000D01*
X95926536Y-40420000D01*
X95953103Y-40561190D01*
X96036546Y-40690865D01*
X96163866Y-40777859D01*
X96315000Y-40808464D01*
X98715000Y-40808464D01*
X98856190Y-40781897D01*
X98985865Y-40698454D01*
X99072859Y-40571134D01*
X99103464Y-40420000D01*
X99103464Y-38520000D01*
X99076897Y-38378810D01*
X99042915Y-38326000D01*
X99144807Y-38326000D01*
X99186546Y-38390865D01*
X99313866Y-38477859D01*
X99465000Y-38508464D01*
X101015000Y-38508464D01*
X101156190Y-38481897D01*
X101285865Y-38398454D01*
X101372859Y-38271134D01*
X101403464Y-38120000D01*
X101403464Y-37520000D01*
X101376897Y-37378810D01*
X101342915Y-37326000D01*
X108365408Y-37326000D01*
X109984000Y-38944592D01*
X109984000Y-63042877D01*
X109913013Y-63113741D01*
X109809118Y-63363946D01*
X109808882Y-63634865D01*
X109912339Y-63885252D01*
X110103741Y-64076987D01*
X110353946Y-64180882D01*
X110624865Y-64181118D01*
X110875252Y-64077661D01*
X111066987Y-63886259D01*
X111170882Y-63636054D01*
X111171118Y-63365135D01*
X111111150Y-63220000D01*
X115926536Y-63220000D01*
X115926536Y-65120000D01*
X115953103Y-65261190D01*
X116036546Y-65390865D01*
X116163866Y-65477859D01*
X116315000Y-65508464D01*
X118715000Y-65508464D01*
X118856190Y-65481897D01*
X118914751Y-65444214D01*
X119084000Y-65444214D01*
X119084000Y-65597750D01*
X119179250Y-65693000D01*
X120113000Y-65693000D01*
X120113000Y-65234250D01*
X120367000Y-65234250D01*
X120367000Y-65693000D01*
X121300750Y-65693000D01*
X121396000Y-65597750D01*
X121396000Y-65444214D01*
X121337996Y-65304180D01*
X121230819Y-65197004D01*
X121090785Y-65139000D01*
X120462250Y-65139000D01*
X120367000Y-65234250D01*
X120113000Y-65234250D01*
X120017750Y-65139000D01*
X119389215Y-65139000D01*
X119249181Y-65197004D01*
X119142004Y-65304180D01*
X119084000Y-65444214D01*
X118914751Y-65444214D01*
X118985865Y-65398454D01*
X119072859Y-65271134D01*
X119103464Y-65120000D01*
X119103464Y-63220000D01*
X119076897Y-63078810D01*
X118993454Y-62949135D01*
X118866134Y-62862141D01*
X118715000Y-62831536D01*
X116315000Y-62831536D01*
X116173810Y-62858103D01*
X116044135Y-62941546D01*
X115957141Y-63068866D01*
X115926536Y-63220000D01*
X111111150Y-63220000D01*
X111067661Y-63114748D01*
X110996000Y-63042962D01*
X110996000Y-53520000D01*
X115926536Y-53520000D01*
X115926536Y-55420000D01*
X115953103Y-55561190D01*
X116036546Y-55690865D01*
X116163866Y-55777859D01*
X116315000Y-55808464D01*
X118715000Y-55808464D01*
X118856190Y-55781897D01*
X118985865Y-55698454D01*
X119072859Y-55571134D01*
X119103464Y-55420000D01*
X119103464Y-53520000D01*
X119076897Y-53378810D01*
X119042915Y-53326000D01*
X119144807Y-53326000D01*
X119186546Y-53390865D01*
X119313866Y-53477859D01*
X119465000Y-53508464D01*
X121015000Y-53508464D01*
X121156190Y-53481897D01*
X121285865Y-53398454D01*
X121372859Y-53271134D01*
X121403464Y-53120000D01*
X121403464Y-52520000D01*
X121376897Y-52378810D01*
X121342915Y-52326000D01*
X126540408Y-52326000D01*
X127764000Y-53549592D01*
X127764000Y-65582877D01*
X127693013Y-65653741D01*
X127589118Y-65903946D01*
X127588882Y-66174865D01*
X127692339Y-66425252D01*
X127883741Y-66616987D01*
X128133946Y-66720882D01*
X128404865Y-66721118D01*
X128655252Y-66617661D01*
X128846987Y-66426259D01*
X128950882Y-66176054D01*
X128951118Y-65905135D01*
X128847661Y-65654748D01*
X128776000Y-65582962D01*
X128776000Y-63220000D01*
X135926536Y-63220000D01*
X135926536Y-65120000D01*
X135953103Y-65261190D01*
X136036546Y-65390865D01*
X136163866Y-65477859D01*
X136315000Y-65508464D01*
X138715000Y-65508464D01*
X138856190Y-65481897D01*
X138914751Y-65444214D01*
X139084000Y-65444214D01*
X139084000Y-65597750D01*
X139179250Y-65693000D01*
X140113000Y-65693000D01*
X140113000Y-65234250D01*
X140367000Y-65234250D01*
X140367000Y-65693000D01*
X141300750Y-65693000D01*
X141396000Y-65597750D01*
X141396000Y-65444214D01*
X141337996Y-65304180D01*
X141230819Y-65197004D01*
X141090785Y-65139000D01*
X140462250Y-65139000D01*
X140367000Y-65234250D01*
X140113000Y-65234250D01*
X140017750Y-65139000D01*
X139389215Y-65139000D01*
X139249181Y-65197004D01*
X139142004Y-65304180D01*
X139084000Y-65444214D01*
X138914751Y-65444214D01*
X138985865Y-65398454D01*
X139072859Y-65271134D01*
X139103464Y-65120000D01*
X139103464Y-63220000D01*
X139076897Y-63078810D01*
X138993454Y-62949135D01*
X138866134Y-62862141D01*
X138715000Y-62831536D01*
X136315000Y-62831536D01*
X136173810Y-62858103D01*
X136044135Y-62941546D01*
X135957141Y-63068866D01*
X135926536Y-63220000D01*
X128776000Y-63220000D01*
X128776000Y-53340000D01*
X128737483Y-53146362D01*
X128627796Y-52982204D01*
X127107796Y-51462204D01*
X126943638Y-51352517D01*
X126750000Y-51314000D01*
X121347034Y-51314000D01*
X121396000Y-51195786D01*
X121396000Y-51042250D01*
X121300750Y-50947000D01*
X120367000Y-50947000D01*
X120367000Y-50967000D01*
X120113000Y-50967000D01*
X120113000Y-50947000D01*
X119179250Y-50947000D01*
X119084000Y-51042250D01*
X119084000Y-51195786D01*
X119137368Y-51324627D01*
X119107141Y-51368866D01*
X119076536Y-51520000D01*
X119076536Y-52120000D01*
X119103103Y-52261190D01*
X119137085Y-52314000D01*
X118434592Y-52314000D01*
X118156031Y-52035439D01*
X118156118Y-51935135D01*
X118052661Y-51684748D01*
X117861259Y-51493013D01*
X117611054Y-51389118D01*
X117340135Y-51388882D01*
X117089748Y-51492339D01*
X116898013Y-51683741D01*
X116794118Y-51933946D01*
X116793882Y-52204865D01*
X116897339Y-52455252D01*
X117088741Y-52646987D01*
X117338946Y-52750882D01*
X117440378Y-52750970D01*
X117820944Y-53131536D01*
X116315000Y-53131536D01*
X116173810Y-53158103D01*
X116044135Y-53241546D01*
X115957141Y-53368866D01*
X115926536Y-53520000D01*
X110996000Y-53520000D01*
X110996000Y-48220000D01*
X115926536Y-48220000D01*
X115926536Y-50120000D01*
X115953103Y-50261190D01*
X116036546Y-50390865D01*
X116163866Y-50477859D01*
X116315000Y-50508464D01*
X118715000Y-50508464D01*
X118856190Y-50481897D01*
X118914751Y-50444214D01*
X119084000Y-50444214D01*
X119084000Y-50597750D01*
X119179250Y-50693000D01*
X120113000Y-50693000D01*
X120113000Y-50234250D01*
X120367000Y-50234250D01*
X120367000Y-50693000D01*
X121300750Y-50693000D01*
X121396000Y-50597750D01*
X121396000Y-50444214D01*
X121337996Y-50304180D01*
X121230819Y-50197004D01*
X121090785Y-50139000D01*
X120462250Y-50139000D01*
X120367000Y-50234250D01*
X120113000Y-50234250D01*
X120017750Y-50139000D01*
X119389215Y-50139000D01*
X119249181Y-50197004D01*
X119142004Y-50304180D01*
X119084000Y-50444214D01*
X118914751Y-50444214D01*
X118985865Y-50398454D01*
X119072859Y-50271134D01*
X119103464Y-50120000D01*
X119103464Y-48220000D01*
X119076897Y-48078810D01*
X118993454Y-47949135D01*
X118866134Y-47862141D01*
X118715000Y-47831536D01*
X116315000Y-47831536D01*
X116173810Y-47858103D01*
X116044135Y-47941546D01*
X115957141Y-48068866D01*
X115926536Y-48220000D01*
X110996000Y-48220000D01*
X110996000Y-38735000D01*
X110957483Y-38541362D01*
X110943210Y-38520000D01*
X115926536Y-38520000D01*
X115926536Y-40420000D01*
X115953103Y-40561190D01*
X116036546Y-40690865D01*
X116163866Y-40777859D01*
X116315000Y-40808464D01*
X118715000Y-40808464D01*
X118856190Y-40781897D01*
X118985865Y-40698454D01*
X119072859Y-40571134D01*
X119103464Y-40420000D01*
X119103464Y-38520000D01*
X119076897Y-38378810D01*
X119034536Y-38312978D01*
X119100000Y-38326000D01*
X119144807Y-38326000D01*
X119186546Y-38390865D01*
X119313866Y-38477859D01*
X119465000Y-38508464D01*
X121015000Y-38508464D01*
X121156190Y-38481897D01*
X121285865Y-38398454D01*
X121372859Y-38271134D01*
X121403464Y-38120000D01*
X121403464Y-37520000D01*
X121376897Y-37378810D01*
X121342915Y-37326000D01*
X131225408Y-37326000D01*
X131574000Y-37674592D01*
X131574000Y-60502877D01*
X131503013Y-60573741D01*
X131399118Y-60823946D01*
X131398882Y-61094865D01*
X131502339Y-61345252D01*
X131693741Y-61536987D01*
X131943946Y-61640882D01*
X132214865Y-61641118D01*
X132465252Y-61537661D01*
X132656987Y-61346259D01*
X132760882Y-61096054D01*
X132761118Y-60825135D01*
X132657661Y-60574748D01*
X132586000Y-60502962D01*
X132586000Y-53520000D01*
X135926536Y-53520000D01*
X135926536Y-55420000D01*
X135953103Y-55561190D01*
X136036546Y-55690865D01*
X136163866Y-55777859D01*
X136315000Y-55808464D01*
X138715000Y-55808464D01*
X138856190Y-55781897D01*
X138985865Y-55698454D01*
X139072859Y-55571134D01*
X139103464Y-55420000D01*
X139103464Y-53520000D01*
X139076897Y-53378810D01*
X139042915Y-53326000D01*
X139144807Y-53326000D01*
X139186546Y-53390865D01*
X139313866Y-53477859D01*
X139465000Y-53508464D01*
X141015000Y-53508464D01*
X141156190Y-53481897D01*
X141285865Y-53398454D01*
X141372859Y-53271134D01*
X141403464Y-53120000D01*
X141403464Y-52520000D01*
X141376897Y-52378810D01*
X141342915Y-52326000D01*
X143125000Y-52326000D01*
X143318638Y-52287483D01*
X143482796Y-52177796D01*
X143867796Y-51792796D01*
X143977483Y-51628638D01*
X144016000Y-51435000D01*
X144016000Y-48717123D01*
X144086987Y-48646259D01*
X144190882Y-48396054D01*
X144191035Y-48220000D01*
X155926536Y-48220000D01*
X155926536Y-50120000D01*
X155953103Y-50261190D01*
X156036546Y-50390865D01*
X156163866Y-50477859D01*
X156315000Y-50508464D01*
X158715000Y-50508464D01*
X158856190Y-50481897D01*
X158914751Y-50444214D01*
X159084000Y-50444214D01*
X159084000Y-50597750D01*
X159179250Y-50693000D01*
X160113000Y-50693000D01*
X160113000Y-50234250D01*
X160367000Y-50234250D01*
X160367000Y-50693000D01*
X161300750Y-50693000D01*
X161396000Y-50597750D01*
X161396000Y-50444214D01*
X161337996Y-50304180D01*
X161230819Y-50197004D01*
X161090785Y-50139000D01*
X160462250Y-50139000D01*
X160367000Y-50234250D01*
X160113000Y-50234250D01*
X160017750Y-50139000D01*
X159389215Y-50139000D01*
X159249181Y-50197004D01*
X159142004Y-50304180D01*
X159084000Y-50444214D01*
X158914751Y-50444214D01*
X158985865Y-50398454D01*
X159072859Y-50271134D01*
X159103464Y-50120000D01*
X159103464Y-48220000D01*
X159076897Y-48078810D01*
X158993454Y-47949135D01*
X158866134Y-47862141D01*
X158715000Y-47831536D01*
X156315000Y-47831536D01*
X156173810Y-47858103D01*
X156044135Y-47941546D01*
X155957141Y-48068866D01*
X155926536Y-48220000D01*
X144191035Y-48220000D01*
X144191118Y-48125135D01*
X144087661Y-47874748D01*
X143896259Y-47683013D01*
X143646054Y-47579118D01*
X143375135Y-47578882D01*
X143124748Y-47682339D01*
X142933013Y-47873741D01*
X142829118Y-48123946D01*
X142828882Y-48394865D01*
X142932339Y-48645252D01*
X143004000Y-48717038D01*
X143004000Y-51225408D01*
X142915408Y-51314000D01*
X141347034Y-51314000D01*
X141396000Y-51195786D01*
X141396000Y-51042250D01*
X141300750Y-50947000D01*
X140367000Y-50947000D01*
X140367000Y-50967000D01*
X140113000Y-50967000D01*
X140113000Y-50947000D01*
X139179250Y-50947000D01*
X139084000Y-51042250D01*
X139084000Y-51195786D01*
X139137368Y-51324627D01*
X139107141Y-51368866D01*
X139076536Y-51520000D01*
X139076536Y-52120000D01*
X139103103Y-52261190D01*
X139137085Y-52314000D01*
X138119592Y-52314000D01*
X137841031Y-52035439D01*
X137841118Y-51935135D01*
X137737661Y-51684748D01*
X137546259Y-51493013D01*
X137296054Y-51389118D01*
X137025135Y-51388882D01*
X136774748Y-51492339D01*
X136583013Y-51683741D01*
X136479118Y-51933946D01*
X136478882Y-52204865D01*
X136582339Y-52455252D01*
X136773741Y-52646987D01*
X137023946Y-52750882D01*
X137125378Y-52750970D01*
X137505944Y-53131536D01*
X136315000Y-53131536D01*
X136173810Y-53158103D01*
X136044135Y-53241546D01*
X135957141Y-53368866D01*
X135926536Y-53520000D01*
X132586000Y-53520000D01*
X132586000Y-48220000D01*
X135926536Y-48220000D01*
X135926536Y-50120000D01*
X135953103Y-50261190D01*
X136036546Y-50390865D01*
X136163866Y-50477859D01*
X136315000Y-50508464D01*
X138715000Y-50508464D01*
X138856190Y-50481897D01*
X138914751Y-50444214D01*
X139084000Y-50444214D01*
X139084000Y-50597750D01*
X139179250Y-50693000D01*
X140113000Y-50693000D01*
X140113000Y-50234250D01*
X140367000Y-50234250D01*
X140367000Y-50693000D01*
X141300750Y-50693000D01*
X141396000Y-50597750D01*
X141396000Y-50444214D01*
X141337996Y-50304180D01*
X141230819Y-50197004D01*
X141090785Y-50139000D01*
X140462250Y-50139000D01*
X140367000Y-50234250D01*
X140113000Y-50234250D01*
X140017750Y-50139000D01*
X139389215Y-50139000D01*
X139249181Y-50197004D01*
X139142004Y-50304180D01*
X139084000Y-50444214D01*
X138914751Y-50444214D01*
X138985865Y-50398454D01*
X139072859Y-50271134D01*
X139103464Y-50120000D01*
X139103464Y-48220000D01*
X139076897Y-48078810D01*
X138993454Y-47949135D01*
X138866134Y-47862141D01*
X138715000Y-47831536D01*
X136315000Y-47831536D01*
X136173810Y-47858103D01*
X136044135Y-47941546D01*
X135957141Y-48068866D01*
X135926536Y-48220000D01*
X132586000Y-48220000D01*
X132586000Y-38520000D01*
X135926536Y-38520000D01*
X135926536Y-40420000D01*
X135953103Y-40561190D01*
X136036546Y-40690865D01*
X136163866Y-40777859D01*
X136315000Y-40808464D01*
X138715000Y-40808464D01*
X138856190Y-40781897D01*
X138985865Y-40698454D01*
X139072859Y-40571134D01*
X139103464Y-40420000D01*
X139103464Y-38520000D01*
X139076897Y-38378810D01*
X139042915Y-38326000D01*
X139144807Y-38326000D01*
X139186546Y-38390865D01*
X139313866Y-38477859D01*
X139465000Y-38508464D01*
X141015000Y-38508464D01*
X141156190Y-38481897D01*
X141285865Y-38398454D01*
X141372859Y-38271134D01*
X141403464Y-38120000D01*
X141403464Y-37520000D01*
X141376897Y-37378810D01*
X141349350Y-37336000D01*
X142030408Y-37336000D01*
X143004000Y-38309592D01*
X143004000Y-42722877D01*
X142933013Y-42793741D01*
X142829118Y-43043946D01*
X142828882Y-43314865D01*
X142932339Y-43565252D01*
X143123741Y-43756987D01*
X143373946Y-43860882D01*
X143644865Y-43861118D01*
X143895252Y-43757661D01*
X144086987Y-43566259D01*
X144190882Y-43316054D01*
X144191000Y-43180000D01*
X176375631Y-43180000D01*
X176470371Y-43656288D01*
X176740166Y-44060065D01*
X177143943Y-44329860D01*
X177620231Y-44424600D01*
X177979769Y-44424600D01*
X178456057Y-44329860D01*
X178859834Y-44060065D01*
X179129629Y-43656288D01*
X179224369Y-43180000D01*
X191615631Y-43180000D01*
X191710371Y-43656288D01*
X191980166Y-44060065D01*
X192383943Y-44329860D01*
X192860231Y-44424600D01*
X193219769Y-44424600D01*
X193696057Y-44329860D01*
X194099834Y-44060065D01*
X194369629Y-43656288D01*
X194464369Y-43180000D01*
X194369629Y-42703712D01*
X194099834Y-42299935D01*
X193696057Y-42030140D01*
X193219769Y-41935400D01*
X192860231Y-41935400D01*
X192383943Y-42030140D01*
X191980166Y-42299935D01*
X191710371Y-42703712D01*
X191615631Y-43180000D01*
X179224369Y-43180000D01*
X179129629Y-42703712D01*
X178859834Y-42299935D01*
X178456057Y-42030140D01*
X177979769Y-41935400D01*
X177620231Y-41935400D01*
X177143943Y-42030140D01*
X176740166Y-42299935D01*
X176470371Y-42703712D01*
X176375631Y-43180000D01*
X144191000Y-43180000D01*
X144191118Y-43045135D01*
X144087661Y-42794748D01*
X144016000Y-42722962D01*
X144016000Y-38520000D01*
X155926536Y-38520000D01*
X155926536Y-40420000D01*
X155953103Y-40561190D01*
X156036546Y-40690865D01*
X156163866Y-40777859D01*
X156315000Y-40808464D01*
X158715000Y-40808464D01*
X158856190Y-40781897D01*
X158985865Y-40698454D01*
X159072859Y-40571134D01*
X159103464Y-40420000D01*
X159103464Y-38520000D01*
X159076897Y-38378810D01*
X159042915Y-38326000D01*
X159144807Y-38326000D01*
X159186546Y-38390865D01*
X159313866Y-38477859D01*
X159465000Y-38508464D01*
X161015000Y-38508464D01*
X161156190Y-38481897D01*
X161285865Y-38398454D01*
X161372859Y-38271134D01*
X161403464Y-38120000D01*
X161403464Y-37520000D01*
X161376897Y-37378810D01*
X161342915Y-37326000D01*
X166150408Y-37326000D01*
X167134000Y-38309592D01*
X167134000Y-40182877D01*
X167063013Y-40253741D01*
X166959118Y-40503946D01*
X166958882Y-40774865D01*
X167062339Y-41025252D01*
X167253741Y-41216987D01*
X167503946Y-41320882D01*
X167774865Y-41321118D01*
X168025252Y-41217661D01*
X168216987Y-41026259D01*
X168320882Y-40776054D01*
X168321000Y-40640000D01*
X176375631Y-40640000D01*
X176470371Y-41116288D01*
X176740166Y-41520065D01*
X177143943Y-41789860D01*
X177620231Y-41884600D01*
X177979769Y-41884600D01*
X178456057Y-41789860D01*
X178859834Y-41520065D01*
X179129629Y-41116288D01*
X179224369Y-40640000D01*
X191615631Y-40640000D01*
X191710371Y-41116288D01*
X191980166Y-41520065D01*
X192383943Y-41789860D01*
X192860231Y-41884600D01*
X193219769Y-41884600D01*
X193696057Y-41789860D01*
X194099834Y-41520065D01*
X194369629Y-41116288D01*
X194464369Y-40640000D01*
X194369629Y-40163712D01*
X194099834Y-39759935D01*
X193696057Y-39490140D01*
X193219769Y-39395400D01*
X192860231Y-39395400D01*
X192383943Y-39490140D01*
X191980166Y-39759935D01*
X191710371Y-40163712D01*
X191615631Y-40640000D01*
X179224369Y-40640000D01*
X179129629Y-40163712D01*
X178859834Y-39759935D01*
X178456057Y-39490140D01*
X177979769Y-39395400D01*
X177620231Y-39395400D01*
X177143943Y-39490140D01*
X176740166Y-39759935D01*
X176470371Y-40163712D01*
X176375631Y-40640000D01*
X168321000Y-40640000D01*
X168321118Y-40505135D01*
X168217661Y-40254748D01*
X168146000Y-40182962D01*
X168146000Y-38100000D01*
X176375631Y-38100000D01*
X176470371Y-38576288D01*
X176740166Y-38980065D01*
X177143943Y-39249860D01*
X177620231Y-39344600D01*
X177979769Y-39344600D01*
X178456057Y-39249860D01*
X178859834Y-38980065D01*
X179129629Y-38576288D01*
X179224369Y-38100000D01*
X191615631Y-38100000D01*
X191710371Y-38576288D01*
X191980166Y-38980065D01*
X192383943Y-39249860D01*
X192860231Y-39344600D01*
X193219769Y-39344600D01*
X193696057Y-39249860D01*
X194099834Y-38980065D01*
X194369629Y-38576288D01*
X194464369Y-38100000D01*
X194369629Y-37623712D01*
X194099834Y-37219935D01*
X193696057Y-36950140D01*
X193219769Y-36855400D01*
X192860231Y-36855400D01*
X192383943Y-36950140D01*
X191980166Y-37219935D01*
X191710371Y-37623712D01*
X191615631Y-38100000D01*
X179224369Y-38100000D01*
X179129629Y-37623712D01*
X178859834Y-37219935D01*
X178456057Y-36950140D01*
X177979769Y-36855400D01*
X177620231Y-36855400D01*
X177143943Y-36950140D01*
X176740166Y-37219935D01*
X176470371Y-37623712D01*
X176375631Y-38100000D01*
X168146000Y-38100000D01*
X168107483Y-37906362D01*
X167997796Y-37742204D01*
X166717796Y-36462204D01*
X166553638Y-36352517D01*
X166360000Y-36314000D01*
X161347034Y-36314000D01*
X161396000Y-36195786D01*
X161396000Y-36042250D01*
X161300750Y-35947000D01*
X160367000Y-35947000D01*
X160367000Y-35967000D01*
X160113000Y-35967000D01*
X160113000Y-35947000D01*
X159179250Y-35947000D01*
X159084000Y-36042250D01*
X159084000Y-36195786D01*
X159137368Y-36324627D01*
X159107141Y-36368866D01*
X159076536Y-36520000D01*
X159076536Y-37120000D01*
X159103103Y-37261190D01*
X159137085Y-37314000D01*
X158679592Y-37314000D01*
X158161031Y-36795439D01*
X158161118Y-36695135D01*
X158057661Y-36444748D01*
X157866259Y-36253013D01*
X157616054Y-36149118D01*
X157345135Y-36148882D01*
X157094748Y-36252339D01*
X156903013Y-36443741D01*
X156799118Y-36693946D01*
X156798882Y-36964865D01*
X156902339Y-37215252D01*
X157093741Y-37406987D01*
X157343946Y-37510882D01*
X157445378Y-37510970D01*
X158065944Y-38131536D01*
X156315000Y-38131536D01*
X156173810Y-38158103D01*
X156044135Y-38241546D01*
X155957141Y-38368866D01*
X155926536Y-38520000D01*
X144016000Y-38520000D01*
X144016000Y-38100000D01*
X143977483Y-37906362D01*
X143867796Y-37742204D01*
X142597796Y-36472204D01*
X142433638Y-36362517D01*
X142240000Y-36324000D01*
X141342892Y-36324000D01*
X141396000Y-36195786D01*
X141396000Y-36042250D01*
X141300750Y-35947000D01*
X140367000Y-35947000D01*
X140367000Y-35967000D01*
X140113000Y-35967000D01*
X140113000Y-35947000D01*
X139179250Y-35947000D01*
X139084000Y-36042250D01*
X139084000Y-36195786D01*
X139137368Y-36324627D01*
X139107141Y-36368866D01*
X139076536Y-36520000D01*
X139076536Y-37120000D01*
X139103103Y-37261190D01*
X139137085Y-37314000D01*
X138994592Y-37314000D01*
X138476031Y-36795439D01*
X138476118Y-36695135D01*
X138372661Y-36444748D01*
X138181259Y-36253013D01*
X137931054Y-36149118D01*
X137660135Y-36148882D01*
X137409748Y-36252339D01*
X137218013Y-36443741D01*
X137114118Y-36693946D01*
X137113882Y-36964865D01*
X137217339Y-37215252D01*
X137408741Y-37406987D01*
X137658946Y-37510882D01*
X137760378Y-37510970D01*
X138380944Y-38131536D01*
X136315000Y-38131536D01*
X136173810Y-38158103D01*
X136044135Y-38241546D01*
X135957141Y-38368866D01*
X135926536Y-38520000D01*
X132586000Y-38520000D01*
X132586000Y-37465000D01*
X132547483Y-37271362D01*
X132437796Y-37107204D01*
X131792796Y-36462204D01*
X131628638Y-36352517D01*
X131435000Y-36314000D01*
X121347034Y-36314000D01*
X121396000Y-36195786D01*
X121396000Y-36042250D01*
X121300750Y-35947000D01*
X120367000Y-35947000D01*
X120367000Y-35967000D01*
X120113000Y-35967000D01*
X120113000Y-35947000D01*
X119179250Y-35947000D01*
X119084000Y-36042250D01*
X119084000Y-36195786D01*
X119137368Y-36324627D01*
X119107141Y-36368866D01*
X119076536Y-36520000D01*
X119076536Y-37080944D01*
X118791031Y-36795439D01*
X118791118Y-36695135D01*
X118687661Y-36444748D01*
X118496259Y-36253013D01*
X118246054Y-36149118D01*
X117975135Y-36148882D01*
X117724748Y-36252339D01*
X117533013Y-36443741D01*
X117429118Y-36693946D01*
X117428882Y-36964865D01*
X117532339Y-37215252D01*
X117723741Y-37406987D01*
X117973946Y-37510882D01*
X118075378Y-37510970D01*
X118695944Y-38131536D01*
X116315000Y-38131536D01*
X116173810Y-38158103D01*
X116044135Y-38241546D01*
X115957141Y-38368866D01*
X115926536Y-38520000D01*
X110943210Y-38520000D01*
X110847796Y-38377204D01*
X108932796Y-36462204D01*
X108768638Y-36352517D01*
X108575000Y-36314000D01*
X101347034Y-36314000D01*
X101396000Y-36195786D01*
X101396000Y-36042250D01*
X101300750Y-35947000D01*
X100367000Y-35947000D01*
X100367000Y-35967000D01*
X100113000Y-35967000D01*
X100113000Y-35947000D01*
X99179250Y-35947000D01*
X99084000Y-36042250D01*
X99084000Y-36195786D01*
X99137368Y-36324627D01*
X99107141Y-36368866D01*
X99076536Y-36520000D01*
X99076536Y-37120000D01*
X99103103Y-37261190D01*
X99137085Y-37314000D01*
X98989592Y-37314000D01*
X98471031Y-36795439D01*
X98471118Y-36695135D01*
X98367661Y-36444748D01*
X98176259Y-36253013D01*
X97926054Y-36149118D01*
X97655135Y-36148882D01*
X97404748Y-36252339D01*
X97213013Y-36443741D01*
X97109118Y-36693946D01*
X97108882Y-36964865D01*
X97212339Y-37215252D01*
X97403741Y-37406987D01*
X97653946Y-37510882D01*
X97755378Y-37510970D01*
X98375944Y-38131536D01*
X96315000Y-38131536D01*
X96173810Y-38158103D01*
X96044135Y-38241546D01*
X95957141Y-38368866D01*
X95926536Y-38520000D01*
X86903187Y-38520000D01*
X86936987Y-38486259D01*
X87040882Y-38236054D01*
X87041118Y-37965135D01*
X86937661Y-37714748D01*
X86746259Y-37523013D01*
X86496054Y-37419118D01*
X86225135Y-37418882D01*
X85974748Y-37522339D01*
X85783013Y-37713741D01*
X85679118Y-37963946D01*
X85678882Y-38234865D01*
X85782339Y-38485252D01*
X85854000Y-38557038D01*
X85854000Y-42943936D01*
X85242400Y-42943936D01*
X85101210Y-42970503D01*
X84971535Y-43053946D01*
X84884541Y-43181266D01*
X84853936Y-43332400D01*
X78867000Y-43332400D01*
X78867000Y-35879118D01*
X176444607Y-35879118D01*
X176654581Y-36312867D01*
X177018280Y-36635570D01*
X177477787Y-36794527D01*
X177673000Y-36710643D01*
X177673000Y-35687000D01*
X177927000Y-35687000D01*
X177927000Y-36710643D01*
X178122213Y-36794527D01*
X178581720Y-36635570D01*
X178945419Y-36312867D01*
X179155393Y-35879118D01*
X179094712Y-35687000D01*
X177927000Y-35687000D01*
X177673000Y-35687000D01*
X176505288Y-35687000D01*
X176444607Y-35879118D01*
X78867000Y-35879118D01*
X78867000Y-33442022D01*
X84228631Y-33442022D01*
X84552373Y-34225538D01*
X85151309Y-34825521D01*
X85934258Y-35150630D01*
X86782022Y-35151369D01*
X87565538Y-34827627D01*
X88165521Y-34228691D01*
X88490630Y-33445742D01*
X88490826Y-33220000D01*
X95926536Y-33220000D01*
X95926536Y-35120000D01*
X95953103Y-35261190D01*
X96036546Y-35390865D01*
X96163866Y-35477859D01*
X96315000Y-35508464D01*
X98715000Y-35508464D01*
X98856190Y-35481897D01*
X98914751Y-35444214D01*
X99084000Y-35444214D01*
X99084000Y-35597750D01*
X99179250Y-35693000D01*
X100113000Y-35693000D01*
X100113000Y-35234250D01*
X100367000Y-35234250D01*
X100367000Y-35693000D01*
X101300750Y-35693000D01*
X101396000Y-35597750D01*
X101396000Y-35444214D01*
X101337996Y-35304180D01*
X101230819Y-35197004D01*
X101090785Y-35139000D01*
X100462250Y-35139000D01*
X100367000Y-35234250D01*
X100113000Y-35234250D01*
X100017750Y-35139000D01*
X99389215Y-35139000D01*
X99249181Y-35197004D01*
X99142004Y-35304180D01*
X99084000Y-35444214D01*
X98914751Y-35444214D01*
X98985865Y-35398454D01*
X99072859Y-35271134D01*
X99103464Y-35120000D01*
X99103464Y-33220000D01*
X115926536Y-33220000D01*
X115926536Y-35120000D01*
X115953103Y-35261190D01*
X116036546Y-35390865D01*
X116163866Y-35477859D01*
X116315000Y-35508464D01*
X118715000Y-35508464D01*
X118856190Y-35481897D01*
X118914751Y-35444214D01*
X119084000Y-35444214D01*
X119084000Y-35597750D01*
X119179250Y-35693000D01*
X120113000Y-35693000D01*
X120113000Y-35234250D01*
X120367000Y-35234250D01*
X120367000Y-35693000D01*
X121300750Y-35693000D01*
X121396000Y-35597750D01*
X121396000Y-35444214D01*
X121337996Y-35304180D01*
X121230819Y-35197004D01*
X121090785Y-35139000D01*
X120462250Y-35139000D01*
X120367000Y-35234250D01*
X120113000Y-35234250D01*
X120017750Y-35139000D01*
X119389215Y-35139000D01*
X119249181Y-35197004D01*
X119142004Y-35304180D01*
X119084000Y-35444214D01*
X118914751Y-35444214D01*
X118985865Y-35398454D01*
X119072859Y-35271134D01*
X119103464Y-35120000D01*
X119103464Y-33220000D01*
X135926536Y-33220000D01*
X135926536Y-35120000D01*
X135953103Y-35261190D01*
X136036546Y-35390865D01*
X136163866Y-35477859D01*
X136315000Y-35508464D01*
X138715000Y-35508464D01*
X138856190Y-35481897D01*
X138914751Y-35444214D01*
X139084000Y-35444214D01*
X139084000Y-35597750D01*
X139179250Y-35693000D01*
X140113000Y-35693000D01*
X140113000Y-35234250D01*
X140367000Y-35234250D01*
X140367000Y-35693000D01*
X141300750Y-35693000D01*
X141396000Y-35597750D01*
X141396000Y-35444214D01*
X141337996Y-35304180D01*
X141230819Y-35197004D01*
X141090785Y-35139000D01*
X140462250Y-35139000D01*
X140367000Y-35234250D01*
X140113000Y-35234250D01*
X140017750Y-35139000D01*
X139389215Y-35139000D01*
X139249181Y-35197004D01*
X139142004Y-35304180D01*
X139084000Y-35444214D01*
X138914751Y-35444214D01*
X138985865Y-35398454D01*
X139072859Y-35271134D01*
X139103464Y-35120000D01*
X139103464Y-33220000D01*
X155926536Y-33220000D01*
X155926536Y-35120000D01*
X155953103Y-35261190D01*
X156036546Y-35390865D01*
X156163866Y-35477859D01*
X156315000Y-35508464D01*
X158715000Y-35508464D01*
X158856190Y-35481897D01*
X158914751Y-35444214D01*
X159084000Y-35444214D01*
X159084000Y-35597750D01*
X159179250Y-35693000D01*
X160113000Y-35693000D01*
X160113000Y-35234250D01*
X160367000Y-35234250D01*
X160367000Y-35693000D01*
X161300750Y-35693000D01*
X161396000Y-35597750D01*
X161396000Y-35444214D01*
X161337996Y-35304180D01*
X161274698Y-35240882D01*
X176444607Y-35240882D01*
X176505288Y-35433000D01*
X177673000Y-35433000D01*
X177673000Y-34409357D01*
X177927000Y-34409357D01*
X177927000Y-35433000D01*
X179094712Y-35433000D01*
X179155393Y-35240882D01*
X178945419Y-34807133D01*
X178581720Y-34484430D01*
X178122213Y-34325473D01*
X177927000Y-34409357D01*
X177673000Y-34409357D01*
X177477787Y-34325473D01*
X177018280Y-34484430D01*
X176654581Y-34807133D01*
X176444607Y-35240882D01*
X161274698Y-35240882D01*
X161230819Y-35197004D01*
X161090785Y-35139000D01*
X160462250Y-35139000D01*
X160367000Y-35234250D01*
X160113000Y-35234250D01*
X160017750Y-35139000D01*
X159389215Y-35139000D01*
X159249181Y-35197004D01*
X159142004Y-35304180D01*
X159084000Y-35444214D01*
X158914751Y-35444214D01*
X158985865Y-35398454D01*
X159072859Y-35271134D01*
X159103464Y-35120000D01*
X159103464Y-33220000D01*
X159076897Y-33078810D01*
X159039055Y-33020000D01*
X176375631Y-33020000D01*
X176470371Y-33496288D01*
X176740166Y-33900065D01*
X177143943Y-34169860D01*
X177620231Y-34264600D01*
X177979769Y-34264600D01*
X178456057Y-34169860D01*
X178859834Y-33900065D01*
X179129629Y-33496288D01*
X179140423Y-33442022D01*
X183288631Y-33442022D01*
X183612373Y-34225538D01*
X184211309Y-34825521D01*
X184994258Y-35150630D01*
X185842022Y-35151369D01*
X186625538Y-34827627D01*
X187225521Y-34228691D01*
X187550630Y-33445742D01*
X187551369Y-32597978D01*
X187227627Y-31814462D01*
X186628691Y-31214479D01*
X185845742Y-30889370D01*
X184997978Y-30888631D01*
X184214462Y-31212373D01*
X183614479Y-31811309D01*
X183289370Y-32594258D01*
X183288631Y-33442022D01*
X179140423Y-33442022D01*
X179224369Y-33020000D01*
X179129629Y-32543712D01*
X178859834Y-32139935D01*
X178456057Y-31870140D01*
X177979769Y-31775400D01*
X177620231Y-31775400D01*
X177143943Y-31870140D01*
X176740166Y-32139935D01*
X176470371Y-32543712D01*
X176375631Y-33020000D01*
X159039055Y-33020000D01*
X158993454Y-32949135D01*
X158866134Y-32862141D01*
X158715000Y-32831536D01*
X156315000Y-32831536D01*
X156173810Y-32858103D01*
X156044135Y-32941546D01*
X155957141Y-33068866D01*
X155926536Y-33220000D01*
X139103464Y-33220000D01*
X139076897Y-33078810D01*
X138993454Y-32949135D01*
X138866134Y-32862141D01*
X138715000Y-32831536D01*
X136315000Y-32831536D01*
X136173810Y-32858103D01*
X136044135Y-32941546D01*
X135957141Y-33068866D01*
X135926536Y-33220000D01*
X119103464Y-33220000D01*
X119076897Y-33078810D01*
X118993454Y-32949135D01*
X118866134Y-32862141D01*
X118715000Y-32831536D01*
X116315000Y-32831536D01*
X116173810Y-32858103D01*
X116044135Y-32941546D01*
X115957141Y-33068866D01*
X115926536Y-33220000D01*
X99103464Y-33220000D01*
X99076897Y-33078810D01*
X98993454Y-32949135D01*
X98866134Y-32862141D01*
X98715000Y-32831536D01*
X96315000Y-32831536D01*
X96173810Y-32858103D01*
X96044135Y-32941546D01*
X95957141Y-33068866D01*
X95926536Y-33220000D01*
X88490826Y-33220000D01*
X88491369Y-32597978D01*
X88167627Y-31814462D01*
X87568691Y-31214479D01*
X86785742Y-30889370D01*
X85937978Y-30888631D01*
X85154462Y-31212373D01*
X84554479Y-31811309D01*
X84229370Y-32594258D01*
X84228631Y-33442022D01*
X78867000Y-33442022D01*
X78867000Y-30607000D01*
X200533000Y-30607000D01*
X200533000Y-86233000D01*
X200533000Y-86233000D01*
G37*
X200533000Y-86233000D02*
X78867000Y-86233000D01*
X78867000Y-84242022D01*
X84228631Y-84242022D01*
X84552373Y-85025538D01*
X85151309Y-85625521D01*
X85934258Y-85950630D01*
X86782022Y-85951369D01*
X87565538Y-85627627D01*
X88165521Y-85028691D01*
X88490630Y-84245742D01*
X88491262Y-83520000D01*
X95926536Y-83520000D01*
X95926536Y-85420000D01*
X95953103Y-85561190D01*
X96036546Y-85690865D01*
X96163866Y-85777859D01*
X96315000Y-85808464D01*
X98715000Y-85808464D01*
X98856190Y-85781897D01*
X98985865Y-85698454D01*
X99072859Y-85571134D01*
X99103464Y-85420000D01*
X99103464Y-83520000D01*
X115926536Y-83520000D01*
X115926536Y-85420000D01*
X115953103Y-85561190D01*
X116036546Y-85690865D01*
X116163866Y-85777859D01*
X116315000Y-85808464D01*
X118715000Y-85808464D01*
X118856190Y-85781897D01*
X118985865Y-85698454D01*
X119072859Y-85571134D01*
X119103464Y-85420000D01*
X119103464Y-83520000D01*
X135926536Y-83520000D01*
X135926536Y-85420000D01*
X135953103Y-85561190D01*
X136036546Y-85690865D01*
X136163866Y-85777859D01*
X136315000Y-85808464D01*
X138715000Y-85808464D01*
X138856190Y-85781897D01*
X138985865Y-85698454D01*
X139072859Y-85571134D01*
X139103464Y-85420000D01*
X139103464Y-83520000D01*
X155926536Y-83520000D01*
X155926536Y-85420000D01*
X155953103Y-85561190D01*
X156036546Y-85690865D01*
X156163866Y-85777859D01*
X156315000Y-85808464D01*
X158715000Y-85808464D01*
X158856190Y-85781897D01*
X158985865Y-85698454D01*
X159072859Y-85571134D01*
X159103464Y-85420000D01*
X159103464Y-84242022D01*
X183288631Y-84242022D01*
X183612373Y-85025538D01*
X184211309Y-85625521D01*
X184994258Y-85950630D01*
X185842022Y-85951369D01*
X186625538Y-85627627D01*
X187225521Y-85028691D01*
X187550630Y-84245742D01*
X187551369Y-83397978D01*
X187227627Y-82614462D01*
X186628691Y-82014479D01*
X185845742Y-81689370D01*
X184997978Y-81688631D01*
X184214462Y-82012373D01*
X183614479Y-82611309D01*
X183289370Y-83394258D01*
X183288631Y-84242022D01*
X159103464Y-84242022D01*
X159103464Y-83520000D01*
X159076897Y-83378810D01*
X159042915Y-83326000D01*
X159144807Y-83326000D01*
X159186546Y-83390865D01*
X159313866Y-83477859D01*
X159465000Y-83508464D01*
X161015000Y-83508464D01*
X161156190Y-83481897D01*
X161285865Y-83398454D01*
X161372859Y-83271134D01*
X161403464Y-83120000D01*
X161403464Y-82520000D01*
X161376897Y-82378810D01*
X161342915Y-82326000D01*
X167100000Y-82326000D01*
X167293638Y-82287483D01*
X167457796Y-82177796D01*
X168133342Y-81502250D01*
X176403000Y-81502250D01*
X176403000Y-82219385D01*
X176461004Y-82359419D01*
X176568180Y-82466596D01*
X176708214Y-82524600D01*
X177577750Y-82524600D01*
X177673000Y-82429350D01*
X177673000Y-81407000D01*
X177927000Y-81407000D01*
X177927000Y-82429350D01*
X178022250Y-82524600D01*
X178891786Y-82524600D01*
X179031820Y-82466596D01*
X179138996Y-82359419D01*
X179197000Y-82219385D01*
X179197000Y-81502250D01*
X191643000Y-81502250D01*
X191643000Y-82219385D01*
X191701004Y-82359419D01*
X191808180Y-82466596D01*
X191948214Y-82524600D01*
X192817750Y-82524600D01*
X192913000Y-82429350D01*
X192913000Y-81407000D01*
X193167000Y-81407000D01*
X193167000Y-82429350D01*
X193262250Y-82524600D01*
X194131786Y-82524600D01*
X194271820Y-82466596D01*
X194378996Y-82359419D01*
X194437000Y-82219385D01*
X194437000Y-81502250D01*
X194341750Y-81407000D01*
X193167000Y-81407000D01*
X192913000Y-81407000D01*
X191738250Y-81407000D01*
X191643000Y-81502250D01*
X179197000Y-81502250D01*
X179101750Y-81407000D01*
X177927000Y-81407000D01*
X177673000Y-81407000D01*
X176498250Y-81407000D01*
X176403000Y-81502250D01*
X168133342Y-81502250D01*
X168632796Y-81002796D01*
X168742483Y-80838638D01*
X168781000Y-80645000D01*
X168781000Y-80340615D01*
X176403000Y-80340615D01*
X176403000Y-81057750D01*
X176498250Y-81153000D01*
X177673000Y-81153000D01*
X177673000Y-80130650D01*
X177927000Y-80130650D01*
X177927000Y-81153000D01*
X179101750Y-81153000D01*
X179197000Y-81057750D01*
X179197000Y-80340615D01*
X191643000Y-80340615D01*
X191643000Y-81057750D01*
X191738250Y-81153000D01*
X192913000Y-81153000D01*
X192913000Y-80130650D01*
X193167000Y-80130650D01*
X193167000Y-81153000D01*
X194341750Y-81153000D01*
X194437000Y-81057750D01*
X194437000Y-80340615D01*
X194378996Y-80200581D01*
X194271820Y-80093404D01*
X194131786Y-80035400D01*
X193262250Y-80035400D01*
X193167000Y-80130650D01*
X192913000Y-80130650D01*
X192817750Y-80035400D01*
X191948214Y-80035400D01*
X191808180Y-80093404D01*
X191701004Y-80200581D01*
X191643000Y-80340615D01*
X179197000Y-80340615D01*
X179138996Y-80200581D01*
X179031820Y-80093404D01*
X178891786Y-80035400D01*
X178022250Y-80035400D01*
X177927000Y-80130650D01*
X177673000Y-80130650D01*
X177577750Y-80035400D01*
X176708214Y-80035400D01*
X176568180Y-80093404D01*
X176461004Y-80200581D01*
X176403000Y-80340615D01*
X168781000Y-80340615D01*
X168781000Y-78740000D01*
X176375631Y-78740000D01*
X176470371Y-79216288D01*
X176740166Y-79620065D01*
X177143943Y-79889860D01*
X177620231Y-79984600D01*
X177979769Y-79984600D01*
X178456057Y-79889860D01*
X178859834Y-79620065D01*
X179129629Y-79216288D01*
X179224369Y-78740000D01*
X191615631Y-78740000D01*
X191710371Y-79216288D01*
X191980166Y-79620065D01*
X192383943Y-79889860D01*
X192860231Y-79984600D01*
X193219769Y-79984600D01*
X193696057Y-79889860D01*
X194099834Y-79620065D01*
X194369629Y-79216288D01*
X194464369Y-78740000D01*
X194369629Y-78263712D01*
X194099834Y-77859935D01*
X193696057Y-77590140D01*
X193219769Y-77495400D01*
X192860231Y-77495400D01*
X192383943Y-77590140D01*
X191980166Y-77859935D01*
X191710371Y-78263712D01*
X191615631Y-78740000D01*
X179224369Y-78740000D01*
X179129629Y-78263712D01*
X178859834Y-77859935D01*
X178456057Y-77590140D01*
X177979769Y-77495400D01*
X177620231Y-77495400D01*
X177143943Y-77590140D01*
X176740166Y-77859935D01*
X176470371Y-78263712D01*
X176375631Y-78740000D01*
X168781000Y-78740000D01*
X168781000Y-76200000D01*
X176375631Y-76200000D01*
X176470371Y-76676288D01*
X176740166Y-77080065D01*
X177143943Y-77349860D01*
X177620231Y-77444600D01*
X177979769Y-77444600D01*
X178456057Y-77349860D01*
X178859834Y-77080065D01*
X179129629Y-76676288D01*
X179224369Y-76200000D01*
X191615631Y-76200000D01*
X191710371Y-76676288D01*
X191980166Y-77080065D01*
X192383943Y-77349860D01*
X192860231Y-77444600D01*
X193219769Y-77444600D01*
X193696057Y-77349860D01*
X194099834Y-77080065D01*
X194369629Y-76676288D01*
X194464369Y-76200000D01*
X194369629Y-75723712D01*
X194099834Y-75319935D01*
X193696057Y-75050140D01*
X193219769Y-74955400D01*
X192860231Y-74955400D01*
X192383943Y-75050140D01*
X191980166Y-75319935D01*
X191710371Y-75723712D01*
X191615631Y-76200000D01*
X179224369Y-76200000D01*
X179129629Y-75723712D01*
X178859834Y-75319935D01*
X178456057Y-75050140D01*
X177979769Y-74955400D01*
X177620231Y-74955400D01*
X177143943Y-75050140D01*
X176740166Y-75319935D01*
X176470371Y-75723712D01*
X176375631Y-76200000D01*
X168781000Y-76200000D01*
X168781000Y-73660000D01*
X176375631Y-73660000D01*
X176470371Y-74136288D01*
X176740166Y-74540065D01*
X177143943Y-74809860D01*
X177620231Y-74904600D01*
X177979769Y-74904600D01*
X178456057Y-74809860D01*
X178859834Y-74540065D01*
X179129629Y-74136288D01*
X179224369Y-73660000D01*
X191615631Y-73660000D01*
X191710371Y-74136288D01*
X191980166Y-74540065D01*
X192383943Y-74809860D01*
X192860231Y-74904600D01*
X193219769Y-74904600D01*
X193696057Y-74809860D01*
X194099834Y-74540065D01*
X194369629Y-74136288D01*
X194464369Y-73660000D01*
X194369629Y-73183712D01*
X194099834Y-72779935D01*
X193696057Y-72510140D01*
X193219769Y-72415400D01*
X192860231Y-72415400D01*
X192383943Y-72510140D01*
X191980166Y-72779935D01*
X191710371Y-73183712D01*
X191615631Y-73660000D01*
X179224369Y-73660000D01*
X179129629Y-73183712D01*
X178859834Y-72779935D01*
X178456057Y-72510140D01*
X177979769Y-72415400D01*
X177620231Y-72415400D01*
X177143943Y-72510140D01*
X176740166Y-72779935D01*
X176470371Y-73183712D01*
X176375631Y-73660000D01*
X168781000Y-73660000D01*
X168781000Y-71120000D01*
X176375631Y-71120000D01*
X176470371Y-71596288D01*
X176740166Y-72000065D01*
X177143943Y-72269860D01*
X177620231Y-72364600D01*
X177979769Y-72364600D01*
X178456057Y-72269860D01*
X178859834Y-72000065D01*
X179129629Y-71596288D01*
X179224369Y-71120000D01*
X191615631Y-71120000D01*
X191710371Y-71596288D01*
X191980166Y-72000065D01*
X192383943Y-72269860D01*
X192860231Y-72364600D01*
X193219769Y-72364600D01*
X193696057Y-72269860D01*
X194099834Y-72000065D01*
X194369629Y-71596288D01*
X194464369Y-71120000D01*
X194369629Y-70643712D01*
X194099834Y-70239935D01*
X193696057Y-69970140D01*
X193219769Y-69875400D01*
X192860231Y-69875400D01*
X192383943Y-69970140D01*
X191980166Y-70239935D01*
X191710371Y-70643712D01*
X191615631Y-71120000D01*
X179224369Y-71120000D01*
X179129629Y-70643712D01*
X178859834Y-70239935D01*
X178456057Y-69970140D01*
X177979769Y-69875400D01*
X177620231Y-69875400D01*
X177143943Y-69970140D01*
X176740166Y-70239935D01*
X176470371Y-70643712D01*
X176375631Y-71120000D01*
X168781000Y-71120000D01*
X168781000Y-68580000D01*
X176375631Y-68580000D01*
X176470371Y-69056288D01*
X176740166Y-69460065D01*
X177143943Y-69729860D01*
X177620231Y-69824600D01*
X177979769Y-69824600D01*
X178456057Y-69729860D01*
X178859834Y-69460065D01*
X179129629Y-69056288D01*
X179224369Y-68580000D01*
X191615631Y-68580000D01*
X191710371Y-69056288D01*
X191980166Y-69460065D01*
X192383943Y-69729860D01*
X192860231Y-69824600D01*
X193219769Y-69824600D01*
X193696057Y-69729860D01*
X194099834Y-69460065D01*
X194369629Y-69056288D01*
X194464369Y-68580000D01*
X194369629Y-68103712D01*
X194099834Y-67699935D01*
X193696057Y-67430140D01*
X193219769Y-67335400D01*
X192860231Y-67335400D01*
X192383943Y-67430140D01*
X191980166Y-67699935D01*
X191710371Y-68103712D01*
X191615631Y-68580000D01*
X179224369Y-68580000D01*
X179129629Y-68103712D01*
X178859834Y-67699935D01*
X178456057Y-67430140D01*
X177979769Y-67335400D01*
X177620231Y-67335400D01*
X177143943Y-67430140D01*
X176740166Y-67699935D01*
X176470371Y-68103712D01*
X176375631Y-68580000D01*
X168781000Y-68580000D01*
X168781000Y-66040000D01*
X176375631Y-66040000D01*
X176470371Y-66516288D01*
X176740166Y-66920065D01*
X177143943Y-67189860D01*
X177620231Y-67284600D01*
X177979769Y-67284600D01*
X178456057Y-67189860D01*
X178859834Y-66920065D01*
X179129629Y-66516288D01*
X179224369Y-66040000D01*
X191615631Y-66040000D01*
X191710371Y-66516288D01*
X191980166Y-66920065D01*
X192383943Y-67189860D01*
X192860231Y-67284600D01*
X193219769Y-67284600D01*
X193696057Y-67189860D01*
X194099834Y-66920065D01*
X194369629Y-66516288D01*
X194464369Y-66040000D01*
X194369629Y-65563712D01*
X194099834Y-65159935D01*
X193696057Y-64890140D01*
X193219769Y-64795400D01*
X192860231Y-64795400D01*
X192383943Y-64890140D01*
X191980166Y-65159935D01*
X191710371Y-65563712D01*
X191615631Y-66040000D01*
X179224369Y-66040000D01*
X179129629Y-65563712D01*
X178859834Y-65159935D01*
X178456057Y-64890140D01*
X177979769Y-64795400D01*
X177620231Y-64795400D01*
X177143943Y-64890140D01*
X176740166Y-65159935D01*
X176470371Y-65563712D01*
X176375631Y-66040000D01*
X168781000Y-66040000D01*
X168781000Y-63500000D01*
X176375631Y-63500000D01*
X176470371Y-63976288D01*
X176740166Y-64380065D01*
X177143943Y-64649860D01*
X177620231Y-64744600D01*
X177979769Y-64744600D01*
X178456057Y-64649860D01*
X178859834Y-64380065D01*
X179129629Y-63976288D01*
X179224369Y-63500000D01*
X191615631Y-63500000D01*
X191710371Y-63976288D01*
X191980166Y-64380065D01*
X192383943Y-64649860D01*
X192860231Y-64744600D01*
X193219769Y-64744600D01*
X193696057Y-64649860D01*
X194099834Y-64380065D01*
X194369629Y-63976288D01*
X194464369Y-63500000D01*
X194369629Y-63023712D01*
X194099834Y-62619935D01*
X193696057Y-62350140D01*
X193219769Y-62255400D01*
X192860231Y-62255400D01*
X192383943Y-62350140D01*
X191980166Y-62619935D01*
X191710371Y-63023712D01*
X191615631Y-63500000D01*
X179224369Y-63500000D01*
X179129629Y-63023712D01*
X178859834Y-62619935D01*
X178456057Y-62350140D01*
X177979769Y-62255400D01*
X177620231Y-62255400D01*
X177143943Y-62350140D01*
X176740166Y-62619935D01*
X176470371Y-63023712D01*
X176375631Y-63500000D01*
X168781000Y-63500000D01*
X168781000Y-60960000D01*
X176375631Y-60960000D01*
X176470371Y-61436288D01*
X176740166Y-61840065D01*
X177143943Y-62109860D01*
X177620231Y-62204600D01*
X177979769Y-62204600D01*
X178456057Y-62109860D01*
X178859834Y-61840065D01*
X179129629Y-61436288D01*
X179224369Y-60960000D01*
X191615631Y-60960000D01*
X191710371Y-61436288D01*
X191980166Y-61840065D01*
X192383943Y-62109860D01*
X192860231Y-62204600D01*
X193219769Y-62204600D01*
X193696057Y-62109860D01*
X194099834Y-61840065D01*
X194369629Y-61436288D01*
X194464369Y-60960000D01*
X194369629Y-60483712D01*
X194099834Y-60079935D01*
X193696057Y-59810140D01*
X193219769Y-59715400D01*
X192860231Y-59715400D01*
X192383943Y-59810140D01*
X191980166Y-60079935D01*
X191710371Y-60483712D01*
X191615631Y-60960000D01*
X179224369Y-60960000D01*
X179129629Y-60483712D01*
X178859834Y-60079935D01*
X178456057Y-59810140D01*
X177979769Y-59715400D01*
X177620231Y-59715400D01*
X177143943Y-59810140D01*
X176740166Y-60079935D01*
X176470371Y-60483712D01*
X176375631Y-60960000D01*
X168781000Y-60960000D01*
X168781000Y-58420000D01*
X176375631Y-58420000D01*
X176470371Y-58896288D01*
X176740166Y-59300065D01*
X177143943Y-59569860D01*
X177620231Y-59664600D01*
X177979769Y-59664600D01*
X178456057Y-59569860D01*
X178859834Y-59300065D01*
X179129629Y-58896288D01*
X179224369Y-58420000D01*
X191615631Y-58420000D01*
X191710371Y-58896288D01*
X191980166Y-59300065D01*
X192383943Y-59569860D01*
X192860231Y-59664600D01*
X193219769Y-59664600D01*
X193696057Y-59569860D01*
X194099834Y-59300065D01*
X194369629Y-58896288D01*
X194464369Y-58420000D01*
X194369629Y-57943712D01*
X194099834Y-57539935D01*
X193696057Y-57270140D01*
X193219769Y-57175400D01*
X192860231Y-57175400D01*
X192383943Y-57270140D01*
X191980166Y-57539935D01*
X191710371Y-57943712D01*
X191615631Y-58420000D01*
X179224369Y-58420000D01*
X179129629Y-57943712D01*
X178859834Y-57539935D01*
X178456057Y-57270140D01*
X177979769Y-57175400D01*
X177620231Y-57175400D01*
X177143943Y-57270140D01*
X176740166Y-57539935D01*
X176470371Y-57943712D01*
X176375631Y-58420000D01*
X168781000Y-58420000D01*
X168781000Y-56337123D01*
X168851987Y-56266259D01*
X168955882Y-56016054D01*
X168956000Y-55880000D01*
X176375631Y-55880000D01*
X176470371Y-56356288D01*
X176740166Y-56760065D01*
X177143943Y-57029860D01*
X177620231Y-57124600D01*
X177979769Y-57124600D01*
X178456057Y-57029860D01*
X178859834Y-56760065D01*
X179129629Y-56356288D01*
X179224369Y-55880000D01*
X191615631Y-55880000D01*
X191710371Y-56356288D01*
X191980166Y-56760065D01*
X192383943Y-57029860D01*
X192860231Y-57124600D01*
X193219769Y-57124600D01*
X193696057Y-57029860D01*
X194099834Y-56760065D01*
X194369629Y-56356288D01*
X194464369Y-55880000D01*
X194369629Y-55403712D01*
X194099834Y-54999935D01*
X193696057Y-54730140D01*
X193219769Y-54635400D01*
X192860231Y-54635400D01*
X192383943Y-54730140D01*
X191980166Y-54999935D01*
X191710371Y-55403712D01*
X191615631Y-55880000D01*
X179224369Y-55880000D01*
X179129629Y-55403712D01*
X178859834Y-54999935D01*
X178456057Y-54730140D01*
X177979769Y-54635400D01*
X177620231Y-54635400D01*
X177143943Y-54730140D01*
X176740166Y-54999935D01*
X176470371Y-55403712D01*
X176375631Y-55880000D01*
X168956000Y-55880000D01*
X168956118Y-55745135D01*
X168852661Y-55494748D01*
X168661259Y-55303013D01*
X168411054Y-55199118D01*
X168140135Y-55198882D01*
X167889748Y-55302339D01*
X167698013Y-55493741D01*
X167594118Y-55743946D01*
X167593882Y-56014865D01*
X167697339Y-56265252D01*
X167769000Y-56337038D01*
X167769000Y-80435408D01*
X166890408Y-81314000D01*
X161347034Y-81314000D01*
X161396000Y-81195786D01*
X161396000Y-81042250D01*
X161300750Y-80947000D01*
X160367000Y-80947000D01*
X160367000Y-80967000D01*
X160113000Y-80967000D01*
X160113000Y-80947000D01*
X159179250Y-80947000D01*
X159084000Y-81042250D01*
X159084000Y-81195786D01*
X159137368Y-81324627D01*
X159107141Y-81368866D01*
X159076536Y-81520000D01*
X159076536Y-82120000D01*
X159103103Y-82261190D01*
X159137085Y-82314000D01*
X158754330Y-82314000D01*
X158692661Y-82164748D01*
X158501259Y-81973013D01*
X158251054Y-81869118D01*
X157980135Y-81868882D01*
X157729748Y-81972339D01*
X157538013Y-82163741D01*
X157434118Y-82413946D01*
X157433882Y-82684865D01*
X157537339Y-82935252D01*
X157728741Y-83126987D01*
X157739696Y-83131536D01*
X156315000Y-83131536D01*
X156173810Y-83158103D01*
X156044135Y-83241546D01*
X155957141Y-83368866D01*
X155926536Y-83520000D01*
X139103464Y-83520000D01*
X139076897Y-83378810D01*
X139042915Y-83326000D01*
X139144807Y-83326000D01*
X139186546Y-83390865D01*
X139313866Y-83477859D01*
X139465000Y-83508464D01*
X141015000Y-83508464D01*
X141156190Y-83481897D01*
X141285865Y-83398454D01*
X141372859Y-83271134D01*
X141403464Y-83120000D01*
X141403464Y-82520000D01*
X141376897Y-82378810D01*
X141342915Y-82326000D01*
X144240000Y-82326000D01*
X144433638Y-82287483D01*
X144597796Y-82177796D01*
X146407796Y-80367796D01*
X146461646Y-80287204D01*
X146517483Y-80203638D01*
X146556000Y-80010000D01*
X146556000Y-78220000D01*
X155926536Y-78220000D01*
X155926536Y-80120000D01*
X155953103Y-80261190D01*
X156036546Y-80390865D01*
X156163866Y-80477859D01*
X156315000Y-80508464D01*
X158715000Y-80508464D01*
X158856190Y-80481897D01*
X158914751Y-80444214D01*
X159084000Y-80444214D01*
X159084000Y-80597750D01*
X159179250Y-80693000D01*
X160113000Y-80693000D01*
X160113000Y-80234250D01*
X160367000Y-80234250D01*
X160367000Y-80693000D01*
X161300750Y-80693000D01*
X161396000Y-80597750D01*
X161396000Y-80444214D01*
X161337996Y-80304180D01*
X161230819Y-80197004D01*
X161090785Y-80139000D01*
X160462250Y-80139000D01*
X160367000Y-80234250D01*
X160113000Y-80234250D01*
X160017750Y-80139000D01*
X159389215Y-80139000D01*
X159249181Y-80197004D01*
X159142004Y-80304180D01*
X159084000Y-80444214D01*
X158914751Y-80444214D01*
X158985865Y-80398454D01*
X159072859Y-80271134D01*
X159103464Y-80120000D01*
X159103464Y-78220000D01*
X159076897Y-78078810D01*
X158993454Y-77949135D01*
X158866134Y-77862141D01*
X158715000Y-77831536D01*
X156315000Y-77831536D01*
X156173810Y-77858103D01*
X156044135Y-77941546D01*
X155957141Y-78068866D01*
X155926536Y-78220000D01*
X146556000Y-78220000D01*
X146556000Y-68520000D01*
X155926536Y-68520000D01*
X155926536Y-70420000D01*
X155953103Y-70561190D01*
X156036546Y-70690865D01*
X156163866Y-70777859D01*
X156315000Y-70808464D01*
X158715000Y-70808464D01*
X158856190Y-70781897D01*
X158985865Y-70698454D01*
X159072859Y-70571134D01*
X159103464Y-70420000D01*
X159103464Y-68520000D01*
X159076897Y-68378810D01*
X159042915Y-68326000D01*
X159144807Y-68326000D01*
X159186546Y-68390865D01*
X159313866Y-68477859D01*
X159465000Y-68508464D01*
X161015000Y-68508464D01*
X161156190Y-68481897D01*
X161285865Y-68398454D01*
X161372859Y-68271134D01*
X161403464Y-68120000D01*
X161403464Y-67520000D01*
X161376897Y-67378810D01*
X161342915Y-67326000D01*
X164320000Y-67326000D01*
X164513638Y-67287483D01*
X164677796Y-67177796D01*
X166727796Y-65127796D01*
X166837483Y-64963638D01*
X166876000Y-64770000D01*
X166876000Y-53340000D01*
X176375631Y-53340000D01*
X176470371Y-53816288D01*
X176740166Y-54220065D01*
X177143943Y-54489860D01*
X177620231Y-54584600D01*
X177979769Y-54584600D01*
X178456057Y-54489860D01*
X178859834Y-54220065D01*
X179129629Y-53816288D01*
X179224369Y-53340000D01*
X191615631Y-53340000D01*
X191710371Y-53816288D01*
X191980166Y-54220065D01*
X192383943Y-54489860D01*
X192860231Y-54584600D01*
X193219769Y-54584600D01*
X193696057Y-54489860D01*
X194099834Y-54220065D01*
X194369629Y-53816288D01*
X194464369Y-53340000D01*
X194369629Y-52863712D01*
X194099834Y-52459935D01*
X193696057Y-52190140D01*
X193219769Y-52095400D01*
X192860231Y-52095400D01*
X192383943Y-52190140D01*
X191980166Y-52459935D01*
X191710371Y-52863712D01*
X191615631Y-53340000D01*
X179224369Y-53340000D01*
X179129629Y-52863712D01*
X178859834Y-52459935D01*
X178456057Y-52190140D01*
X177979769Y-52095400D01*
X177620231Y-52095400D01*
X177143943Y-52190140D01*
X176740166Y-52459935D01*
X176470371Y-52863712D01*
X176375631Y-53340000D01*
X166876000Y-53340000D01*
X166876000Y-51257123D01*
X166946987Y-51186259D01*
X167050882Y-50936054D01*
X167051000Y-50800000D01*
X176375631Y-50800000D01*
X176470371Y-51276288D01*
X176740166Y-51680065D01*
X177143943Y-51949860D01*
X177620231Y-52044600D01*
X177979769Y-52044600D01*
X178456057Y-51949860D01*
X178859834Y-51680065D01*
X179129629Y-51276288D01*
X179224369Y-50800000D01*
X191615631Y-50800000D01*
X191710371Y-51276288D01*
X191980166Y-51680065D01*
X192383943Y-51949860D01*
X192860231Y-52044600D01*
X193219769Y-52044600D01*
X193696057Y-51949860D01*
X194099834Y-51680065D01*
X194369629Y-51276288D01*
X194464369Y-50800000D01*
X194369629Y-50323712D01*
X194099834Y-49919935D01*
X193696057Y-49650140D01*
X193219769Y-49555400D01*
X192860231Y-49555400D01*
X192383943Y-49650140D01*
X191980166Y-49919935D01*
X191710371Y-50323712D01*
X191615631Y-50800000D01*
X179224369Y-50800000D01*
X179129629Y-50323712D01*
X178859834Y-49919935D01*
X178456057Y-49650140D01*
X177979769Y-49555400D01*
X177620231Y-49555400D01*
X177143943Y-49650140D01*
X176740166Y-49919935D01*
X176470371Y-50323712D01*
X176375631Y-50800000D01*
X167051000Y-50800000D01*
X167051118Y-50665135D01*
X166947661Y-50414748D01*
X166756259Y-50223013D01*
X166506054Y-50119118D01*
X166235135Y-50118882D01*
X165984748Y-50222339D01*
X165793013Y-50413741D01*
X165689118Y-50663946D01*
X165688882Y-50934865D01*
X165792339Y-51185252D01*
X165864000Y-51257038D01*
X165864000Y-64560408D01*
X164110408Y-66314000D01*
X161347034Y-66314000D01*
X161396000Y-66195786D01*
X161396000Y-66042250D01*
X161300750Y-65947000D01*
X160367000Y-65947000D01*
X160367000Y-65967000D01*
X160113000Y-65967000D01*
X160113000Y-65947000D01*
X159179250Y-65947000D01*
X159084000Y-66042250D01*
X159084000Y-66195786D01*
X159137368Y-66324627D01*
X159107141Y-66368866D01*
X159076536Y-66520000D01*
X159076536Y-67120000D01*
X159103103Y-67261190D01*
X159137085Y-67314000D01*
X158199592Y-67314000D01*
X158161031Y-67275439D01*
X158161118Y-67175135D01*
X158057661Y-66924748D01*
X157866259Y-66733013D01*
X157616054Y-66629118D01*
X157345135Y-66628882D01*
X157094748Y-66732339D01*
X156903013Y-66923741D01*
X156799118Y-67173946D01*
X156798882Y-67444865D01*
X156902339Y-67695252D01*
X157093741Y-67886987D01*
X157343946Y-67990882D01*
X157445378Y-67990970D01*
X157585944Y-68131536D01*
X156315000Y-68131536D01*
X156173810Y-68158103D01*
X156044135Y-68241546D01*
X155957141Y-68368866D01*
X155926536Y-68520000D01*
X146556000Y-68520000D01*
X146556000Y-63220000D01*
X155926536Y-63220000D01*
X155926536Y-65120000D01*
X155953103Y-65261190D01*
X156036546Y-65390865D01*
X156163866Y-65477859D01*
X156315000Y-65508464D01*
X158715000Y-65508464D01*
X158856190Y-65481897D01*
X158914751Y-65444214D01*
X159084000Y-65444214D01*
X159084000Y-65597750D01*
X159179250Y-65693000D01*
X160113000Y-65693000D01*
X160113000Y-65234250D01*
X160367000Y-65234250D01*
X160367000Y-65693000D01*
X161300750Y-65693000D01*
X161396000Y-65597750D01*
X161396000Y-65444214D01*
X161337996Y-65304180D01*
X161230819Y-65197004D01*
X161090785Y-65139000D01*
X160462250Y-65139000D01*
X160367000Y-65234250D01*
X160113000Y-65234250D01*
X160017750Y-65139000D01*
X159389215Y-65139000D01*
X159249181Y-65197004D01*
X159142004Y-65304180D01*
X159084000Y-65444214D01*
X158914751Y-65444214D01*
X158985865Y-65398454D01*
X159072859Y-65271134D01*
X159103464Y-65120000D01*
X159103464Y-63220000D01*
X159076897Y-63078810D01*
X158993454Y-62949135D01*
X158866134Y-62862141D01*
X158715000Y-62831536D01*
X156315000Y-62831536D01*
X156173810Y-62858103D01*
X156044135Y-62941546D01*
X155957141Y-63068866D01*
X155926536Y-63220000D01*
X146556000Y-63220000D01*
X146556000Y-58877123D01*
X146626987Y-58806259D01*
X146730882Y-58556054D01*
X146731118Y-58285135D01*
X146627661Y-58034748D01*
X146436259Y-57843013D01*
X146186054Y-57739118D01*
X145915135Y-57738882D01*
X145664748Y-57842339D01*
X145473013Y-58033741D01*
X145369118Y-58283946D01*
X145368882Y-58554865D01*
X145472339Y-58805252D01*
X145544000Y-58877038D01*
X145544000Y-79800408D01*
X144030408Y-81314000D01*
X141347034Y-81314000D01*
X141396000Y-81195786D01*
X141396000Y-81042250D01*
X141300750Y-80947000D01*
X140367000Y-80947000D01*
X140367000Y-80967000D01*
X140113000Y-80967000D01*
X140113000Y-80947000D01*
X139179250Y-80947000D01*
X139084000Y-81042250D01*
X139084000Y-81195786D01*
X139137368Y-81324627D01*
X139107141Y-81368866D01*
X139076536Y-81520000D01*
X139076536Y-82120000D01*
X139103103Y-82261190D01*
X139137085Y-82314000D01*
X139069330Y-82314000D01*
X139007661Y-82164748D01*
X138816259Y-81973013D01*
X138566054Y-81869118D01*
X138295135Y-81868882D01*
X138044748Y-81972339D01*
X137853013Y-82163741D01*
X137749118Y-82413946D01*
X137748882Y-82684865D01*
X137852339Y-82935252D01*
X138043741Y-83126987D01*
X138054696Y-83131536D01*
X136315000Y-83131536D01*
X136173810Y-83158103D01*
X136044135Y-83241546D01*
X135957141Y-83368866D01*
X135926536Y-83520000D01*
X119103464Y-83520000D01*
X119076897Y-83378810D01*
X119042915Y-83326000D01*
X119144807Y-83326000D01*
X119186546Y-83390865D01*
X119313866Y-83477859D01*
X119465000Y-83508464D01*
X121015000Y-83508464D01*
X121156190Y-83481897D01*
X121285865Y-83398454D01*
X121372859Y-83271134D01*
X121403464Y-83120000D01*
X121403464Y-82520000D01*
X121376897Y-82378810D01*
X121342915Y-82326000D01*
X125190000Y-82326000D01*
X125383638Y-82287483D01*
X125547796Y-82177796D01*
X126087796Y-81637796D01*
X126197483Y-81473638D01*
X126236000Y-81280000D01*
X126236000Y-78220000D01*
X135926536Y-78220000D01*
X135926536Y-80120000D01*
X135953103Y-80261190D01*
X136036546Y-80390865D01*
X136163866Y-80477859D01*
X136315000Y-80508464D01*
X138715000Y-80508464D01*
X138856190Y-80481897D01*
X138914751Y-80444214D01*
X139084000Y-80444214D01*
X139084000Y-80597750D01*
X139179250Y-80693000D01*
X140113000Y-80693000D01*
X140113000Y-80234250D01*
X140367000Y-80234250D01*
X140367000Y-80693000D01*
X141300750Y-80693000D01*
X141396000Y-80597750D01*
X141396000Y-80444214D01*
X141337996Y-80304180D01*
X141230819Y-80197004D01*
X141090785Y-80139000D01*
X140462250Y-80139000D01*
X140367000Y-80234250D01*
X140113000Y-80234250D01*
X140017750Y-80139000D01*
X139389215Y-80139000D01*
X139249181Y-80197004D01*
X139142004Y-80304180D01*
X139084000Y-80444214D01*
X138914751Y-80444214D01*
X138985865Y-80398454D01*
X139072859Y-80271134D01*
X139103464Y-80120000D01*
X139103464Y-78220000D01*
X139076897Y-78078810D01*
X138993454Y-77949135D01*
X138866134Y-77862141D01*
X138715000Y-77831536D01*
X136315000Y-77831536D01*
X136173810Y-77858103D01*
X136044135Y-77941546D01*
X135957141Y-78068866D01*
X135926536Y-78220000D01*
X126236000Y-78220000D01*
X126236000Y-76657123D01*
X126306987Y-76586259D01*
X126410882Y-76336054D01*
X126411118Y-76065135D01*
X126307661Y-75814748D01*
X126116259Y-75623013D01*
X125866054Y-75519118D01*
X125595135Y-75518882D01*
X125344748Y-75622339D01*
X125153013Y-75813741D01*
X125049118Y-76063946D01*
X125048882Y-76334865D01*
X125152339Y-76585252D01*
X125224000Y-76657038D01*
X125224000Y-81070408D01*
X124980408Y-81314000D01*
X121347034Y-81314000D01*
X121396000Y-81195786D01*
X121396000Y-81042250D01*
X121300750Y-80947000D01*
X120367000Y-80947000D01*
X120367000Y-80967000D01*
X120113000Y-80967000D01*
X120113000Y-80947000D01*
X119179250Y-80947000D01*
X119084000Y-81042250D01*
X119084000Y-81195786D01*
X119137368Y-81324627D01*
X119107141Y-81368866D01*
X119076536Y-81520000D01*
X119076536Y-82120000D01*
X119103103Y-82261190D01*
X119137085Y-82314000D01*
X118114330Y-82314000D01*
X118052661Y-82164748D01*
X117861259Y-81973013D01*
X117611054Y-81869118D01*
X117340135Y-81868882D01*
X117089748Y-81972339D01*
X116898013Y-82163741D01*
X116794118Y-82413946D01*
X116793882Y-82684865D01*
X116897339Y-82935252D01*
X117088741Y-83126987D01*
X117099696Y-83131536D01*
X116315000Y-83131536D01*
X116173810Y-83158103D01*
X116044135Y-83241546D01*
X115957141Y-83368866D01*
X115926536Y-83520000D01*
X99103464Y-83520000D01*
X99076897Y-83378810D01*
X99042915Y-83326000D01*
X99144807Y-83326000D01*
X99186546Y-83390865D01*
X99313866Y-83477859D01*
X99465000Y-83508464D01*
X101015000Y-83508464D01*
X101156190Y-83481897D01*
X101285865Y-83398454D01*
X101372859Y-83271134D01*
X101403464Y-83120000D01*
X101403464Y-82520000D01*
X101376897Y-82378810D01*
X101342915Y-82326000D01*
X104870000Y-82326000D01*
X105063638Y-82287483D01*
X105227796Y-82177796D01*
X105767796Y-81637796D01*
X105877483Y-81473638D01*
X105916000Y-81280000D01*
X105916000Y-79197123D01*
X105986987Y-79126259D01*
X106090882Y-78876054D01*
X106091118Y-78605135D01*
X105987661Y-78354748D01*
X105853148Y-78220000D01*
X115926536Y-78220000D01*
X115926536Y-80120000D01*
X115953103Y-80261190D01*
X116036546Y-80390865D01*
X116163866Y-80477859D01*
X116315000Y-80508464D01*
X118715000Y-80508464D01*
X118856190Y-80481897D01*
X118914751Y-80444214D01*
X119084000Y-80444214D01*
X119084000Y-80597750D01*
X119179250Y-80693000D01*
X120113000Y-80693000D01*
X120113000Y-80234250D01*
X120367000Y-80234250D01*
X120367000Y-80693000D01*
X121300750Y-80693000D01*
X121396000Y-80597750D01*
X121396000Y-80444214D01*
X121337996Y-80304180D01*
X121230819Y-80197004D01*
X121090785Y-80139000D01*
X120462250Y-80139000D01*
X120367000Y-80234250D01*
X120113000Y-80234250D01*
X120017750Y-80139000D01*
X119389215Y-80139000D01*
X119249181Y-80197004D01*
X119142004Y-80304180D01*
X119084000Y-80444214D01*
X118914751Y-80444214D01*
X118985865Y-80398454D01*
X119072859Y-80271134D01*
X119103464Y-80120000D01*
X119103464Y-78220000D01*
X119076897Y-78078810D01*
X118993454Y-77949135D01*
X118866134Y-77862141D01*
X118715000Y-77831536D01*
X116315000Y-77831536D01*
X116173810Y-77858103D01*
X116044135Y-77941546D01*
X115957141Y-78068866D01*
X115926536Y-78220000D01*
X105853148Y-78220000D01*
X105796259Y-78163013D01*
X105546054Y-78059118D01*
X105275135Y-78058882D01*
X105024748Y-78162339D01*
X104833013Y-78353741D01*
X104729118Y-78603946D01*
X104728882Y-78874865D01*
X104832339Y-79125252D01*
X104904000Y-79197038D01*
X104904000Y-81070408D01*
X104660408Y-81314000D01*
X101347034Y-81314000D01*
X101396000Y-81195786D01*
X101396000Y-81042250D01*
X101300750Y-80947000D01*
X100367000Y-80947000D01*
X100367000Y-80967000D01*
X100113000Y-80967000D01*
X100113000Y-80947000D01*
X99179250Y-80947000D01*
X99084000Y-81042250D01*
X99084000Y-81195786D01*
X99137368Y-81324627D01*
X99107141Y-81368866D01*
X99076536Y-81520000D01*
X99076536Y-82120000D01*
X99103103Y-82261190D01*
X99137085Y-82314000D01*
X97794330Y-82314000D01*
X97732661Y-82164748D01*
X97541259Y-81973013D01*
X97291054Y-81869118D01*
X97020135Y-81868882D01*
X96769748Y-81972339D01*
X96578013Y-82163741D01*
X96474118Y-82413946D01*
X96473882Y-82684865D01*
X96577339Y-82935252D01*
X96768741Y-83126987D01*
X96779696Y-83131536D01*
X96315000Y-83131536D01*
X96173810Y-83158103D01*
X96044135Y-83241546D01*
X95957141Y-83368866D01*
X95926536Y-83520000D01*
X88491262Y-83520000D01*
X88491369Y-83397978D01*
X88167627Y-82614462D01*
X87568691Y-82014479D01*
X86785742Y-81689370D01*
X85937978Y-81688631D01*
X85154462Y-82012373D01*
X84554479Y-82611309D01*
X84229370Y-83394258D01*
X84228631Y-84242022D01*
X78867000Y-84242022D01*
X78867000Y-78220000D01*
X95926536Y-78220000D01*
X95926536Y-80120000D01*
X95953103Y-80261190D01*
X96036546Y-80390865D01*
X96163866Y-80477859D01*
X96315000Y-80508464D01*
X98715000Y-80508464D01*
X98856190Y-80481897D01*
X98914751Y-80444214D01*
X99084000Y-80444214D01*
X99084000Y-80597750D01*
X99179250Y-80693000D01*
X100113000Y-80693000D01*
X100113000Y-80234250D01*
X100367000Y-80234250D01*
X100367000Y-80693000D01*
X101300750Y-80693000D01*
X101396000Y-80597750D01*
X101396000Y-80444214D01*
X101337996Y-80304180D01*
X101230819Y-80197004D01*
X101090785Y-80139000D01*
X100462250Y-80139000D01*
X100367000Y-80234250D01*
X100113000Y-80234250D01*
X100017750Y-80139000D01*
X99389215Y-80139000D01*
X99249181Y-80197004D01*
X99142004Y-80304180D01*
X99084000Y-80444214D01*
X98914751Y-80444214D01*
X98985865Y-80398454D01*
X99072859Y-80271134D01*
X99103464Y-80120000D01*
X99103464Y-78220000D01*
X99076897Y-78078810D01*
X98993454Y-77949135D01*
X98866134Y-77862141D01*
X98715000Y-77831536D01*
X96315000Y-77831536D01*
X96173810Y-77858103D01*
X96044135Y-77941546D01*
X95957141Y-78068866D01*
X95926536Y-78220000D01*
X78867000Y-78220000D01*
X78867000Y-68520000D01*
X95926536Y-68520000D01*
X95926536Y-70420000D01*
X95953103Y-70561190D01*
X96036546Y-70690865D01*
X96163866Y-70777859D01*
X96315000Y-70808464D01*
X98715000Y-70808464D01*
X98856190Y-70781897D01*
X98985865Y-70698454D01*
X99072859Y-70571134D01*
X99103464Y-70420000D01*
X99103464Y-68520000D01*
X99076897Y-68378810D01*
X99042915Y-68326000D01*
X99144807Y-68326000D01*
X99186546Y-68390865D01*
X99313866Y-68477859D01*
X99465000Y-68508464D01*
X101015000Y-68508464D01*
X101156190Y-68481897D01*
X101285865Y-68398454D01*
X101372859Y-68271134D01*
X101403464Y-68120000D01*
X101403464Y-67520000D01*
X101376897Y-67378810D01*
X101342915Y-67326000D01*
X104710408Y-67326000D01*
X104904000Y-67519592D01*
X104904000Y-73202877D01*
X104833013Y-73273741D01*
X104729118Y-73523946D01*
X104728882Y-73794865D01*
X104832339Y-74045252D01*
X105023741Y-74236987D01*
X105273946Y-74340882D01*
X105544865Y-74341118D01*
X105795252Y-74237661D01*
X105986987Y-74046259D01*
X106090882Y-73796054D01*
X106091118Y-73525135D01*
X105987661Y-73274748D01*
X105916000Y-73202962D01*
X105916000Y-67310000D01*
X105877483Y-67116362D01*
X105767796Y-66952204D01*
X105277796Y-66462204D01*
X105113638Y-66352517D01*
X104920000Y-66314000D01*
X101347034Y-66314000D01*
X101396000Y-66195786D01*
X101396000Y-66042250D01*
X101300750Y-65947000D01*
X100367000Y-65947000D01*
X100367000Y-65967000D01*
X100113000Y-65967000D01*
X100113000Y-65947000D01*
X99179250Y-65947000D01*
X99084000Y-66042250D01*
X99084000Y-66195786D01*
X99137368Y-66324627D01*
X99107141Y-66368866D01*
X99076536Y-66520000D01*
X99076536Y-67120000D01*
X99103103Y-67261190D01*
X99137085Y-67314000D01*
X98509592Y-67314000D01*
X98471031Y-67275439D01*
X98471118Y-67175135D01*
X98367661Y-66924748D01*
X98176259Y-66733013D01*
X97926054Y-66629118D01*
X97655135Y-66628882D01*
X97404748Y-66732339D01*
X97213013Y-66923741D01*
X97109118Y-67173946D01*
X97108882Y-67444865D01*
X97212339Y-67695252D01*
X97403741Y-67886987D01*
X97653946Y-67990882D01*
X97755378Y-67990970D01*
X97895944Y-68131536D01*
X96315000Y-68131536D01*
X96173810Y-68158103D01*
X96044135Y-68241546D01*
X95957141Y-68368866D01*
X95926536Y-68520000D01*
X78867000Y-68520000D01*
X78867000Y-63220000D01*
X95926536Y-63220000D01*
X95926536Y-65120000D01*
X95953103Y-65261190D01*
X96036546Y-65390865D01*
X96163866Y-65477859D01*
X96315000Y-65508464D01*
X98715000Y-65508464D01*
X98856190Y-65481897D01*
X98914751Y-65444214D01*
X99084000Y-65444214D01*
X99084000Y-65597750D01*
X99179250Y-65693000D01*
X100113000Y-65693000D01*
X100113000Y-65234250D01*
X100367000Y-65234250D01*
X100367000Y-65693000D01*
X101300750Y-65693000D01*
X101396000Y-65597750D01*
X101396000Y-65444214D01*
X101337996Y-65304180D01*
X101230819Y-65197004D01*
X101090785Y-65139000D01*
X100462250Y-65139000D01*
X100367000Y-65234250D01*
X100113000Y-65234250D01*
X100017750Y-65139000D01*
X99389215Y-65139000D01*
X99249181Y-65197004D01*
X99142004Y-65304180D01*
X99084000Y-65444214D01*
X98914751Y-65444214D01*
X98985865Y-65398454D01*
X99072859Y-65271134D01*
X99103464Y-65120000D01*
X99103464Y-63220000D01*
X99076897Y-63078810D01*
X98993454Y-62949135D01*
X98866134Y-62862141D01*
X98715000Y-62831536D01*
X96315000Y-62831536D01*
X96173810Y-62858103D01*
X96044135Y-62941546D01*
X95957141Y-63068866D01*
X95926536Y-63220000D01*
X78867000Y-63220000D01*
X78867000Y-59280668D01*
X82013307Y-59280668D01*
X82673543Y-60878561D01*
X83895009Y-62102160D01*
X85491747Y-62765184D01*
X87220668Y-62766693D01*
X88818561Y-62106457D01*
X90042160Y-60884991D01*
X90705184Y-59288253D01*
X90706693Y-57559332D01*
X90046457Y-55961439D01*
X88824991Y-54737840D01*
X87228253Y-54074816D01*
X85499332Y-54073307D01*
X83901439Y-54733543D01*
X82677840Y-55955009D01*
X82014816Y-57551747D01*
X82013307Y-59280668D01*
X78867000Y-59280668D01*
X78867000Y-53520000D01*
X95926536Y-53520000D01*
X95926536Y-55420000D01*
X95953103Y-55561190D01*
X96036546Y-55690865D01*
X96163866Y-55777859D01*
X96315000Y-55808464D01*
X98715000Y-55808464D01*
X98856190Y-55781897D01*
X98985865Y-55698454D01*
X99072859Y-55571134D01*
X99103464Y-55420000D01*
X99103464Y-53520000D01*
X99076897Y-53378810D01*
X99042915Y-53326000D01*
X99144807Y-53326000D01*
X99186546Y-53390865D01*
X99313866Y-53477859D01*
X99465000Y-53508464D01*
X101015000Y-53508464D01*
X101156190Y-53481897D01*
X101285865Y-53398454D01*
X101372859Y-53271134D01*
X101403464Y-53120000D01*
X101403464Y-52520000D01*
X101376897Y-52378810D01*
X101342915Y-52326000D01*
X106220408Y-52326000D01*
X107444000Y-53549592D01*
X107444000Y-68122877D01*
X107373013Y-68193741D01*
X107269118Y-68443946D01*
X107268882Y-68714865D01*
X107372339Y-68965252D01*
X107563741Y-69156987D01*
X107813946Y-69260882D01*
X108084865Y-69261118D01*
X108335252Y-69157661D01*
X108526987Y-68966259D01*
X108630882Y-68716054D01*
X108631052Y-68520000D01*
X115926536Y-68520000D01*
X115926536Y-70420000D01*
X115953103Y-70561190D01*
X116036546Y-70690865D01*
X116163866Y-70777859D01*
X116315000Y-70808464D01*
X118715000Y-70808464D01*
X118856190Y-70781897D01*
X118985865Y-70698454D01*
X119072859Y-70571134D01*
X119103464Y-70420000D01*
X119103464Y-68520000D01*
X119076897Y-68378810D01*
X119042915Y-68326000D01*
X119144807Y-68326000D01*
X119186546Y-68390865D01*
X119313866Y-68477859D01*
X119465000Y-68508464D01*
X121015000Y-68508464D01*
X121156190Y-68481897D01*
X121285865Y-68398454D01*
X121372859Y-68271134D01*
X121403464Y-68120000D01*
X121403464Y-67520000D01*
X121376897Y-67378810D01*
X121342915Y-67326000D01*
X124395408Y-67326000D01*
X125224000Y-68154592D01*
X125224000Y-70662877D01*
X125153013Y-70733741D01*
X125049118Y-70983946D01*
X125048882Y-71254865D01*
X125152339Y-71505252D01*
X125343741Y-71696987D01*
X125593946Y-71800882D01*
X125864865Y-71801118D01*
X126115252Y-71697661D01*
X126306987Y-71506259D01*
X126410882Y-71256054D01*
X126411118Y-70985135D01*
X126307661Y-70734748D01*
X126236000Y-70662962D01*
X126236000Y-68520000D01*
X135926536Y-68520000D01*
X135926536Y-70420000D01*
X135953103Y-70561190D01*
X136036546Y-70690865D01*
X136163866Y-70777859D01*
X136315000Y-70808464D01*
X138715000Y-70808464D01*
X138856190Y-70781897D01*
X138985865Y-70698454D01*
X139072859Y-70571134D01*
X139103464Y-70420000D01*
X139103464Y-68520000D01*
X139076897Y-68378810D01*
X139042915Y-68326000D01*
X139144807Y-68326000D01*
X139186546Y-68390865D01*
X139313866Y-68477859D01*
X139465000Y-68508464D01*
X141015000Y-68508464D01*
X141156190Y-68481897D01*
X141285865Y-68398454D01*
X141372859Y-68271134D01*
X141403464Y-68120000D01*
X141403464Y-67520000D01*
X141376897Y-67378810D01*
X141342915Y-67326000D01*
X142970000Y-67326000D01*
X143163638Y-67287483D01*
X143327796Y-67177796D01*
X144777796Y-65727796D01*
X144864690Y-65597750D01*
X144887483Y-65563638D01*
X144926000Y-65370000D01*
X144926000Y-55049592D01*
X145934561Y-54041031D01*
X146034865Y-54041118D01*
X146285252Y-53937661D01*
X146476987Y-53746259D01*
X146570938Y-53520000D01*
X155926536Y-53520000D01*
X155926536Y-55420000D01*
X155953103Y-55561190D01*
X156036546Y-55690865D01*
X156163866Y-55777859D01*
X156315000Y-55808464D01*
X158715000Y-55808464D01*
X158856190Y-55781897D01*
X158985865Y-55698454D01*
X159072859Y-55571134D01*
X159103464Y-55420000D01*
X159103464Y-53520000D01*
X159076897Y-53378810D01*
X159015692Y-53283695D01*
X159021362Y-53287483D01*
X159134504Y-53309988D01*
X159186546Y-53390865D01*
X159313866Y-53477859D01*
X159465000Y-53508464D01*
X161015000Y-53508464D01*
X161156190Y-53481897D01*
X161285865Y-53398454D01*
X161372859Y-53271134D01*
X161403464Y-53120000D01*
X161403464Y-52520000D01*
X161376897Y-52378810D01*
X161342915Y-52326000D01*
X162810000Y-52326000D01*
X163003638Y-52287483D01*
X163167796Y-52177796D01*
X164187796Y-51157796D01*
X164297483Y-50993638D01*
X164336000Y-50800000D01*
X164336000Y-48260000D01*
X176375631Y-48260000D01*
X176470371Y-48736288D01*
X176740166Y-49140065D01*
X177143943Y-49409860D01*
X177620231Y-49504600D01*
X177979769Y-49504600D01*
X178456057Y-49409860D01*
X178859834Y-49140065D01*
X179129629Y-48736288D01*
X179224369Y-48260000D01*
X191615631Y-48260000D01*
X191710371Y-48736288D01*
X191980166Y-49140065D01*
X192383943Y-49409860D01*
X192860231Y-49504600D01*
X193219769Y-49504600D01*
X193696057Y-49409860D01*
X194099834Y-49140065D01*
X194369629Y-48736288D01*
X194464369Y-48260000D01*
X194369629Y-47783712D01*
X194099834Y-47379935D01*
X193696057Y-47110140D01*
X193219769Y-47015400D01*
X192860231Y-47015400D01*
X192383943Y-47110140D01*
X191980166Y-47379935D01*
X191710371Y-47783712D01*
X191615631Y-48260000D01*
X179224369Y-48260000D01*
X179129629Y-47783712D01*
X178859834Y-47379935D01*
X178456057Y-47110140D01*
X177979769Y-47015400D01*
X177620231Y-47015400D01*
X177143943Y-47110140D01*
X176740166Y-47379935D01*
X176470371Y-47783712D01*
X176375631Y-48260000D01*
X164336000Y-48260000D01*
X164336000Y-46177123D01*
X164406987Y-46106259D01*
X164510882Y-45856054D01*
X164511000Y-45720000D01*
X176375631Y-45720000D01*
X176470371Y-46196288D01*
X176740166Y-46600065D01*
X177143943Y-46869860D01*
X177620231Y-46964600D01*
X177979769Y-46964600D01*
X178456057Y-46869860D01*
X178859834Y-46600065D01*
X179129629Y-46196288D01*
X179224369Y-45720000D01*
X191615631Y-45720000D01*
X191710371Y-46196288D01*
X191980166Y-46600065D01*
X192383943Y-46869860D01*
X192860231Y-46964600D01*
X193219769Y-46964600D01*
X193696057Y-46869860D01*
X194099834Y-46600065D01*
X194369629Y-46196288D01*
X194464369Y-45720000D01*
X194369629Y-45243712D01*
X194099834Y-44839935D01*
X193696057Y-44570140D01*
X193219769Y-44475400D01*
X192860231Y-44475400D01*
X192383943Y-44570140D01*
X191980166Y-44839935D01*
X191710371Y-45243712D01*
X191615631Y-45720000D01*
X179224369Y-45720000D01*
X179129629Y-45243712D01*
X178859834Y-44839935D01*
X178456057Y-44570140D01*
X177979769Y-44475400D01*
X177620231Y-44475400D01*
X177143943Y-44570140D01*
X176740166Y-44839935D01*
X176470371Y-45243712D01*
X176375631Y-45720000D01*
X164511000Y-45720000D01*
X164511118Y-45585135D01*
X164407661Y-45334748D01*
X164216259Y-45143013D01*
X163966054Y-45039118D01*
X163695135Y-45038882D01*
X163444748Y-45142339D01*
X163253013Y-45333741D01*
X163149118Y-45583946D01*
X163148882Y-45854865D01*
X163252339Y-46105252D01*
X163324000Y-46177038D01*
X163324000Y-50590408D01*
X162600408Y-51314000D01*
X161347034Y-51314000D01*
X161396000Y-51195786D01*
X161396000Y-51042250D01*
X161300750Y-50947000D01*
X160367000Y-50947000D01*
X160367000Y-50967000D01*
X160113000Y-50967000D01*
X160113000Y-50947000D01*
X159179250Y-50947000D01*
X159084000Y-51042250D01*
X159084000Y-51195786D01*
X159137368Y-51324627D01*
X159107141Y-51368866D01*
X159076536Y-51520000D01*
X159076536Y-51965944D01*
X158972778Y-51862186D01*
X158808620Y-51752499D01*
X158614982Y-51713982D01*
X158264064Y-51713982D01*
X158193200Y-51642995D01*
X157942995Y-51539100D01*
X157672076Y-51538864D01*
X157421689Y-51642321D01*
X157229954Y-51833723D01*
X157126059Y-52083928D01*
X157125823Y-52354847D01*
X157229280Y-52605234D01*
X157420682Y-52796969D01*
X157670887Y-52900864D01*
X157941806Y-52901100D01*
X158192193Y-52797643D01*
X158263979Y-52725982D01*
X158405390Y-52725982D01*
X158835306Y-53155898D01*
X158715000Y-53131536D01*
X156315000Y-53131536D01*
X156173810Y-53158103D01*
X156044135Y-53241546D01*
X155957141Y-53368866D01*
X155926536Y-53520000D01*
X146570938Y-53520000D01*
X146580882Y-53496054D01*
X146581118Y-53225135D01*
X146477661Y-52974748D01*
X146286259Y-52783013D01*
X146036054Y-52679118D01*
X145765135Y-52678882D01*
X145514748Y-52782339D01*
X145323013Y-52973741D01*
X145219118Y-53223946D01*
X145219030Y-53325378D01*
X144062204Y-54482204D01*
X143952517Y-54646362D01*
X143914000Y-54840000D01*
X143914000Y-65160408D01*
X142760408Y-66314000D01*
X141347034Y-66314000D01*
X141396000Y-66195786D01*
X141396000Y-66042250D01*
X141300750Y-65947000D01*
X140367000Y-65947000D01*
X140367000Y-65967000D01*
X140113000Y-65967000D01*
X140113000Y-65947000D01*
X139179250Y-65947000D01*
X139084000Y-66042250D01*
X139084000Y-66195786D01*
X139137368Y-66324627D01*
X139107141Y-66368866D01*
X139076536Y-66520000D01*
X139076536Y-67120000D01*
X139103103Y-67261190D01*
X139137085Y-67314000D01*
X138514592Y-67314000D01*
X138476031Y-67275439D01*
X138476118Y-67175135D01*
X138372661Y-66924748D01*
X138181259Y-66733013D01*
X137931054Y-66629118D01*
X137660135Y-66628882D01*
X137409748Y-66732339D01*
X137218013Y-66923741D01*
X137114118Y-67173946D01*
X137113882Y-67444865D01*
X137217339Y-67695252D01*
X137408741Y-67886987D01*
X137658946Y-67990882D01*
X137760378Y-67990970D01*
X137900944Y-68131536D01*
X136315000Y-68131536D01*
X136173810Y-68158103D01*
X136044135Y-68241546D01*
X135957141Y-68368866D01*
X135926536Y-68520000D01*
X126236000Y-68520000D01*
X126236000Y-67945000D01*
X126197483Y-67751362D01*
X126087796Y-67587204D01*
X124962796Y-66462204D01*
X124798638Y-66352517D01*
X124605000Y-66314000D01*
X121347034Y-66314000D01*
X121396000Y-66195786D01*
X121396000Y-66042250D01*
X121300750Y-65947000D01*
X120367000Y-65947000D01*
X120367000Y-65967000D01*
X120113000Y-65967000D01*
X120113000Y-65947000D01*
X119179250Y-65947000D01*
X119084000Y-66042250D01*
X119084000Y-66195786D01*
X119137368Y-66324627D01*
X119107141Y-66368866D01*
X119076536Y-66520000D01*
X119076536Y-67120000D01*
X119103103Y-67261190D01*
X119137085Y-67314000D01*
X118829592Y-67314000D01*
X118791031Y-67275439D01*
X118791118Y-67175135D01*
X118687661Y-66924748D01*
X118496259Y-66733013D01*
X118246054Y-66629118D01*
X117975135Y-66628882D01*
X117724748Y-66732339D01*
X117533013Y-66923741D01*
X117429118Y-67173946D01*
X117428882Y-67444865D01*
X117532339Y-67695252D01*
X117723741Y-67886987D01*
X117973946Y-67990882D01*
X118075378Y-67990970D01*
X118215944Y-68131536D01*
X116315000Y-68131536D01*
X116173810Y-68158103D01*
X116044135Y-68241546D01*
X115957141Y-68368866D01*
X115926536Y-68520000D01*
X108631052Y-68520000D01*
X108631118Y-68445135D01*
X108527661Y-68194748D01*
X108456000Y-68122962D01*
X108456000Y-53340000D01*
X108417483Y-53146362D01*
X108307796Y-52982204D01*
X106787796Y-51462204D01*
X106623638Y-51352517D01*
X106430000Y-51314000D01*
X101347034Y-51314000D01*
X101396000Y-51195786D01*
X101396000Y-51042250D01*
X101300750Y-50947000D01*
X100367000Y-50947000D01*
X100367000Y-50967000D01*
X100113000Y-50967000D01*
X100113000Y-50947000D01*
X99179250Y-50947000D01*
X99084000Y-51042250D01*
X99084000Y-51195786D01*
X99137368Y-51324627D01*
X99107141Y-51368866D01*
X99076536Y-51520000D01*
X99076536Y-52120000D01*
X99103103Y-52261190D01*
X99137085Y-52314000D01*
X98361923Y-52314000D01*
X98176259Y-52128013D01*
X97926054Y-52024118D01*
X97655135Y-52023882D01*
X97404748Y-52127339D01*
X97213013Y-52318741D01*
X97109118Y-52568946D01*
X97108882Y-52839865D01*
X97212339Y-53090252D01*
X97253551Y-53131536D01*
X96315000Y-53131536D01*
X96173810Y-53158103D01*
X96044135Y-53241546D01*
X95957141Y-53368866D01*
X95926536Y-53520000D01*
X78867000Y-53520000D01*
X78867000Y-48220000D01*
X95926536Y-48220000D01*
X95926536Y-50120000D01*
X95953103Y-50261190D01*
X96036546Y-50390865D01*
X96163866Y-50477859D01*
X96315000Y-50508464D01*
X98715000Y-50508464D01*
X98856190Y-50481897D01*
X98914751Y-50444214D01*
X99084000Y-50444214D01*
X99084000Y-50597750D01*
X99179250Y-50693000D01*
X100113000Y-50693000D01*
X100113000Y-50234250D01*
X100367000Y-50234250D01*
X100367000Y-50693000D01*
X101300750Y-50693000D01*
X101396000Y-50597750D01*
X101396000Y-50444214D01*
X101337996Y-50304180D01*
X101230819Y-50197004D01*
X101090785Y-50139000D01*
X100462250Y-50139000D01*
X100367000Y-50234250D01*
X100113000Y-50234250D01*
X100017750Y-50139000D01*
X99389215Y-50139000D01*
X99249181Y-50197004D01*
X99142004Y-50304180D01*
X99084000Y-50444214D01*
X98914751Y-50444214D01*
X98985865Y-50398454D01*
X99072859Y-50271134D01*
X99103464Y-50120000D01*
X99103464Y-48220000D01*
X99076897Y-48078810D01*
X98993454Y-47949135D01*
X98866134Y-47862141D01*
X98715000Y-47831536D01*
X96315000Y-47831536D01*
X96173810Y-47858103D01*
X96044135Y-47941546D01*
X95957141Y-48068866D01*
X95926536Y-48220000D01*
X78867000Y-48220000D01*
X78867000Y-43332400D01*
X84853936Y-43332400D01*
X84853936Y-45567600D01*
X84880503Y-45708790D01*
X84963946Y-45838465D01*
X85091266Y-45925459D01*
X85242400Y-45956064D01*
X87477600Y-45956064D01*
X87618790Y-45929497D01*
X87748465Y-45846054D01*
X87835459Y-45718734D01*
X87866064Y-45567600D01*
X87866064Y-43332400D01*
X87839497Y-43191210D01*
X87756054Y-43061535D01*
X87628734Y-42974541D01*
X87477600Y-42943936D01*
X86866000Y-42943936D01*
X86866000Y-38557123D01*
X86903187Y-38520000D01*
X95926536Y-38520000D01*
X95926536Y-40420000D01*
X95953103Y-40561190D01*
X96036546Y-40690865D01*
X96163866Y-40777859D01*
X96315000Y-40808464D01*
X98715000Y-40808464D01*
X98856190Y-40781897D01*
X98985865Y-40698454D01*
X99072859Y-40571134D01*
X99103464Y-40420000D01*
X99103464Y-38520000D01*
X99076897Y-38378810D01*
X99042915Y-38326000D01*
X99144807Y-38326000D01*
X99186546Y-38390865D01*
X99313866Y-38477859D01*
X99465000Y-38508464D01*
X101015000Y-38508464D01*
X101156190Y-38481897D01*
X101285865Y-38398454D01*
X101372859Y-38271134D01*
X101403464Y-38120000D01*
X101403464Y-37520000D01*
X101376897Y-37378810D01*
X101342915Y-37326000D01*
X108365408Y-37326000D01*
X109984000Y-38944592D01*
X109984000Y-63042877D01*
X109913013Y-63113741D01*
X109809118Y-63363946D01*
X109808882Y-63634865D01*
X109912339Y-63885252D01*
X110103741Y-64076987D01*
X110353946Y-64180882D01*
X110624865Y-64181118D01*
X110875252Y-64077661D01*
X111066987Y-63886259D01*
X111170882Y-63636054D01*
X111171118Y-63365135D01*
X111111150Y-63220000D01*
X115926536Y-63220000D01*
X115926536Y-65120000D01*
X115953103Y-65261190D01*
X116036546Y-65390865D01*
X116163866Y-65477859D01*
X116315000Y-65508464D01*
X118715000Y-65508464D01*
X118856190Y-65481897D01*
X118914751Y-65444214D01*
X119084000Y-65444214D01*
X119084000Y-65597750D01*
X119179250Y-65693000D01*
X120113000Y-65693000D01*
X120113000Y-65234250D01*
X120367000Y-65234250D01*
X120367000Y-65693000D01*
X121300750Y-65693000D01*
X121396000Y-65597750D01*
X121396000Y-65444214D01*
X121337996Y-65304180D01*
X121230819Y-65197004D01*
X121090785Y-65139000D01*
X120462250Y-65139000D01*
X120367000Y-65234250D01*
X120113000Y-65234250D01*
X120017750Y-65139000D01*
X119389215Y-65139000D01*
X119249181Y-65197004D01*
X119142004Y-65304180D01*
X119084000Y-65444214D01*
X118914751Y-65444214D01*
X118985865Y-65398454D01*
X119072859Y-65271134D01*
X119103464Y-65120000D01*
X119103464Y-63220000D01*
X119076897Y-63078810D01*
X118993454Y-62949135D01*
X118866134Y-62862141D01*
X118715000Y-62831536D01*
X116315000Y-62831536D01*
X116173810Y-62858103D01*
X116044135Y-62941546D01*
X115957141Y-63068866D01*
X115926536Y-63220000D01*
X111111150Y-63220000D01*
X111067661Y-63114748D01*
X110996000Y-63042962D01*
X110996000Y-53520000D01*
X115926536Y-53520000D01*
X115926536Y-55420000D01*
X115953103Y-55561190D01*
X116036546Y-55690865D01*
X116163866Y-55777859D01*
X116315000Y-55808464D01*
X118715000Y-55808464D01*
X118856190Y-55781897D01*
X118985865Y-55698454D01*
X119072859Y-55571134D01*
X119103464Y-55420000D01*
X119103464Y-53520000D01*
X119076897Y-53378810D01*
X119042915Y-53326000D01*
X119144807Y-53326000D01*
X119186546Y-53390865D01*
X119313866Y-53477859D01*
X119465000Y-53508464D01*
X121015000Y-53508464D01*
X121156190Y-53481897D01*
X121285865Y-53398454D01*
X121372859Y-53271134D01*
X121403464Y-53120000D01*
X121403464Y-52520000D01*
X121376897Y-52378810D01*
X121342915Y-52326000D01*
X126540408Y-52326000D01*
X127764000Y-53549592D01*
X127764000Y-65582877D01*
X127693013Y-65653741D01*
X127589118Y-65903946D01*
X127588882Y-66174865D01*
X127692339Y-66425252D01*
X127883741Y-66616987D01*
X128133946Y-66720882D01*
X128404865Y-66721118D01*
X128655252Y-66617661D01*
X128846987Y-66426259D01*
X128950882Y-66176054D01*
X128951118Y-65905135D01*
X128847661Y-65654748D01*
X128776000Y-65582962D01*
X128776000Y-63220000D01*
X135926536Y-63220000D01*
X135926536Y-65120000D01*
X135953103Y-65261190D01*
X136036546Y-65390865D01*
X136163866Y-65477859D01*
X136315000Y-65508464D01*
X138715000Y-65508464D01*
X138856190Y-65481897D01*
X138914751Y-65444214D01*
X139084000Y-65444214D01*
X139084000Y-65597750D01*
X139179250Y-65693000D01*
X140113000Y-65693000D01*
X140113000Y-65234250D01*
X140367000Y-65234250D01*
X140367000Y-65693000D01*
X141300750Y-65693000D01*
X141396000Y-65597750D01*
X141396000Y-65444214D01*
X141337996Y-65304180D01*
X141230819Y-65197004D01*
X141090785Y-65139000D01*
X140462250Y-65139000D01*
X140367000Y-65234250D01*
X140113000Y-65234250D01*
X140017750Y-65139000D01*
X139389215Y-65139000D01*
X139249181Y-65197004D01*
X139142004Y-65304180D01*
X139084000Y-65444214D01*
X138914751Y-65444214D01*
X138985865Y-65398454D01*
X139072859Y-65271134D01*
X139103464Y-65120000D01*
X139103464Y-63220000D01*
X139076897Y-63078810D01*
X138993454Y-62949135D01*
X138866134Y-62862141D01*
X138715000Y-62831536D01*
X136315000Y-62831536D01*
X136173810Y-62858103D01*
X136044135Y-62941546D01*
X135957141Y-63068866D01*
X135926536Y-63220000D01*
X128776000Y-63220000D01*
X128776000Y-53340000D01*
X128737483Y-53146362D01*
X128627796Y-52982204D01*
X127107796Y-51462204D01*
X126943638Y-51352517D01*
X126750000Y-51314000D01*
X121347034Y-51314000D01*
X121396000Y-51195786D01*
X121396000Y-51042250D01*
X121300750Y-50947000D01*
X120367000Y-50947000D01*
X120367000Y-50967000D01*
X120113000Y-50967000D01*
X120113000Y-50947000D01*
X119179250Y-50947000D01*
X119084000Y-51042250D01*
X119084000Y-51195786D01*
X119137368Y-51324627D01*
X119107141Y-51368866D01*
X119076536Y-51520000D01*
X119076536Y-52120000D01*
X119103103Y-52261190D01*
X119137085Y-52314000D01*
X118434592Y-52314000D01*
X118156031Y-52035439D01*
X118156118Y-51935135D01*
X118052661Y-51684748D01*
X117861259Y-51493013D01*
X117611054Y-51389118D01*
X117340135Y-51388882D01*
X117089748Y-51492339D01*
X116898013Y-51683741D01*
X116794118Y-51933946D01*
X116793882Y-52204865D01*
X116897339Y-52455252D01*
X117088741Y-52646987D01*
X117338946Y-52750882D01*
X117440378Y-52750970D01*
X117820944Y-53131536D01*
X116315000Y-53131536D01*
X116173810Y-53158103D01*
X116044135Y-53241546D01*
X115957141Y-53368866D01*
X115926536Y-53520000D01*
X110996000Y-53520000D01*
X110996000Y-48220000D01*
X115926536Y-48220000D01*
X115926536Y-50120000D01*
X115953103Y-50261190D01*
X116036546Y-50390865D01*
X116163866Y-50477859D01*
X116315000Y-50508464D01*
X118715000Y-50508464D01*
X118856190Y-50481897D01*
X118914751Y-50444214D01*
X119084000Y-50444214D01*
X119084000Y-50597750D01*
X119179250Y-50693000D01*
X120113000Y-50693000D01*
X120113000Y-50234250D01*
X120367000Y-50234250D01*
X120367000Y-50693000D01*
X121300750Y-50693000D01*
X121396000Y-50597750D01*
X121396000Y-50444214D01*
X121337996Y-50304180D01*
X121230819Y-50197004D01*
X121090785Y-50139000D01*
X120462250Y-50139000D01*
X120367000Y-50234250D01*
X120113000Y-50234250D01*
X120017750Y-50139000D01*
X119389215Y-50139000D01*
X119249181Y-50197004D01*
X119142004Y-50304180D01*
X119084000Y-50444214D01*
X118914751Y-50444214D01*
X118985865Y-50398454D01*
X119072859Y-50271134D01*
X119103464Y-50120000D01*
X119103464Y-48220000D01*
X119076897Y-48078810D01*
X118993454Y-47949135D01*
X118866134Y-47862141D01*
X118715000Y-47831536D01*
X116315000Y-47831536D01*
X116173810Y-47858103D01*
X116044135Y-47941546D01*
X115957141Y-48068866D01*
X115926536Y-48220000D01*
X110996000Y-48220000D01*
X110996000Y-38735000D01*
X110957483Y-38541362D01*
X110943210Y-38520000D01*
X115926536Y-38520000D01*
X115926536Y-40420000D01*
X115953103Y-40561190D01*
X116036546Y-40690865D01*
X116163866Y-40777859D01*
X116315000Y-40808464D01*
X118715000Y-40808464D01*
X118856190Y-40781897D01*
X118985865Y-40698454D01*
X119072859Y-40571134D01*
X119103464Y-40420000D01*
X119103464Y-38520000D01*
X119076897Y-38378810D01*
X119034536Y-38312978D01*
X119100000Y-38326000D01*
X119144807Y-38326000D01*
X119186546Y-38390865D01*
X119313866Y-38477859D01*
X119465000Y-38508464D01*
X121015000Y-38508464D01*
X121156190Y-38481897D01*
X121285865Y-38398454D01*
X121372859Y-38271134D01*
X121403464Y-38120000D01*
X121403464Y-37520000D01*
X121376897Y-37378810D01*
X121342915Y-37326000D01*
X131225408Y-37326000D01*
X131574000Y-37674592D01*
X131574000Y-60502877D01*
X131503013Y-60573741D01*
X131399118Y-60823946D01*
X131398882Y-61094865D01*
X131502339Y-61345252D01*
X131693741Y-61536987D01*
X131943946Y-61640882D01*
X132214865Y-61641118D01*
X132465252Y-61537661D01*
X132656987Y-61346259D01*
X132760882Y-61096054D01*
X132761118Y-60825135D01*
X132657661Y-60574748D01*
X132586000Y-60502962D01*
X132586000Y-53520000D01*
X135926536Y-53520000D01*
X135926536Y-55420000D01*
X135953103Y-55561190D01*
X136036546Y-55690865D01*
X136163866Y-55777859D01*
X136315000Y-55808464D01*
X138715000Y-55808464D01*
X138856190Y-55781897D01*
X138985865Y-55698454D01*
X139072859Y-55571134D01*
X139103464Y-55420000D01*
X139103464Y-53520000D01*
X139076897Y-53378810D01*
X139042915Y-53326000D01*
X139144807Y-53326000D01*
X139186546Y-53390865D01*
X139313866Y-53477859D01*
X139465000Y-53508464D01*
X141015000Y-53508464D01*
X141156190Y-53481897D01*
X141285865Y-53398454D01*
X141372859Y-53271134D01*
X141403464Y-53120000D01*
X141403464Y-52520000D01*
X141376897Y-52378810D01*
X141342915Y-52326000D01*
X143125000Y-52326000D01*
X143318638Y-52287483D01*
X143482796Y-52177796D01*
X143867796Y-51792796D01*
X143977483Y-51628638D01*
X144016000Y-51435000D01*
X144016000Y-48717123D01*
X144086987Y-48646259D01*
X144190882Y-48396054D01*
X144191035Y-48220000D01*
X155926536Y-48220000D01*
X155926536Y-50120000D01*
X155953103Y-50261190D01*
X156036546Y-50390865D01*
X156163866Y-50477859D01*
X156315000Y-50508464D01*
X158715000Y-50508464D01*
X158856190Y-50481897D01*
X158914751Y-50444214D01*
X159084000Y-50444214D01*
X159084000Y-50597750D01*
X159179250Y-50693000D01*
X160113000Y-50693000D01*
X160113000Y-50234250D01*
X160367000Y-50234250D01*
X160367000Y-50693000D01*
X161300750Y-50693000D01*
X161396000Y-50597750D01*
X161396000Y-50444214D01*
X161337996Y-50304180D01*
X161230819Y-50197004D01*
X161090785Y-50139000D01*
X160462250Y-50139000D01*
X160367000Y-50234250D01*
X160113000Y-50234250D01*
X160017750Y-50139000D01*
X159389215Y-50139000D01*
X159249181Y-50197004D01*
X159142004Y-50304180D01*
X159084000Y-50444214D01*
X158914751Y-50444214D01*
X158985865Y-50398454D01*
X159072859Y-50271134D01*
X159103464Y-50120000D01*
X159103464Y-48220000D01*
X159076897Y-48078810D01*
X158993454Y-47949135D01*
X158866134Y-47862141D01*
X158715000Y-47831536D01*
X156315000Y-47831536D01*
X156173810Y-47858103D01*
X156044135Y-47941546D01*
X155957141Y-48068866D01*
X155926536Y-48220000D01*
X144191035Y-48220000D01*
X144191118Y-48125135D01*
X144087661Y-47874748D01*
X143896259Y-47683013D01*
X143646054Y-47579118D01*
X143375135Y-47578882D01*
X143124748Y-47682339D01*
X142933013Y-47873741D01*
X142829118Y-48123946D01*
X142828882Y-48394865D01*
X142932339Y-48645252D01*
X143004000Y-48717038D01*
X143004000Y-51225408D01*
X142915408Y-51314000D01*
X141347034Y-51314000D01*
X141396000Y-51195786D01*
X141396000Y-51042250D01*
X141300750Y-50947000D01*
X140367000Y-50947000D01*
X140367000Y-50967000D01*
X140113000Y-50967000D01*
X140113000Y-50947000D01*
X139179250Y-50947000D01*
X139084000Y-51042250D01*
X139084000Y-51195786D01*
X139137368Y-51324627D01*
X139107141Y-51368866D01*
X139076536Y-51520000D01*
X139076536Y-52120000D01*
X139103103Y-52261190D01*
X139137085Y-52314000D01*
X138119592Y-52314000D01*
X137841031Y-52035439D01*
X137841118Y-51935135D01*
X137737661Y-51684748D01*
X137546259Y-51493013D01*
X137296054Y-51389118D01*
X137025135Y-51388882D01*
X136774748Y-51492339D01*
X136583013Y-51683741D01*
X136479118Y-51933946D01*
X136478882Y-52204865D01*
X136582339Y-52455252D01*
X136773741Y-52646987D01*
X137023946Y-52750882D01*
X137125378Y-52750970D01*
X137505944Y-53131536D01*
X136315000Y-53131536D01*
X136173810Y-53158103D01*
X136044135Y-53241546D01*
X135957141Y-53368866D01*
X135926536Y-53520000D01*
X132586000Y-53520000D01*
X132586000Y-48220000D01*
X135926536Y-48220000D01*
X135926536Y-50120000D01*
X135953103Y-50261190D01*
X136036546Y-50390865D01*
X136163866Y-50477859D01*
X136315000Y-50508464D01*
X138715000Y-50508464D01*
X138856190Y-50481897D01*
X138914751Y-50444214D01*
X139084000Y-50444214D01*
X139084000Y-50597750D01*
X139179250Y-50693000D01*
X140113000Y-50693000D01*
X140113000Y-50234250D01*
X140367000Y-50234250D01*
X140367000Y-50693000D01*
X141300750Y-50693000D01*
X141396000Y-50597750D01*
X141396000Y-50444214D01*
X141337996Y-50304180D01*
X141230819Y-50197004D01*
X141090785Y-50139000D01*
X140462250Y-50139000D01*
X140367000Y-50234250D01*
X140113000Y-50234250D01*
X140017750Y-50139000D01*
X139389215Y-50139000D01*
X139249181Y-50197004D01*
X139142004Y-50304180D01*
X139084000Y-50444214D01*
X138914751Y-50444214D01*
X138985865Y-50398454D01*
X139072859Y-50271134D01*
X139103464Y-50120000D01*
X139103464Y-48220000D01*
X139076897Y-48078810D01*
X138993454Y-47949135D01*
X138866134Y-47862141D01*
X138715000Y-47831536D01*
X136315000Y-47831536D01*
X136173810Y-47858103D01*
X136044135Y-47941546D01*
X135957141Y-48068866D01*
X135926536Y-48220000D01*
X132586000Y-48220000D01*
X132586000Y-38520000D01*
X135926536Y-38520000D01*
X135926536Y-40420000D01*
X135953103Y-40561190D01*
X136036546Y-40690865D01*
X136163866Y-40777859D01*
X136315000Y-40808464D01*
X138715000Y-40808464D01*
X138856190Y-40781897D01*
X138985865Y-40698454D01*
X139072859Y-40571134D01*
X139103464Y-40420000D01*
X139103464Y-38520000D01*
X139076897Y-38378810D01*
X139042915Y-38326000D01*
X139144807Y-38326000D01*
X139186546Y-38390865D01*
X139313866Y-38477859D01*
X139465000Y-38508464D01*
X141015000Y-38508464D01*
X141156190Y-38481897D01*
X141285865Y-38398454D01*
X141372859Y-38271134D01*
X141403464Y-38120000D01*
X141403464Y-37520000D01*
X141376897Y-37378810D01*
X141349350Y-37336000D01*
X142030408Y-37336000D01*
X143004000Y-38309592D01*
X143004000Y-42722877D01*
X142933013Y-42793741D01*
X142829118Y-43043946D01*
X142828882Y-43314865D01*
X142932339Y-43565252D01*
X143123741Y-43756987D01*
X143373946Y-43860882D01*
X143644865Y-43861118D01*
X143895252Y-43757661D01*
X144086987Y-43566259D01*
X144190882Y-43316054D01*
X144191000Y-43180000D01*
X176375631Y-43180000D01*
X176470371Y-43656288D01*
X176740166Y-44060065D01*
X177143943Y-44329860D01*
X177620231Y-44424600D01*
X177979769Y-44424600D01*
X178456057Y-44329860D01*
X178859834Y-44060065D01*
X179129629Y-43656288D01*
X179224369Y-43180000D01*
X191615631Y-43180000D01*
X191710371Y-43656288D01*
X191980166Y-44060065D01*
X192383943Y-44329860D01*
X192860231Y-44424600D01*
X193219769Y-44424600D01*
X193696057Y-44329860D01*
X194099834Y-44060065D01*
X194369629Y-43656288D01*
X194464369Y-43180000D01*
X194369629Y-42703712D01*
X194099834Y-42299935D01*
X193696057Y-42030140D01*
X193219769Y-41935400D01*
X192860231Y-41935400D01*
X192383943Y-42030140D01*
X191980166Y-42299935D01*
X191710371Y-42703712D01*
X191615631Y-43180000D01*
X179224369Y-43180000D01*
X179129629Y-42703712D01*
X178859834Y-42299935D01*
X178456057Y-42030140D01*
X177979769Y-41935400D01*
X177620231Y-41935400D01*
X177143943Y-42030140D01*
X176740166Y-42299935D01*
X176470371Y-42703712D01*
X176375631Y-43180000D01*
X144191000Y-43180000D01*
X144191118Y-43045135D01*
X144087661Y-42794748D01*
X144016000Y-42722962D01*
X144016000Y-38520000D01*
X155926536Y-38520000D01*
X155926536Y-40420000D01*
X155953103Y-40561190D01*
X156036546Y-40690865D01*
X156163866Y-40777859D01*
X156315000Y-40808464D01*
X158715000Y-40808464D01*
X158856190Y-40781897D01*
X158985865Y-40698454D01*
X159072859Y-40571134D01*
X159103464Y-40420000D01*
X159103464Y-38520000D01*
X159076897Y-38378810D01*
X159042915Y-38326000D01*
X159144807Y-38326000D01*
X159186546Y-38390865D01*
X159313866Y-38477859D01*
X159465000Y-38508464D01*
X161015000Y-38508464D01*
X161156190Y-38481897D01*
X161285865Y-38398454D01*
X161372859Y-38271134D01*
X161403464Y-38120000D01*
X161403464Y-37520000D01*
X161376897Y-37378810D01*
X161342915Y-37326000D01*
X166150408Y-37326000D01*
X167134000Y-38309592D01*
X167134000Y-40182877D01*
X167063013Y-40253741D01*
X166959118Y-40503946D01*
X166958882Y-40774865D01*
X167062339Y-41025252D01*
X167253741Y-41216987D01*
X167503946Y-41320882D01*
X167774865Y-41321118D01*
X168025252Y-41217661D01*
X168216987Y-41026259D01*
X168320882Y-40776054D01*
X168321000Y-40640000D01*
X176375631Y-40640000D01*
X176470371Y-41116288D01*
X176740166Y-41520065D01*
X177143943Y-41789860D01*
X177620231Y-41884600D01*
X177979769Y-41884600D01*
X178456057Y-41789860D01*
X178859834Y-41520065D01*
X179129629Y-41116288D01*
X179224369Y-40640000D01*
X191615631Y-40640000D01*
X191710371Y-41116288D01*
X191980166Y-41520065D01*
X192383943Y-41789860D01*
X192860231Y-41884600D01*
X193219769Y-41884600D01*
X193696057Y-41789860D01*
X194099834Y-41520065D01*
X194369629Y-41116288D01*
X194464369Y-40640000D01*
X194369629Y-40163712D01*
X194099834Y-39759935D01*
X193696057Y-39490140D01*
X193219769Y-39395400D01*
X192860231Y-39395400D01*
X192383943Y-39490140D01*
X191980166Y-39759935D01*
X191710371Y-40163712D01*
X191615631Y-40640000D01*
X179224369Y-40640000D01*
X179129629Y-40163712D01*
X178859834Y-39759935D01*
X178456057Y-39490140D01*
X177979769Y-39395400D01*
X177620231Y-39395400D01*
X177143943Y-39490140D01*
X176740166Y-39759935D01*
X176470371Y-40163712D01*
X176375631Y-40640000D01*
X168321000Y-40640000D01*
X168321118Y-40505135D01*
X168217661Y-40254748D01*
X168146000Y-40182962D01*
X168146000Y-38100000D01*
X176375631Y-38100000D01*
X176470371Y-38576288D01*
X176740166Y-38980065D01*
X177143943Y-39249860D01*
X177620231Y-39344600D01*
X177979769Y-39344600D01*
X178456057Y-39249860D01*
X178859834Y-38980065D01*
X179129629Y-38576288D01*
X179224369Y-38100000D01*
X191615631Y-38100000D01*
X191710371Y-38576288D01*
X191980166Y-38980065D01*
X192383943Y-39249860D01*
X192860231Y-39344600D01*
X193219769Y-39344600D01*
X193696057Y-39249860D01*
X194099834Y-38980065D01*
X194369629Y-38576288D01*
X194464369Y-38100000D01*
X194369629Y-37623712D01*
X194099834Y-37219935D01*
X193696057Y-36950140D01*
X193219769Y-36855400D01*
X192860231Y-36855400D01*
X192383943Y-36950140D01*
X191980166Y-37219935D01*
X191710371Y-37623712D01*
X191615631Y-38100000D01*
X179224369Y-38100000D01*
X179129629Y-37623712D01*
X178859834Y-37219935D01*
X178456057Y-36950140D01*
X177979769Y-36855400D01*
X177620231Y-36855400D01*
X177143943Y-36950140D01*
X176740166Y-37219935D01*
X176470371Y-37623712D01*
X176375631Y-38100000D01*
X168146000Y-38100000D01*
X168107483Y-37906362D01*
X167997796Y-37742204D01*
X166717796Y-36462204D01*
X166553638Y-36352517D01*
X166360000Y-36314000D01*
X161347034Y-36314000D01*
X161396000Y-36195786D01*
X161396000Y-36042250D01*
X161300750Y-35947000D01*
X160367000Y-35947000D01*
X160367000Y-35967000D01*
X160113000Y-35967000D01*
X160113000Y-35947000D01*
X159179250Y-35947000D01*
X159084000Y-36042250D01*
X159084000Y-36195786D01*
X159137368Y-36324627D01*
X159107141Y-36368866D01*
X159076536Y-36520000D01*
X159076536Y-37120000D01*
X159103103Y-37261190D01*
X159137085Y-37314000D01*
X158679592Y-37314000D01*
X158161031Y-36795439D01*
X158161118Y-36695135D01*
X158057661Y-36444748D01*
X157866259Y-36253013D01*
X157616054Y-36149118D01*
X157345135Y-36148882D01*
X157094748Y-36252339D01*
X156903013Y-36443741D01*
X156799118Y-36693946D01*
X156798882Y-36964865D01*
X156902339Y-37215252D01*
X157093741Y-37406987D01*
X157343946Y-37510882D01*
X157445378Y-37510970D01*
X158065944Y-38131536D01*
X156315000Y-38131536D01*
X156173810Y-38158103D01*
X156044135Y-38241546D01*
X155957141Y-38368866D01*
X155926536Y-38520000D01*
X144016000Y-38520000D01*
X144016000Y-38100000D01*
X143977483Y-37906362D01*
X143867796Y-37742204D01*
X142597796Y-36472204D01*
X142433638Y-36362517D01*
X142240000Y-36324000D01*
X141342892Y-36324000D01*
X141396000Y-36195786D01*
X141396000Y-36042250D01*
X141300750Y-35947000D01*
X140367000Y-35947000D01*
X140367000Y-35967000D01*
X140113000Y-35967000D01*
X140113000Y-35947000D01*
X139179250Y-35947000D01*
X139084000Y-36042250D01*
X139084000Y-36195786D01*
X139137368Y-36324627D01*
X139107141Y-36368866D01*
X139076536Y-36520000D01*
X139076536Y-37120000D01*
X139103103Y-37261190D01*
X139137085Y-37314000D01*
X138994592Y-37314000D01*
X138476031Y-36795439D01*
X138476118Y-36695135D01*
X138372661Y-36444748D01*
X138181259Y-36253013D01*
X137931054Y-36149118D01*
X137660135Y-36148882D01*
X137409748Y-36252339D01*
X137218013Y-36443741D01*
X137114118Y-36693946D01*
X137113882Y-36964865D01*
X137217339Y-37215252D01*
X137408741Y-37406987D01*
X137658946Y-37510882D01*
X137760378Y-37510970D01*
X138380944Y-38131536D01*
X136315000Y-38131536D01*
X136173810Y-38158103D01*
X136044135Y-38241546D01*
X135957141Y-38368866D01*
X135926536Y-38520000D01*
X132586000Y-38520000D01*
X132586000Y-37465000D01*
X132547483Y-37271362D01*
X132437796Y-37107204D01*
X131792796Y-36462204D01*
X131628638Y-36352517D01*
X131435000Y-36314000D01*
X121347034Y-36314000D01*
X121396000Y-36195786D01*
X121396000Y-36042250D01*
X121300750Y-35947000D01*
X120367000Y-35947000D01*
X120367000Y-35967000D01*
X120113000Y-35967000D01*
X120113000Y-35947000D01*
X119179250Y-35947000D01*
X119084000Y-36042250D01*
X119084000Y-36195786D01*
X119137368Y-36324627D01*
X119107141Y-36368866D01*
X119076536Y-36520000D01*
X119076536Y-37080944D01*
X118791031Y-36795439D01*
X118791118Y-36695135D01*
X118687661Y-36444748D01*
X118496259Y-36253013D01*
X118246054Y-36149118D01*
X117975135Y-36148882D01*
X117724748Y-36252339D01*
X117533013Y-36443741D01*
X117429118Y-36693946D01*
X117428882Y-36964865D01*
X117532339Y-37215252D01*
X117723741Y-37406987D01*
X117973946Y-37510882D01*
X118075378Y-37510970D01*
X118695944Y-38131536D01*
X116315000Y-38131536D01*
X116173810Y-38158103D01*
X116044135Y-38241546D01*
X115957141Y-38368866D01*
X115926536Y-38520000D01*
X110943210Y-38520000D01*
X110847796Y-38377204D01*
X108932796Y-36462204D01*
X108768638Y-36352517D01*
X108575000Y-36314000D01*
X101347034Y-36314000D01*
X101396000Y-36195786D01*
X101396000Y-36042250D01*
X101300750Y-35947000D01*
X100367000Y-35947000D01*
X100367000Y-35967000D01*
X100113000Y-35967000D01*
X100113000Y-35947000D01*
X99179250Y-35947000D01*
X99084000Y-36042250D01*
X99084000Y-36195786D01*
X99137368Y-36324627D01*
X99107141Y-36368866D01*
X99076536Y-36520000D01*
X99076536Y-37120000D01*
X99103103Y-37261190D01*
X99137085Y-37314000D01*
X98989592Y-37314000D01*
X98471031Y-36795439D01*
X98471118Y-36695135D01*
X98367661Y-36444748D01*
X98176259Y-36253013D01*
X97926054Y-36149118D01*
X97655135Y-36148882D01*
X97404748Y-36252339D01*
X97213013Y-36443741D01*
X97109118Y-36693946D01*
X97108882Y-36964865D01*
X97212339Y-37215252D01*
X97403741Y-37406987D01*
X97653946Y-37510882D01*
X97755378Y-37510970D01*
X98375944Y-38131536D01*
X96315000Y-38131536D01*
X96173810Y-38158103D01*
X96044135Y-38241546D01*
X95957141Y-38368866D01*
X95926536Y-38520000D01*
X86903187Y-38520000D01*
X86936987Y-38486259D01*
X87040882Y-38236054D01*
X87041118Y-37965135D01*
X86937661Y-37714748D01*
X86746259Y-37523013D01*
X86496054Y-37419118D01*
X86225135Y-37418882D01*
X85974748Y-37522339D01*
X85783013Y-37713741D01*
X85679118Y-37963946D01*
X85678882Y-38234865D01*
X85782339Y-38485252D01*
X85854000Y-38557038D01*
X85854000Y-42943936D01*
X85242400Y-42943936D01*
X85101210Y-42970503D01*
X84971535Y-43053946D01*
X84884541Y-43181266D01*
X84853936Y-43332400D01*
X78867000Y-43332400D01*
X78867000Y-35879118D01*
X176444607Y-35879118D01*
X176654581Y-36312867D01*
X177018280Y-36635570D01*
X177477787Y-36794527D01*
X177673000Y-36710643D01*
X177673000Y-35687000D01*
X177927000Y-35687000D01*
X177927000Y-36710643D01*
X178122213Y-36794527D01*
X178581720Y-36635570D01*
X178945419Y-36312867D01*
X179155393Y-35879118D01*
X179094712Y-35687000D01*
X177927000Y-35687000D01*
X177673000Y-35687000D01*
X176505288Y-35687000D01*
X176444607Y-35879118D01*
X78867000Y-35879118D01*
X78867000Y-33442022D01*
X84228631Y-33442022D01*
X84552373Y-34225538D01*
X85151309Y-34825521D01*
X85934258Y-35150630D01*
X86782022Y-35151369D01*
X87565538Y-34827627D01*
X88165521Y-34228691D01*
X88490630Y-33445742D01*
X88490826Y-33220000D01*
X95926536Y-33220000D01*
X95926536Y-35120000D01*
X95953103Y-35261190D01*
X96036546Y-35390865D01*
X96163866Y-35477859D01*
X96315000Y-35508464D01*
X98715000Y-35508464D01*
X98856190Y-35481897D01*
X98914751Y-35444214D01*
X99084000Y-35444214D01*
X99084000Y-35597750D01*
X99179250Y-35693000D01*
X100113000Y-35693000D01*
X100113000Y-35234250D01*
X100367000Y-35234250D01*
X100367000Y-35693000D01*
X101300750Y-35693000D01*
X101396000Y-35597750D01*
X101396000Y-35444214D01*
X101337996Y-35304180D01*
X101230819Y-35197004D01*
X101090785Y-35139000D01*
X100462250Y-35139000D01*
X100367000Y-35234250D01*
X100113000Y-35234250D01*
X100017750Y-35139000D01*
X99389215Y-35139000D01*
X99249181Y-35197004D01*
X99142004Y-35304180D01*
X99084000Y-35444214D01*
X98914751Y-35444214D01*
X98985865Y-35398454D01*
X99072859Y-35271134D01*
X99103464Y-35120000D01*
X99103464Y-33220000D01*
X115926536Y-33220000D01*
X115926536Y-35120000D01*
X115953103Y-35261190D01*
X116036546Y-35390865D01*
X116163866Y-35477859D01*
X116315000Y-35508464D01*
X118715000Y-35508464D01*
X118856190Y-35481897D01*
X118914751Y-35444214D01*
X119084000Y-35444214D01*
X119084000Y-35597750D01*
X119179250Y-35693000D01*
X120113000Y-35693000D01*
X120113000Y-35234250D01*
X120367000Y-35234250D01*
X120367000Y-35693000D01*
X121300750Y-35693000D01*
X121396000Y-35597750D01*
X121396000Y-35444214D01*
X121337996Y-35304180D01*
X121230819Y-35197004D01*
X121090785Y-35139000D01*
X120462250Y-35139000D01*
X120367000Y-35234250D01*
X120113000Y-35234250D01*
X120017750Y-35139000D01*
X119389215Y-35139000D01*
X119249181Y-35197004D01*
X119142004Y-35304180D01*
X119084000Y-35444214D01*
X118914751Y-35444214D01*
X118985865Y-35398454D01*
X119072859Y-35271134D01*
X119103464Y-35120000D01*
X119103464Y-33220000D01*
X135926536Y-33220000D01*
X135926536Y-35120000D01*
X135953103Y-35261190D01*
X136036546Y-35390865D01*
X136163866Y-35477859D01*
X136315000Y-35508464D01*
X138715000Y-35508464D01*
X138856190Y-35481897D01*
X138914751Y-35444214D01*
X139084000Y-35444214D01*
X139084000Y-35597750D01*
X139179250Y-35693000D01*
X140113000Y-35693000D01*
X140113000Y-35234250D01*
X140367000Y-35234250D01*
X140367000Y-35693000D01*
X141300750Y-35693000D01*
X141396000Y-35597750D01*
X141396000Y-35444214D01*
X141337996Y-35304180D01*
X141230819Y-35197004D01*
X141090785Y-35139000D01*
X140462250Y-35139000D01*
X140367000Y-35234250D01*
X140113000Y-35234250D01*
X140017750Y-35139000D01*
X139389215Y-35139000D01*
X139249181Y-35197004D01*
X139142004Y-35304180D01*
X139084000Y-35444214D01*
X138914751Y-35444214D01*
X138985865Y-35398454D01*
X139072859Y-35271134D01*
X139103464Y-35120000D01*
X139103464Y-33220000D01*
X155926536Y-33220000D01*
X155926536Y-35120000D01*
X155953103Y-35261190D01*
X156036546Y-35390865D01*
X156163866Y-35477859D01*
X156315000Y-35508464D01*
X158715000Y-35508464D01*
X158856190Y-35481897D01*
X158914751Y-35444214D01*
X159084000Y-35444214D01*
X159084000Y-35597750D01*
X159179250Y-35693000D01*
X160113000Y-35693000D01*
X160113000Y-35234250D01*
X160367000Y-35234250D01*
X160367000Y-35693000D01*
X161300750Y-35693000D01*
X161396000Y-35597750D01*
X161396000Y-35444214D01*
X161337996Y-35304180D01*
X161274698Y-35240882D01*
X176444607Y-35240882D01*
X176505288Y-35433000D01*
X177673000Y-35433000D01*
X177673000Y-34409357D01*
X177927000Y-34409357D01*
X177927000Y-35433000D01*
X179094712Y-35433000D01*
X179155393Y-35240882D01*
X178945419Y-34807133D01*
X178581720Y-34484430D01*
X178122213Y-34325473D01*
X177927000Y-34409357D01*
X177673000Y-34409357D01*
X177477787Y-34325473D01*
X177018280Y-34484430D01*
X176654581Y-34807133D01*
X176444607Y-35240882D01*
X161274698Y-35240882D01*
X161230819Y-35197004D01*
X161090785Y-35139000D01*
X160462250Y-35139000D01*
X160367000Y-35234250D01*
X160113000Y-35234250D01*
X160017750Y-35139000D01*
X159389215Y-35139000D01*
X159249181Y-35197004D01*
X159142004Y-35304180D01*
X159084000Y-35444214D01*
X158914751Y-35444214D01*
X158985865Y-35398454D01*
X159072859Y-35271134D01*
X159103464Y-35120000D01*
X159103464Y-33220000D01*
X159076897Y-33078810D01*
X159039055Y-33020000D01*
X176375631Y-33020000D01*
X176470371Y-33496288D01*
X176740166Y-33900065D01*
X177143943Y-34169860D01*
X177620231Y-34264600D01*
X177979769Y-34264600D01*
X178456057Y-34169860D01*
X178859834Y-33900065D01*
X179129629Y-33496288D01*
X179140423Y-33442022D01*
X183288631Y-33442022D01*
X183612373Y-34225538D01*
X184211309Y-34825521D01*
X184994258Y-35150630D01*
X185842022Y-35151369D01*
X186625538Y-34827627D01*
X187225521Y-34228691D01*
X187550630Y-33445742D01*
X187551369Y-32597978D01*
X187227627Y-31814462D01*
X186628691Y-31214479D01*
X185845742Y-30889370D01*
X184997978Y-30888631D01*
X184214462Y-31212373D01*
X183614479Y-31811309D01*
X183289370Y-32594258D01*
X183288631Y-33442022D01*
X179140423Y-33442022D01*
X179224369Y-33020000D01*
X179129629Y-32543712D01*
X178859834Y-32139935D01*
X178456057Y-31870140D01*
X177979769Y-31775400D01*
X177620231Y-31775400D01*
X177143943Y-31870140D01*
X176740166Y-32139935D01*
X176470371Y-32543712D01*
X176375631Y-33020000D01*
X159039055Y-33020000D01*
X158993454Y-32949135D01*
X158866134Y-32862141D01*
X158715000Y-32831536D01*
X156315000Y-32831536D01*
X156173810Y-32858103D01*
X156044135Y-32941546D01*
X155957141Y-33068866D01*
X155926536Y-33220000D01*
X139103464Y-33220000D01*
X139076897Y-33078810D01*
X138993454Y-32949135D01*
X138866134Y-32862141D01*
X138715000Y-32831536D01*
X136315000Y-32831536D01*
X136173810Y-32858103D01*
X136044135Y-32941546D01*
X135957141Y-33068866D01*
X135926536Y-33220000D01*
X119103464Y-33220000D01*
X119076897Y-33078810D01*
X118993454Y-32949135D01*
X118866134Y-32862141D01*
X118715000Y-32831536D01*
X116315000Y-32831536D01*
X116173810Y-32858103D01*
X116044135Y-32941546D01*
X115957141Y-33068866D01*
X115926536Y-33220000D01*
X99103464Y-33220000D01*
X99076897Y-33078810D01*
X98993454Y-32949135D01*
X98866134Y-32862141D01*
X98715000Y-32831536D01*
X96315000Y-32831536D01*
X96173810Y-32858103D01*
X96044135Y-32941546D01*
X95957141Y-33068866D01*
X95926536Y-33220000D01*
X88490826Y-33220000D01*
X88491369Y-32597978D01*
X88167627Y-31814462D01*
X87568691Y-31214479D01*
X86785742Y-30889370D01*
X85937978Y-30888631D01*
X85154462Y-31212373D01*
X84554479Y-31811309D01*
X84229370Y-32594258D01*
X84228631Y-33442022D01*
X78867000Y-33442022D01*
X78867000Y-30607000D01*
X200533000Y-30607000D01*
X200533000Y-86233000D01*
M02*
